<?xml version="1.0" encoding="UTF-8" standalone="no"?>
<svg
   xmlns:dc="http://purl.org/dc/elements/1.1/"
   xmlns:cc="http://creativecommons.org/ns#"
   xmlns:rdf="http://www.w3.org/1999/02/22-rdf-syntax-ns#"
   xmlns:svg="http://www.w3.org/2000/svg"
   xmlns="http://www.w3.org/2000/svg"
   xmlns:sodipodi="http://sodipodi.sourceforge.net/DTD/sodipodi-0.dtd"
   xmlns:inkscape="http://www.inkscape.org/namespaces/inkscape"
   width="114mm"
   height="123mm"
   viewBox="0 0 114 123"
   version="1.1"
   preserveAspectRatio="xMidYMid meet"
   id="svg168"
   sodipodi:docname="LCR.svg"
   inkscape:version="1.0.1 (3bc2e813f5, 2020-09-07)">
  <metadata
     id="metadata174">
    <rdf:RDF>
      <cc:Work
         rdf:about="">
        <dc:format>image/svg+xml</dc:format>
        <dc:type
           rdf:resource="http://purl.org/dc/dcmitype/StillImage" />
        <dc:title />
      </cc:Work>
    </rdf:RDF>
  </metadata>
  <defs
     id="defs172" />
  <sodipodi:namedview
     pagecolor="#ffffff"
     bordercolor="#666666"
     borderopacity="1"
     objecttolerance="10"
     gridtolerance="10"
     guidetolerance="10"
     inkscape:pageopacity="0"
     inkscape:pageshadow="2"
     inkscape:window-width="1920"
     inkscape:window-height="1017"
     id="namedview170"
     showgrid="false"
     inkscape:zoom="1.8284214"
     inkscape:cx="22.202236"
     inkscape:cy="166.39758"
     inkscape:window-x="-8"
     inkscape:window-y="-8"
     inkscape:window-maximized="1"
     inkscape:current-layer="text14-4"
     inkscape:document-rotation="0" />
  <path
     style="fill:none;fill-rule:evenodd;stroke:#ff0000;stroke-width:0.5;stroke-linecap:round;stroke-miterlimit:4;stroke-dasharray:none"
     d="m 42.25,81.25 h 8.25 v -3 H 58 v 3 h 7.5 0.75 V 73 h -3 v -7.5 h 3 V 58 57.25 H 58 v 3 h -7.5 v -3 H 43 42.25 v 8.25 h 3 V 73 h -3 v 7.5 z"
     id="front_outsideCutPath" />
  <path
     style="fill:none;fill-rule:evenodd;stroke:#ff0000;stroke-width:0.5;stroke-linecap:round;stroke-miterlimit:4;stroke-dasharray:none"
     d="m 42.25,57.25 h 8.25 v 3 H 58 v -3 h 7.5 0.75"
     id="path1039" />
  <path
     style="fill:none;fill-rule:evenodd;stroke:#ff0000;stroke-width:0.5;stroke-linecap:round;stroke-miterlimit:4;stroke-dasharray:none"
     d="M 66.25,3.25 H 58 v -3 h -7.5 v 3 H 43 42.25"
     id="left_outsideCutPath" />
  <path
     style="fill:none;fill-rule:evenodd;stroke:#ff0000;stroke-width:0.5;stroke-linecap:round;stroke-miterlimit:4;stroke-dasharray:none"
     d="M 84.25,57.25 V 49 h 3 v -7.5 h -3 V 34 h 3 v -7.5 h -3 V 19 h 3 v -7.5 h -3 V 4 3.25 H 79 v -3 h -7.5 v 3 h -5.25 v 8.25 h -3 V 19 h 3 v 7.5 h -3 V 34 h 3 v 7.5 h -3 V 49 h 3 v 7.5 0.75 h 5.25 v 3 H 79 v -3 z"
     id="top_outsideCutPath" />
  <path
     style="fill:none;fill-rule:evenodd;stroke:#ff0000;stroke-width:0.5;stroke-linecap:round;stroke-miterlimit:4;stroke-dasharray:none"
     d="m 0.25,81.25 h 8.2499997 v -3 H 16 v 3 h 7.5 0.75 V 73 h -3 v -7.5 h 3 V 58 57.25 H 16 v 3 H 8.4999997 v -3 H 1 0.25 v 8.25 h 3 V 73 h -3 v 7.5 z"
     id="back_outsideCutPath" />
  <path
     style="fill:none;fill-rule:evenodd;stroke:#ff0000;stroke-width:0.5;stroke-linecap:round;stroke-miterlimit:4;stroke-dasharray:none"
     d="M 24.25,3.25 H 16 v -3 H 8.5 v 3 H 1 0.25 v 8.25 h 3 V 19 h -3 v 7.5 h 3 V 34 h -3 v 7.5 h 3 V 49 h -3 v 7.5 0.75"
     id="path1035" />
  <path
     style="fill:none;fill-rule:evenodd;stroke:#ff0000;stroke-width:0.5;stroke-linecap:round;stroke-miterlimit:4;stroke-dasharray:none"
     d="M 42.25,57.25 V 49 h 3 v -7.5 h -3 V 34 h 3 v -7.5 h -3 V 19 h 3 v -7.5 h -3 V 4 3.25 H 37 v -3 h -7.5 v 3 h -5.25 v 8.25 h -3 V 19 h 3 v 7.5 h -3 V 34 h 3 v 7.5 h -3 V 49 h 3 v 7.5 0.75 h 5.25 v 3 H 37 v -3 z"
     id="bottom_outsideCutPath" />
  <g
     aria-label="L"
     id="text14-4"
     style="font-style:normal;font-weight:normal;font-size:10.5833px;line-height:1.25;font-family:sans-serif;fill:#000000;fill-opacity:1;stroke:none;stroke-width:0.264583"
     transform="matrix(1.3345684,0,0,1.3345684,-162.95185,-30.142732)">
    <text
       xml:space="preserve"
       style="font-style:normal;font-weight:normal;font-size:7.93013px;line-height:1.25;font-family:sans-serif;fill:#000000;fill-opacity:1;stroke:none;stroke-width:0.198254"
       x="87.278503"
       y="54.781548"
       id="text14-0"><tspan
         sodipodi:role="line"
         id="tspan12-4"
         x="87.278503"
         y="54.781548"
         style="font-style:normal;font-variant:normal;font-weight:normal;font-stretch:normal;font-family:'Geometr415 Blk BT';-inkscape-font-specification:'Geometr415 Blk BT';stroke-width:0.198254">L C R .</tspan></text>
    <g
       aria-label="L C R"
       transform="rotate(90)"
       id="text14"
       style="font-style:normal;font-weight:normal;font-size:7.93013px;line-height:1.25;font-family:sans-serif;fill:#000000;fill-opacity:1;stroke:none;stroke-width:0.198254">
      <path
         d="m 36.011785,-175.67488 v -5.61459 h 1.339758 v 4.41036 h 2.187756 v 1.20423 z"
         style="font-style:normal;font-variant:normal;font-weight:normal;font-stretch:normal;font-family:'Geometr415 Blk BT';-inkscape-font-specification:'Geometr415 Blk BT';stroke-width:0.198254"
         id="path1101" />
      <path
         d="m 46.63692,-179.51217 q -0.36398,-0.37559 -0.739577,-0.55758 -0.371725,-0.18199 -0.782171,-0.18199 -0.712473,0 -1.165513,0.49176 -0.453039,0.49176 -0.453039,1.26231 0,0.77056 0.449167,1.2507 0.449168,0.47628 1.169385,0.47628 0.425934,0 0.847997,-0.17812 0.425935,-0.17812 0.847997,-0.53436 l -0.08519,1.49077 q -0.360108,0.24395 -0.789915,0.37173 -0.425935,0.12778 -0.886719,0.12778 -0.495633,0 -0.952545,-0.15489 -0.453039,-0.15488 -0.83638,-0.45691 -0.542099,-0.42593 -0.832509,-1.03773 -0.286538,-0.61567 -0.286538,-1.33976 0,-0.62341 0.212967,-1.16938 0.212968,-0.54597 0.619542,-0.96416 0.410446,-0.41819 0.948672,-0.63891 0.538227,-0.22458 1.134536,-0.22458 0.4724,0 0.902207,0.13165 0.429807,0.13166 0.820892,0.39883 z"
         style="font-style:normal;font-variant:normal;font-weight:normal;font-stretch:normal;font-family:'Geometr415 Blk BT';-inkscape-font-specification:'Geometr415 Blk BT';stroke-width:0.198254"
         id="path1103" />
      <path
         d="m 51.496448,-180.26723 h -0.220711 v 1.5566 h 0.282665 q 0.50725,0 0.774427,-0.20523 0.267177,-0.20522 0.267177,-0.58856 0,-0.4027 -0.259433,-0.58082 -0.259433,-0.18199 -0.844125,-0.18199 z m -1.521748,4.59235 v -5.61459 h 1.444306 q 0.693111,0 1.072581,0.0929 0.383341,0.0891 0.677623,0.30202 0.313643,0.22459 0.484017,0.55759 0.174246,0.32913 0.174246,0.69698 0,0.53049 -0.27105,0.92932 -0.267177,0.39883 -0.774426,0.62341 l 1.711483,2.41234 h -1.529493 l -1.498516,-2.20325 h -0.189734 v 2.20325 z"
         style="font-style:normal;font-variant:normal;font-weight:normal;font-stretch:normal;font-family:'Geometr415 Blk BT';-inkscape-font-specification:'Geometr415 Blk BT';stroke-width:0.198254"
         id="path1105" />
    </g>
    <text
       xml:space="preserve"
       style="font-style:normal;font-weight:normal;font-size:3.4364px;line-height:1.25;font-family:sans-serif;fill:#000000;fill-opacity:1;stroke:none;stroke-width:0.0524546"
       x="61.055279"
       y="56.090679"
       id="text22"><tspan
         sodipodi:role="line"
         id="tspan20"
         x="61.055279"
         y="56.090679"
         style="font-size:3.4364px;stroke-width:0.0524546">Notes:</tspan><tspan
         sodipodi:role="line"
         x="61.055279"
         y="60.386177"
         style="font-size:3.4364px;stroke-width:0.0524546"
         id="tspan24">Increase letter size to 10mm tall</tspan></text>
  </g>
</svg>
