<?xml version="1.0" encoding="UTF-8" standalone="no"?>
<svg
   xmlns:dc="http://purl.org/dc/elements/1.1/"
   xmlns:cc="http://creativecommons.org/ns#"
   xmlns:rdf="http://www.w3.org/1999/02/22-rdf-syntax-ns#"
   xmlns:svg="http://www.w3.org/2000/svg"
   xmlns="http://www.w3.org/2000/svg"
   xmlns:sodipodi="http://sodipodi.sourceforge.net/DTD/sodipodi-0.dtd"
   xmlns:inkscape="http://www.inkscape.org/namespaces/inkscape"
   width="51mm"
   height="69mm"
   viewBox="0 0 51 69"
   version="1.1"
   id="svg2013"
   inkscape:version="1.0 (4035a4fb49, 2020-05-01)"
   sodipodi:docname="Balloon.svg">
  <defs
     id="defs2007" />
  <sodipodi:namedview
     id="base"
     pagecolor="#ffffff"
     bordercolor="#666666"
     borderopacity="1.0"
     inkscape:pageopacity="0.0"
     inkscape:pageshadow="2"
     inkscape:zoom="2.8"
     inkscape:cx="43.901508"
     inkscape:cy="153.85932"
     inkscape:document-units="mm"
     inkscape:current-layer="layer1"
     inkscape:document-rotation="0"
     showgrid="false"
     inkscape:window-width="1920"
     inkscape:window-height="1137"
     inkscape:window-x="-8"
     inkscape:window-y="-8"
     inkscape:window-maximized="1" />
  <metadata
     id="metadata2010">
    <rdf:RDF>
      <cc:Work
         rdf:about="">
        <dc:format>image/svg+xml</dc:format>
        <dc:type
           rdf:resource="http://purl.org/dc/dcmitype/StillImage" />
        <dc:title />
      </cc:Work>
    </rdf:RDF>
  </metadata>
  <g
     inkscape:label="Layer 1"
     inkscape:groupmode="layer"
     id="layer1">
    <path
       style="fill:none;stroke:#ff0000;stroke-width:0.183044"
       d="m 29.343855,63.550596 c -0.07617,0.799631 0.826139,1.242716 1.486716,1.366646 0.658031,0.12345 1.343868,1.084725 1.343868,1.596745 0,0.3822 -1.207162,1.48146 -1.786588,1.62688 -0.263916,0.0662 -0.846939,0.0223 -1.295605,-0.0977 -0.745262,-0.19932 -0.851456,-0.18465 -1.228664,0.16972 -0.941164,0.88418 -2.532971,0.80798 -3.844121,-0.18401 -0.497099,-0.3761 -0.936114,-0.54833 -1.406606,-0.55184 -0.610047,-0.005 -0.713626,-0.0761 -0.958557,-0.6623 -0.328096,-0.78525 -0.159672,-1.2195 0.631741,-1.62875 0.696427,-0.36014 1.469057,-1.38335 1.465889,-1.94133 -0.0055,-1.00885 -0.208189,-1.27292 -1.385147,-1.80657 -0.636473,-0.28859 -1.264188,-0.61418 -1.394908,-0.72351 -0.130719,-0.10934 -0.735182,-0.55645 -1.34325,-0.99357 -0.608067,-0.43711 -1.720056,-1.48208 -2.471088,-2.32214 -3.06222,-3.42522 -3.600898,-4.04346 -4.47726,-5.13852 -0.503374,-0.62898 -1.473305,-1.89106 -2.155418,-2.8046 -0.6821064,-0.91356 -1.3110664,-1.75043 -1.3976894,-1.85972 -1.3346021,-1.68382 -3.3810101,-5.01336 -4.9967471,-8.12979 -1.034512,-1.99537 -2.921041,-7.49139 -3.26717802,-9.51827 -0.354108,-2.07357 -0.311866,-7.64491 0.07058,-9.309244 C 1.9710045,16.125176 4.1169935,12.249268 7.3811625,8.9940611 c 1.9992121,-1.993717 3.2301455,-2.901459 6.1410025,-4.52862 2.565722,-1.434235 4.638357,-2.298213 7.212035,-3.006339 1.717904,-0.47266599 2.108384,-0.83460516 5.630089,-0.83838116 5.102644,-0.0055 6.749856,0.68303416 10.020163,2.45641016 3.422031,1.855652 7.199561,5.017285 9.169281,7.6742959 1.08201,1.459544 2.59934,4.214546 3.51573,6.383473 1.97677,4.678606 1.79248,12.388257 -0.45033,18.839117 -0.6232,1.79247 -2.39456,5.56351 -3.39233,7.2219 -0.91338,1.51813 -4.97777,8.18976 -6.07513,9.49122 -0.486231,0.57666 -3.2643,3.9953 -4.422051,5.22406 -1.157754,1.22877 -2.695833,2.763605 -3.711003,3.501045 -1.01517,0.73744 -1.589842,1.246821 -1.641355,1.787613 z"
       id="path2590"
       sodipodi:nodetypes="sssccsscsscssssssssscssssssssssszss" />
  </g>
</svg>
