<?xml version="1.0" encoding="UTF-8" standalone="no"?>
<svg
   xmlns:dc="http://purl.org/dc/elements/1.1/"
   xmlns:cc="http://creativecommons.org/ns#"
   xmlns:rdf="http://www.w3.org/1999/02/22-rdf-syntax-ns#"
   xmlns:svg="http://www.w3.org/2000/svg"
   xmlns="http://www.w3.org/2000/svg"
   xmlns:sodipodi="http://sodipodi.sourceforge.net/DTD/sodipodi-0.dtd"
   xmlns:inkscape="http://www.inkscape.org/namespaces/inkscape"
   width="200mm"
   height="200mm"
   viewBox="0 0 200 200"
   version="1.1"
   id="svg163"
   inkscape:version="1.0.1 (3bc2e813f5, 2020-09-07)"
   sodipodi:docname="Flowerpots.svg">
  <defs
     id="defs157" />
  <sodipodi:namedview
     id="base"
     pagecolor="#ffffff"
     bordercolor="#666666"
     borderopacity="1.0"
     inkscape:pageopacity="0.0"
     inkscape:pageshadow="2"
     inkscape:zoom="0.7"
     inkscape:cx="74.782519"
     inkscape:cy="411.36487"
     inkscape:document-units="mm"
     inkscape:current-layer="layer1"
     inkscape:document-rotation="0"
     showgrid="false"
     inkscape:window-width="1920"
     inkscape:window-height="1017"
     inkscape:window-x="-8"
     inkscape:window-y="-8"
     inkscape:window-maximized="1" />
  <metadata
     id="metadata160">
    <rdf:RDF>
      <cc:Work
         rdf:about="">
        <dc:format>image/svg+xml</dc:format>
        <dc:type
           rdf:resource="http://purl.org/dc/dcmitype/StillImage" />
        <dc:title></dc:title>
      </cc:Work>
    </rdf:RDF>
  </metadata>
  <g
     inkscape:label="Layer 1"
     inkscape:groupmode="layer"
     id="layer1">
    <path
       style="fill:none;stroke:#ff0000;stroke-width:0.264583px;stroke-linecap:butt;stroke-linejoin:miter;stroke-opacity:1"
       d="m 6.7675397,17.680544 11.7377233,35.79424 h 52.529218 l 11.38908,-35.79424 c 0,0 4.66638,0.51308 5.81075,-0.813507 1.14437,-1.326585 1.14283,-13.6164852 0.23243,-15.8052522 C 88.011371,-0.03300519 66.749351,0.12060481 45.351269,0.16626481 23.968914,0.21188481 2.4506967,0.14887481 1.4216457,0.94556881 -0.63721202,2.5395668 0.11104968,15.672655 1.3054307,17.099468 c 1.194382,1.426806 5.462109,0.581076 5.462109,0.581076 z"
       id="path140"
       sodipodi:nodetypes="cccczssszc" />
    <path
       style="fill:none;stroke:#ff0000;stroke-width:0.264583px;stroke-linecap:butt;stroke-linejoin:miter;stroke-opacity:1"
       d="M 99.992085,17.680542 111.7298,53.474784 h 52.52922 L 175.6481,17.680542 c 0,0 4.66638,0.51308 5.81075,-0.813506 1.14437,-1.326585 1.14283,-13.6164842 0.23243,-15.8052512 -0.45537,-1.09478999 -21.71739,-0.94117999 -43.11547,-0.89551999 -21.38236,0.04562 -42.900565,-0.01739 -43.929615,0.779304 -2.05886,1.59399799 -1.3106,14.72708519 -0.11622,16.15389819 1.19438,1.42681 5.46211,0.581075 5.46211,0.581075 z"
       id="path140-6"
       sodipodi:nodetypes="cccczssszc" />
    <path
       style="fill:none;stroke:#ff0000;stroke-width:0.264583px;stroke-linecap:butt;stroke-linejoin:miter;stroke-opacity:1"
       d="M 6.7675387,75.25637 18.505263,111.05061 H 71.034479 L 82.423556,75.25637 c 0,0 4.666382,0.51308 5.810752,-0.813506 1.144374,-1.326585 1.142836,-13.616484 0.232432,-15.805251 -0.45537,-1.09479 -21.717389,-0.94118 -43.115471,-0.89552 -21.382355,0.04562 -42.9005723,-0.01739 -43.9296233,0.779304 -2.05885872,1.593998 -1.31059602,14.727085 -0.116215,16.153898 1.194382,1.42681 5.462108,0.581075 5.462108,0.581075 z"
       id="path140-4"
       sodipodi:nodetypes="cccczssszc" />
    <path
       style="fill:none;stroke:#ff0000;stroke-width:0.264583px;stroke-linecap:butt;stroke-linejoin:miter;stroke-opacity:1"
       d="m 99.992085,75.256369 11.737725,35.794241 h 52.52921 L 175.6481,75.256369 c 0,0 4.66638,0.51308 5.81075,-0.813506 1.14437,-1.326585 1.14284,-13.616485 0.23243,-15.805252 -0.45537,-1.09479 -21.71739,-0.94118 -43.11547,-0.895519 -21.38235,0.04562 -42.900565,-0.01739 -43.929615,0.779303 -2.05886,1.593998 -1.3106,14.727086 -0.11622,16.153899 1.19439,1.42681 5.46211,0.581075 5.46211,0.581075 z"
       id="path140-0"
       sodipodi:nodetypes="cccczssszc" />
    <path
       style="fill:none;stroke:#ff0000;stroke-width:0.264583px;stroke-linecap:butt;stroke-linejoin:miter;stroke-opacity:1"
       d="M 6.7675387,132.8322 18.505263,168.62644 H 71.034479 L 82.423556,132.8322 c 0,0 4.666382,0.51308 5.810752,-0.81351 1.144374,-1.32658 1.142836,-13.61648 0.232432,-15.80525 -0.45537,-1.09479 -21.717389,-0.94118 -43.115471,-0.89552 -21.382355,0.0456 -42.9005723,-0.0174 -43.9296233,0.77931 -2.05885872,1.594 -1.31059602,14.72708 -0.116215,16.1539 1.194382,1.42681 5.462108,0.58107 5.462108,0.58107 z"
       id="path140-1"
       sodipodi:nodetypes="cccczssszc" />
    <path
       style="fill:none;stroke:#ff0000;stroke-width:0.264583px;stroke-linecap:butt;stroke-linejoin:miter;stroke-opacity:1"
       d="m 99.992085,132.83219 11.737725,35.79425 h 52.52921 l 11.38908,-35.79425 c 0,0 4.66638,0.51308 5.81075,-0.8135 1.14437,-1.32659 1.14284,-13.61649 0.23243,-15.80525 -0.45537,-1.09479 -21.71739,-0.94118 -43.11547,-0.89552 -21.38235,0.0456 -42.900565,-0.0174 -43.929615,0.7793 -2.05886,1.594 -1.3106,14.72709 -0.11622,16.1539 1.19439,1.42681 5.46211,0.58107 5.46211,0.58107 z"
       id="path140-16"
       sodipodi:nodetypes="cccczssszc" />
  </g>
</svg>
