<?xml version="1.0" encoding="UTF-8" standalone="no"?>
<svg
   xmlns:dc="http://purl.org/dc/elements/1.1/"
   xmlns:cc="http://creativecommons.org/ns#"
   xmlns:rdf="http://www.w3.org/1999/02/22-rdf-syntax-ns#"
   xmlns:svg="http://www.w3.org/2000/svg"
   xmlns="http://www.w3.org/2000/svg"
   xmlns:sodipodi="http://sodipodi.sourceforge.net/DTD/sodipodi-0.dtd"
   xmlns:inkscape="http://www.inkscape.org/namespaces/inkscape"
   version="1.0"
   width="301mm"
   height="201mm"
   viewBox="0 0 301 201"
   id="svg3711"
   sodipodi:docname="Spiral Jigsaw.svg"
   inkscape:version="0.92.2 (5c3e80d, 2017-08-06)">
  <metadata
     id="metadata3717">
    <rdf:RDF>
      <cc:Work
         rdf:about="">
        <dc:format>image/svg+xml</dc:format>
        <dc:type
           rdf:resource="http://purl.org/dc/dcmitype/StillImage" />
        <dc:title></dc:title>
      </cc:Work>
    </rdf:RDF>
  </metadata>
  <defs
     id="defs3715" />
  <sodipodi:namedview
     pagecolor="#ffffff"
     bordercolor="#666666"
     borderopacity="1"
     objecttolerance="10"
     gridtolerance="10"
     guidetolerance="10"
     inkscape:pageopacity="0"
     inkscape:pageshadow="2"
     inkscape:window-width="1920"
     inkscape:window-height="1017"
     id="namedview3713"
     showgrid="false"
     inkscape:zoom="0.56091667"
     inkscape:cx="413.50808"
     inkscape:cy="368.25639"
     inkscape:window-x="-8"
     inkscape:window-y="-8"
     inkscape:window-maximized="1"
     inkscape:current-layer="svg3711" />
  <path
     d="m 0.05,20.949996 c 4,-0.7 11.17,-1.58 8.3,3.02 -2.88,4.6 6.32,4.6 4.6,0 -1.73,-4.6 3.1,-2.91 7.1,-3.02 4,-0.11 11.46,2.52 8.45,-2.08 -3.02,-4.6 6.18,-4.6 4.6,0 -1.59,4.6 2.95,1.4 6.95,2.08 4,0.68 9.33,1.76 7.68,-2.84 -1.64,-4.6 7.56,-4.6 4.6,0 -2.95,4.6 3.72,2.75 7.72,2.84 4,0.09 11.09,2.64 8.52,-1.96 -2.57,-4.6 6.63,-4.6 4.6,0 -2.03,4.6 2.88,2.3 6.88,1.96 4,-0.34 9.31,2.62 7.6,-1.98 -1.71,-4.6 7.49,-4.6 4.6,0 -2.89,4.6 3.8,1.86 7.8,1.98 4,0.12 10.42,1.72 7.37,-2.88 -3.04,-4.6 6.16,-4.6 4.6,0 -1.55,4.6 4.03,2.11 8.03,2.88 4,0.77 9.89,-1.91 7.81,2.69 -2.07,4.6 7.13,4.6 4.6,0 -2.52,-4.6 3.59,-2.47 7.59,-2.69 4,-0.22 9.33,-2.05 6.95,2.55 -2.39,4.6 6.81,4.6 4.6,0 -2.22,-4.6 4.45,-2.41 8.45,-2.55 4,-0.14 10.82,1.72 8.32,-2.88 -2.51,-4.6 6.69,-4.6 4.6,0 -2.1,4.6 3.08,2.89 7.08,2.88 4,-0.01 9.54,1.79 7.82,-2.81 -1.72,-4.6 7.48,-4.6 4.6,0 -2.88,4.6 3.58,2.3 7.58,2.81 4,0.51 9.12,-1.95 7.4,2.65 -1.73,4.6 7.47,4.6 4.6,0 -2.88,-4.6 4,-3.26 8,-2.65 4,0.61 9.56,-2.75 7.89,1.85 -1.67,4.6 7.53,4.6 4.6,0 -2.93,-4.6 3.51,-1.84 7.51,-1.85 4,-0.01 9.94,2.95 8.13,-1.65 -1.81,-4.6 7.39,-4.6 4.6,0 -2.79,4.6 3.27,1.67 7.27,1.65 4,-0.02 10.34,1.47 7.8,-3.13 -2.54,-4.6 6.66,-4.6 4.6,0 -2.06,4.6 3.6,2.7 7.6,3.13 4,0.43 10.06,-1.49 7.27,3.11 -2.79,4.6 6.41,4.6 4.6,0 -1.81,-4.6 4.13,-2.64 8.13,-3.11 m -300,20 c 4,0.7 10.13,1.99 8.01,-2.61 -2.13,-4.6 7.07,-4.6 4.6,0 -2.48,4.6 3.39,2.68 7.39,2.61 4,-0.07 8.66,-2.24 6.92,2.36 -1.75,4.6 7.45,4.6 4.6,0 -2.86,-4.6 4.48,-1.88 8.48,-2.36 4,-0.48 9.88,3.12 6.93,-1.48 -2.94,-4.6 6.26,-4.6 4.6,0 -1.65,4.6 4.47,1.12 8.47,1.48 4,0.36 9.35,-2.7 7.15,1.9 -2.2,4.6 7,4.6 4.6,0 -2.4,-4.6 4.25,-2.37 8.25,-1.9 4,0.47 10.91,-1.48 8.25,3.12 -2.66,4.6 6.54,4.6 4.6,0 -1.94,-4.6 3.15,-3.8 7.15,-3.12 4,0.68 9.56,2.41 7.07,-2.19 -2.48,-4.6 6.72,-4.6 4.6,0 -2.11,4.6 4.33,2.66 8.33,2.19 4,-0.47 9.47,1.49 7.12,-3.11 -2.36,-4.6 6.84,-4.6 4.6,0 -2.25,4.6 4.28,3.23 8.28,3.11 4,-0.12 9.51,-2.23 7.13,2.37 -2.38,4.6 6.82,4.6 4.6,0 -2.22,-4.6 4.27,-2.39 8.27,-2.37 4,0.02 10.1,-2.8 7.55,1.8 -2.56,4.6 6.64,4.6 4.6,0 -2.05,-4.6 3.85,-1.48 7.85,-1.8 4,-0.32 9.87,-1.71 8.38,2.89 -1.49,4.6 7.71,4.6 4.6,0 -3.11,-4.6 3.02,-2.14 7.02,-2.89 4,-0.75 9.53,-1.98 7.16,2.62 -2.37,4.6 6.83,4.6 4.6,0 -2.23,-4.6 4.24,-2.9 8.24,-2.62 4,0.28 10.05,-2.45 7.6,2.15 -2.45,4.6 6.75,4.6 4.6,0 -2.15,-4.6 3.8,-2.69 7.8,-2.15 4,0.54 9.82,1.79 7.21,-2.81 -2.62,-4.6 6.58,-4.6 4.6,0 -1.99,4.6 4.19,2.12 8.19,2.81 4,0.69 8.85,2.47 6.87,-2.13 -1.98,-4.6 7.22,-4.6 4.6,0 -2.62,4.6 4.53,2.62 8.53,2.13 4,-0.49 9.48,-2.18 7.6,2.42 -1.88,4.6 7.32,4.6 4.6,0 -2.72,-4.6 3.8,-1.66 7.8,-2.42 m -300,20 c 4,0.78 10.24,-2.04 7.67,2.56 -2.58,4.6 6.62,4.6 4.6,0 -2.03,-4.6 3.73,-2.58 7.73,-2.56 4,0.02 9.3,1.59 7.3,-3.01 -2,-4.6 7.2,-4.6 4.6,0 -2.6,4.6 4.1,3.42 8.1,3.01 4,-0.41 9.34,-2.45 7.68,2.15 -1.66,4.6 7.54,4.6 4.6,0 -2.94,-4.6 3.72,-2.17 7.72,-2.15 4,0.02 10.73,-1.81 8.22,2.79 -2.51,4.6 6.69,4.6 4.6,0 -2.09,-4.6 3.18,-3.43 7.18,-2.79 4,0.64 10.45,1.76 8.5,-2.84 -1.96,-4.6 7.24,-4.6 4.6,0 -2.65,4.6 2.9,2.12 6.9,2.84 4,0.72 9.46,-2.2 6.98,2.4 -2.48,4.6 6.72,4.6 4.6,0 -2.12,-4.6 4.42,-2.37 8.42,-2.4 4,-0.03 9.33,1.56 7.53,-3.04 -1.8,-4.6 7.4,-4.6 4.6,0 -2.8,4.6 3.87,3.02 7.87,3.04 4,0.02 10.37,3.1 7.86,-1.5 -2.52,-4.6 6.68,-4.6 4.6,0 -2.09,4.6 3.54,2.2 7.54,1.5 4,-0.7 9.07,1.98 6.96,-2.62 -2.1,-4.6 7.1,-4.6 4.6,0 -2.49,4.6 4.44,3.02 8.44,2.62 4,-0.4 9.47,1.66 6.96,-2.94 -2.52,-4.6 6.68,-4.6 4.6,0 -2.09,4.6 4.44,2.28 8.44,2.94 4,0.66 10.7,1.59 8.01,-3.01 -2.68,-4.6 6.52,-4.6 4.6,0 -1.91,4.6 3.39,3.21 7.39,3.01 4,-0.2 10.53,1.67 8.21,-2.93 -2.33,-4.6 6.87,-4.6 4.6,0 -2.28,4.6 3.19,2.84 7.19,2.93 4,0.09 10.08,2.7 8.49,-1.9 -1.59,-4.6 7.61,-4.6 4.6,0 -3.01,4.6 2.91,1.29 6.91,1.9 4,0.61 9.61,2.66 7.5,-1.94 -2.11,-4.6 7.09,-4.6 4.6,0 -2.49,4.6 3.9,2.17 7.9,1.94 4,-0.23 9.34,-2 7.1,2.6 -2.25,4.6 6.95,4.6 4.6,0 -2.36,-4.6 4.3,-3.14 8.3,-2.6 m -300,20 c 4,0.52 10.22,-3.04 7.97,1.56 -2.25,4.6 6.95,4.6 4.6,0 -2.35,-4.6 3.43,-1.64 7.43,-1.56 4,0.08 9.45,2.72 7.14,-1.88 -2.31,-4.6 6.89,-4.6 4.6,0 -2.29,4.6 4.26,1.47 8.26,1.88 4,0.41 9.81,-2.58 8.16,2.02 -1.65,4.6 7.55,4.6 4.6,0 -2.95,-4.6 3.24,-2.8 7.24,-2.02 4,0.78 10.49,-2.54 7.42,2.06 -3.06,4.6 6.14,4.6 4.6,0 -1.53,-4.6 3.98,-2.72 7.98,-2.06 4,0.66 10.07,-1.57 7.38,3.03 -2.7,4.6 6.5,4.6 4.6,0 -1.91,-4.6 4.02,-2.5 8.02,-3.03 4,-0.53 9.58,-1.64 7.43,2.96 -2.14,4.6 7.06,4.6 4.6,0 -2.45,-4.6 3.97,-2.4 7.97,-2.96 4,-0.56 10.57,2.16 7.78,-2.44 -2.79,-4.6 6.41,-4.6 4.6,0 -1.81,4.6 3.62,2.11 7.62,2.44 4,0.33 9.98,2.85 8.21,-1.75 -1.77,-4.6 7.43,-4.6 4.6,0 -2.83,4.6 3.19,0.92 7.19,1.75 4,0.83 11.49,2.31 8.36,-2.29 -3.12,-4.6 6.08,-4.6 4.6,0 -1.47,4.6 3.04,2.7 7.04,2.29 4,-0.41 9.88,-3.07 7.54,1.53 -2.35,4.6 6.85,4.6 4.6,0 -2.26,-4.6 3.86,-1.34 7.86,-1.53 4,-0.19 10.18,-1.96 7.46,2.64 -2.71,4.6 6.49,4.6 4.6,0 -1.88,-4.6 3.94,-2.75 7.94,-2.64 4,0.11 9.65,2.52 8.15,-2.08 -1.49,-4.6 7.71,-4.6 4.6,0 -3.1,4.6 3.25,1.33 7.25,2.08 4,0.75 9.02,-1.71 7.01,2.89 -2.01,4.6 7.19,4.6 4.6,0 -2.59,-4.6 4.39,-3.73 8.39,-2.89 4,0.84 9.29,2.59 7.37,-2.01 -1.92,-4.6 7.28,-4.6 4.6,0 -2.68,4.6 4.03,2.67 8.03,2.01 4,-0.66 10.06,2.26 8.33,-2.34 -1.73,-4.6 7.47,-4.6 4.6,0 -2.87,4.6 3.07,1.71 7.07,2.34 M 0.05,100.95 c 4,0.03 10.94,2.46 8.34,-2.140004 -2.61,-4.6 6.59,-4.6 4.6,0 -2,4.600004 3.06,2.600004 7.06,2.140004 4,-0.46 10.72,-2.500004 8.44,2.1 -2.28,4.6 6.92,4.6 4.6,0 -2.32,-4.600004 2.96,-2.67 6.96,-2.1 4,0.57 10.31,-2.070004 7.28,2.53 -3.03,4.6 6.17,4.6 4.6,0 -1.57,-4.600004 4.12,-2.35 8.12,-2.53 4,-0.18 9.96,-1.900004 7.03,2.7 -2.93,4.6 6.27,4.6 4.6,0 -1.67,-4.600004 4.37,-3.25 8.37,-2.7 4,0.55 11.07,2.37 8.02,-2.230004 -3.06,-4.6 6.14,-4.6 4.6,0 -1.55,4.600004 3.38,2.190004 7.38,2.230004 4,0.04 9.77,-2.370004 7.6,2.23 -2.16,4.6 7.04,4.6 4.6,0 -2.43,-4.600004 3.8,-1.93 7.8,-2.23 4,-0.3 10.32,-2.700004 7.34,1.9 -2.97,4.6 6.23,4.6 4.6,0 -1.62,-4.600004 4.06,-1.3 8.06,-1.9 4,-0.6 10.27,-2.540004 7.42,2.06 -2.85,4.6 6.35,4.6 4.6,0 -1.75,-4.600004 3.98,-1.25 7.98,-2.06 4,-0.81 10.61,2.2 8.38,-2.400004 -2.22,-4.6 6.98,-4.6 4.6,0 -2.37,4.600004 3.02,3.010004 7.02,2.400004 4,-0.61 9.67,-1.890004 7.09,2.71 -2.58,4.6 6.62,4.6 4.6,0 -2.02,-4.600004 4.31,-2.59 8.31,-2.71 4,-0.12 9.82,2.54 7.7,-2.060004 -2.12,-4.6 7.08,-4.6 4.6,0 -2.48,4.600004 3.7,1.670004 7.7,2.060004 4,0.39 9.42,1.71 7.93,-2.890004 -1.5,-4.6 7.7,-4.6 4.6,0 -3.11,4.600004 3.47,2.460004 7.47,2.890004 4,0.43 9.21,1.92 6.92,-2.680004 -2.28,-4.6 6.92,-4.6 4.6,0 -2.31,4.600004 4.48,2.540004 8.48,2.680004 4,0.14 10.52,-1.530004 8.04,3.07 -2.49,4.6 6.71,4.6 4.6,0 -2.12,-4.600004 3.36,-2.7 7.36,-3.07 4,-0.37 9.96,-1.720004 8.37,2.88 -1.59,4.6 7.61,4.6 4.6,0 -3.01,-4.600004 3.03,-2.74 7.03,-2.88 m -300,20 c 4,-0.28 10.71,-2.81 8.32,1.79 -2.39,4.6 6.81,4.6 4.6,0 -2.21,-4.6 3.08,-1.55 7.08,-1.79 4,-0.24 10.89,-3.11 7.98,1.49 -2.91,4.6 6.29,4.6 4.6,0 -1.69,-4.6 3.42,-1.93 7.42,-1.49 4,0.44 8.8,-2.93 7.22,1.67 -1.59,4.6 7.61,4.6 4.6,0 -3.02,-4.6 4.18,-1.52 8.18,-1.67 4,-0.15 9.46,1.64 7.11,-2.96 -2.36,-4.6 6.84,-4.6 4.6,0 -2.25,4.6 4.29,2.88 8.29,2.96 4,0.08 9.4,-1.93 7.9,2.67 -1.5,4.6 7.7,4.6 4.6,0 -3.1,-4.6 3.5,-2.98 7.5,-2.67 4,0.31 9.95,-2.21 8.02,2.39 -1.94,4.6 7.26,4.6 4.6,0 -2.67,-4.6 3.38,-2.03 7.38,-2.39 4,-0.36 9.42,-2.16 7.38,2.44 -2.04,4.6 7.16,4.6 4.6,0 -2.56,-4.6 4.02,-2.66 8.02,-2.44 4,0.22 10.46,-2.85 7.72,1.75 -2.74,4.6 6.46,4.6 4.6,0 -1.86,-4.6 3.68,-1.01 7.68,-1.75 4,-0.74 8.62,-1.78 6.94,2.82 -1.68,4.6 7.52,4.6 4.6,0 -2.92,-4.6 4.46,-2.96 8.46,-2.82 4,0.14 9.92,-2.24 7.58,2.36 -2.33,4.6 6.87,4.6 4.6,0 -2.26,-4.6 3.82,-2.16 7.82,-2.36 4,-0.2 9.74,-2.88 7.02,1.72 -2.72,4.6 6.48,4.6 4.6,0 -1.88,-4.6 4.38,-2.53 8.38,-1.72 4,0.81 10.43,2.88 7.91,-1.72 -2.52,-4.6 6.68,-4.6 4.6,0 -2.08,4.6 3.49,2.26 7.49,1.72 4,-0.54 10.46,-3.1 8.47,1.5 -2,4.6 7.2,4.6 4.6,0 -2.61,-4.6 2.93,-1.31 6.93,-1.5 4,-0.19 9.89,-2.04 7.49,2.56 -2.4,4.6 6.8,4.6 4.6,0 -2.2,-4.6 3.91,-2.14 7.91,-2.56 4,-0.42 10,2.62 7.61,-1.98 -2.39,-4.6 6.81,-4.6 4.6,0 -2.21,4.6 3.79,2.2 7.79,1.98 m -300,20 c 4,0.82 8.98,-2.44 7.05,2.16 -1.92,4.6 7.28,4.6 4.6,0 -2.67,-4.6 4.35,-2.39 8.35,-2.16 4,0.23 10.5,1.64 8.04,-2.96 -2.45,-4.6 6.75,-4.6 4.6,0 -2.14,4.6 3.36,2.6 7.36,2.96 4,0.36 10.3,2.7 7.84,-1.9 -2.46,-4.6 6.74,-4.6 4.6,0 -2.14,4.6 3.56,2.18 7.56,1.9 4,-0.28 10.67,-2.58 8.08,2.02 -2.58,4.6 6.62,4.6 4.6,0 -2.01,-4.6 3.32,-2.8 7.32,-2.02 4,0.78 10.13,-2.78 7.91,1.82 -2.23,4.6 6.97,4.6 4.6,0 -2.38,-4.6 3.49,-1.07 7.49,-1.82 4,-0.75 10.62,-2.46 8.36,2.14 -2.26,4.6 6.94,4.6 4.6,0 -2.34,-4.6 3.04,-1.66 7.04,-2.14 4,-0.48 10.51,1.77 8.11,-2.83 -2.4,-4.6 6.8,-4.6 4.6,0 -2.2,4.6 3.29,3.21 7.29,2.83 4,-0.38 9.33,-1.85 7.29,2.75 -2.04,4.6 7.16,4.6 4.6,0 -2.56,-4.6 4.11,-2.01 8.11,-2.75 4,-0.74 10.15,2.75 7.8,-1.85 -2.35,-4.6 6.85,-4.6 4.6,0 -2.25,4.6 3.6,2.53 7.6,1.85 4,-0.68 11.45,3.13 8.47,-1.47 -2.99,-4.6 6.21,-4.6 4.6,0 -1.62,4.6 2.93,1.91 6.93,1.47 4,-0.44 9.41,-2.8 7.84,1.8 -1.57,4.6 7.63,4.6 4.6,0 -3.03,-4.6 3.56,-1.95 7.56,-1.8 4,0.15 11.07,2.78 8.48,-1.82 -2.6,-4.6 6.6,-4.6 4.6,0 -2.01,4.6 2.92,2.05 6.92,1.82 4,-0.23 9.11,-2.16 7.14,2.44 -1.98,4.6 7.22,4.6 4.6,0 -2.63,-4.6 4.26,-3.15 8.26,-2.44 4,0.71 9.88,2.95 6.94,-1.65 -2.94,-4.6 6.26,-4.6 4.6,0 -1.66,4.6 4.46,1.55 8.46,1.65 4,0.1 9.05,-1.82 7.58,2.78 -1.47,4.6 7.73,4.6 4.6,0 -3.13,-4.6 3.82,-2.87 7.82,-2.78 m -300,20 c 4,0.62 9.77,-2.58 7.84,2.02 -1.94,4.6 7.26,4.6 4.6,0 -2.67,-4.6 3.56,-2.23 7.56,-2.02 4,0.21 9.87,2.56 7.1,-2.04 -2.77,-4.6 6.43,-4.6 4.6,0 -1.83,4.6 4.3,1.97 8.3,2.04 4,0.07 9.67,-2.13 8.09,2.47 -1.59,4.6 7.61,4.6 4.6,0 -3.02,-4.6 3.31,-2.57 7.31,-2.47 4,0.1 9.85,-2.44 7.7,2.16 -2.14,4.6 7.06,4.6 4.6,0 -2.45,-4.6 3.7,-1.81 7.7,-2.16 4,-0.35 8.92,2.66 7.02,-1.94 -1.91,-4.6 7.29,-4.6 4.6,0 -2.7,4.6 4.38,1.84 8.38,1.94 4,0.1 9.65,1.77 7.53,-2.83 -2.12,-4.6 7.08,-4.6 4.6,0 -2.48,4.6 3.87,2.45 7.87,2.83 4,0.38 10.03,2.25 8.17,-2.35 -1.86,-4.6 7.34,-4.6 4.6,0 -2.74,4.6 3.23,2.07 7.23,2.35 4,0.28 9.92,-2.03 7.01,2.57 -2.92,4.6 6.28,4.6 4.6,0 -1.69,-4.6 4.39,-2.08 8.39,-2.57 4,-0.49 10.36,-1.56 8.16,3.04 -2.19,4.6 7.01,4.6 4.6,0 -2.4,-4.6 3.24,-2.33 7.24,-3.04 4,-0.71 9.21,-2.01 7.09,2.59 -2.11,4.6 7.09,4.6 4.6,0 -2.48,-4.6 4.31,-2.14 8.31,-2.59 4,-0.45 9.82,1.49 8.1,-3.11 -1.73,-4.6 7.47,-4.6 4.6,0 -2.88,4.6 3.3,3.83 7.3,3.11 4,-0.72 10.3,1.77 8.16,-2.83 -2.14,-4.6 7.06,-4.6 4.6,0 -2.46,4.6 3.24,2.4 7.24,2.83 4,0.43 10.61,-2.72 8.32,1.88 -2.29,4.6 6.91,4.6 4.6,0 -2.31,-4.6 3.08,-1.89 7.08,-1.88 4,0.01 9.43,1.59 7.02,-3.01 -2.42,-4.6 6.78,-4.6 4.6,0 -2.19,4.6 4.38,2.49 8.38,3.01 4,0.52 9.36,-2.89 7.43,1.71 -1.93,4.6 7.27,4.6 4.6,0 -2.67,-4.6 3.97,-1.34 7.97,-1.71 m -300,20 c 4,-0.69 10.37,-2.14 8.14,2.46 -2.22,4.6 6.98,4.6 4.6,0 -2.37,-4.6 3.26,-2.49 7.26,-2.46 4,0.03 8.75,2.01 6.86,-2.59 -1.89,-4.6 7.31,-4.6 4.6,0 -2.71,4.6 4.54,2.91 8.54,2.59 4,-0.32 10.48,1.68 7.96,-2.92 -2.51,-4.6 6.69,-4.6 4.6,0 -2.08,4.6 3.44,3.38 7.44,2.92 4,-0.46 10.35,-2.34 8.17,2.26 -2.18,4.6 7.02,4.6 4.6,0 -2.42,-4.6 3.23,-1.81 7.23,-2.26 4,-0.45 10.24,-2.06 7.58,2.54 -2.67,4.6 6.53,4.6 4.6,0 -1.94,-4.6 3.82,-1.99 7.82,-2.54 4,-0.55 10.43,-3.05 7.36,1.55 -3.07,4.6 6.13,4.6 4.6,0 -1.53,-4.6 4.04,-1.06 8.04,-1.55 4,-0.49 10.15,-2.93 7.26,1.67 -2.89,4.6 6.31,4.6 4.6,0 -1.71,-4.6 4.14,-1.51 8.14,-1.67 4,-0.16 10.49,1.84 8.13,-2.76 -2.36,-4.6 6.84,-4.6 4.6,0 -2.24,4.6 3.27,2.4 7.27,2.76 4,0.36 9.54,-2.16 7.98,2.44 -1.56,4.6 7.64,4.6 4.6,0 -3.04,-4.6 3.42,-1.76 7.42,-2.44 4,-0.68 10.06,2.98 8.31,-1.62 -1.75,-4.6 7.45,-4.6 4.6,0 -2.85,4.6 3.09,1.06 7.09,1.62 4,0.56 10.53,2.15 7.74,-2.45 -2.79,-4.6 6.41,-4.6 4.6,0 -1.81,4.6 3.66,3.21 7.66,2.45 4,-0.76 10.07,-2.27 7.31,2.33 -2.75,4.6 6.45,4.6 4.6,0 -1.84,-4.6 4.09,-1.71 8.09,-2.33 4,-0.62 10.21,-2.44 7.72,2.16 -2.49,4.6 6.71,4.6 4.6,0 -2.11,-4.6 3.68,-2.55 7.68,-2.16 4,0.39 10.39,-2.24 8.35,2.36 -2.05,4.6 7.15,4.6 4.6,0 -2.56,-4.6 3.05,-1.55 7.05,-2.36 4,-0.81 9.79,-2.61 7.68,1.99 -2.12,4.6 7.08,4.6 4.6,0 -2.49,-4.6 3.72,-2.38 7.72,-1.99 M 20.05,0.94999549 C 19.54,4.9499955 21.76,11.499996 17.16,8.5199955 c -4.6,-2.98 -4.6,6.2200005 0,4.6000005 4.6,-1.62 3.08,3.83 2.89,7.83 -0.19,4 -1.47,8.62 3.13,6.97 4.6,-1.65 4.6,7.55 0,4.6 -4.6,-2.95 -3.06,4.43 -3.13,8.43 -0.07,4 -1.49,10.26 3.11,8.32 4.6,-1.94 4.6,7.26 0,4.6 -4.6,-2.66 -3.16,3.08 -3.11,7.08 0.05,4 -3.09,9.46 1.51,7.78 4.6,-1.68 4.6,7.52 0,4.6 -4.6,-2.92 -2.33,3.62 -1.51,7.62 0.82,4 2.4,10.56 -2.2,7.42 -4.6,-3.13 -4.6,6.07 0,4.6 4.6,-1.46 2.68,3.98 2.2,7.980004 -0.48,4 1.6,9.56 -3,7.42 -4.6,-2.14 -4.6,7.06 0,4.6 4.6,-2.46 3.07,3.98 3,7.98 -0.07,4 1.56,10.64 -3.04,7.67 -4.6,-2.98 -4.6,6.22 0,4.6 4.6,-1.63 2.64,3.73 3.04,7.73 0.4,4 3.04,11.06 -1.56,8.37 -4.6,-2.7 -4.6,6.5 0,4.6 4.6,-1.91 2.15,3.03 1.56,7.03 -0.59,4 -1.77,9.56 2.83,7.02 4.6,-2.53 4.6,6.67 0,4.6 -4.6,-2.06 -2.6,4.38 -2.83,8.38 -0.23,4 -2.89,9.2 1.71,7.37 4.6,-1.84 4.6,7.36 0,4.6 -4.6,-2.77 -2.06,4.03 -1.71,8.03 M 40.05,0.94999549 C 39.91,4.9499955 37.76,11.099996 42.36,7.9699955 c 4.6,-3.14 4.6,6.0600005 0,4.6000005 -4.6,-1.47 -2.26,4.38 -2.31,8.38 -0.05,4 2.89,10.09 -1.71,7.58 -4.6,-2.52 -4.6,6.68 0,4.6 4.6,-2.09 1.09,3.82 1.71,7.82 0.62,4 -2.1,10.84 2.5,7.8 4.6,-3.04 4.6,6.16 0,4.6 -4.6,-1.56 -1.75,3.6 -2.5,7.6 -0.75,4 -2.57,9.97 2.03,7.29 4.6,-2.69 4.6,6.51 0,4.6 -4.6,-1.92 -2.4,4.11 -2.03,8.11 0.37,4 -1.86,10.61 2.74,7.99 4.6,-2.63 4.6,6.57 0,4.6 -4.6,-1.98 -3.04,3.41 -2.74,7.410004 0.3,4 1.7,10.29 -2.9,7.97 -4.6,-2.32 -4.6,6.88 0,4.6 4.6,-2.28 3.33,3.43 2.9,7.43 -0.43,4 -2.2,9.05 2.4,7.09 4.6,-1.97 4.6,7.23 0,4.6 -4.6,-2.64 -3.19,4.31 -2.4,8.31 0.79,4 1.8,9.22 -2.8,7.12 -4.6,-2.1 -4.6,7.1 0,4.6 4.6,-2.5 3.24,4.28 2.8,8.28 -0.44,4 2.26,10.44 -2.34,8.41 -4.6,-2.03 -4.6,7.17 0,4.6 4.6,-2.57 1.57,2.99 2.34,6.99 0.77,4 -1.51,10.51 3.09,7.9 4.6,-2.62 4.6,6.58 0,4.6 -4.6,-1.99 -2.9,3.5 -3.09,7.5 m 20,-200.00000451 c 0.72,4.00000001 2.34,10.83000051 -2.26,7.85000001 -4.6,-2.97 -4.6,6.2300005 0,4.6000005 4.6,-1.62 1.53,3.55 2.26,7.55 0.73,4 -1.78,8.96 2.82,7.11 4.6,-1.84 4.6,7.36 0,4.6 -4.6,-2.75 -3,4.29 -2.82,8.29 0.18,4 -2.01,9.58 2.59,7.92 4.6,-1.66 4.6,7.54 0,4.6 -4.6,-2.94 -2.71,3.48 -2.59,7.48 0.12,4 1.58,9.81 -3.02,7.76 -4.6,-2.05 -4.6,7.15 0,4.6 4.6,-2.55 2.64,3.64 3.02,7.64 0.38,4 1.46,10.26 -3.14,7.39 -4.6,-2.87 -4.6,6.33 0,4.6 4.6,-1.73 3.72,4.01 3.14,8.010004 -0.58,4 2.38,10.8 -2.22,8.21 -4.6,-2.59 -4.6,6.61 0,4.6 4.6,-2.01 2.2,3.19 2.22,7.19 0.02,4 -1.65,8.96 2.95,7.11 4.6,-1.85 4.6,7.35 0,4.6 -4.6,-2.75 -2.45,4.29 -2.95,8.29 -0.5,4 -2.79,10.62 1.81,8.51 4.6,-2.11 4.6,7.09 0,4.6 -4.6,-2.49 -1.31,2.89 -1.81,6.89 -0.5,4 -3.06,10.36 1.54,8.01 4.6,-2.35 4.6,6.85 0,4.6 -4.6,-2.25 -1.22,3.39 -1.54,7.39 -0.32,4 2.84,10.56 -1.76,8.44 -4.6,-2.11 -4.6,7.09 0,4.6 4.6,-2.48 1.08,2.96 1.76,6.96 m 20,-200.00000451 c -0.26,4.00000001 3,10.28000051 -1.6,7.70000001 -4.6,-2.57 -4.6,6.6300005 0,4.6000005 4.6,-2.02 2.35,3.7 1.6,7.7 -0.75,4 -2.39,10.12 2.21,7.58 4.6,-2.54 4.6,6.66 0,4.6 -4.6,-2.06 -2.38,3.82 -2.21,7.82 0.17,4 -2.77,9.05 1.83,7.16 4.6,-1.89 4.6,7.31 0,4.6 -4.6,-2.71 -1.86,4.24 -1.83,8.24 0.03,4 -2.64,10.16 1.96,7.47 4.6,-2.68 4.6,6.52 0,4.6 -4.6,-1.91 -2.74,3.93 -1.96,7.93 0.78,4 -3.09,9.74 1.51,7.94 4.6,-1.79 4.6,7.41 0,4.6 -4.6,-2.8 -1.74,3.46 -1.51,7.460004 0.23,4 2.46,9.75 -2.14,7.11 -4.6,-2.65 -4.6,6.55 0,4.6 4.6,-1.96 1.51,4.29 2.14,8.29 0.63,4 -2.41,11.41 2.19,8.39 4.6,-3.02 4.6,6.18 0,4.6 -4.6,-1.58 -2.42,3.01 -2.19,7.01 0.23,4 2.25,10.57 -2.35,7.82 -4.6,-2.76 -4.6,6.44 0,4.6 4.6,-1.85 2.75,3.58 2.35,7.58 -0.4,4 1.66,10.69 -2.94,7.89 -4.6,-2.8 -4.6,6.4 0,4.6 4.6,-1.8 3.42,3.51 2.94,7.51 -0.48,4 1.88,9.46 -2.72,7.99 -4.6,-1.47 -4.6,7.73 0,4.6 4.6,-3.13 2.39,3.41 2.72,7.41 m 20,-200.00000451 c -0.46,4.00000001 -2.36,9.13000051 2.24,7.33000001 4.6,-1.8 4.6,7.4000005 0,4.6000005 -4.6,-2.8 -1.79,4.07 -2.24,8.07 -0.45,4 -3.12,10.7 1.48,7.71 4.6,-2.99 4.6,6.21 0,4.6 -4.6,-1.61 -1.75,3.69 -1.48,7.69 0.27,4 -1.8,8.98 2.8,7.45 4.6,-1.53 4.6,7.67 0,4.6 -4.6,-3.07 -2.81,3.95 -2.8,7.95 0.01,4 1.69,9.72 -2.91,7.4 -4.6,-2.31 -4.6,6.89 0,4.6 4.6,-2.28 3.4,4 2.91,8 -0.49,4 -1.87,9.74 2.73,8.08 4.6,-1.67 4.6,7.53 0,4.6 -4.6,-2.94 -2.87,3.32 -2.73,7.320004 0.14,4 -2.65,8.49 1.95,6.9 4.6,-1.58 4.6,7.62 0,4.6 -4.6,-3.01 -2.66,4.5 -1.95,8.5 0.71,4 -2.43,10.28 2.17,8.46 4.6,-1.83 4.6,7.37 0,4.6 -4.6,-2.78 -2.61,2.94 -2.17,6.94 0.44,4 1.99,9.23 -2.61,7.45 -4.6,-1.79 -4.6,7.41 0,4.6 4.6,-2.82 2.63,3.95 2.61,7.95 -0.02,4 -1.55,10.63 3.05,8.21 4.6,-2.42 4.6,6.78 0,4.6 -4.6,-2.18 -3.17,3.19 -3.05,7.19 0.12,4 1.82,11.1 -2.78,8.21 -4.6,-2.88 -4.6,6.32 0,4.6 4.6,-1.71 3.26,3.19 2.78,7.19 m 20,-200.00000451 c -0.08,4.00000001 -2.35,9.54000051 2.25,7.35000001 4.6,-2.2 4.6,7.0000005 0,4.6000005 -4.6,-2.41 -2.97,4.05 -2.25,8.05 0.72,4 2.44,9.92 -2.16,7.54 -4.6,-2.38 -4.6,6.82 0,4.6 4.6,-2.22 2.42,3.86 2.16,7.86 -0.26,4 -1.68,10.13 2.92,8.07 4.6,-2.06 4.6,7.14 0,4.6 -4.6,-2.54 -2.73,3.33 -2.92,7.33 -0.19,4 -2.45,9.44 2.15,7.19 4.6,-2.25 4.6,6.95 0,4.6 -4.6,-2.35 -1.7,4.21 -2.15,8.21 -0.45,4 1.77,9.84 -2.83,7.96 -4.6,-1.88 -4.6,7.32 0,4.6 4.6,-2.72 3.61,3.44 2.83,7.440004 -0.78,4 -1.64,10.01 2.96,8.33 4.6,-1.68 4.6,7.52 0,4.6 -4.6,-2.92 -3.56,3.07 -2.96,7.07 0.6,4 -2.22,9.34 2.38,7.73 4.6,-1.61 4.6,7.59 0,4.6 -4.6,-2.99 -2.27,3.67 -2.38,7.67 -0.11,4 -2.74,9.73 1.86,7.84 4.6,-1.89 4.6,7.31 0,4.6 -4.6,-2.71 -2.11,3.56 -1.86,7.56 0.25,4 1.6,10.28 -3,8.06 -4.6,-2.23 -4.6,6.97 0,4.6 4.6,-2.38 2.79,3.34 3,7.34 0.21,4 -1.53,10.16 3.07,7.09 4.6,-3.07 4.6,6.13 0,4.6 -4.6,-1.53 -3.85,4.31 -3.07,8.31 m 20,-200.00000451 c -0.32,4.00000001 2.19,9.60000051 -2.41,7.71000001 -4.6,-1.89 -4.6,7.3100005 0,4.6000005 4.6,-2.71 1.64,3.69 2.41,7.69 0.77,4 2.78,11.27 -1.82,8.46 -4.6,-2.81 -4.6,6.39 0,4.6 4.6,-1.79 2.29,2.94 1.82,6.94 -0.47,4 -3.13,10.5 1.47,7.97 4.6,-2.54 4.6,6.66 0,4.6 -4.6,-2.07 -1.6,3.43 -1.47,7.43 0.13,4 2.14,8.72 -2.46,7.19 -4.6,-1.52 -4.6,7.68 0,4.6 4.6,-3.07 2.36,4.21 2.46,8.21 0.1,4 1.8,10.75 -2.8,8.45 -4.6,-2.29 -4.6,6.91 0,4.6 4.6,-2.3 2.07,2.95 2.8,6.950004 0.73,4 -1.87,8.86 2.73,7.14 4.6,-1.73 4.6,7.47 0,4.6 -4.6,-2.88 -2.79,4.26 -2.73,8.26 0.06,4 -1.57,9.64 3.03,7.38 4.6,-2.27 4.6,6.93 0,4.6 -4.6,-2.34 -2.97,4.02 -3.03,8.02 -0.06,4 -2.92,10.39 1.68,8.5 4.6,-1.89 4.6,7.31 0,4.6 -4.6,-2.71 -1.65,2.9 -1.68,6.9 -0.03,4 -1.58,10.45 3.02,7.32 4.6,-3.13 4.6,6.07 0,4.6 -4.6,-1.47 -3.2,4.08 -3.02,8.08 0.18,4 2.65,10.5 -1.95,8.4 -4.6,-2.11 -4.6,7.09 0,4.6 4.6,-2.5 1.78,3 1.95,7 m 20,-200.00000451 c -0.58,4.00000001 -1.73,10.38000051 2.87,7.72000001 4.6,-2.67 4.6,6.5300005 0,4.6000005 -4.6,-1.94 -2.64,3.68 -2.87,7.68 -0.23,4 -2.05,10.55 2.55,7.86 4.6,-2.69 4.6,6.51 0,4.6 -4.6,-1.91 -2.56,3.54 -2.55,7.54 0.01,4 1.66,9.69 -2.94,7.98 -4.6,-1.71 -4.6,7.49 0,4.6 4.6,-2.89 3.12,3.42 2.94,7.42 -0.18,4 -2.05,9.38 2.55,7.06 4.6,-2.32 4.6,6.88 0,4.6 -4.6,-2.28 -1.79,4.34 -2.55,8.34 -0.76,4 -1.93,9.43 2.67,7.59 4.6,-1.84 4.6,7.36 0,4.6 -4.6,-2.76 -3.29,3.81 -2.67,7.810004 0.62,4 2.47,10.02 -2.13,7.06 -4.6,-2.96 -4.6,6.24 0,4.6 4.6,-1.64 1.82,4.34 2.13,8.34 0.31,4 -2.55,9.59 2.05,7.86 4.6,-1.74 4.6,7.46 0,4.6 -4.6,-2.87 -1.74,3.54 -2.05,7.54 -0.31,4 -2.45,9.21 2.15,7.72 4.6,-1.49 4.6,7.71 0,4.6 -4.6,-3.11 -1.58,3.68 -2.15,7.68 -0.57,4 -2.99,11.15 1.61,8.45 4.6,-2.7 4.6,6.5 0,4.6 -4.6,-1.9 -1.4,2.95 -1.61,6.95 -0.21,4 2.76,9.34 -1.84,7.07 -4.6,-2.28 -4.6,6.92 0,4.6 4.6,-2.33 1.29,4.33 1.84,8.33 m 20,-200.00000451 c -0.4,4.00000001 -1.61,10.11000051 2.99,8.41000001 4.6,-1.71 4.6,7.4900005 0,4.6000005 -4.6,-2.9 -2.53,2.99 -2.99,6.99 -0.46,4 -2.58,9.86 2.02,8.15 4.6,-1.72 4.6,7.48 0,4.6 -4.6,-2.89 -2.32,3.25 -2.02,7.25 0.3,4 2.45,8.6 -2.15,6.98 -4.6,-1.63 -4.6,7.57 0,4.6 4.6,-2.98 2.08,4.42 2.15,8.42 0.07,4 -2.92,10.48 1.68,7.57 4.6,-2.9 4.6,6.3 0,4.6 -4.6,-1.69 -1.76,3.83 -1.68,7.83 0.08,4 1.6,10.66 -3,7.91 -4.6,-2.74 -4.6,6.46 0,4.6 4.6,-1.85 3.24,3.49 3,7.490004 -0.24,4 1.54,9.99 -3.06,7.69 -4.6,-2.31 -4.6,6.89 0,4.6 4.6,-2.3 3.54,3.71 3.06,7.71 -0.48,4 -2.87,10.34 1.73,7.52 4.6,-2.83 4.6,6.37 0,4.6 -4.6,-1.78 -2.1,3.88 -1.73,7.88 0.37,4 -2.08,10.55 2.52,8.22 4.6,-2.34 4.6,6.86 0,4.6 -4.6,-2.27 -2.12,3.18 -2.52,7.18 -0.4,4 1.69,10.88 -2.91,8.18 -4.6,-2.7 -4.6,6.5 0,4.6 4.6,-1.9 3.06,3.22 2.91,7.22 -0.15,4 -2.84,9.79 1.76,8.02 4.6,-1.78 4.6,7.42 0,4.6 -4.6,-2.83 -1.88,3.38 -1.76,7.38 m 20,-200.00000451 c 0.47,4.00000001 2.36,11.14000051 -2.24,8.33000001 -4.6,-2.8 -4.6,6.4000005 0,4.6000005 4.6,-1.79 2.96,3.07 2.24,7.07 -0.72,4 2.25,9.67 -2.35,7.55 -4.6,-2.12 -4.6,7.08 0,4.6 4.6,-2.48 2.93,3.85 2.35,7.85 -0.58,4 1.53,9.39 -3.07,7.38 -4.6,-2.01 -4.6,7.19 0,4.6 4.6,-2.59 3.6,4.02 3.07,8.02 -0.53,4 1.76,10.49 -2.84,8.28 -4.6,-2.21 -4.6,6.99 0,4.6 4.6,-2.39 3.51,3.12 2.84,7.12 -0.67,4 2.62,9.72 -1.98,7.12 -4.6,-2.61 -4.6,6.59 0,4.6 4.6,-2 1.74,4.28 1.98,8.280004 0.24,4 2.07,10.77 -2.53,8.2 -4.6,-2.57 -4.6,6.63 0,4.6 4.6,-2.03 2.34,3.2 2.53,7.2 0.19,4 1.57,10.85 -3.03,8.01 -4.6,-2.84 -4.6,6.36 0,4.6 4.6,-1.76 2.69,3.39 3.03,7.39 0.34,4 -2.98,9.13 1.62,7.54 4.6,-1.6 4.6,7.6 0,4.6 -4.6,-3.01 -2.28,3.86 -1.62,7.86 0.66,4 2.27,10.5 -2.33,8.37 -4.6,-2.13 -4.6,7.07 0,4.6 4.6,-2.47 2.59,3.03 2.33,7.03 -0.26,4 -2.62,11.23 1.98,8.3 4.6,-2.94 4.6,6.26 0,4.6 -4.6,-1.67 -2.24,3.1 -1.98,7.1 m 20,-200.00000451 c 0.62,4.00000001 -3.07,9.99000051 1.53,7.50000001 4.6,-2.48 4.6,6.7200005 0,4.6000005 -4.6,-2.11 -1.92,3.9 -1.53,7.9 0.39,4 1.69,10.73 -2.91,8.54 -4.6,-2.2 -4.6,7 0,4.6 4.6,-2.41 2.81,2.86 2.91,6.86 0.1,4 -3.06,10.57 1.54,8.08 4.6,-2.49 4.6,6.71 0,4.6 -4.6,-2.11 -0.88,3.32 -1.54,7.32 -0.66,4 -2.67,10.72 1.93,7.69 4.6,-3.03 4.6,6.17 0,4.6 -4.6,-1.57 -1.78,3.71 -1.93,7.71 -0.15,4 1.58,9.85 -3.02,8.27 -4.6,-1.59 -4.6,7.61 0,4.6 4.6,-3.02 3.05,3.13 3.02,7.130004 -0.03,4 -2.49,9.95 2.11,7.03 4.6,-2.91 4.6,6.29 0,4.6 -4.6,-1.68 -1.91,4.37 -2.11,8.37 -0.2,4 -1.47,11.26 3.13,8.49 4.6,-2.76 4.6,6.44 0,4.6 -4.6,-1.83 -2.87,2.91 -3.13,6.91 -0.26,4 2.78,11.06 -1.82,8.35 -4.6,-2.7 -4.6,6.5 0,4.6 4.6,-1.89 2.35,3.05 1.82,7.05 -0.53,4 1.99,9.37 -2.61,7.43 -4.6,-1.94 -4.6,7.26 0,4.6 4.6,-2.66 2.59,3.97 2.61,7.97 0.02,4 -2.98,9.68 1.62,6.87 4.6,-2.8 4.6,6.4 0,4.6 -4.6,-1.79 -2,4.53 -1.62,8.53 m 20,-200.00000451 c -0.21,4.00000001 -1.86,11.17000051 2.74,8.21000001 4.6,-2.96 4.6,6.2400005 0,4.6000005 -4.6,-1.64 -3.17,3.19 -2.74,7.19 0.43,4 2.33,9.09 -2.27,7.09 -4.6,-1.99 -4.6,7.21 0,4.6 4.6,-2.6 2.28,4.31 2.27,8.31 -0.01,4 -2.33,10.22 2.27,8.52 4.6,-1.7 4.6,7.5 0,4.6 -4.6,-2.9 -3.09,2.88 -2.27,6.88 0.82,4 -2.61,10.19 1.99,8.29 4.6,-1.89 4.6,7.31 0,4.6 -4.6,-2.7 -1.92,3.11 -1.99,7.11 -0.07,4 1.77,11.22 -2.83,8.21 -4.6,-3.02 -4.6,6.18 0,4.6 4.6,-1.59 3.42,3.19 2.83,7.190004 -0.59,4 -2,10.82 2.6,7.77 4.6,-3.04 4.6,6.16 0,4.6 -4.6,-1.55 -1.84,3.63 -2.6,7.63 -0.76,4 -2.27,10.64 2.33,8.26 4.6,-2.39 4.6,6.81 0,4.6 -4.6,-2.22 -3.12,3.14 -2.33,7.14 0.79,4 2.75,9.16 -1.85,7.64 -4.6,-1.52 -4.6,7.68 0,4.6 4.6,-3.08 1.9,3.76 1.85,7.76 -0.05,4 1.96,10.17 -2.64,7.55 -4.6,-2.62 -4.6,6.58 0,4.6 4.6,-1.98 2.25,3.85 2.64,7.85 0.39,4 -2.9,10.43 1.7,7.46 4.6,-2.96 4.6,6.24 0,4.6 -4.6,-1.63 -2.04,3.94 -1.7,7.94 m 20,-200.00000451 c 0.42,4.00000001 -1.84,10.07000051 2.76,7.84000001 4.6,-2.23 4.6,6.9700005 0,4.6000005 -4.6,-2.37 -2.79,3.56 -2.76,7.56 0.03,4 2.88,9.78 -1.72,7.29 -4.6,-2.5 -4.6,6.7 0,4.6 4.6,-2.11 2.33,4.11 1.72,8.11 -0.61,4 -1.95,9.6 2.65,6.92 4.6,-2.68 4.6,6.52 0,4.6 -4.6,-1.92 -2.75,4.48 -2.65,8.48 0.1,4 -2.2,9.25 2.4,7.6 4.6,-1.64 4.6,7.56 0,4.6 -4.6,-2.95 -1.86,3.8 -2.4,7.8 -0.54,4 -3.06,9.67 1.54,7.87 4.6,-1.8 4.6,7.4 0,4.6 -4.6,-2.8 -1.92,3.53 -1.54,7.530004 0.38,4 2.66,9.44 -1.94,7.86 -4.6,-1.58 -4.6,7.62 0,4.6 4.6,-3.02 1.49,3.54 1.94,7.54 0.45,4 -2.95,10.5 1.65,8.06 4.6,-2.44 4.6,6.76 0,4.6 -4.6,-2.16 -1.42,3.34 -1.65,7.34 -0.23,4 -1.91,9.32 2.69,7.6 4.6,-1.71 4.6,7.49 0,4.6 -4.6,-2.88 -3.08,3.8 -2.69,7.8 0.39,4 -2.1,10.66 2.5,7.7 4.6,-2.96 4.6,6.24 0,4.6 -4.6,-1.64 -2.56,3.7 -2.5,7.7 0.06,4 2.9,10.17 -1.7,7.5 -4.6,-2.68 -4.6,6.52 0,4.6 4.6,-1.93 1.39,3.9 1.7,7.9 m 20,-200.00000451 c 0.82,4.00000001 2.38,10.46000051 -2.22,7.65000001 -4.6,-2.81 -4.6,6.3900005 0,4.6000005 4.6,-1.79 3.04,3.75 2.22,7.75 -0.82,4 -2.62,9.84 1.98,8.21 4.6,-1.64 4.6,7.56 0,4.6 -4.6,-2.97 -2.39,3.19 -1.98,7.19 0.41,4 -2.7,11.09 1.9,8.15 4.6,-2.94 4.6,6.26 0,4.6 -4.6,-1.66 -1.79,3.25 -1.9,7.25 -0.11,4 -3.11,10.19 1.49,7.41 4.6,-2.79 4.6,6.41 0,4.6 -4.6,-1.82 -1.49,3.99 -1.49,7.99 0,4 -2.23,9.68 2.37,7.15 4.6,-2.52 4.6,6.68 0,4.6 -4.6,-2.07 -1.73,4.25 -2.37,8.250004 -0.64,4 -2.81,9.64 1.79,6.97 4.6,-2.66 4.6,6.54 0,4.6 -4.6,-1.93 -1.38,4.43 -1.79,8.43 -0.41,4 -2.22,10.68 2.38,8.45 4.6,-2.23 4.6,6.97 0,4.6 -4.6,-2.37 -1.89,2.95 -2.38,6.95 -0.49,4 -2.49,10.49 2.11,7.76 4.6,-2.73 4.6,6.47 0,4.6 -4.6,-1.87 -1.85,3.64 -2.11,7.64 -0.26,4 3.11,10.7 -1.49,7.8 -4.6,-2.9 -4.6,6.3 0,4.6 4.6,-1.7 0.81,3.6 1.49,7.6 0.68,4 2.56,10.29 -2.04,7.82 -4.6,-2.46 -4.6,6.74 0,4.6 4.6,-2.13 1.7,3.58 2.04,7.58 M 0.05,0.94999549 h 300 V 200.95 H 0.05 V 0.94999549"
     id="path3709"
     style="fill:none;stroke:#ff0000;stroke-width:0.1"
     inkscape:connector-curvature="0" />
  <path
     sodipodi:type="spiral"
     style="fill:none;fill-rule:evenodd;stroke:#0000ff;stroke-width:0.26458332"
     id="path3721"
     sodipodi:cx="149.52831"
     sodipodi:cy="90.386787"
     sodipodi:expansion="2.1400001"
     sodipodi:revolution="13"
     sodipodi:radius="190.47319"
     sodipodi:argument="-18.431332"
     sodipodi:t0="0.119"
     d="m 148.01455,89.076337 c 0.64211,-1.184288 2.21161,-1.418877 3.31945,-0.775387 1.55678,0.904266 1.84991,3.000932 0.95069,4.472019 -1.21271,1.983942 -3.92083,2.342091 -5.80987,1.141034 -2.46667,-1.568314 -2.89639,-4.97367 -1.34648,-7.336235 1.97187,-3.005776 6.16158,-3.513673 9.05404,-1.567106 3.60202,2.424086 4.19475,7.486492 1.80298,10.965952 -2.92562,4.256086 -8.95019,4.940366 -13.07443,2.054198 -4.96862,-3.477068 -5.75122,-10.554313 -2.32083,-15.381766 4.07899,-5.740209 12.3004,-6.627966 17.89008,-2.602969 6.57143,4.731934 7.57121,14.189907 2.9007,20.601393 -5.43637,7.46282 -16.22418,8.58154 -23.51759,3.21409 -8.41486,-6.192775 -9.65951,-18.404484 -3.54322,-26.640434 7.00158,-9.428063 20.73205,-10.805644 29.97164,-3.8882 10.50286,7.863226 12.02044,23.208042 4.24908,33.512824 -8.7781,11.63971 -25.83356,13.30439 -37.26553,4.62594 -12.83902,-9.74658 -14.65794,-28.609638 -5.01886,-41.231224 10.76904,-14.101182 31.53732,-16.081535 45.41133,-5.42791 15.42661,11.845834 17.57561,34.617562 5.85316,49.807214 -12.97729,16.81565 -37.8513,19.14057 -54.42016,6.29469 -18.26869,-14.16376 -20.77682,-41.239444 -6.75256,-59.251473 15.40553,-19.786056 44.78285,-22.484725 64.30233,-7.226829 21.3681,16.702912 24.26467,48.482372 7.71758,69.573932 -18.05621,23.01514 -52.33882,26.11702 -75.06743,8.22486 -24.727488,-19.46569 -28.042109,-56.352969 -8.74874,-80.7839 20.93165,-26.505468 60.52561,-30.04029 86.72445,-9.289288 28.34936,22.454348 32.11188,64.857478 9.84655,92.890098 -24.03404,30.25948 -69.34929,34.25722 -99.28187,10.4206 C 69.604951,119.80147 65.36444,71.470716 90.829552,39.571706 118.19499,5.2922386 169.64509,0.80137167 203.57726,27.95244 c 36.38989,29.11763 41.13873,83.79134 12.244,119.82367 -30.92779,38.56762 -88.92979,43.58205 -127.129558,12.88574 C 47.8788,127.86568 42.591096,66.430324 75.147176,25.995588 109.87013,-17.130411 174.84434,-22.699075 217.58182,11.775157 263.08897,48.48355 268.94631,117.10248 232.49532,162.21072 193.74263,210.16733 121.37273,216.32108 73.825455,177.83451 23.350871,136.97845 16.89293,60.750962 57.474127,10.69616 100.49282,-42.365167 180.68488,-49.135083 233.31594,-6.400027 289.033,38.840775 296.1227,123.10475 251.17435,178.38102 203.65177,236.82301 115.2082,244.24035 57.217529,197.01906 -4.0188212,147.15484 -11.771642,54.423643 37.78241,-6.3508157 90.048312,-70.451161 187.17551,-78.547354 250.80336,-26.600519 317.83755,28.127302 326.28502,129.75919 271.8852,196.31025 214.63504,266.34833 108.38944,275.155 38.845147,218.24181 -34.267069,158.40873 -43.440899,47.440086 16.046231,-25.167667 78.523008,-101.42447 194.32434,-110.97343 270.06598,-48.851621 333.21535,2.9422585 354.69027,92.508131 323.58491,167.74527" />
</svg>
