  0
SECTION
  2
HEADER
  9
$ACADVER
  1
AC1014
  9
$HANDSEED
  5
FFFF
  9
$MEASUREMENT
 70
     1
  0
ENDSEC
  0
SECTION
  2
TABLES
  0
TABLE
  2
VPORT
  5
8
330
0
100
AcDbSymbolTable
 70
     4
  0
VPORT
  5
2E
330
8
100
AcDbSymbolTableRecord
100
AcDbViewportTableRecord
  2
*ACTIVE
 70
     0
 10
0.0
 20
0.0
 11
1.0
 21
1.0
 12
210.0
 22
148.5
 13
0.0
 23
0.0
 14
10.0
 24
10.0
 15
10.0
 25
10.0
 16
0.0
 26
0.0
 36
1.0
 17
0.0
 27
0.0
 37
0.0
 40
341.0
 41
1.24
 42
50.0
 43
0.0
 44
0.0
 50
0.0
 51
0.0
 71
     0
 72
   100
 73
     1
 74
     3
 75
     0
 76
     0
 77
     0
 78
     0
  0
ENDTAB
  0
TABLE
  2
LTYPE
  5
5
330
0
100
AcDbSymbolTable
 70
     1
  0
LTYPE
  5
14
330
5
100
AcDbSymbolTableRecord
100
AcDbLinetypeTableRecord
  2
BYBLOCK
 70
     0
  3

 72
    65
 73
     0
 40
0.0
  0
LTYPE
  5
15
330
5
100
AcDbSymbolTableRecord
100
AcDbLinetypeTableRecord
  2
BYLAYER
 70
     0
  3

 72
    65
 73
     0
 40
0.0
  0
LTYPE
  5
16
330
5
100
AcDbSymbolTableRecord
100
AcDbLinetypeTableRecord
  2
CONTINUOUS
 70
     0
  3
Solid line
 72
    65
 73
     0
 40
0.0
  0
ENDTAB
  0
TABLE
  2
LAYER
  5
2
100
AcDbSymbolTable
 70
2
  0
LAYER
  5
50
100
AcDbSymbolTableRecord
100
AcDbLayerTableRecord
  2
0
 70
0
  6
CONTINUOUS
  0
LAYER
  5
51
100
AcDbSymbolTableRecord
100
AcDbLayerTableRecord
  2
Layer_1
 70
0
  6
CONTINUOUS
  0
ENDTAB
  0
TABLE
  2
STYLE
  5
3
330
0
100
AcDbSymbolTable
 70
     1
  0
STYLE
  5
11
330
3
100
AcDbSymbolTableRecord
100
AcDbTextStyleTableRecord
  2
STANDARD
 70
     0
 40
0.0
 41
1.0
 50
0.0
 71
     0
 42
2.5
  3
txt
  4

  0
ENDTAB
  0
TABLE
  2
VIEW
  5
6
330
0
100
AcDbSymbolTable
 70
     0
  0
ENDTAB
  0
TABLE
  2
UCS
  5
7
330
0
100
AcDbSymbolTable
 70
     0
  0
ENDTAB
  0
TABLE
  2
APPID
  5
9
330
0
100
AcDbSymbolTable
 70
     2
  0
APPID
  5
12
330
9
100
AcDbSymbolTableRecord
100
AcDbRegAppTableRecord
  2
ACAD
 70
     0
  0
ENDTAB
  0
TABLE
  2
DIMSTYLE
  5
A
330
0
100
AcDbSymbolTable
 70
     1
  0
DIMSTYLE
105
27
330
A
100
AcDbSymbolTableRecord
100
AcDbDimStyleTableRecord
  2
ISO-25
 70
     0
  3

  4

  5

  6

  7

 40
1.0
 41
2.5
 42
0.625
 43
3.75
 44
1.25
 45
0.0
 46
0.0
 47
0.0
 48
0.0
140
2.5
141
2.5
142
0.0
143
0.03937007874016
144
1.0
145
0.0
146
1.0
147
0.625
 71
     0
 72
     0
 73
     0
 74
     0
 75
     0
 76
     0
 77
     1
 78
     8
170
     0
171
     3
172
     1
173
     0
174
     0
175
     0
176
     0
177
     0
178
     0
270
     2
271
     2
272
     2
273
     2
274
     3
340
11
275
     0
280
     0
281
     0
282
     0
283
     0
284
     8
285
     0
286
     0
287
     3
288
     0
  0
ENDTAB
  0
TABLE
  2
BLOCK_RECORD
  5
1
330
0
100
AcDbSymbolTable
 70
     1
  0
BLOCK_RECORD
  5
1F
330
1
100
AcDbSymbolTableRecord
100
AcDbBlockTableRecord
  2
*MODEL_SPACE
  0
BLOCK_RECORD
  5
1B
330
1
100
AcDbSymbolTableRecord
100
AcDbBlockTableRecord
  2
*PAPER_SPACE
  0
ENDTAB
  0
ENDSEC
  0
SECTION
  2
BLOCKS
  0
BLOCK
  5
20
330
1F
100
AcDbEntity
  8
0
100
AcDbBlockBegin
  2
*MODEL_SPACE
 70
     0
 10
0.0
 20
0.0
 30
0.0
  3
*MODEL_SPACE
  1

  0
ENDBLK
  5
21
330
1F
100
AcDbEntity
  8
0
100
AcDbBlockEnd
  0
BLOCK
  5
1C
330
1B
100
AcDbEntity
 67
     1
  8
0
100
AcDbBlockBegin
  2
*PAPER_SPACE
  1

  0
ENDBLK
  5
1D
330
1B
100
AcDbEntity
 67
     1
  8
0
100
AcDbBlockEnd
  0
ENDSEC
  0
SECTION
  2
ENTITIES
  0
SPLINE
  5
100
100
AcDbEntity
  8
Layer_1
 62
7
100
AcDbSpline
 70
8
 71
3
 72
8
 73
4
 74
0
 40
0
 40
0
 40
0
 40
0
 40
1
 40
1
 40
1
 40
1
 10
79.107145
 20
128.511910
 30
0.0
 10
79.107145
 20
127.797379
 30
0.0
 10
78.725947
 20
127.137125
 30
0.0
 10
78.107145
 20
126.779859
 30
0.0
  0
SPLINE
  5
101
100
AcDbEntity
  8
Layer_1
 62
7
100
AcDbSpline
 70
8
 71
3
 72
8
 73
4
 74
0
 40
0
 40
0
 40
0
 40
0
 40
1
 40
1
 40
1
 40
1
 10
78.107145
 20
126.779859
 30
0.0
 10
77.488343
 20
126.422594
 30
0.0
 10
76.725947
 20
126.422594
 30
0.0
 10
76.107145
 20
126.779859
 30
0.0
  0
SPLINE
  5
102
100
AcDbEntity
  8
Layer_1
 62
7
100
AcDbSpline
 70
8
 71
3
 72
8
 73
4
 74
0
 40
0
 40
0
 40
0
 40
0
 40
1
 40
1
 40
1
 40
1
 10
76.107145
 20
126.779859
 30
0.0
 10
75.488343
 20
127.137125
 30
0.0
 10
75.107145
 20
127.797379
 30
0.0
 10
75.107145
 20
128.511910
 30
0.0
  0
SPLINE
  5
103
100
AcDbEntity
  8
Layer_1
 62
7
100
AcDbSpline
 70
8
 71
3
 72
8
 73
4
 74
0
 40
0
 40
0
 40
0
 40
0
 40
1
 40
1
 40
1
 40
1
 10
75.107145
 20
128.511910
 30
0.0
 10
75.107145
 20
129.226441
 30
0.0
 10
75.488343
 20
129.886695
 30
0.0
 10
76.107145
 20
130.243961
 30
0.0
  0
SPLINE
  5
104
100
AcDbEntity
  8
Layer_1
 62
7
100
AcDbSpline
 70
8
 71
3
 72
8
 73
4
 74
0
 40
0
 40
0
 40
0
 40
0
 40
1
 40
1
 40
1
 40
1
 10
76.107145
 20
130.243961
 30
0.0
 10
76.725947
 20
130.601226
 30
0.0
 10
77.488343
 20
130.601226
 30
0.0
 10
78.107145
 20
130.243961
 30
0.0
  0
SPLINE
  5
105
100
AcDbEntity
  8
Layer_1
 62
7
100
AcDbSpline
 70
8
 71
3
 72
8
 73
4
 74
0
 40
0
 40
0
 40
0
 40
0
 40
1
 40
1
 40
1
 40
1
 10
78.107145
 20
130.243961
 30
0.0
 10
78.725947
 20
129.886695
 30
0.0
 10
79.107145
 20
129.226441
 30
0.0
 10
79.107145
 20
128.511910
 30
0.0
  0
LWPOLYLINE
  5
106
100
AcDbEntity
  8
Layer_1
 62
7
100
AcDbPolyline
 90
192
 70
1
 10
91.067585
 20
129.636110
 30
0.0
 10
91.418265
 20
129.664350
 30
0.0
 10
92.353305
 20
129.511200
 30
0.0
 10
93.652995
 20
128.967390
 30
0.0
 10
93.652995
 20
128.056430
 30
0.0
 10
92.353305
 20
127.512620
 30
0.0
 10
91.418265
 20
127.359470
 30
0.0
 10
91.067585
 20
127.387710
 30
0.0
 10
90.882865
 20
125.984580
 30
0.0
 10
91.228895
 20
125.921090
 30
0.0
 10
92.092445
 20
125.531150
 30
0.0
 10
93.207095
 20
124.669490
 30
0.0
 10
92.971315
 20
123.789570
 30
0.0
 10
91.575175
 20
123.600680
 30
0.0
 10
90.632355
 20
123.694750
 30
0.0
 10
90.300935
 20
123.812790
 30
0.0
 10
89.759345
 20
122.505280
 30
0.0
 10
90.077155
 20
122.354390
 30
0.0
 10
90.810355
 20
121.754240
 30
0.0
 10
91.664005
 20
120.633440
 30
0.0
 10
91.208525
 20
119.844530
 30
0.0
 10
89.811065
 20
120.023420
 30
0.0
 10
88.924715
 20
120.358310
 30
0.0
 10
88.635145
 20
120.558100
 30
0.0
 10
87.773595
 20
119.435320
 30
0.0
 10
88.041535
 20
119.207320
 30
0.0
 10
88.594415
 20
118.437850
 30
0.0
 10
89.128895
 20
117.134300
 30
0.0
 10
88.484755
 20
116.490160
 30
0.0
 10
87.181205
 20
117.024640
 30
0.0
 10
86.411735
 20
117.577520
 30
0.0
 10
86.183735
 20
117.845460
 30
0.0
 10
85.060955
 20
116.983910
 30
0.0
 10
85.260745
 20
116.694340
 30
0.0
 10
85.595635
 20
115.807990
 30
0.0
 10
85.774525
 20
114.410530
 30
0.0
 10
84.985615
 20
113.955050
 30
0.0
 10
83.864815
 20
114.808700
 30
0.0
 10
83.264665
 20
115.541900
 30
0.0
 10
83.113775
 20
115.859710
 30
0.0
 10
81.806265
 20
115.318120
 30
0.0
 10
81.924305
 20
114.986700
 30
0.0
 10
82.018375
 20
114.043880
 30
0.0
 10
81.829485
 20
112.647740
 30
0.0
 10
80.949565
 20
112.411960
 30
0.0
 10
80.087905
 20
113.526610
 30
0.0
 10
79.697965
 20
114.390160
 30
0.0
 10
79.634475
 20
114.736190
 30
0.0
 10
78.231345
 20
114.551470
 30
0.0
 10
78.259585
 20
114.200790
 30
0.0
 10
78.106435
 20
113.265750
 30
0.0
 10
77.562625
 20
111.966060
 30
0.0
 10
76.651665
 20
111.966060
 30
0.0
 10
76.107855
 20
113.265750
 30
0.0
 10
75.954705
 20
114.200790
 30
0.0
 10
75.982945
 20
114.551470
 30
0.0
 10
74.579815
 20
114.736190
 30
0.0
 10
74.516325
 20
114.390160
 30
0.0
 10
74.126385
 20
113.526610
 30
0.0
 10
73.264725
 20
112.411960
 30
0.0
 10
72.384805
 20
112.647740
 30
0.0
 10
72.195915
 20
114.043880
 30
0.0
 10
72.289985
 20
114.986700
 30
0.0
 10
72.408025
 20
115.318120
 30
0.0
 10
71.100515
 20
115.859710
 30
0.0
 10
70.949625
 20
115.541900
 30
0.0
 10
70.349475
 20
114.808700
 30
0.0
 10
69.228675
 20
113.955050
 30
0.0
 10
68.439765
 20
114.410530
 30
0.0
 10
68.618655
 20
115.807990
 30
0.0
 10
68.953545
 20
116.694340
 30
0.0
 10
69.153335
 20
116.983910
 30
0.0
 10
68.030555
 20
117.845460
 30
0.0
 10
67.802555
 20
117.577520
 30
0.0
 10
67.033085
 20
117.024640
 30
0.0
 10
65.729535
 20
116.490160
 30
0.0
 10
65.085395
 20
117.134300
 30
0.0
 10
65.619875
 20
118.437850
 30
0.0
 10
66.172755
 20
119.207320
 30
0.0
 10
66.440695
 20
119.435320
 30
0.0
 10
65.579145
 20
120.558100
 30
0.0
 10
65.289575
 20
120.358310
 30
0.0
 10
64.403225
 20
120.023420
 30
0.0
 10
63.005765
 20
119.844530
 30
0.0
 10
62.550285
 20
120.633440
 30
0.0
 10
63.403935
 20
121.754240
 30
0.0
 10
64.137135
 20
122.354390
 30
0.0
 10
64.454945
 20
122.505280
 30
0.0
 10
63.913355
 20
123.812790
 30
0.0
 10
63.581935
 20
123.694750
 30
0.0
 10
62.639115
 20
123.600680
 30
0.0
 10
61.242975
 20
123.789570
 30
0.0
 10
61.007195
 20
124.669490
 30
0.0
 10
62.121845
 20
125.531150
 30
0.0
 10
62.985395
 20
125.921090
 30
0.0
 10
63.331425
 20
125.984580
 30
0.0
 10
63.146705
 20
127.387710
 30
0.0
 10
62.796025
 20
127.359470
 30
0.0
 10
61.860985
 20
127.512620
 30
0.0
 10
60.561295
 20
128.056430
 30
0.0
 10
60.561295
 20
128.967390
 30
0.0
 10
61.860985
 20
129.511200
 30
0.0
 10
62.796025
 20
129.664350
 30
0.0
 10
63.146705
 20
129.636110
 30
0.0
 10
63.331425
 20
131.039240
 30
0.0
 10
62.985395
 20
131.102730
 30
0.0
 10
62.121845
 20
131.492670
 30
0.0
 10
61.007195
 20
132.354330
 30
0.0
 10
61.242975
 20
133.234250
 30
0.0
 10
62.639115
 20
133.423140
 30
0.0
 10
63.581935
 20
133.329070
 30
0.0
 10
63.913355
 20
133.211030
 30
0.0
 10
64.454945
 20
134.518540
 30
0.0
 10
64.137135
 20
134.669430
 30
0.0
 10
63.403935
 20
135.269580
 30
0.0
 10
62.550285
 20
136.390380
 30
0.0
 10
63.005765
 20
137.179290
 30
0.0
 10
64.403225
 20
137.000400
 30
0.0
 10
65.289575
 20
136.665510
 30
0.0
 10
65.579145
 20
136.465720
 30
0.0
 10
66.440695
 20
137.588500
 30
0.0
 10
66.172755
 20
137.816500
 30
0.0
 10
65.619875
 20
138.585970
 30
0.0
 10
65.085395
 20
139.889520
 30
0.0
 10
65.729535
 20
140.533660
 30
0.0
 10
67.033085
 20
139.999180
 30
0.0
 10
67.802555
 20
139.446300
 30
0.0
 10
68.030555
 20
139.178360
 30
0.0
 10
69.153335
 20
140.039910
 30
0.0
 10
68.953545
 20
140.329480
 30
0.0
 10
68.618655
 20
141.215830
 30
0.0
 10
68.439765
 20
142.613290
 30
0.0
 10
69.228675
 20
143.068770
 30
0.0
 10
70.349475
 20
142.215120
 30
0.0
 10
70.949625
 20
141.481920
 30
0.0
 10
71.100515
 20
141.164110
 30
0.0
 10
72.408025
 20
141.705700
 30
0.0
 10
72.289985
 20
142.037120
 30
0.0
 10
72.195915
 20
142.979940
 30
0.0
 10
72.384805
 20
144.376080
 30
0.0
 10
73.264725
 20
144.611860
 30
0.0
 10
74.126385
 20
143.497210
 30
0.0
 10
74.516325
 20
142.633660
 30
0.0
 10
74.579815
 20
142.287630
 30
0.0
 10
75.982945
 20
142.472350
 30
0.0
 10
75.954705
 20
142.823030
 30
0.0
 10
76.107855
 20
143.758070
 30
0.0
 10
76.651665
 20
145.057760
 30
0.0
 10
77.562625
 20
145.057760
 30
0.0
 10
78.106435
 20
143.758070
 30
0.0
 10
78.259585
 20
142.823030
 30
0.0
 10
78.231345
 20
142.472350
 30
0.0
 10
79.634475
 20
142.287630
 30
0.0
 10
79.697965
 20
142.633660
 30
0.0
 10
80.087905
 20
143.497210
 30
0.0
 10
80.949565
 20
144.611860
 30
0.0
 10
81.829485
 20
144.376080
 30
0.0
 10
82.018375
 20
142.979940
 30
0.0
 10
81.924305
 20
142.037120
 30
0.0
 10
81.806265
 20
141.705700
 30
0.0
 10
83.113775
 20
141.164110
 30
0.0
 10
83.264665
 20
141.481920
 30
0.0
 10
83.864815
 20
142.215120
 30
0.0
 10
84.985615
 20
143.068770
 30
0.0
 10
85.774525
 20
142.613290
 30
0.0
 10
85.595635
 20
141.215830
 30
0.0
 10
85.260745
 20
140.329480
 30
0.0
 10
85.060955
 20
140.039910
 30
0.0
 10
86.183735
 20
139.178360
 30
0.0
 10
86.411735
 20
139.446300
 30
0.0
 10
87.181205
 20
139.999180
 30
0.0
 10
88.484755
 20
140.533660
 30
0.0
 10
89.128895
 20
139.889520
 30
0.0
 10
88.594415
 20
138.585970
 30
0.0
 10
88.041535
 20
137.816500
 30
0.0
 10
87.773595
 20
137.588500
 30
0.0
 10
88.635145
 20
136.465720
 30
0.0
 10
88.924715
 20
136.665510
 30
0.0
 10
89.811065
 20
137.000400
 30
0.0
 10
91.208525
 20
137.179290
 30
0.0
 10
91.664005
 20
136.390380
 30
0.0
 10
90.810355
 20
135.269580
 30
0.0
 10
90.077155
 20
134.669430
 30
0.0
 10
89.759345
 20
134.518540
 30
0.0
 10
90.300935
 20
133.211030
 30
0.0
 10
90.632355
 20
133.329070
 30
0.0
 10
91.575175
 20
133.423140
 30
0.0
 10
92.971315
 20
133.234250
 30
0.0
 10
93.207095
 20
132.354330
 30
0.0
 10
92.092445
 20
131.492670
 30
0.0
 10
91.228895
 20
131.102730
 30
0.0
 10
90.882865
 20
131.039240
 30
0.0
  0
LWPOLYLINE
  5
107
100
AcDbEntity
  8
Layer_1
 62
7
100
AcDbPolyline
 90
1
 70
1
 10
79.107145
 20
128.511910
 30
0.0
  0
ENDSEC
  0
SECTION
  2
OBJECTS
  0
DICTIONARY
  5
C
330
0
100
AcDbDictionary
  3
ACAD_GROUP
350
D
  3
ACAD_MLINESTYLE
350
17
  0
DICTIONARY
  5
D
330
C
100
AcDbDictionary
  0
DICTIONARY
  5
1A
330
C
100
AcDbDictionary
  0
DICTIONARY
  5
17
330
C
100
AcDbDictionary
  3
STANDARD
350
18
  0
DICTIONARY
  5
19
330
C
100
AcDbDictionary
  0
ENDSEC
  0
EOF
