  0
SECTION
  2
HEADER
  9
$ACADVER
  1
AC1014
  9
$HANDSEED
  5
FFFF
  9
$MEASUREMENT
 70
     1
  0
ENDSEC
  0
SECTION
  2
TABLES
  0
TABLE
  2
VPORT
  5
8
330
0
100
AcDbSymbolTable
 70
     4
  0
VPORT
  5
2E
330
8
100
AcDbSymbolTableRecord
100
AcDbViewportTableRecord
  2
*ACTIVE
 70
     0
 10
0.0
 20
0.0
 11
1.0
 21
1.0
 12
210.0
 22
148.5
 13
0.0
 23
0.0
 14
10.0
 24
10.0
 15
10.0
 25
10.0
 16
0.0
 26
0.0
 36
1.0
 17
0.0
 27
0.0
 37
0.0
 40
341.0
 41
1.24
 42
50.0
 43
0.0
 44
0.0
 50
0.0
 51
0.0
 71
     0
 72
   100
 73
     1
 74
     3
 75
     0
 76
     0
 77
     0
 78
     0
  0
ENDTAB
  0
TABLE
  2
LTYPE
  5
5
330
0
100
AcDbSymbolTable
 70
     1
  0
LTYPE
  5
14
330
5
100
AcDbSymbolTableRecord
100
AcDbLinetypeTableRecord
  2
BYBLOCK
 70
     0
  3

 72
    65
 73
     0
 40
0.0
  0
LTYPE
  5
15
330
5
100
AcDbSymbolTableRecord
100
AcDbLinetypeTableRecord
  2
BYLAYER
 70
     0
  3

 72
    65
 73
     0
 40
0.0
  0
LTYPE
  5
16
330
5
100
AcDbSymbolTableRecord
100
AcDbLinetypeTableRecord
  2
CONTINUOUS
 70
     0
  3
Solid line
 72
    65
 73
     0
 40
0.0
  0
ENDTAB
  0
TABLE
  2
LAYER
  5
2
100
AcDbSymbolTable
 70
2
  0
LAYER
  5
50
100
AcDbSymbolTableRecord
100
AcDbLayerTableRecord
  2
0
 70
0
  6
CONTINUOUS
  0
LAYER
  5
51
100
AcDbSymbolTableRecord
100
AcDbLayerTableRecord
  2
Layer_1
 70
0
  6
CONTINUOUS
  0
ENDTAB
  0
TABLE
  2
STYLE
  5
3
330
0
100
AcDbSymbolTable
 70
     1
  0
STYLE
  5
11
330
3
100
AcDbSymbolTableRecord
100
AcDbTextStyleTableRecord
  2
STANDARD
 70
     0
 40
0.0
 41
1.0
 50
0.0
 71
     0
 42
2.5
  3
txt
  4

  0
ENDTAB
  0
TABLE
  2
VIEW
  5
6
330
0
100
AcDbSymbolTable
 70
     0
  0
ENDTAB
  0
TABLE
  2
UCS
  5
7
330
0
100
AcDbSymbolTable
 70
     0
  0
ENDTAB
  0
TABLE
  2
APPID
  5
9
330
0
100
AcDbSymbolTable
 70
     2
  0
APPID
  5
12
330
9
100
AcDbSymbolTableRecord
100
AcDbRegAppTableRecord
  2
ACAD
 70
     0
  0
ENDTAB
  0
TABLE
  2
DIMSTYLE
  5
A
330
0
100
AcDbSymbolTable
 70
     1
  0
DIMSTYLE
105
27
330
A
100
AcDbSymbolTableRecord
100
AcDbDimStyleTableRecord
  2
ISO-25
 70
     0
  3

  4

  5

  6

  7

 40
1.0
 41
2.5
 42
0.625
 43
3.75
 44
1.25
 45
0.0
 46
0.0
 47
0.0
 48
0.0
140
2.5
141
2.5
142
0.0
143
0.03937007874016
144
1.0
145
0.0
146
1.0
147
0.625
 71
     0
 72
     0
 73
     0
 74
     0
 75
     0
 76
     0
 77
     1
 78
     8
170
     0
171
     3
172
     1
173
     0
174
     0
175
     0
176
     0
177
     0
178
     0
270
     2
271
     2
272
     2
273
     2
274
     3
340
11
275
     0
280
     0
281
     0
282
     0
283
     0
284
     8
285
     0
286
     0
287
     3
288
     0
  0
ENDTAB
  0
TABLE
  2
BLOCK_RECORD
  5
1
330
0
100
AcDbSymbolTable
 70
     1
  0
BLOCK_RECORD
  5
1F
330
1
100
AcDbSymbolTableRecord
100
AcDbBlockTableRecord
  2
*MODEL_SPACE
  0
BLOCK_RECORD
  5
1B
330
1
100
AcDbSymbolTableRecord
100
AcDbBlockTableRecord
  2
*PAPER_SPACE
  0
ENDTAB
  0
ENDSEC
  0
SECTION
  2
BLOCKS
  0
BLOCK
  5
20
330
1F
100
AcDbEntity
  8
0
100
AcDbBlockBegin
  2
*MODEL_SPACE
 70
     0
 10
0.0
 20
0.0
 30
0.0
  3
*MODEL_SPACE
  1

  0
ENDBLK
  5
21
330
1F
100
AcDbEntity
  8
0
100
AcDbBlockEnd
  0
BLOCK
  5
1C
330
1B
100
AcDbEntity
 67
     1
  8
0
100
AcDbBlockBegin
  2
*PAPER_SPACE
  1

  0
ENDBLK
  5
1D
330
1B
100
AcDbEntity
 67
     1
  8
0
100
AcDbBlockEnd
  0
ENDSEC
  0
SECTION
  2
ENTITIES
  0
LWPOLYLINE
  5
100
100
AcDbEntity
  8
Layer_1
 62
7
100
AcDbPolyline
 90
96
 70
1
 10
85.038483
 20
125.842660
 30
0.0
 10
85.641403
 20
125.931200
 30
0.0
 10
85.995053
 20
125.896820
 30
0.0
 10
86.992423
 20
125.445320
 30
0.0
 10
86.992423
 20
124.852600
 30
0.0
 10
85.995053
 20
124.401100
 30
0.0
 10
85.641403
 20
124.366720
 30
0.0
 10
85.038483
 20
124.455260
 30
0.0
 10
84.752433
 20
123.387730
 30
0.0
 10
85.318853
 20
123.162940
 30
0.0
 10
85.607933
 20
122.956350
 30
0.0
 10
86.245933
 20
122.066650
 30
0.0
 10
85.949573
 20
121.553340
 30
0.0
 10
84.860073
 20
121.661010
 30
0.0
 10
84.536613
 20
121.808070
 30
0.0
 10
84.058733
 20
122.186210
 30
0.0
 10
83.277243
 20
121.404720
 30
0.0
 10
83.655383
 20
120.926840
 30
0.0
 10
83.802443
 20
120.603380
 30
0.0
 10
83.910113
 20
119.513880
 30
0.0
 10
83.396803
 20
119.217520
 30
0.0
 10
82.507103
 20
119.855520
 30
0.0
 10
82.300513
 20
120.144600
 30
0.0
 10
82.075723
 20
120.711020
 30
0.0
 10
81.008193
 20
120.424970
 30
0.0
 10
81.096733
 20
119.822050
 30
0.0
 10
81.062353
 20
119.468400
 30
0.0
 10
80.610853
 20
118.471030
 30
0.0
 10
80.018133
 20
118.471030
 30
0.0
 10
79.566633
 20
119.468400
 30
0.0
 10
79.532253
 20
119.822050
 30
0.0
 10
79.620793
 20
120.424970
 30
0.0
 10
78.553263
 20
120.711020
 30
0.0
 10
78.328473
 20
120.144600
 30
0.0
 10
78.121883
 20
119.855520
 30
0.0
 10
77.232183
 20
119.217520
 30
0.0
 10
76.718873
 20
119.513880
 30
0.0
 10
76.826543
 20
120.603380
 30
0.0
 10
76.973603
 20
120.926840
 30
0.0
 10
77.351743
 20
121.404720
 30
0.0
 10
76.570253
 20
122.186210
 30
0.0
 10
76.092373
 20
121.808070
 30
0.0
 10
75.768913
 20
121.661010
 30
0.0
 10
74.679413
 20
121.553340
 30
0.0
 10
74.383053
 20
122.066650
 30
0.0
 10
75.021053
 20
122.956350
 30
0.0
 10
75.310133
 20
123.162940
 30
0.0
 10
75.876553
 20
123.387730
 30
0.0
 10
75.590503
 20
124.455260
 30
0.0
 10
74.987583
 20
124.366720
 30
0.0
 10
74.633933
 20
124.401100
 30
0.0
 10
73.636563
 20
124.852600
 30
0.0
 10
73.636563
 20
125.445320
 30
0.0
 10
74.633933
 20
125.896820
 30
0.0
 10
74.987583
 20
125.931200
 30
0.0
 10
75.590503
 20
125.842660
 30
0.0
 10
75.876553
 20
126.910190
 30
0.0
 10
75.310133
 20
127.134980
 30
0.0
 10
75.021053
 20
127.341570
 30
0.0
 10
74.383053
 20
128.231270
 30
0.0
 10
74.679413
 20
128.744580
 30
0.0
 10
75.768913
 20
128.636910
 30
0.0
 10
76.092373
 20
128.489850
 30
0.0
 10
76.570253
 20
128.111710
 30
0.0
 10
77.351743
 20
128.893200
 30
0.0
 10
76.973603
 20
129.371080
 30
0.0
 10
76.826543
 20
129.694540
 30
0.0
 10
76.718873
 20
130.784040
 30
0.0
 10
77.232183
 20
131.080400
 30
0.0
 10
78.121883
 20
130.442400
 30
0.0
 10
78.328473
 20
130.153320
 30
0.0
 10
78.553263
 20
129.586900
 30
0.0
 10
79.620793
 20
129.872950
 30
0.0
 10
79.532253
 20
130.475870
 30
0.0
 10
79.566633
 20
130.829520
 30
0.0
 10
80.018133
 20
131.826890
 30
0.0
 10
80.610853
 20
131.826890
 30
0.0
 10
81.062353
 20
130.829520
 30
0.0
 10
81.096733
 20
130.475870
 30
0.0
 10
81.008193
 20
129.872950
 30
0.0
 10
82.075723
 20
129.586900
 30
0.0
 10
82.300513
 20
130.153320
 30
0.0
 10
82.507103
 20
130.442400
 30
0.0
 10
83.396803
 20
131.080400
 30
0.0
 10
83.910113
 20
130.784040
 30
0.0
 10
83.802443
 20
129.694540
 30
0.0
 10
83.655383
 20
129.371080
 30
0.0
 10
83.277243
 20
128.893200
 30
0.0
 10
84.058733
 20
128.111710
 30
0.0
 10
84.536613
 20
128.489850
 30
0.0
 10
84.860073
 20
128.636910
 30
0.0
 10
85.949573
 20
128.744580
 30
0.0
 10
86.245933
 20
128.231270
 30
0.0
 10
85.607933
 20
127.341570
 30
0.0
 10
85.318853
 20
127.134980
 30
0.0
 10
84.752433
 20
126.910190
 30
0.0
  0
ENDSEC
  0
SECTION
  2
OBJECTS
  0
DICTIONARY
  5
C
330
0
100
AcDbDictionary
  3
ACAD_GROUP
350
D
  3
ACAD_MLINESTYLE
350
17
  0
DICTIONARY
  5
D
330
C
100
AcDbDictionary
  0
DICTIONARY
  5
1A
330
C
100
AcDbDictionary
  0
DICTIONARY
  5
17
330
C
100
AcDbDictionary
  3
STANDARD
350
18
  0
DICTIONARY
  5
19
330
C
100
AcDbDictionary
  0
ENDSEC
  0
EOF
