<?xml version="1.0" encoding="UTF-8" standalone="no"?>
<!-- Created with Inkscape (http://www.inkscape.org/) -->

<svg
   xmlns:dc="http://purl.org/dc/elements/1.1/"
   xmlns:cc="http://creativecommons.org/ns#"
   xmlns:rdf="http://www.w3.org/1999/02/22-rdf-syntax-ns#"
   xmlns:svg="http://www.w3.org/2000/svg"
   xmlns="http://www.w3.org/2000/svg"
   xmlns:sodipodi="http://sodipodi.sourceforge.net/DTD/sodipodi-0.dtd"
   xmlns:inkscape="http://www.inkscape.org/namespaces/inkscape"
   width="210mm"
   height="297mm"
   viewBox="0 0 210 297"
   version="1.1"
   id="svg8"
   inkscape:version="0.92.3 (2405546, 2018-03-11)"
   sodipodi:docname="Rear Gears.svg">
  <sodipodi:namedview
     id="base"
     pagecolor="#ffffff"
     bordercolor="#666666"
     borderopacity="1.0"
     inkscape:pageopacity="0.0"
     inkscape:pageshadow="2"
     inkscape:zoom="2.8"
     inkscape:cx="275.90096"
     inkscape:cy="455.17276"
     inkscape:document-units="mm"
     inkscape:current-layer="layer1"
     showgrid="false"
     inkscape:window-width="1920"
     inkscape:window-height="1137"
     inkscape:window-x="-8"
     inkscape:window-y="-8"
     inkscape:window-maximized="1" />
  <defs
     id="defs2" />
  <metadata
     id="metadata5">
    <rdf:RDF>
      <cc:Work
         rdf:about="">
        <dc:format>image/svg+xml</dc:format>
        <dc:type
           rdf:resource="http://purl.org/dc/dcmitype/StillImage" />
        <dc:title></dc:title>
      </cc:Work>
    </rdf:RDF>
  </metadata>
  <g
     inkscape:label="Layer 1"
     inkscape:groupmode="layer"
     id="layer1">
    <g
       transform="translate(43.474386,171.47424)"
       inkscape:label="Gear12"
       id="g193">
      <path
         inkscape:connector-curvature="0"
         d="m 4.72399,-0.6937 0.60292,-0.08854 0.35365,0.03438 0.99737,0.4515 V 0.29636 L 5.68056,0.74786 5.32691,0.78224 4.72399,0.6937 4.43794,1.76123 5.00436,1.98602 5.29344,2.19261 5.93144,3.08231 5.63508,3.59562 4.54558,3.48795 4.22212,3.34089 3.74424,2.96275 2.96275,3.74424 3.34089,4.22212 3.48795,4.54558 3.59562,5.63508 3.08231,5.93144 2.19261,5.29344 1.98602,5.00436 1.76123,4.43794 0.6937,4.72399 0.78224,5.32691 0.74786,5.68056 0.29636,6.67793 H -0.29636 L -0.74786,5.68056 -0.78224,5.32691 -0.6937,4.72399 -1.76123,4.43794 l -0.22479,0.56642 -0.20659,0.28908 -0.8897,0.638 -0.51331,-0.29636 0.10767,-1.0895 0.14706,-0.32346 0.37814,-0.47788 -0.78149,-0.78149 -0.47788,0.37814 -0.32346,0.14706 -1.0895,0.10767 -0.29636,-0.51331 0.638,-0.8897 L -5.00436,1.98602 -4.43794,1.76123 -4.72399,0.6937 -5.32691,0.78224 -5.68056,0.74786 -6.67793,0.29636 v -0.59272 l 0.99737,-0.4515 0.35365,-0.03438 0.60292,0.08854 0.28605,-1.06753 -0.56642,-0.22479 -0.28908,-0.20659 -0.638,-0.8897 0.29636,-0.51331 1.0895,0.10767 0.32346,0.14706 0.47788,0.37814 0.78149,-0.78149 -0.37814,-0.47788 -0.14706,-0.32346 -0.10767,-1.0895 0.51331,-0.29636 0.8897,0.638 0.20659,0.28908 0.22479,0.56642 1.06753,-0.28605 -0.08854,-0.60292 0.03438,-0.35365 0.4515,-0.99737 h 0.59272 l 0.4515,0.99737 0.03438,0.35365 -0.08854,0.60292 1.06753,0.28605 0.22479,-0.56642 0.20659,-0.28908 0.8897,-0.638 0.51331,0.29636 -0.10767,1.0895 -0.14706,0.32346 -0.37814,0.47788 0.78149,0.78149 0.47788,-0.37814 0.32346,-0.14706 1.0895,-0.10767 0.29636,0.51331 -0.638,0.8897 -0.28908,0.20659 -0.56642,0.22479 z"
         style="fill:none;stroke:#000000;stroke-width:0.26458332"
         id="path191" />
    </g>
    <text
       id="text227"
       y="145.89333"
       x="43.144695"
       style="font-style:normal;font-weight:normal;font-size:10.58333302px;line-height:1.25;font-family:sans-serif;letter-spacing:0px;word-spacing:0px;fill:#000000;fill-opacity:1;stroke:none;stroke-width:0.26458332"
       xml:space="preserve"><tspan
         style="stroke-width:0.26458332"
         y="145.89333"
         x="43.144695"
         id="tspan225"
         sodipodi:role="line">12 teeth</tspan><tspan
         id="tspan229"
         style="stroke-width:0.26458332"
         y="159.1225"
         x="43.144695"
         sodipodi:role="line">3mm tooth size</tspan><tspan
         id="tspan231"
         style="stroke-width:0.26458332"
         y="172.35165"
         x="43.144695"
         sodipodi:role="line" /></text>
    <g
       id="g249"
       inkscape:label="Gear24"
       transform="translate(31.137933,195.84566)">
      <path
         id="path247"
         style="fill:none;stroke:#000000;stroke-width:0.26458332"
         d="m 10.47033,-0.84315 0.26301,-0.02118 0.70128,0.11487 0.97476,0.40785 V 0.34161 L 11.43462,0.74946 10.73334,0.86433 10.47033,0.84315 10.33179,1.8955 10.59131,1.94311 11.23897,2.23557 12.07496,2.88182 11.89813,3.54175 10.85102,3.68342 10.1439,3.61287 9.89534,3.52434 9.48915,4.50498 9.72751,4.61814 10.2774,5.06826 10.91765,5.90885 10.57604,6.50053 9.52794,6.36637 8.86318,6.1152 8.646,5.96536 7.99984,6.80745 8.20079,6.97844 8.61545,7.55555 9.01631,8.53321 8.53321,9.01631 7.55555,8.61545 6.97844,8.20079 6.80745,7.99984 5.96536,8.646 6.1152,8.86318 6.36637,9.52794 6.50053,10.57604 5.90885,10.91765 5.06826,10.2774 4.61814,9.72751 4.50498,9.48915 3.52434,9.89534 3.61287,10.1439 3.68342,10.85102 3.54175,11.89813 2.88182,12.07496 2.23557,11.23897 1.94311,10.59131 1.8955,10.33179 0.84315,10.47033 0.86433,10.73334 0.74946,11.43462 0.34161,12.40938 h -0.68322 l -0.40785,-0.97476 -0.11487,-0.70128 0.02118,-0.26301 -1.05235,-0.13854 -0.04761,0.25952 -0.29246,0.64766 -0.64625,0.83599 -0.65993,-0.17683 -0.14167,-1.04711 0.07055,-0.70712 0.08853,-0.24856 -0.98064,-0.40619 -0.11316,0.23836 -0.45012,0.54989 -0.84059,0.64025 -0.59168,-0.34161 0.13416,-1.0481 L -6.1152,8.86318 -5.96536,8.646 -6.80745,7.99984 -6.97844,8.20079 -7.55555,8.61545 -8.53321,9.01631 -9.01631,8.53321 -8.61545,7.55555 -8.20079,6.97844 -7.99984,6.80745 -8.646,5.96536 -8.86318,6.1152 l -0.66476,0.25117 -1.0481,0.13416 -0.34161,-0.59168 0.64025,-0.84059 0.54989,-0.45012 0.23836,-0.11316 -0.40619,-0.98064 -0.24856,0.08853 -0.70712,0.07055 -1.04711,-0.14167 -0.17683,-0.65993 0.83599,-0.64625 0.64766,-0.29246 0.25952,-0.04761 -0.13854,-1.05235 -0.26301,0.02118 -0.70128,-0.11487 -0.97476,-0.40785 v -0.68322 l 0.97476,-0.40785 0.70128,-0.11487 0.26301,0.02118 0.13854,-1.05235 -0.25952,-0.04761 -0.64766,-0.29246 -0.83599,-0.64625 0.17683,-0.65993 1.04711,-0.14167 0.70712,0.07055 0.24856,0.08853 0.40619,-0.98064 -0.23836,-0.11316 -0.54989,-0.45012 -0.64025,-0.84059 0.34161,-0.59168 1.0481,0.13416 0.66476,0.25117 0.21718,0.14984 0.64616,-0.84209 -0.20095,-0.17099 -0.41466,-0.57711 -0.40086,-0.97766 0.4831,-0.4831 0.97766,0.40086 0.57711,0.41466 0.17099,0.20095 0.84209,-0.64616 -0.14984,-0.21718 -0.25117,-0.66476 -0.13416,-1.0481 0.59168,-0.34161 0.84059,0.64025 0.45012,0.54989 0.11316,0.23836 0.98064,-0.40619 -0.08853,-0.24856 -0.07055,-0.70712 0.14167,-1.04711 0.65993,-0.17683 0.64625,0.83599 0.29246,0.64766 0.04761,0.25952 1.05235,-0.13854 -0.02118,-0.26301 0.11487,-0.70128 0.40785,-0.97476 h 0.68322 l 0.40785,0.97476 0.11487,0.70128 -0.02118,0.26301 1.05235,0.13854 0.04761,-0.25952 0.29246,-0.64766 0.64625,-0.83599 0.65993,0.17683 0.14167,1.04711 -0.07055,0.70712 -0.08853,0.24856 0.98064,0.40619 0.11316,-0.23836 0.45012,-0.54989 0.84059,-0.64025 0.59168,0.34161 -0.13416,1.0481 -0.25117,0.66476 -0.14984,0.21718 0.84209,0.64616 0.17099,-0.20095 0.57711,-0.41466 0.97766,-0.40086 0.4831,0.4831 -0.40086,0.97766 -0.41466,0.57711 -0.20095,0.17099 0.64616,0.84209 0.21718,-0.14984 0.66476,-0.25117 1.0481,-0.13416 0.34161,0.59168 -0.64025,0.84059 -0.54989,0.45012 -0.23836,0.11316 0.40619,0.98064 0.24856,-0.08853 0.70712,-0.07055 1.04711,0.14167 0.17683,0.65993 -0.83599,0.64625 -0.64766,0.29246 -0.25952,0.04761 z"
         inkscape:connector-curvature="0" />
    </g>
  </g>
</svg>
