<?xml version="1.0" encoding="UTF-8" standalone="no"?>
<svg
   xmlns:dc="http://purl.org/dc/elements/1.1/"
   xmlns:cc="http://creativecommons.org/ns#"
   xmlns:rdf="http://www.w3.org/1999/02/22-rdf-syntax-ns#"
   xmlns:svg="http://www.w3.org/2000/svg"
   xmlns="http://www.w3.org/2000/svg"
   xmlns:sodipodi="http://sodipodi.sourceforge.net/DTD/sodipodi-0.dtd"
   xmlns:inkscape="http://www.inkscape.org/namespaces/inkscape"
   sodipodi:docname="CameraMountv1.svg"
   inkscape:version="1.0 (4035a4fb49, 2020-05-01)"
   id="svg8"
   version="1.1"
   viewBox="0 0 161 141"
   height="141mm"
   width="161mm">
  <defs
     id="defs2">
    <marker
       id="DistanceX"
       orient="auto"
       refX="0"
       refY="0"
       style="overflow:visible">
      <path
         d="M 3,-3 -3,3 M 0,-5 V 5"
         style="stroke:#000000;stroke-width:0.5"
         id="path833" />
    </marker>
    <pattern
       id="Hatch"
       patternUnits="userSpaceOnUse"
       width="8"
       height="8"
       x="0"
       y="0">
      <path
         d="M8 4 l-4,4"
         stroke="#000000"
         stroke-width="0.25"
         linecap="square"
         id="path836" />
      <path
         d="M6 2 l-4,4"
         stroke="#000000"
         stroke-width="0.25"
         linecap="square"
         id="path838" />
      <path
         d="M4 0 l-4,4"
         stroke="#000000"
         stroke-width="0.25"
         linecap="square"
         id="path840" />
    </pattern>
    <symbol
       id="*MODEL_SPACE" />
    <symbol
       id="*PAPER_SPACE" />
    <symbol
       id="*PAPER_SPACE0" />
    <marker
       id="DistanceX-5"
       orient="auto"
       refX="0"
       refY="0"
       style="overflow:visible">
      <path
         d="M 3,-3 -3,3 M 0,-5 V 5"
         style="stroke:#000000;stroke-width:0.5"
         id="path1042" />
    </marker>
    <pattern
       id="Hatch-2"
       patternUnits="userSpaceOnUse"
       width="8"
       height="8"
       x="0"
       y="0">
      <path
         d="M8 4 l-4,4"
         stroke="#000000"
         stroke-width="0.25"
         linecap="square"
         id="path1045" />
      <path
         d="M6 2 l-4,4"
         stroke="#000000"
         stroke-width="0.25"
         linecap="square"
         id="path1047" />
      <path
         d="M4 0 l-4,4"
         stroke="#000000"
         stroke-width="0.25"
         linecap="square"
         id="path1049" />
    </pattern>
    <symbol
       id="*MODEL_SPACE-1" />
    <symbol
       id="*PAPER_SPACE-3" />
    <symbol
       id="*PAPER_SPACE0-0" />
    <marker
       id="DistanceX-57"
       orient="auto"
       refX="0"
       refY="0"
       style="overflow:visible">
      <path
         d="M 3,-3 -3,3 M 0,-5 V 5"
         style="stroke:#000000;stroke-width:0.5"
         id="path1179" />
    </marker>
    <pattern
       id="Hatch-0"
       patternUnits="userSpaceOnUse"
       width="8"
       height="8"
       x="0"
       y="0">
      <path
         d="M8 4 l-4,4"
         stroke="#000000"
         stroke-width="0.25"
         linecap="square"
         id="path1182" />
      <path
         d="M6 2 l-4,4"
         stroke="#000000"
         stroke-width="0.25"
         linecap="square"
         id="path1184" />
      <path
         d="M4 0 l-4,4"
         stroke="#000000"
         stroke-width="0.25"
         linecap="square"
         id="path1186" />
    </pattern>
    <symbol
       id="*MODEL_SPACE-6" />
    <symbol
       id="*PAPER_SPACE-1" />
    <symbol
       id="*PAPER_SPACE0-3" />
  </defs>
  <sodipodi:namedview
     inkscape:window-maximized="1"
     inkscape:window-y="-6"
     inkscape:window-x="81"
     inkscape:window-height="1058"
     inkscape:window-width="1532"
     showgrid="false"
     inkscape:document-rotation="0"
     inkscape:current-layer="layer1"
     inkscape:document-units="mm"
     inkscape:cy="491.30732"
     inkscape:cx="379.86775"
     inkscape:zoom="2.8"
     inkscape:pageshadow="2"
     inkscape:pageopacity="0.0"
     borderopacity="1.0"
     bordercolor="#666666"
     pagecolor="#ffffff"
     id="base" />
  <metadata
     id="metadata5">
    <rdf:RDF>
      <cc:Work
         rdf:about="">
        <dc:format>image/svg+xml</dc:format>
        <dc:type
           rdf:resource="http://purl.org/dc/dcmitype/StillImage" />
        <dc:title></dc:title>
      </cc:Work>
    </rdf:RDF>
  </metadata>
  <g
     id="layer1"
     inkscape:groupmode="layer"
     inkscape:label="Layer 1">
    <path
       sodipodi:nodetypes="ccccc"
       id="path850"
       style="fill:none;stroke:#ff0000;stroke-width:0.264583;stroke-linecap:round"
       d="m 10.732291,108.7323 h 2 v 23.99998 h -2 z" />
    <path
       id="path856"
       style="fill:none;stroke:#ff0000;stroke-width:0.264583;stroke-linecap:round"
       d="m 42.782289,131.13229 a 1.45,1.45 0 1 0 -2.9,0 1.45,1.45 0 1 0 2.9,0 z" />
    <path
       id="path858"
       style="fill:none;stroke:#ff0000;stroke-width:0.264583;stroke-linecap:round"
       d="m 42.782289,109.93229 a 1.45,1.45 0 1 0 -2.9,0 1.45,1.45 0 1 0 2.9,0 z" />
    <path
       id="path860"
       style="fill:none;stroke:#ff0000;stroke-width:0.264583;stroke-linecap:round"
       d="m 30.332291,110.53228 a 1.45,1.45 0 1 0 -2.9,0 1.45,1.45 0 1 0 2.9,0 z" />
    <path
       id="path862"
       style="fill:none;stroke:#ff0000;stroke-width:0.264583;stroke-linecap:round"
       d="m 30.082291,131.13229 a 1.4500003,1.4500003 0 1 0 -2.9,0 1.4500003,1.4500003 0 1 0 2.9,0 z" />
    <path
       sodipodi:nodetypes="cccccccccccccccccccccccccccccccccccccccccccc"
       id="path928"
       style="fill:none;stroke:#ff0000;stroke-width:0.264583;stroke-linecap:round"
       d="m 3.132291,100.13229 0,2.5 h 3 l 0,-1.2 h 2.3 v 1.2 l 3,0 v 3.1 h -3 v 1.19999 h -2.3 v -1.19999 h -3 v 17.89999 l -3,0 v 3.00001 h 3 v 1.5 h 0.5 c 0.8284271,0 1.5000001,0.67157 1.5,1.5 v 4 c -1e-7,0.82843 0.6715729,1.5 1.5,1.5 h 42.999998 c 0.828427,0 1.5,-0.67157 1.5,-1.5 v -4 c 0,-0.82843 0.671573,-1.5 1.5,-1.5 h 0.5 v -1.5 h 3 v -3.00001 h -3 v -17.89999 h -3 v 1.19999 h -2.3 v -1.19999 h -3 v -3.1 h 3 v -1.2 h 2.3 v 1.2 h 3 v -2.5" />
    <path
       id="path1057"
       style="fill:none;stroke:#ff0000;stroke-width:0.264583;stroke-linecap:round"
       d="m 24.85729,55.93229 a 1.725,1.725 0 1 0 -3.45,0 1.725,1.725 0 1 0 3.45,0 z" />
    <path
       id="path1059"
       style="fill:none;stroke:#ff0000;stroke-width:0.264583;stroke-linecap:round"
       d="m 24.85729,6.33229 a 1.725,1.725 0 1 0 -3.45,0 1.725,1.725 0 1 0 3.45,0 z" />
    <path
       id="path1061"
       style="fill:none;stroke:#ff0000;stroke-width:0.264583;stroke-linecap:round"
       d="m 83.457288,6.33229 a 1.725,1.725 0 1 0 -3.45,0 1.725,1.725 0 1 0 3.45,0 z" />
    <path
       id="path1063"
       style="fill:none;stroke:#ff0000;stroke-width:0.264583;stroke-linecap:round"
       d="m 83.457288,55.93229 a 1.725,1.725 0 1 0 -3.45,0 1.725,1.725 0 1 0 3.45,0 z" />
    <path
       id="path1065"
       style="fill:none;stroke:#ff0000;stroke-width:0.264583;stroke-linecap:round"
       d="m 116.85729,6.63229 a 1.725,1.725 0 1 0 -3.45,0 1.725,1.725 0 1 0 3.45,0 z" />
    <path
       id="path1067"
       style="fill:none;stroke:#ff0000;stroke-width:0.264583;stroke-linecap:round"
       d="m 116.85729,59.63229 a 1.725,1.725 0 1 0 -3.45,0 1.725,1.725 0 1 0 3.45,0 z" />
    <path
       sodipodi:nodetypes="ccccc"
       id="path1071"
       style="fill:none;stroke:#ff0000;stroke-width:0.264583;stroke-linecap:round"
       d="m 123.13229,61.13229 h 17 v -3 h -17 z" />
    <path
       sodipodi:nodetypes="ccccc"
       id="path1077"
       style="fill:none;stroke:#ff0000;stroke-width:0.264583;stroke-linecap:round"
       d="m 107.13229,8.13229 v -3 H 90.132289 v 3 z" />
    <path
       sodipodi:nodetypes="ccccc"
       id="path1087"
       style="fill:none;stroke:#ff0000;stroke-width:0.264583;stroke-linecap:round"
       d="m 123.13229,8.13229 17,0 v -3 h -17 z" />
    <path
       sodipodi:nodetypes="ccccc"
       id="path1099"
       style="fill:none;stroke:#ff0000;stroke-width:0.264583;stroke-linecap:round"
       d="M 107.13229,58.13229 H 90.132289 v 3 h 17.000001 z" />
    <path
       id="path1101"
       style="fill:none;stroke:#ff0000;stroke-width:0.264583;stroke-linecap:round"
       d="m 0.13229,0.13229 v 100" />
    <path
       id="path1103"
       style="fill:none;stroke:#ff0000;stroke-width:0.264583;stroke-linecap:round"
       d="m 0.13229,100.13229 h 160" />
    <path
       id="path1105"
       style="fill:none;stroke:#ff0000;stroke-width:0.264583;stroke-linecap:round"
       d="m 160.13229,100.13229 v -100" />
    <path
       id="path1107"
       style="fill:none;stroke:#ff0000;stroke-width:0.264583;stroke-linecap:round"
       d="m 160.13229,0.13229 h -160" />
    <path
       sodipodi:nodetypes="sccsccs"
       id="path1194"
       style="fill:none;stroke:#ff0000;stroke-width:0.264583;stroke-linecap:round"
       d="m 135.13229,134.59093 c -11.33306,0 -20.26602,-9.65057 -19.39202,-20.94989 h -3.10798 c -0.86769,13.01545 9.45567,24.04992 22.5,24.04992 13.04433,0 23.36769,-11.03447 22.5,-24.04992 h -3.10798 c 0.874,11.29932 -8.05896,20.94989 -19.39202,20.94989 z" />
    <path
       id="path1202"
       style="fill:none;stroke:#ff0000;stroke-width:0.264583;stroke-linecap:round"
       d="m 133.01097,115.13228 a 2.121321,2.121321 0 1 0 4.24264,0 2.121321,2.121321 0 1 0 -4.24264,0 z" />
    <path
       id="path1204"
       style="fill:none;stroke:#ff0000;stroke-width:0.264583;stroke-linecap:round"
       d="m 110.13229,100.13229 v 14.99999" />
    <path
       id="path1206"
       style="fill:none;stroke:#ff0000;stroke-width:0.264583;stroke-linecap:round"
       d="m 110.13229,115.13228 a 25,25 0 0 0 50,0" />
    <path
       id="path1208"
       style="fill:none;stroke:#ff0000;stroke-width:0.264583;stroke-linecap:round"
       d="M 160.13229,115.13228 V 100.13229" />
    <path
       sodipodi:nodetypes="cccccccccccccccc"
       id="path1240"
       style="fill:none;stroke:#ff0000;stroke-width:0.264583;stroke-linecap:round"
       d="m 127.13229,100.13229 v 3 h 6.45 v 3.00001 h -1.2 v 2.29999 h 1.2 v 2.7 h 3.1 v -2.7 h 1.2 l 0,-2.29999 h -1.2 l 0,-3.00001 h 6.45 v -3" />
    <path
       sodipodi:nodetypes="sccsccs"
       d="m 85.132286,134.591 c -11.333087,0 -20.266054,-9.65061 -19.392015,-20.94996 h -3.107984 c -0.867678,13.01544 9.455682,24.0499 22.500002,24.0499 13.044319,0 23.367681,-11.03446 22.500001,-24.0499 h -3.10799 c 0.87404,11.29935 -8.058928,20.94996 -19.392014,20.94996 z"
       style="fill:none;stroke:#ff0000;stroke-width:0.264583;stroke-linecap:round"
       id="path1194-3" />
    <path
       d="m 83.010966,115.13228 a 2.121321,2.121321 0 1 0 4.242642,0 2.121321,2.121321 0 1 0 -4.242642,0 z"
       style="fill:none;stroke:#ff0000;stroke-width:0.264583;stroke-linecap:round"
       id="path1202-9" />
    <path
       d="m 60.132289,100.13229 v 14.99999"
       style="fill:none;stroke:#ff0000;stroke-width:0.264583;stroke-linecap:round"
       id="path1204-1" />
    <path
       d="m 60.132289,115.13228 a 25,25 0 0 0 50.000001,0"
       style="fill:none;stroke:#ff0000;stroke-width:0.264583;stroke-linecap:round"
       id="path1206-7" />
    <path
       sodipodi:nodetypes="cccccccccccccccc"
       d="m 77.132287,100.13229 v 3 h 6.449999 l 0,3.00001 h -1.199999 v 2.29999 h 1.199999 l 0,2.7 h 3.100001 v -2.7 h 1.2 v -2.29999 h -1.2 v -3.00001 h 6.45 v -3"
       style="fill:none;stroke:#ff0000;stroke-width:0.264583;stroke-linecap:round"
       id="path1240-1" />
  </g>
</svg>
