<?xml version="1.0" encoding="UTF-8" standalone="no"?>
<svg
   xmlns:dc="http://purl.org/dc/elements/1.1/"
   xmlns:cc="http://creativecommons.org/ns#"
   xmlns:rdf="http://www.w3.org/1999/02/22-rdf-syntax-ns#"
   xmlns:svg="http://www.w3.org/2000/svg"
   xmlns="http://www.w3.org/2000/svg"
   xmlns:sodipodi="http://sodipodi.sourceforge.net/DTD/sodipodi-0.dtd"
   xmlns:inkscape="http://www.inkscape.org/namespaces/inkscape"
   width="210mm"
   height="297mm"
   viewBox="0 0 210 297"
   version="1.1"
   id="svg8"
   inkscape:version="1.0 (4035a4fb49, 2020-05-01)"
   sodipodi:docname="ScissorsPaperRockAward.svg">
  <defs
     id="defs2" />
  <sodipodi:namedview
     id="base"
     pagecolor="#ffffff"
     bordercolor="#666666"
     borderopacity="1.0"
     inkscape:pageopacity="0.0"
     inkscape:pageshadow="2"
     inkscape:zoom="0.89136258"
     inkscape:cx="427.29777"
     inkscape:cy="656.95667"
     inkscape:document-units="mm"
     inkscape:current-layer="layer1"
     inkscape:document-rotation="0"
     showgrid="false"
     inkscape:window-width="1274"
     inkscape:window-height="967"
     inkscape:window-x="196"
     inkscape:window-y="83"
     inkscape:window-maximized="0" />
  <metadata
     id="metadata5">
    <rdf:RDF>
      <cc:Work
         rdf:about="">
        <dc:format>image/svg+xml</dc:format>
        <dc:type
           rdf:resource="http://purl.org/dc/dcmitype/StillImage" />
        <dc:title />
      </cc:Work>
    </rdf:RDF>
  </metadata>
  <g
     inkscape:label="Layer 1"
     inkscape:groupmode="layer"
     id="layer1">
    <g
       transform="translate(-33.575222,-0.1796893)"
       id="g980"
       style="stroke:#0000ff">
      <g
         style="fill:none;stroke:#0000ff;stroke-width:0.25;stroke-miterlimit:4;stroke-dasharray:none"
         transform="translate(-146.4637,-1.0690781)"
         id="g883">
        <path
           class="cls-2"
           d="m 253.71367,58.140571 c 0.3898,-3.245482 -1.88859,-6.206342 -5.12563,-6.660954 -3.23704,-0.454611 -6.24286,1.76413 -6.7621,4.991434 v 0 m -1.0516,7.649959 -4.56286,30.852207 c -0.17271,1.212049 -1.92279,1.212049 -2.0955,0 l -4.72239,-32.399578 m -12.72909,-3.77707 c 1.5531,11.58875 2.66392,19.089856 3.52382,25.127648 2.17487,15.29027 2.54264,17.893773 2.60614,28.715233 2.80257,-4.86511 7.98764,-7.86562 13.60223,-7.87136 h 10.58334 V 93.168758 c 9.9e-4,-2.35029 0.97165,-4.596038 2.68287,-6.207125 l 2.73914,-19.424937"
           id="path11"
           style="fill:none;stroke:#0000ff;stroke-width:0.25;stroke-miterlimit:4;stroke-dasharray:none"
           sodipodi:nodetypes="cscccccccccccccc" />
        <path
           class="cls-2"
           d="m 270.55175,117.6824 a 8.5619166,8.5619166 0 0 1 -7.14375,-3.84704 11.84275,11.84275 0 0 1 -11.08339,7.69938 h -4.23333 a 13.596937,13.596937 0 0 1 6.32089,11.47498 v 3.70416 a 1.058335,1.058335 0 0 1 -2.11667,0 v -3.70416 a 11.488208,11.488208 0 0 0 -11.48291,-11.46175 1.0583333,1.0583333 0 0 1 -1.05834,-1.05834 v 0 a 1.0583333,1.0583333 0 0 1 1.05834,-1.05833 h 11.51466 a 9.6678749,9.6678749 0 0 0 6.27857,-2.31246 9.8133957,9.8133957 0 0 0 2.159,-2.60614 9.6308332,9.6308332 0 0 0 1.26206,-4.572 c 0,-0.0714 0,-0.14288 0,-0.21696 a 2.6458333,2.6458333 0 0 0 -0.045,-0.43921 c 0,-0.0344 0,-0.0688 0,-0.10319 a 2.8310416,2.8310416 0 0 0 -2.77283,-2.28335 h -22.81238 a 13.610166,13.610166 0 0 0 -13.589,13.59164 v 0 c 0,8.09361 3.04536,15.40669 8.5725,20.58988 a 27.252083,27.252083 0 0 0 20.33059,7.24164 c 14.17902,-0.9181 25.28887,-13.22916 25.28887,-28.0035 v -5.55625 a 8.5433957,8.5433957 0 0 1 -6.4479,2.921 z"
           id="path13"
           style="fill:none;stroke:#0000ff;stroke-width:0.25;stroke-miterlimit:4;stroke-dasharray:none" />
        <path
           class="cls-2"
           d="m 270.55175,93.502133 a 6.4584791,6.4584791 0 0 0 -6.45054,6.450542 v 9.080495 a 4.8101249,4.8101249 0 0 1 0.0529,0.67998 c 0,0.0529 0,0.10848 0,0.1614 a 6.4452499,6.4452499 0 0 0 12.84817,-0.75406 v -9.170461 a 6.4558333,6.4558333 0 0 0 -6.45055,-6.447896 z"
           id="path15"
           style="fill:none;stroke:#0000ff;stroke-width:0.25;stroke-miterlimit:4;stroke-dasharray:none" />
        <path
           class="cls-2"
           d="m 253.45173,87.072758 q -0.14287,0.04763 -0.26458,0.103188 c -0.0926,0.03704 -0.18521,0.07408 -0.26458,0.116417 -0.0794,0.04233 -0.1905,0.08731 -0.28311,0.134937 l -0.24341,0.129646 c -0.10055,0.05556 -0.19844,0.116417 -0.29369,0.179917 -0.0952,0.0635 -0.13758,0.08467 -0.20638,0.132291 -0.0688,0.04763 -0.20373,0.148167 -0.30162,0.227542 -0.0582,0.04498 -0.11642,0.08731 -0.17198,0.134937 a 6.4373124,6.4373124 0 0 0 -2.31246,4.937125 v 11.599332 h 10.12561 a 4.8974374,4.8974374 0 0 1 2.77283,0.85461 V 93.168758 a 6.4558333,6.4558333 0 0 0 -5.78908,-6.4135 6.0351458,6.0351458 0 0 0 -0.65882,-0.0344 5.8843333,5.8843333 0 0 0 -0.61383,0.03175 c -0.082,0 -0.16404,0.02117 -0.24342,0.03175 -0.0794,0.01058 -0.23812,0.03175 -0.35454,0.05556 -0.11642,0.02381 -0.19314,0.04233 -0.28839,0.0635 -0.0952,0.02117 -0.1958,0.04762 -0.29369,0.07673 z"
           id="path17"
           style="fill:none;stroke:#0000ff;stroke-width:0.25;stroke-miterlimit:4;stroke-dasharray:none" />
      </g>
      <g
         style="fill:none;stroke:#0000ff;stroke-width:0.25;stroke-miterlimit:4;stroke-dasharray:none"
         transform="rotate(-42.291347,180.9646,184.27285)"
         id="g877">
        <path
           style="fill:none;stroke:#0000ff;stroke-width:0.25;stroke-miterlimit:4;stroke-dasharray:none"
           d="m 101.31364,133.74593 2.27799,2.1874"
           id="path874" />
        <path
           style="fill:none;stroke:#0000ff;stroke-width:0.25;stroke-miterlimit:4;stroke-dasharray:none"
           d="m 143.48032,71.045129 v -5.927495 c -0.003,-3.093728 -2.51015,-5.600961 -5.60388,-5.603875 -1.51841,-0.02103 -2.97926,0.58033 -4.04283,1.664229 -1.01675,1.069514 -1.57672,2.493147 -1.56104,3.96875 v 34.062458 c 0,1.411114 -2.11667,1.411114 -2.11667,0 V 65.562134 c -0.004,-3.33861 -2.70976,-6.044 -6.04837,-6.048375 -3.78619,0 -6.04838,3.27025 -6.04838,6.429375 v 33.266062 c -0.004,1.407584 -2.11314,1.407584 -2.11666,0 V 71.957113 c -0.003,-3.093728 -2.51015,-5.600961 -5.60388,-5.603875 -3.50837,0 -5.60387,3.029479 -5.60387,5.961062 v 41.35173 h 12.43541 c 4.96415,-0.001 9.68269,2.15962 12.9249,5.91873 0.38191,0.4421 0.33335,1.11003 -0.10848,1.49225 -0.4421,0.38191 -1.11003,0.33335 -1.49225,-0.10848 -2.84079,-3.29339 -6.97486,-5.18656 -11.32417,-5.18583 H 103.6764 c -0.047,-0.002 -0.0938,-0.006 -0.14023,-0.0132 h -0.0556 c -0.0867,-0.0186 -0.17104,-0.047 -0.25135,-0.0847 l -0.0556,-0.0291 c -0.0695,-0.0385 -0.13505,-0.0837 -0.19579,-0.13494 l -0.0265,-0.0212 -5.246684,-4.92919 c -3.921876,-3.71488 -10.08931,-3.62922 -13.9065,0.19315 -0.996962,0.98404 0.191221,3.83092 1.143957,4.85784"
           id="path872"
           sodipodi:nodetypes="cccccssccsccccscccccccccccccccc" />
        <path
           style="fill:none;stroke:#0000ff;stroke-width:0.25;stroke-miterlimit:4;stroke-dasharray:none"
           d="m 121.43184,147.10347 10.1236,1.26528 c 12.91437,1.61408 23.60348,-10.69711 23.60348,-23.84954 v -15.27182"
           id="path19" />
      </g>
      <g
         style="fill:none;stroke:#0000ff;stroke-width:0.25;stroke-miterlimit:4;stroke-dasharray:none"
         transform="rotate(51.904465,-59.49245,249.9129)"
         id="g874">
        <path
           class="cls-4"
           d="M 23.240424,101.46609 V 87.337342 a 7.0352708,7.0352708 0 0 0 -14.0705416,0 V 101.07715 H 21.578841 a 3.7729583,3.7729583 0 0 1 1.661583,0.38894 z"
           id="path21"
           style="fill:none;stroke:#0000ff;stroke-width:0.25;stroke-miterlimit:4;stroke-dasharray:none" />
        <path
           class="cls-4"
           d="M -9.3086174,101.07715 V 86.802883 a 5.8790418,5.8790418 0 0 0 -11.7580836,0 v 17.589497 a 14.872229,14.872229 0 0 1 9.371542,-3.31523 z"
           id="path23"
           style="fill:none;stroke:#0000ff;stroke-width:0.25;stroke-miterlimit:4;stroke-dasharray:none" />
        <path
           sodipodi:nodetypes="sccccccccssssccssccccccccccccccccscsscccss"
           class="cls-4"
           d="m 31.900236,115.76947 c -3.090962,-0.003 -5.945819,-1.65383 -7.490354,-4.33123 -1.999821,4.96812 -6.815326,8.22486 -12.170833,8.23118 H 3.4442991 c 4.303178,2.62313 6.9297729,7.29787 6.9320829,12.33753 v 3.96875 c -7.51e-4,1.41036 -2.1174172,1.41036 -2.1166663,0 v -3.96875 c -0.00874,-6.8102 -5.5273186,-12.32878 -12.3375207,-12.33753 h -0.1878541 c -0.5845001,0 -1.0583316,-0.47383 -1.0583334,-1.05833 v 0 c 1.8e-6,-0.5845 0.4738333,-1.05833 1.0583334,-1.05833 H 12.241695 c 6.070983,-0.006 10.991441,-4.92511 10.998729,-10.99609 v -1.70127 c -2e-6,-0.91767 -0.743917,-1.66158 -1.661583,-1.66158 h -33.274 c -3.765838,1.9e-4 -7.340696,1.65794 -9.773708,4.53231 -0.177271,0.20902 -0.351896,0.42069 -0.513292,0.64029 -0.06879,0.09 -0.132292,0.18257 -0.195792,0.26459 -0.161395,0.22754 -0.3175,0.45773 -0.46302,0.69585 -0.04763,0.0767 -0.0926,0.15611 -0.137584,0.23548 -0.148166,0.26458 -0.288396,0.51329 -0.420687,0.77523 l -0.0635,0.12965 c -0.148167,0.30691 -0.280459,0.61912 -0.402167,0.93662 -0.01587,0.0423 -0.0344,0.082 -0.05027,0.12436 -0.119062,0.32014 -0.224896,0.64822 -0.320146,0.97895 0,0.0423 -0.02381,0.0847 -0.03439,0.127 -0.0926,0.33338 -0.169334,0.6694 -0.232834,1.00807 l -0.02381,0.13229 c -0.06085,0.34131 -0.108479,0.68791 -0.140229,1.03452 v 0.12171 c -0.02911,0.35983 -0.04763,0.71966 -0.04763,1.08214 0,0.87313 0.04233,1.73302 0.111125,2.58763 0.06203,0.77975 0.15182,1.55179 0.268372,2.31514 2.369067,15.51603 15.7961111,27.4399 31.9631689,27.4399 h 3.8470411 c 14.77487,-0.0219 26.747231,-11.99303 26.770542,-26.7679 v -8.8212 c -1.640751,1.90615 -4.030744,3.00261 -6.545792,3.00302 z"
           id="path25"
           style="fill:none;stroke:#0000ff;stroke-width:0.25;stroke-miterlimit:4;stroke-dasharray:none" />
        <path
           class="cls-4"
           d="m 7.0532157,87.416717 a 7.1225833,7.1225833 0 0 0 -14.2451665,0 V 101.06922 H 7.0532157 Z"
           id="path27"
           style="fill:none;stroke:#0000ff;stroke-width:0.25;stroke-miterlimit:4;stroke-dasharray:none" />
        <path
           class="cls-4"
           d="m 31.900236,90.615529 a 6.5510833,6.5510833 0 0 0 -6.543146,6.545792 v 9.948329 a 6.5457916,6.5457916 0 0 0 13.088938,0 v -9.948329 a 6.5537291,6.5537291 0 0 0 -6.545792,-6.545792 z"
           id="path29"
           style="fill:none;stroke:#0000ff;stroke-width:0.25;stroke-miterlimit:4;stroke-dasharray:none" />
      </g>
      <g
         transform="matrix(3.4896517,0,0,3.4896517,-217.88437,-117.59034)"
         style="font-size:25.4px;line-height:1.25;font-family:'Times New Roman';-inkscape-font-specification:'Times New Roman, ';fill:none;stroke:#0000ff;stroke-width:0.0716404;stroke-miterlimit:4;stroke-dasharray:none"
         id="text887"
         aria-label="23">
        <path
           id="path889"
           style="font-style:normal;font-variant:normal;font-weight:normal;font-stretch:normal;font-size:25.4px;font-family:'Cooper Black';-inkscape-font-specification:'Cooper Black, ';fill:none;stroke:#0000ff;stroke-width:0.0716404;stroke-miterlimit:4;stroke-dasharray:none"
           d="m 83.551837,50.24667 h -8.445996 q -1.116211,0 -1.116211,-0.63252 0,-0.322461 0.235645,-0.595312 0.235644,-0.285254 1.525488,-1.500684 2.393652,-2.257226 3.54707,-4.204394 0.595313,-0.992188 0.595313,-1.711524 0,-0.620117 -0.359668,-0.979785 -0.359668,-0.37207 -0.967383,-0.37207 -0.570508,0 -0.868164,0.16123 -0.297656,0.148828 -1.314649,1.00459 -0.272851,0.223242 -0.719335,0.223242 -0.582911,0 -1.079004,-0.446484 -0.483692,-0.458887 -0.483692,-0.992188 0,-0.483691 0.446485,-1.091406 0.446484,-0.620117 1.178222,-1.16582 2.678906,-1.922363 5.940723,-1.922363 2.480469,0 4.105176,0.95498 0.731738,0.434082 1.178222,1.21543 0.446485,0.781347 0.446485,1.637109 0,2.17041 -3.001368,4.712891 -1.066601,0.892968 -1.066601,1.339453 0,0.347265 0.322461,0.595312 0.322461,0.235645 0.781347,0.235645 1.091407,0 1.947168,-0.84336 0.434082,-0.421679 0.570508,-0.508496 0.148828,-0.08682 0.396875,-0.08682 1.091406,0 1.091406,1.860352 0,0.930175 -0.359668,1.885156 -0.347265,0.95498 -0.95498,1.649511 -0.644922,0.744141 -1.413867,0.744141 -0.310059,0 -0.496094,-0.136426 -0.186035,-0.124023 -0.42168,-0.483691 -0.223242,-0.347266 -0.446484,-0.446484 -0.21084,-0.09922 -0.79375,-0.09922 z" />
        <path
           id="path891"
           style="font-style:normal;font-variant:normal;font-weight:normal;font-stretch:normal;font-size:25.4px;font-family:'Cooper Black';-inkscape-font-specification:'Cooper Black, ';fill:none;stroke:#0000ff;stroke-width:0.0716404;stroke-miterlimit:4;stroke-dasharray:none"
           d="m 95.520098,36.021182 q 2.406055,0 4.254004,0.880566 0.731738,0.359668 1.153418,1.00459 0.43408,0.632519 0.43408,1.364258 0,1.339453 -1.401463,2.455664 -0.396875,0.322461 -0.396875,0.508496 0,0.359668 0.706938,0.496094 3.34863,0.620117 3.34863,3.720703 0,1.947168 -1.36426,3.559472 -1.28984,1.550293 -3.807519,2.282031 -1.810742,0.520899 -3.981152,0.520899 -2.54248,0 -4.365625,-0.706934 -1.153418,-0.446484 -1.153418,-1.302246 0,-0.533301 0.384473,-0.892969 0.396875,-0.37207 0.95498,-0.37207 0.310059,0 1.674317,0.310059 0.446484,0.111621 1.277441,0.111621 1.488281,0 2.368848,-0.682129 0.930176,-0.731738 0.930176,-1.674316 0,-0.880567 -0.719336,-1.438672 -0.719336,-0.570508 -1.84795,-0.570508 -0.719335,0 -1.265039,0.16123 -0.322461,0.09922 -0.483691,0.09922 -0.322461,0 -0.669727,-0.657324 -0.334863,-0.657324 -0.334863,-1.277441 0,-0.297657 0.161231,-0.396875 0.16123,-0.111622 1.029394,-0.409278 0.781348,-0.260449 1.500684,-0.992187 0.545703,-0.558106 0.545703,-1.203028 0,-0.706933 -0.558106,-1.215429 -0.558105,-0.520899 -1.339453,-0.520899 -0.471289,0 -0.806152,0.111621 -0.322461,0.111621 -1.203027,0.582911 -0.26045,0.136425 -0.409278,0.136425 -0.310058,0 -0.595312,-0.434082 -0.272852,-0.434082 -0.272852,-0.917773 0,-0.843359 1.488281,-1.5875 0.930176,-0.471289 2.232422,-0.756543 1.314649,-0.297656 2.530078,-0.297656 z" />
      </g>
    </g>
    <path
       sodipodi:nodetypes="ssssssssssscccccsssssssssssss"
       d="M 32.53082,0.13398665 C 25.65772,0.19247824 18.858386,1.7653173 14.603749,4.2923892 6.5950177,9.0492299 1.4661651,13.83041 1.3554608,22.975486 1.2447591,32.120562 13.26882,31.04938 9.9921433,38.231402 c -3.276674,7.182025 -14.0797225,13.984586 -8.075996,21.928677 6.0037265,7.944088 24.1095447,-0.481962 29.8136887,9.988754 5.704142,10.470716 5.846543,25.952185 1.007174,37.007047 -4.839372,11.05486 -14.855788,15.84466 -20.949626,26.59321 -6.0938414,10.74854 -3.5753705,30.93755 9.600964,38.00749 13.176332,7.06994 -7.042825,27.64244 -7.69462,40.95719 -0.651796,13.31475 -1.305267,23.57154 5.042585,30.41572 3.574666,3.85416 8.899141,9.03422 14.699877,12.70155 v 7.75405 h 50.00005 v -8.99997 H 71.471594 c 1.305864,-0.65625 2.589344,-1.38256 3.848862,-2.19056 8.40731,-5.39345 20.077641,-12.10961 21.025072,-22.70663 0.94743,-10.59702 -5.436712,-25.24241 -1.991093,-33.64601 3.445621,-8.4036 9.574525,-18.44152 5.656505,-28.77809 -3.918023,-10.33657 -7.756429,-20.76772 -0.568959,-31.6084 7.187469,-10.84068 5.573629,-28.94519 3.382219,-40.397018 C 100.63279,83.806587 80.956882,84.7606 87.354862,75.63532 93.752844,66.510039 108.78608,65.639113 114.22196,57.221458 119.65784,48.803803 118.64079,37.086084 111.82882,30.421026 105.01685,23.755968 115.43064,16.627162 106.82241,8.9003764 98.214179,1.1735912 86.99292,1.1861404 76.121439,2.2780418 65.249959,3.3699432 58.759219,9.6403051 49.198535,3.900165 44.716964,1.2094743 38.595318,0.0823764 32.53082,0.13398665 Z"
       style="fill:none;stroke:#ff0000;stroke-width:0.264583px;stroke-linecap:butt;stroke-linejoin:miter;stroke-opacity:1"
       id="path982" />
    <g
       style="stroke:#ff0000"
       transform="translate(10.126096,-1.594809)"
       id="g1051">
      <rect
         style="fill:none;stroke:#ff0000;stroke-width:0.25;stroke-miterlimit:4;stroke-dasharray:none"
         id="rect1012"
         width="100"
         height="100"
         x="96.718246"
         y="147.13814"
         ry="25.000002" />
      <rect
         style="fill:none;stroke:#ff0000;stroke-width:0.25;stroke-miterlimit:4;stroke-dasharray:none"
         id="rect1018"
         width="49.5"
         height="2.8"
         x="121.96825"
         y="195.73814" />
    </g>
    <g
       style="stroke:#ff0000"
       transform="translate(-9.8739045,-1.594809)"
       id="g1047">
      <rect
         style="fill:none;stroke:#ff0000;stroke-width:0.25;stroke-miterlimit:4;stroke-dasharray:none"
         id="rect1014"
         width="80"
         height="80"
         x="116.71825"
         y="67.138138"
         rx="25"
         ry="25.000002" />
      <rect
         y="105.73814"
         x="131.96825"
         height="2.8"
         width="49.5"
         id="rect1018-1"
         style="fill:none;stroke:#ff0000;stroke-width:0.25;stroke-miterlimit:4;stroke-dasharray:none" />
    </g>
    <g
       style="stroke:#ff0000"
       transform="translate(-16.700999,-5.1567714)"
       id="g1043">
      <rect
         style="fill:none;stroke:#ff0000;stroke-width:0.25;stroke-miterlimit:4;stroke-dasharray:none"
         id="rect1016"
         width="60"
         height="60"
         x="136.71825"
         y="7.138134"
         rx="25"
         ry="25.000002" />
      <rect
         y="35.738132"
         x="141.96825"
         height="2.8"
         width="49.5"
         id="rect1018-7"
         style="fill:none;stroke:#ff0000;stroke-width:0.25;stroke-miterlimit:4;stroke-dasharray:none" />
    </g>
  </g>
</svg>
