<?xml version="1.0" encoding="UTF-8" standalone="no"?>
<svg
   xmlns:dc="http://purl.org/dc/elements/1.1/"
   xmlns:cc="http://creativecommons.org/ns#"
   xmlns:rdf="http://www.w3.org/1999/02/22-rdf-syntax-ns#"
   xmlns:svg="http://www.w3.org/2000/svg"
   xmlns="http://www.w3.org/2000/svg"
   xmlns:sodipodi="http://sodipodi.sourceforge.net/DTD/sodipodi-0.dtd"
   xmlns:inkscape="http://www.inkscape.org/namespaces/inkscape"
   width="800mm"
   height="400mm"
   viewBox="0 0 800 400"
   version="1.1"
   id="svg1095"
   inkscape:version="1.0.1 (3bc2e813f5, 2020-09-07)"
   sodipodi:docname="You Did Good Shield.svg">
  <defs
     id="defs1089" />
  <sodipodi:namedview
     id="base"
     pagecolor="#ffffff"
     bordercolor="#666666"
     borderopacity="1.0"
     inkscape:pageopacity="0.0"
     inkscape:pageshadow="2"
     inkscape:zoom="0.24748737"
     inkscape:cx="1516.9295"
     inkscape:cy="783.27871"
     inkscape:document-units="mm"
     inkscape:current-layer="layer1"
     inkscape:document-rotation="0"
     showgrid="false"
     inkscape:window-width="1267"
     inkscape:window-height="1040"
     inkscape:window-x="234"
     inkscape:window-y="0"
     inkscape:window-maximized="0" />
  <metadata
     id="metadata1092">
    <rdf:RDF>
      <cc:Work
         rdf:about="">
        <dc:format>image/svg+xml</dc:format>
        <dc:type
           rdf:resource="http://purl.org/dc/dcmitype/StillImage" />
        <dc:title></dc:title>
      </cc:Work>
    </rdf:RDF>
  </metadata>
  <g
     inkscape:label="Layer 1"
     inkscape:groupmode="layer"
     id="layer1">
    <g
       id="g1203">
      <path
         id="path775-8"
         style="fill:none;stroke:#ff0000;stroke-width:0.777126px;stroke-linecap:butt;stroke-linejoin:miter;stroke-opacity:1"
         d="m 0.3972665,148.01606 c -0.07196,2.41353 0.1222181,13.35101 7.8380533,33.89308 6.2758492,16.70833 16.5373522,34.80574 21.8855522,45.52418 11.043752,22.13302 14.431508,41.07696 14.431508,41.07696 l 43.019775,23.86783 c 0,0 14.009175,-5.18236 21.249585,-7.15201 8.86625,-2.41194 14.02403,-4.40836 27.32088,-5.05891 13.29686,-0.65056 30.58823,0.88838 50.09741,3.46823 8.74327,1.15619 24.16614,6.17224 37.30061,8.75179 16.17296,3.17631 23.23059,2.88996 37.22015,-0.42499 13.98957,-3.31495 27.29907,-8.74235 43.71343,-22.89794 16.41438,-14.15558 26.02079,-29.20507 37.05167,-51.20693 5.60372,-11.17702 11.99227,-28.18365 18.96981,-43.16851 6.75764,-14.51268 14.19775,-27.18884 14.19775,-27.18884 0,0 -7.44011,-12.67614 -14.19775,-27.18884 C 353.51816,105.32631 347.12961,88.319691 341.52589,77.142651 330.49501,55.140803 320.8886,40.089773 304.47422,25.934193 288.05986,11.778613 274.75036,6.3527233 260.76079,3.0377933 c -13.98956,-3.31497 -21.04719,-3.60133 -37.22015,-0.42501 -13.13447,2.57956 -28.55734,7.5940997 -37.30061,8.7502797 -19.50918,2.57984 -36.80055,4.12033 -50.09741,3.46977 -13.29685,-0.65058 -18.45462,-2.6485 -27.32088,-5.06045 C 101.58134,7.802753 87.572155,2.6203833 87.572155,2.6203833 L 44.55238,26.489743 c 0,0 -3.387756,18.94392 -14.431508,41.076938 -5.3482,10.71845 -15.609703,28.81586 -21.8855522,45.524189 C -0.5827776,136.56753 0.4230666,147.5 0.4230666,147.5 c 0,0 -0.01554,0.17127 -0.0258001,0.51606 z" />
      <path
         id="path775"
         style="fill:none;stroke:#0000ff;stroke-width:0.745514px;stroke-linecap:butt;stroke-linejoin:miter;stroke-opacity:1"
         d="m 8.0111659,147.99505 c -0.06903,2.31537 0.117248,12.80793 7.5192171,32.51439 6.020559,16.02868 15.864645,33.38991 20.995288,43.67235 10.594516,21.2327 13.844465,39.40604 13.844465,39.40604 l 41.269811,22.89693 c 0,0 13.439303,-4.97154 20.385193,-6.86108 8.50559,-2.31382 13.45356,-4.22904 26.20954,-4.85312 12.75596,-0.6241 29.34394,0.85224 48.05953,3.32715 8.38761,1.10916 23.18312,5.92116 35.78329,8.39579 15.51508,3.0471 22.28562,2.7724 35.70611,-0.40771 13.4205,-3.18011 26.18859,-8.38673 41.93524,-21.96649 15.74668,-13.57977 24.96233,-28.01708 35.5445,-49.12394 5.37577,-10.72238 11.50442,-27.0372 18.19814,-41.41251 6.48275,-13.92233 13.62023,-26.08285 13.62023,-26.08285 0,0 -7.13748,-12.16051 -13.62023,-26.08287 -6.69372,-14.37529 -12.82237,-30.690109 -18.19814,-41.412494 -10.58217,-21.10686 -19.79782,-35.54565 -35.5445,-49.1254 -15.74665,-13.57976 -28.51474,-18.78493 -41.93524,-21.96504 -13.42049,-3.1801104 -20.19103,-3.4548004 -35.70611,-0.4077 -12.60017,2.47463 -27.39568,7.28517 -35.78329,8.39433 -18.71559,2.47489 -35.30357,3.95269 -48.05953,3.32862 -12.75598,-0.6241 -17.70394,-2.54077 -26.20954,-4.8546 -6.94588,-1.8895 -20.385193,-6.86107 -20.385193,-6.86107 l -41.269811,22.89839 c 0,0 -3.249949,18.17334 -13.844465,39.40603 C 31.395028,81.100646 21.550942,98.461883 15.530383,114.49054 7.0709889,137.01223 8.0359169,147.5 8.0359169,147.5 c 0,0 -0.01491,0.1643 -0.02475,0.49505 z" />
    </g>
    <g
       id="g1271"
       transform="translate(379.65407)">
      <path
         id="path775-4"
         style="fill:none;stroke:#ff0000;stroke-width:0.745515px;stroke-linecap:butt;stroke-linejoin:miter;stroke-opacity:1"
         d="m 0.381111,141.99506 c -0.06903,2.31536 0.117248,12.80792 7.519217,32.51438 6.020559,16.02868 15.864644,33.38991 20.995289,43.67235 10.594513,21.2327 13.844461,39.40603 13.844461,39.40603 l 41.269812,22.89694 c 0,0 13.4393,-4.97155 20.38519,-6.86108 8.50559,-2.31382 13.45356,-4.22904 26.20953,-4.85312 12.75596,-0.6241 29.34394,0.85224 48.05953,3.32715 8.38761,1.10916 23.18312,5.92116 35.78329,8.39579 15.51508,3.0471 22.28562,2.7724 35.70611,-0.40771 13.4205,-3.18011 26.18858,-8.38673 41.93525,-21.9665 15.74667,-13.57976 24.96232,-28.01707 35.54449,-49.12393 5.37577,-10.72237 11.50442,-27.0372 18.19815,-41.41251 6.48275,-13.92233 13.62021,-26.08285 13.62021,-26.08285 0,0 -7.13746,-12.16051 -13.62021,-26.08286 C 339.1377,101.04184 333.00905,84.72702 327.63328,74.00464 317.05111,52.89778 307.83546,38.45899 292.08879,24.87924 276.34212,11.29947 263.57404,6.09431 250.15354,2.9142 236.73305,-0.26591 229.96251,-0.54061 214.44743,2.5065 c -12.60017,2.47461 -27.39568,7.28517 -35.78329,8.39433 -18.71559,2.47489 -35.30357,3.9527 -48.05953,3.32861 C 117.84864,13.60535 112.90068,11.68869 104.39508,9.37485 97.4492,7.48534 84.00989,2.51378 84.00989,2.51378 L 42.740078,25.41217 c 0,0 -3.249948,18.17334 -13.844461,39.40603 C 23.764972,75.10064 13.920887,92.46189 7.900328,108.49055 -0.559066,131.01224 0.405862,141.5 0.405862,141.5 c 0,0 -0.01491,0.1643 -0.024751,0.49506 z" />
      <path
         style="color:#000000;font-style:normal;font-variant:normal;font-weight:normal;font-stretch:normal;font-size:medium;line-height:normal;font-family:sans-serif;font-variant-ligatures:normal;font-variant-position:normal;font-variant-caps:normal;font-variant-numeric:normal;font-variant-alternates:normal;font-variant-east-asian:normal;font-feature-settings:normal;font-variation-settings:normal;text-indent:0;text-align:start;text-decoration:none;text-decoration-line:none;text-decoration-style:solid;text-decoration-color:#000000;letter-spacing:normal;word-spacing:normal;text-transform:none;writing-mode:lr-tb;direction:ltr;text-orientation:mixed;dominant-baseline:auto;baseline-shift:baseline;text-anchor:start;white-space:normal;shape-padding:0;shape-margin:0;inline-size:0;clip-rule:nonzero;display:inline;overflow:visible;visibility:visible;isolation:auto;mix-blend-mode:normal;color-interpolation:sRGB;color-interpolation-filters:linearRGB;solid-color:#000000;solid-opacity:1;vector-effect:none;fill:#000000;fill-opacity:1;fill-rule:nonzero;stroke:none;stroke-width:0.745515;stroke-linecap:butt;stroke-linejoin:miter;stroke-miterlimit:4;stroke-dasharray:none;stroke-dashoffset:0;stroke-opacity:1;color-rendering:auto;image-rendering:auto;shape-rendering:auto;text-rendering:auto;enable-background:accumulate;stop-color:#000000"
         d="m 38.640519,216.95721 h 0.371094 18.009766 c 0.01281,2.96084 0.03471,6.2838 0.08398,8.10938 0.05138,1.90309 0.598813,5.2168 1.132813,8.08593 0.534,2.86914 1.05664,5.27735 1.05664,5.27735 l 0.19336,0.89844 0.486328,-0.78125 c 0,0 1.1954,-1.91756 2.49414,-3.84961 0.64937,-0.96603 1.325412,-1.93597 1.884766,-2.66407 0.279677,-0.36404 0.530256,-0.66853 0.726562,-0.875 0.09815,-0.10323 0.183507,-0.18273 0.242188,-0.22851 0.05868,-0.0458 0.102235,-0.0461 0.0332,-0.0352 -0.08711,0.0139 -0.03503,-0.002 0.04492,0.0293 0.07995,0.0312 0.199666,0.0904 0.341797,0.16992 0.284262,0.15906 0.664019,0.40399 1.097656,0.70313 0.867275,0.59827 1.955933,1.41413 3.017578,2.23632 2.123291,1.64438 4.142578,3.3086 4.142578,3.3086 l 0.921875,0.75781 -0.326171,-1.14648 c 0,0 -1.668048,-5.86355 -2.41211,-17.96485 -0.742809,-12.08091 1.054688,-20.28125 1.054688,-20.28125 l 0.09961,-0.45508 -7.326172,0.0391 V 88.43576 l 7.326172,0.0391 -0.09961,-0.45508 c 0,0 -1.797497,-8.20031 -1.054688,-20.28125 0.744062,-12.10129 2.41211,-17.96289 2.41211,-17.96289 l 0.326171,-1.14844 -0.921875,0.75782 c 0,0 -2.019286,1.6642 -4.142578,3.30859 -1.061645,0.82219 -2.150305,1.64001 -3.017578,2.23828 -0.433637,0.29914 -0.813397,0.54408 -1.097656,0.70313 -0.14213,0.0795 -0.261851,0.13673 -0.341797,0.16797 -0.07995,0.0312 -0.132044,0.0154 -0.04492,0.0293 0.06903,0.011 0.02548,0.0106 -0.0332,-0.0351 -0.05868,-0.0458 -0.144034,-0.12528 -0.242188,-0.22852 -0.196307,-0.20647 -0.446885,-0.509 -0.726562,-0.87305 C 63.794051,53.96753 63.11801,52.99759 62.46864,52.03156 61.169901,50.09951 59.9745,48.18 59.9745,48.18 l -0.486328,-0.7793 -0.19336,0.89844 c 0,0 -0.52264,2.40626 -1.05664,5.27539 -0.534001,2.86913 -1.081437,6.18479 -1.132813,8.08789 -0.04922,1.82553 -0.07116,5.1466 -0.08398,8.10742 h -18.38086 z m 0.744141,-0.74609 V 70.51581 h 18.376953 v -0.3711 c 0.0124,-3.05942 0.03692,-6.57234 0.08789,-8.46289 0.04806,-1.78028 0.589342,-5.11365 1.121094,-7.9707 0.441396,-2.37158 0.738676,-3.73134 0.873046,-4.36133 0.349192,0.55567 0.959651,1.54128 2.00586,3.09766 0.654034,0.97296 1.334782,1.94968 1.912109,2.70117 0.288664,0.37574 0.551247,0.69373 0.779297,0.93359 0.114025,0.11993 0.217553,0.22104 0.322266,0.30274 0.104712,0.0817 0.199888,0.1557 0.375,0.18359 0.193205,0.0308 0.301772,-0.0188 0.433593,-0.0703 0.131822,-0.0515 0.273247,-0.12317 0.433594,-0.21289 0.320695,-0.17944 0.7139,-0.43374 1.158203,-0.74024 0.888606,-0.61298 1.981468,-1.4351 3.048828,-2.26172 1.718023,-1.33052 2.771868,-2.20129 3.34961,-2.67382 -0.313679,1.21883 -1.56139,6.32925 -2.222656,17.08398 -0.718599,11.68718 0.870753,19.39848 1.003906,20.03125 l -7.177735,-0.0371 v 111.3535 l 7.179688,-0.0391 c -0.132613,0.63009 -1.724593,8.34386 -1.005859,20.03321 0.661146,10.75278 1.908641,15.86172 2.222656,17.08203 -0.577828,-0.4726 -1.631684,-1.34143 -3.34961,-2.67188 -1.067359,-0.82661 -2.160223,-1.65068 -3.048828,-2.26367 -0.444302,-0.30649 -0.83751,-0.55884 -1.158203,-0.73828 -0.160347,-0.0897 -0.301775,-0.16138 -0.433594,-0.21289 -0.131819,-0.0515 -0.240396,-0.10304 -0.433593,-0.0723 -0.175117,0.0279 -0.270287,0.1019 -0.375,0.18359 -0.104714,0.0817 -0.208241,0.18281 -0.322266,0.30274 -0.22805,0.23986 -0.490633,0.55785 -0.779297,0.93359 -0.577327,0.75149 -1.258074,1.73016 -1.912109,2.70313 -1.046117,1.55624 -1.656587,2.53991 -2.00586,3.0957 -0.134535,-0.63078 -0.431808,-1.99059 -0.873046,-4.36133 -0.531751,-2.85705 -1.073032,-6.19042 -1.121094,-7.9707 -0.05103,-1.89054 -0.07551,-5.40348 -0.08789,-8.46289 v -0.3711 z"
         id="path1070" />
      <g
         aria-label="YOU DID GOOD"
         id="text921"
         style="font-style:normal;font-weight:normal;font-size:8.46667px;line-height:1.25;font-family:sans-serif;fill:#000000;fill-opacity:1;stroke:none;stroke-width:0.264583"
         transform="matrix(0,-1.5774453,1.5774453,0,-22.682213,318.99484)">
        <path
           d="m 69.205076,44.400978 h 3.700034 v 0.144694 h -0.429948 q -0.256316,0 -0.40101,0.09508 -0.14056,0.09508 -0.14056,0.268717 0,0.08682 0.04134,0.165365 0.04134,0.07441 0.243912,0.367936 l 1.434539,1.980242 1.28571,-1.690854 q 0.260449,-0.330729 0.260449,-0.566374 0,-0.272851 -0.227376,-0.44235 -0.227377,-0.169499 -0.591179,-0.169499 h -0.380338 v -0.152962 h 2.968295 v 0.144694 q -0.293522,0.03307 -0.529167,0.111621 -0.235644,0.07441 -0.434082,0.198438 -0.198438,0.119889 -0.413412,0.326595 -0.21084,0.206706 -0.409277,0.463021 l -1.455209,1.922364 v 1.397331 q 0,0.529167 0.260449,0.789616 0.26045,0.26045 0.789616,0.26045 h 0.388607 v 0.16123 h -4.113445 v -0.16123 h 0.405143 q 0.533301,0 0.789616,-0.256316 0.26045,-0.260449 0.26045,-0.79375 v -1.244369 l -1.728061,-2.36058 Q 70.449445,44.90534 70.131118,44.731707 69.812791,44.55394 69.308429,44.55394 h -0.103353 z"
           style="font-style:normal;font-variant:normal;font-weight:normal;font-stretch:normal;font-size:8.46667px;font-family:'Engravers MT';-inkscape-font-specification:'Engravers MT';fill:#000000;stroke-width:0.264583"
           id="path923" />
        <path
           d="m 81.289097,44.285223 q 0.810287,0 1.480014,0.260449 0.673861,0.256315 1.169955,0.752409 0.417546,0.42168 0.644922,0.942579 0.227377,0.516764 0.227377,1.058333 0,0.814421 -0.463022,1.500684 -0.458886,0.686264 -1.252637,1.087273 -0.789616,0.401009 -1.732194,0.401009 -0.719337,0 -1.355991,-0.227376 -0.632519,-0.227376 -1.116211,-0.640788 -0.483692,-0.417546 -0.756543,-0.971517 -0.268718,-0.553972 -0.268718,-1.157553 0,-0.802018 0.467155,-1.49655 0.467156,-0.694532 1.252638,-1.099675 0.785482,-0.409277 1.703255,-0.409277 z m 0.107488,0.148828 q -0.376205,0 -0.711068,0.132291 -0.33073,0.128158 -0.558106,0.367937 -0.248047,0.260449 -0.425814,0.620117 -0.173633,0.355534 -0.264584,0.797885 -0.08682,0.438216 -0.08682,0.946712 0,0.636654 0.14056,1.161687 0.14056,0.520899 0.405143,0.901237 0.264584,0.376205 0.63252,0.574642 0.367936,0.198438 0.818555,0.198438 0.611849,0 1.062468,-0.347266 0.454753,-0.3514 0.694532,-1.000456 0.243912,-0.649056 0.243912,-1.542025 0,-0.578776 -0.132291,-1.083139 -0.132292,-0.504362 -0.380339,-0.876432 -0.248047,-0.376205 -0.599447,-0.595313 -0.173633,-0.115755 -0.401009,-0.186035 -0.227377,-0.07028 -0.438216,-0.07028 z"
           style="font-style:normal;font-variant:normal;font-weight:normal;font-stretch:normal;font-size:8.46667px;font-family:'Engravers MT';-inkscape-font-specification:'Engravers MT';fill:#000000;stroke-width:0.264583"
           id="path925" />
        <path
           d="m 85.716736,44.400978 h 4.005959 v 0.152962 h -0.458887 q -0.529167,0 -0.789616,0.260449 -0.260449,0.256316 -0.260449,0.789617 v 2.931088 q 0,0.500228 0.23151,0.859896 0.231511,0.359668 0.665593,0.553972 0.434082,0.194303 1.033529,0.194303 0.525033,0 0.979785,-0.148828 0.454753,-0.152962 0.723471,-0.417546 0.49196,-0.504362 0.49196,-1.413867 v -2.067059 q 0,-0.992187 -0.578777,-1.347721 -0.165364,-0.103353 -0.347265,-0.144694 -0.181902,-0.04134 -0.525033,-0.04961 v -0.152962 h 2.802931 v 0.152962 q -0.26045,0.02067 -0.413412,0.07028 -0.152962,0.04961 -0.314193,0.165365 -0.235645,0.177767 -0.359668,0.475423 -0.124023,0.293522 -0.124023,0.694532 v 2.302702 q 0,0.917774 -0.500229,1.4056 -0.276985,0.264583 -0.591178,0.380339 -0.661459,0.248047 -1.575098,0.248047 -0.673861,0 -1.223699,-0.132292 -0.549837,-0.132292 -0.909505,-0.376205 -0.677995,-0.467155 -0.677995,-1.339453 v -2.844272 q 0,-1.050066 -1.050066,-1.050066 h -0.235645 z"
           style="font-style:normal;font-variant:normal;font-weight:normal;font-stretch:normal;font-size:8.46667px;font-family:'Engravers MT';-inkscape-font-specification:'Engravers MT';fill:#000000;stroke-width:0.264583"
           id="path927" />
        <path
           d="m 99.334515,44.55394 v 5.461168 h 1.116215 q 0.47542,0 0.80615,-0.05374 0.33073,-0.05374 0.57878,-0.173633 0.24804,-0.124023 0.43408,-0.322461 0.68626,-0.698665 0.68626,-2.14974 0,-0.475424 -0.0868,-0.897103 -0.0827,-0.425814 -0.24391,-0.748275 -0.16123,-0.322462 -0.40514,-0.566374 -0.20257,-0.198438 -0.45889,-0.318327 -0.25218,-0.124024 -0.58704,-0.177767 -0.33073,-0.05374 -0.79789,-0.05374 z m -2.48047,-0.152962 h 3.832325 q 0.93431,0 1.62884,0.235644 0.69867,0.231511 1.17409,0.715203 0.42995,0.417545 0.66146,0.942578 0.23565,0.525033 0.23565,1.079004 0,0.607715 -0.25219,1.12448 -0.25218,0.516765 -0.7152,0.892969 -0.45888,0.376205 -1.0914,0.582911 -0.63252,0.202571 -1.3684,0.202571 h -4.105175 v -0.16123 h 0.21084 q 0.533301,0 0.789617,-0.256316 0.260449,-0.260449 0.260449,-0.79375 v -3.361036 q 0,-0.537435 -0.256315,-0.793751 -0.256315,-0.256315 -0.793751,-0.256315 h -0.21084 z"
           style="font-style:normal;font-variant:normal;font-weight:normal;font-stretch:normal;font-size:8.46667px;font-family:'Engravers MT';-inkscape-font-specification:'Engravers MT';fill:#000000;stroke-width:0.264583"
           id="path929" />
        <path
           d="m 105.4406,50.015108 h 0.16124 q 0.5333,0 0.78961,-0.256316 0.26045,-0.260449 0.26045,-0.79375 0,-0.243913 0,-0.438216 0,-0.194304 0,-0.372071 0,-0.177767 0,-0.533301 0,-1.455209 0,-2.145606 -0.0331,-0.272852 -0.10335,-0.434082 -0.0662,-0.161231 -0.20257,-0.268718 -0.24805,-0.219108 -0.74414,-0.219108 h -0.16124 v -0.152962 h 3.63803 v 0.152962 h -0.16123 q -0.5333,0 -0.78962,0.256315 -0.25632,0.256316 -0.25632,0.793751 v 3.361036 q 0,0.533301 0.25632,0.79375 0.26045,0.256316 0.78962,0.256316 h 0.16123 v 0.16123 h -3.63803 z"
           style="font-style:normal;font-variant:normal;font-weight:normal;font-stretch:normal;font-size:8.46667px;font-family:'Engravers MT';-inkscape-font-specification:'Engravers MT';fill:#000000;stroke-width:0.264583"
           id="path931" />
        <path
           d="m 112.21229,44.55394 v 5.461168 h 1.11621 q 0.47542,0 0.80615,-0.05374 0.33073,-0.05374 0.57878,-0.173633 0.24805,-0.124023 0.43408,-0.322461 0.68626,-0.698665 0.68626,-2.14974 0,-0.475424 -0.0868,-0.897103 -0.0827,-0.425814 -0.24391,-0.748275 -0.16124,-0.322462 -0.40515,-0.566374 -0.20257,-0.198438 -0.45889,-0.318327 -0.25218,-0.124024 -0.58704,-0.177767 -0.33073,-0.05374 -0.79788,-0.05374 z m -2.48047,-0.152962 h 3.83232 q 0.93431,0 1.62885,0.235644 0.69866,0.231511 1.17409,0.715203 0.42994,0.417545 0.66145,0.942578 0.23565,0.525033 0.23565,1.079004 0,0.607715 -0.25218,1.12448 -0.25218,0.516765 -0.7152,0.892969 -0.45889,0.376205 -1.09141,0.582911 -0.63252,0.202571 -1.36839,0.202571 h -4.10518 v -0.16123 h 0.21084 q 0.5333,0 0.78961,-0.256316 0.26045,-0.260449 0.26045,-0.79375 v -3.361036 q 0,-0.537435 -0.25631,-0.793751 -0.25632,-0.256315 -0.79375,-0.256315 h -0.21084 z"
           style="font-style:normal;font-variant:normal;font-weight:normal;font-stretch:normal;font-size:8.46667px;font-family:'Engravers MT';-inkscape-font-specification:'Engravers MT';fill:#000000;stroke-width:0.264583"
           id="path933" />
        <path
           d="m 127.47131,44.434051 h 0.15296 l 0.0413,2.492872 h -0.13642 q -0.14056,-0.450619 -0.26045,-0.715202 -0.11989,-0.268718 -0.26459,-0.47129 -0.40514,-0.591178 -1.02526,-0.93431 -0.61598,-0.343131 -1.26917,-0.343131 -0.339,0 -0.67386,0.124023 -0.33487,0.124024 -0.54157,0.330729 -0.34313,0.343132 -0.50023,0.946713 -0.15296,0.603581 -0.15296,1.558562 0,0.285254 0.0248,0.566374 0.0248,0.28112 0.0662,0.500228 0.0413,0.214974 0.10335,0.425814 0.062,0.206706 0.13643,0.338997 0.12816,0.214974 0.28939,0.376205 0.16536,0.16123 0.38447,0.28112 0.22324,0.119889 0.47129,0.177767 0.24804,0.05374 0.5209,0.05374 0.3514,0 0.7028,-0.08682 0.3514,-0.09095 0.56637,-0.235645 0.40928,-0.28112 0.40928,-0.752409 v -0.297656 q 0,-1.050066 -1.05007,-1.050066 h -0.50023 v -0.152962 h 3.95222 v 0.152962 h -0.13229 q -0.5333,0 -0.79375,0.260449 -0.25632,0.256316 -0.25632,0.789617 v 1.35599 h -0.15296 q -0.18604,-0.173633 -0.3266,-0.231511 -0.13642,-0.05788 -0.34313,-0.05788 -0.1819,0 -0.33899,0.03721 -0.15297,0.03307 -0.42995,0.148828 -0.45062,0.16123 -0.71521,0.214974 -0.26458,0.05788 -0.64905,0.05788 -0.72761,0 -1.36013,-0.219109 -0.62838,-0.219108 -1.09554,-0.620117 -0.46302,-0.405143 -0.71933,-0.950847 -0.25632,-0.545703 -0.25632,-1.174089 0,-0.380338 0.0992,-0.748275 0.0992,-0.37207 0.28526,-0.690397 0.18603,-0.318327 0.46302,-0.603581 0.32246,-0.318327 0.70693,-0.537435 0.38861,-0.219108 0.81855,-0.338998 0.43409,-0.119889 0.86404,-0.119889 0.42994,0 0.83922,0.111621 0.41341,0.107487 0.90537,0.3514 0.36794,0.186035 0.51677,0.186035 0.15296,0 0.29765,-0.119889 0.14883,-0.11989 0.3266,-0.388607 z"
           style="font-style:normal;font-variant:normal;font-weight:normal;font-stretch:normal;font-size:8.46667px;font-family:'Engravers MT';-inkscape-font-specification:'Engravers MT';fill:#000000;stroke-width:0.264583"
           id="path935" />
        <path
           d="m 133.0689,44.285223 q 0.81029,0 1.48002,0.260449 0.67386,0.256315 1.16995,0.752409 0.41755,0.42168 0.64492,0.942579 0.22738,0.516764 0.22738,1.058333 0,0.814421 -0.46302,1.500684 -0.45889,0.686264 -1.25264,1.087273 -0.78961,0.401009 -1.73219,0.401009 -0.71934,0 -1.35599,-0.227376 -0.63252,-0.227376 -1.11621,-0.640788 -0.4837,-0.417546 -0.75655,-0.971517 -0.26872,-0.553972 -0.26872,-1.157553 0,-0.802018 0.46716,-1.49655 0.46715,-0.694532 1.25264,-1.099675 0.78548,-0.409277 1.70325,-0.409277 z m 0.10749,0.148828 q -0.3762,0 -0.71107,0.132291 -0.33073,0.128158 -0.5581,0.367937 -0.24805,0.260449 -0.42582,0.620117 -0.17363,0.355534 -0.26458,0.797885 -0.0868,0.438216 -0.0868,0.946712 0,0.636654 0.14056,1.161687 0.14056,0.520899 0.40515,0.901237 0.26458,0.376205 0.63252,0.574642 0.36793,0.198438 0.81855,0.198438 0.61185,0 1.06247,-0.347266 0.45475,-0.3514 0.69453,-1.000456 0.24391,-0.649056 0.24391,-1.542025 0,-0.578776 -0.13229,-1.083139 -0.13229,-0.504362 -0.38034,-0.876432 -0.24804,-0.376205 -0.59944,-0.595313 -0.17364,-0.115755 -0.40101,-0.186035 -0.22738,-0.07028 -0.43822,-0.07028 z"
           style="font-style:normal;font-variant:normal;font-weight:normal;font-stretch:normal;font-size:8.46667px;font-family:'Engravers MT';-inkscape-font-specification:'Engravers MT';fill:#000000;stroke-width:0.264583"
           id="path937" />
        <path
           d="m 141.18004,44.285223 q 0.81029,0 1.48001,0.260449 0.67386,0.256315 1.16996,0.752409 0.41754,0.42168 0.64492,0.942579 0.22738,0.516764 0.22738,1.058333 0,0.814421 -0.46302,1.500684 -0.45889,0.686264 -1.25264,1.087273 -0.78962,0.401009 -1.7322,0.401009 -0.71933,0 -1.35599,-0.227376 -0.63252,-0.227376 -1.11621,-0.640788 -0.48369,-0.417546 -0.75654,-0.971517 -0.26872,-0.553972 -0.26872,-1.157553 0,-0.802018 0.46716,-1.49655 0.46715,-0.694532 1.25263,-1.099675 0.78549,-0.409277 1.70326,-0.409277 z m 0.10749,0.148828 q -0.37621,0 -0.71107,0.132291 -0.33073,0.128158 -0.55811,0.367937 -0.24804,0.260449 -0.42581,0.620117 -0.17363,0.355534 -0.26458,0.797885 -0.0868,0.438216 -0.0868,0.946712 0,0.636654 0.14056,1.161687 0.14056,0.520899 0.40514,0.901237 0.26459,0.376205 0.63252,0.574642 0.36794,0.198438 0.81856,0.198438 0.61185,0 1.06247,-0.347266 0.45475,-0.3514 0.69453,-1.000456 0.24391,-0.649056 0.24391,-1.542025 0,-0.578776 -0.13229,-1.083139 -0.13229,-0.504362 -0.38034,-0.876432 -0.24805,-0.376205 -0.59945,-0.595313 -0.17363,-0.115755 -0.40101,-0.186035 -0.22737,-0.07028 -0.43821,-0.07028 z"
           style="font-style:normal;font-variant:normal;font-weight:normal;font-stretch:normal;font-size:8.46667px;font-family:'Engravers MT';-inkscape-font-specification:'Engravers MT';fill:#000000;stroke-width:0.264583"
           id="path939" />
        <path
           d="m 148.022,44.55394 v 5.461168 h 1.11622 q 0.47542,0 0.80615,-0.05374 0.33073,-0.05374 0.57877,-0.173633 0.24805,-0.124023 0.43409,-0.322461 0.68626,-0.698665 0.68626,-2.14974 0,-0.475424 -0.0868,-0.897103 -0.0827,-0.425814 -0.24391,-0.748275 -0.16123,-0.322462 -0.40514,-0.566374 -0.20257,-0.198438 -0.45889,-0.318327 -0.25218,-0.124024 -0.58704,-0.177767 -0.33073,-0.05374 -0.79789,-0.05374 z m -2.48047,-0.152962 h 3.83233 q 0.93431,0 1.62884,0.235644 0.69867,0.231511 1.17409,0.715203 0.42995,0.417545 0.66146,0.942578 0.23564,0.525033 0.23564,1.079004 0,0.607715 -0.25218,1.12448 -0.25218,0.516765 -0.7152,0.892969 -0.45889,0.376205 -1.09141,0.582911 -0.63252,0.202571 -1.36839,0.202571 h -4.10518 v -0.16123 h 0.21084 q 0.5333,0 0.78962,-0.256316 0.26045,-0.260449 0.26045,-0.79375 v -3.361036 q 0,-0.537435 -0.25632,-0.793751 -0.25631,-0.256315 -0.79375,-0.256315 h -0.21084 z"
           style="font-style:normal;font-variant:normal;font-weight:normal;font-stretch:normal;font-size:8.46667px;font-family:'Engravers MT';-inkscape-font-specification:'Engravers MT';fill:#000000;stroke-width:0.264583"
           id="path941" />
      </g>
      <path
         style="color:#000000;font-style:normal;font-variant:normal;font-weight:normal;font-stretch:normal;font-size:medium;line-height:normal;font-family:sans-serif;font-variant-ligatures:normal;font-variant-position:normal;font-variant-caps:normal;font-variant-numeric:normal;font-variant-alternates:normal;font-variant-east-asian:normal;font-feature-settings:normal;font-variation-settings:normal;text-indent:0;text-align:start;text-decoration:none;text-decoration-line:none;text-decoration-style:solid;text-decoration-color:#000000;letter-spacing:normal;word-spacing:normal;text-transform:none;writing-mode:lr-tb;direction:ltr;text-orientation:mixed;dominant-baseline:auto;baseline-shift:baseline;text-anchor:start;white-space:normal;shape-padding:0;shape-margin:0;inline-size:0;clip-rule:nonzero;display:inline;overflow:visible;visibility:visible;isolation:auto;mix-blend-mode:normal;color-interpolation:sRGB;color-interpolation-filters:linearRGB;solid-color:#000000;solid-opacity:1;vector-effect:none;fill:#000000;fill-opacity:1;fill-rule:nonzero;stroke:none;stroke-width:0.745515px;stroke-linecap:butt;stroke-linejoin:miter;stroke-miterlimit:4;stroke-dasharray:none;stroke-dashoffset:0;stroke-opacity:1;color-rendering:auto;image-rendering:auto;shape-rendering:auto;text-rendering:auto;enable-background:accumulate;stop-color:#000000"
         d="m 57.388566,216.95721 8.623047,0.041 V 198.6662 h -0.746094 v 17.58203 l -7.873047,-0.0371 z"
         id="path1074" />
      <path
         style="color:#000000;font-style:normal;font-variant:normal;font-weight:normal;font-stretch:normal;font-size:medium;line-height:normal;font-family:sans-serif;font-variant-ligatures:normal;font-variant-position:normal;font-variant-caps:normal;font-variant-numeric:normal;font-variant-alternates:normal;font-variant-east-asian:normal;font-feature-settings:normal;font-variation-settings:normal;text-indent:0;text-align:start;text-decoration:none;text-decoration-line:none;text-decoration-style:solid;text-decoration-color:#000000;letter-spacing:normal;word-spacing:normal;text-transform:none;writing-mode:lr-tb;direction:ltr;text-orientation:mixed;dominant-baseline:auto;baseline-shift:baseline;text-anchor:start;white-space:normal;shape-padding:0;shape-margin:0;inline-size:0;clip-rule:nonzero;display:inline;overflow:visible;visibility:visible;isolation:auto;mix-blend-mode:normal;color-interpolation:sRGB;color-interpolation-filters:linearRGB;solid-color:#000000;solid-opacity:1;vector-effect:none;fill:#000000;fill-opacity:1;fill-rule:nonzero;stroke:none;stroke-width:0.745515px;stroke-linecap:butt;stroke-linejoin:miter;stroke-miterlimit:4;stroke-dasharray:none;stroke-dashoffset:0;stroke-opacity:1;color-rendering:auto;image-rendering:auto;shape-rendering:auto;text-rendering:auto;enable-background:accumulate;stop-color:#000000"
         d="m 57.388566,69.76971 0.0039,0.7461 7.873047,-0.0371 v 17.58203 h 0.746094 V 69.73066 Z"
         id="path1078" />
    </g>
  </g>
</svg>
