<?xml version="1.0" encoding="UTF-8" standalone="no"?>
<!-- Created with Inkscape (http://www.inkscape.org/) -->

<svg
   xmlns:dc="http://purl.org/dc/elements/1.1/"
   xmlns:cc="http://creativecommons.org/ns#"
   xmlns:rdf="http://www.w3.org/1999/02/22-rdf-syntax-ns#"
   xmlns:svg="http://www.w3.org/2000/svg"
   xmlns="http://www.w3.org/2000/svg"
   xmlns:sodipodi="http://sodipodi.sourceforge.net/DTD/sodipodi-0.dtd"
   xmlns:inkscape="http://www.inkscape.org/namespaces/inkscape"
   width="201mm"
   height="101mm"
   viewBox="0 0 201 101"
   version="1.1"
   id="svg8"
   inkscape:version="0.92.3 (2405546, 2018-03-11)"
   sodipodi:docname="Happy Birthday Succulent.svg">
  <defs
     id="defs2" />
  <sodipodi:namedview
     id="base"
     pagecolor="#ffffff"
     bordercolor="#666666"
     borderopacity="1.0"
     inkscape:pageopacity="0.0"
     inkscape:pageshadow="2"
     inkscape:zoom="1.4"
     inkscape:cx="571.75189"
     inkscape:cy="339.6822"
     inkscape:document-units="mm"
     inkscape:current-layer="layer1"
     showgrid="false"
     inkscape:window-width="1920"
     inkscape:window-height="1137"
     inkscape:window-x="-8"
     inkscape:window-y="-8"
     inkscape:window-maximized="1" />
  <metadata
     id="metadata5">
    <rdf:RDF>
      <cc:Work
         rdf:about="">
        <dc:format>image/svg+xml</dc:format>
        <dc:type
           rdf:resource="http://purl.org/dc/dcmitype/StillImage" />
        <dc:title></dc:title>
      </cc:Work>
    </rdf:RDF>
  </metadata>
  <g
     inkscape:label="Layer 1"
     inkscape:groupmode="layer"
     id="layer1"
     transform="translate(0,-196)">
    <g
       id="g824">
      <rect
         y="197.15384"
         x="0.15383102"
         height="99.692337"
         width="199.69234"
         id="rect815"
         style="fill:none;stroke:#ff0000;stroke-width:0.30766204;stroke-linejoin:miter;stroke-miterlimit:4;stroke-dasharray:none;stroke-dashoffset:0" />
      <path
         sodipodi:nodetypes="cc"
         inkscape:connector-curvature="0"
         id="rect819"
         d="m 100,197.11667 v 99.76669"
         style="fill:none;stroke:#0000ff;stroke-width:0.17964885;stroke-linejoin:miter;stroke-miterlimit:4;stroke-dasharray:none;stroke-dashoffset:0" />
    </g>
    <rect
       style="fill:none;stroke:#ff0000;stroke-width:0.24619006;stroke-linejoin:miter;stroke-miterlimit:4;stroke-dasharray:none;stroke-dashoffset:0"
       id="rect826"
       width="89.753815"
       height="89.753807"
       x="105.12309"
       y="202.12309" />
    <path
       style="font-style:normal;font-variant:normal;font-weight:normal;font-stretch:normal;font-size:medium;line-height:1.25;font-family:Bettalia;-inkscape-font-specification:Bettalia;letter-spacing:0px;word-spacing:0px;fill:none;fill-opacity:1;stroke:#ff0000;stroke-width:0.57070863;stroke-miterlimit:4;stroke-dasharray:none"
       d="m 417.59375,852.43555 c -3.83781,0.38621 -4.69868,6.03782 -4.95703,8.44922 -0.19691,2.75591 -0.98432,54.72347 -0.49219,58.36523 0.59055,3.74014 10.23545,9.25368 12.59766,-1.9668 l -0.19727,-23.42578 c 6.9882,-0.19691 12.796,0.19727 15.1582,0.19727 -1.1811,11.31889 -1.5739,22.34282 0.88672,24.21289 4.92125,3.54331 10.72662,3.05047 11.21875,-2.6582 0.49214,-5.80706 3.64259,-49.60562 0.39453,-53.8379 -3.24801,-4.23227 -6.0039,-3.15039 -6.0039,-3.15039 0,0 -1.96929,1.96817 -3.15039,9.54688 -0.49213,3.14963 -1.86925,11.71286 -2.85352,20.96484 l -15.74804,2.36133 -0.29493,-33.07031 c 0,0 0.68877,-4.42866 -4.72461,-5.80664 -0.67667,-0.18455 -1.28572,-0.23682 -1.83398,-0.18164 z m 171.68945,30.83398 c -2.73311,0.096 -5.06054,1.63086 -5.06054,1.63086 0,0 -2.98533,5.64822 -5.28321,15.33399 -1.29462,2.90706 -3.04563,3.72993 -4.9068,6.47739 0.68897,-4.72441 0.22256,-7.34164 -1.94281,-11.96763 -2.26378,-4.52753 -5.11685,-6.79102 -8.66015,-6.79102 -1.77166,0.29519 -3.44472,1.18109 -5.01953,2.75586 -1.67324,1.57482 -3.15136,3.44325 -4.5293,5.70704 -0.0983,-1.47636 -0.29405,-2.65713 -0.39258,-3.54297 -0.88584,-4.62599 -2.16585,-7.47943 -3.9375,-8.36524 -1.87007,-0.88584 -3.44432,0.0971 -4.82226,3.14844 -0.39372,0.98426 -0.81616,1.51414 -1.64433,3.48267 -1.155,3.01208 -2.2858,6.17876 -3.28258,8.46484 -1.57481,3.54331 -2.65897,5.72406 -4.92276,9.16895 0.59055,-3.34647 0.20502,-4.5802 -0.77924,-8.22193 -0.98423,-3.64172 -2.4612,-6.69367 -4.42969,-9.1543 -2.06695,-2.46066 -4.33082,-3.54373 -6.98828,-3.44531 -1.96849,0.29518 -3.83772,1.37755 -5.60937,3.05078 -1.87011,1.77166 -3.54509,3.93782 -5.02149,6.39844 -0.0983,-1.67323 -0.29404,-2.95323 -0.39258,-3.9375 -0.98422,-5.21654 -2.46119,-8.26693 -4.42968,-9.34961 -2.06695,-1.08268 -3.83734,0.0979 -5.41211,3.54297 -0.48378,1.50506 -1.80036,2.19708 -2.15068,5.42076 -1.20362,5.19271 -4.04567,11.00251 -6.20229,16.91937 -1.89189,4.07261 -2.13407,7.32213 -4.83704,10.15094 -1.57482,-4.13386 3.6508,-28.06251 -0.58148,-30.91685 -4.23228,-2.85434 -6.79101,0.68945 -6.79101,0.68945 0,0 -3.93787,-6.1019 -10.13868,-5.80664 -6.20076,0.39371 -13.28634,10.03875 -13.38476,23.32617 -0.0983,13.18897 5.80706,18.70194 12.5,15.35547 6.79132,-3.24801 7.67773,-9.25195 7.67773,-9.25195 0,0 -1.18251,6.79025 1.17969,10.13672 1.1811,1.57481 4.72552,2.46082 8.85938,1.47656 4.13385,-1.1811 6.39648,-6.00391 6.39648,-6.00391 1.08268,-2.26374 1.87109,-4.33007 1.87109,-4.33007 0,0 1.85988,-5.21854 3.7461,-12.15821 -0.0361,0.66126 -0.0811,1.22112 -0.11328,1.92188 -0.39372,8.56297 -0.5918,17.42065 -0.5918,26.57422 -0.0983,9.15352 3.5e-4,15.94584 0.19726,20.375 0.19692,3.93702 0.88531,6.692 2.06641,8.36523 1.08268,1.67324 2.4611,2.46094 3.9375,2.46094 1.47636,0.0983 2.9529,-0.29572 4.23242,-1.18164 0.98427,-0.68897 1.67389,-1.57556 2.16602,-2.65821 0.39367,-1.08268 0.68869,-2.16536 0.78711,-3.24804 0.0983,-1.08269 0.0977,-2.06609 0.0977,-2.85352 -0.0983,-0.29518 -0.0977,-0.59103 -0.0977,-0.68945 l 0.0977,-5.41211 c 0,-3.24801 -6.1e-4,-7.38264 0.0977,-12.40234 0,-5.01967 6.1e-4,-10.13741 -0.0977,-15.55079 1.96853,1.08269 4.72504,1.8692 8.16993,2.36133 3.44488,0.49213 6.79144,-0.49097 10.23632,-3.14844 l 0.0977,-0.0996 c 0.19691,-0.19692 0.98491,-0.98339 2.16602,-2.36133 h 0.0976 c 0,-0.0983 0.0977,-0.0986 0.0977,-0.19727 l 0.0996,-0.0977 0.0977,-0.0977 c 1.67324,-1.87007 4.4346,-4.41733 6.69839,-8.84648 1.1811,-2.16537 1.66815,-5.32696 2.75083,-8.37813 -0.0983,1.67323 -0.29492,3.44362 -0.29492,5.41211 -0.39371,7.77558 -0.5918,15.74871 -0.5918,23.91797 -0.0983,8.1693 3.6e-4,14.2712 0.19727,18.30664 0.19691,3.44489 0.78841,5.90641 1.87109,7.38281 0.98423,1.47636 2.16499,2.26287 3.54297,2.36133 1.27952,0.0983 2.55837,-0.29453 3.83789,-1.08203 0.88585,-0.59055 1.47742,-1.37906 1.8711,-2.36328 0.39371,-0.98427 0.68865,-1.96695 0.78711,-2.95117 0.0983,-0.98427 0.0983,-1.87154 0,-2.56055 0,-0.29518 -10e-4,-0.49063 -0.0996,-0.6875 v -0.49219 l 0.0996,-3.9375 v -0.39453 c 0.0983,-2.95276 0.0976,-6.69194 0.0976,-11.12109 0,-4.42912 6.1e-4,-9.15374 -0.0976,-13.97657 1.77165,0.98427 4.23126,1.67273 7.38086,2.06641 3.05117,0.49213 6.20074,-0.49207 9.25195,-2.75586 1.07819,-0.54437 1.97137,-1.17056 2.61243,-1.82565 1.57973,-1.00186 2.65899,-3.40976 3.78547,-4.8089 -2.26378,13.28742 5.1458,18.2494 13.8072,15.78878 3.5433,-0.98427 6.39789,-4.03715 8.46484,-7.28516 -0.19691,4.62599 -0.30567,8.59315 -0.50251,13.41602 -4.42915,4.52753 -8.25861,9.32057 -9.83343,11.28906 -5.61021,6.88978 2.16648,13.58296 8.85938,14.96094 6.79136,1.27952 8.36583,-2.16464 10.03906,-9.8418 1.27952,-6.29923 1.64521,-21.08195 1.64522,-21.08195 13.68109,-15.25591 20.25183,-34.16389 21.13764,-37.60877 l -2.60513,0.22587 c -3.14959,12.10628 -10.92592,23.13799 -18.40624,32.09467 0.0983,-3.93698 1.18011,-12.21288 1.37695,-14.08296 0.49213,-6.10235 3.05253,-14.96045 -1.67188,-17.51953 -4.72441,-2.46062 -6.20117,2.26368 -6.20117,2.26368 0,0 -2.06652,5.61074 -3.05078,13.18945 -0.19691,1.57481 -0.35032,3.25831 -0.54716,6.80162 -1.57481,3.24801 -3.72973,6.49657 -5.50139,7.18554 -3.93702,1.57478 -7.33677,-0.10979 -5.762,-9.1649 1.4764,-9.15356 8.16868,-21.65308 4.33008,-24.31054 -1.23031,-0.83047 -2.5565,-1.08463 -3.79883,-1.04102 z m -115.93359,3.19922 c 0.10669,-0.0113 0.21544,-0.01 0.32617,0.006 3.44485,0.39371 6.19922,5.61133 6.19922,5.61133 l -2.85352,17.22461 c -5.51179,13.68109 -7.38091,6.49547 -7.87304,-1.67383 -0.47676,-7.91401 0.89364,-20.81675 4.20117,-21.16797 z m 89.39062,3.54883 c 1.08269,-0.0983 1.67346,0.78856 1.96875,2.85547 0.19692,2.06694 7.1e-4,4.62537 -0.58984,7.57812 -0.68897,2.95276 -1.77284,5.60969 -3.34766,8.07031 -1.57477,2.46067 -3.64136,3.93756 -6.29882,4.42969 -0.0983,-5.0197 -0.19578,-9.44854 -0.39258,-13.28711 1.27952,-2.06695 2.65684,-4.03461 4.33008,-6.10156 1.57481,-1.96849 3.05055,-3.15121 4.33007,-3.54492 z m -40.8457,0.19726 c 1.08265,-0.0983 1.86881,0.98426 2.16406,3.24805 0.29518,2.36221 0.099,5.21683 -0.58984,8.46484 -0.68897,3.24805 -1.96858,6.29957 -3.74023,8.95704 -1.77166,2.65749 -4.13395,4.33132 -6.98829,4.92187 -0.0983,-5.61025 -0.19696,-10.53139 -0.49218,-14.76367 1.47639,-2.26379 3.05256,-4.52918 4.82422,-6.79297 1.67319,-2.26375 3.34586,-3.54306 4.82226,-4.03516 z m 77.14677,44.12779 c 0.68897,8.07088 -1.23438,13.74574 -2.02177,14.43471 -3.54331,3.24805 -7.54487,-0.65278 -7.05273,-3.70396 0.39371,-2.85433 4.64534,-6.20318 9.0745,-10.73075 z m -79.16044,53.30776 c -0.24992,-0.01 -0.50252,-0.008 -0.75781,0.008 -5.31496,0.29518 -7.6767,18.01271 -8.5625,35.13871 h -2.46094 c -1.27952,0 -2.36328,1.0818 -2.36328,2.3613 0,1.2796 1.08376,2.3633 2.36328,2.3633 h 2.36133 c 0,0.3278 -0.0422,0.8404 -0.082,1.3105 -1.25224,5.7282 -3.52477,11.0038 -5.39043,16.5197 -1.13262,3.9952 -3.14062,8.2968 -6.69927,9.6897 -2.85434,0.9843 -0.51577,-10.3949 -0.51577,-10.3949 0.49213,-4.7244 1.37939,-9.4475 2.06836,-14.1719 0.19691,-1.7716 0.39306,-3.5447 0.0977,-5.3164 l -0.0977,-0.4922 c -0.0983,-0.5905 -0.19697,-1.1809 -0.49219,-1.7715 -0.98427,-2.2638 -1.96906,-2.9518 -4.42969,-2.3613 -0.68901,0.1969 -1.47585,0.6895 -2.0664,1.1816 -0.78739,0.5906 -1.47744,1.1806 -2.36329,1.5743 -0.68897,0.2951 -1.37663,0.3937 -2.16406,0.4921 -0.78739,0 -0.42232,-0.9278 -0.22544,-1.8139 0.19691,-1.3779 -0.24227,-3.5796 -1.81697,-4.1701 -1.37798,-0.4921 -3.3718,1.0623 -4.35603,2.0466 -1.67323,1.4763 -2.65755,4.1349 -0.49218,5.6113 0.98422,0.6889 2.36186,0.984 3.54297,1.2793 0.34942,0.087 -0.35698,-0.057 0,0 -1.07244,4.9918 -3.78039,19.3849 -8.32255,27.5608 -1.57482,3.4449 -1.99581,3.2458 -1.99581,3.2458 -0.59055,-2.559 -0.29493,-8.6621 -0.29493,-8.6621 0,-7.2834 0.98233,-17.7165 0.49024,-21.2598 -0.29518,-2.3621 -2.16361,-4.7246 -4.72266,-5.2168 0,0 -8.16992,-1.6721 -8.16992,15.3555 0,15.9449 -0.39461,23.0309 8.36523,23.8184 2.16537,0.2952 3.83985,-0.295 3.83985,-0.295 2.85434,-1.1811 6.98605,-9.5385 6.98605,-9.5385 0,0 4.61134,-12.4719 6.83621,-24.6197 0.82052,0.1 1.01489,0.1996 1.81055,0.3985 0.49213,0.098 0.88748,-7e-4 0.78906,0.5898 -0.0983,0.5906 -0.19777,1.0833 -0.39453,1.6739 0,0.1969 -0.0976,0.4918 -0.0976,0.7871 -1.37794,6.5945 -4.52763,24.9016 -0.49219,28.7402 1.57478,1.3779 3.93733,2.1656 5.70898,1.4766 0.68897,-0.197 1.27783,-0.4919 1.9668,-0.7871 6.00397,-2.9528 8.96992,-8.8051 8.96992,-8.8051 0.78159,-2.2795 2.76447,-8.111 4.47657,-14.8066 -0.0298,4.2591 -0.53408,7.1382 -0.46408,10.2249 0,1.4764 0.098,2.8553 0.29492,4.1348 l 0.39453,3.3457 c 1.37798,7.185 4.42859,9.7434 8.07032,10.334 2.06691,0.1969 3.84001,-0.3931 5.3164,-1.082 1.9685,-1.1811 3.14969,-2.8544 3.74024,-3.7403 2.85434,-5.2165 4.82226,-12.7949 4.82226,-12.7949 0.74527,-2.7482 1.64238,-6.1147 2.49805,-9.709 -0.14955,5.5843 -0.14741,11.2268 0.73633,16.7949 0.78743,4.5276 2.75654,10.5325 8.16992,11.1231 1.37798,0.098 2.65679,-0.098 3.83789,-0.4922 1.1811,-0.5906 2.26464,-1.9678 0.39453,-3.8379 l -0.19726,-0.1973 c 0,-0.098 -0.0986,-0.1966 -0.19727,-0.2949 -1.87007,-3.0512 -1.57422,-13.0918 -1.57422,-13.0918 v -3.1484 c 0.0983,-3.6417 1.08268,-7.2851 3.24805,-10.041 0.59055,-0.7874 2.26216,-3.051 2.95117,-1.2793 0.29518,0.9842 0.0986,2.1661 0.19727,3.1504 0.0983,3.1496 -0.29405,6.2007 -0.39258,9.2519 0,3.248 0.19659,6.4969 0.78711,9.6465 0.68897,3.7401 2.55857,6.1022 5.31445,7.7754 3.14963,1.2795 7.08594,-0.2969 7.08594,-0.2969 0.7172,-0.5379 2.66322,-1.7842 4.9375,-7.7187 0.8994,4.8426 2.99419,8.3329 6.88086,8.0156 6.98819,-0.4921 11.41623,-5.7089 13.38476,-8.4649 1.27953,6.9882 4.23328,9.5462 7.875,10.1368 1.9685,0.1969 3.73921,-0.3943 5.11719,-1.1817 1.96849,-1.0827 3.14968,-2.6571 3.74024,-3.5429 0.85181,-1.5274 1.59371,-3.2569 2.23437,-4.9434 2.15506,5.7352 6.39449,7.6465 11.01172,5.3379 6.79132,-3.2481 7.67773,-9.252 7.67773,-9.252 0,0 -1.18056,6.7903 1.18164,10.1368 1.18111,1.5748 4.72357,2.4607 8.85743,1.4765 4.13385,-1.1811 6.39843,-6.0039 6.39843,-6.0039 1.08269,-2.2638 1.86914,-4.3301 1.86914,-4.3301 0,0 0.24766,-0.7307 0.35352,-1.0351 1.11828,8.1475 7.00746,11.9249 13.81055,9.9922 3.5433,-0.9843 6.39793,-4.0352 8.46484,-7.2832 -0.19691,4.6259 -0.4561,8.8942 -0.65297,13.717 -4.42912,4.5276 -8.1062,9.0195 -9.68101,10.988 -5.61022,6.8898 2.16452,13.5811 8.85742,14.959 6.79132,1.2795 8.36583,-2.1646 10.03906,-9.8418 1.27952,-6.2992 1.70836,-21.3976 1.70835,-21.3976 13.6811,-15.2559 18.86287,-33.72 19.74868,-37.1649 l -2.47885,0.098 c -3.1496,12.1063 -9.78954,22.7611 -17.26983,31.7178 0.0983,-3.937 1.2452,-11.836 1.44204,-13.7061 0.49213,-6.1023 3.05058,-14.9605 -1.67383,-17.5195 -4.72441,-2.4607 -6.20117,2.2636 -6.20117,2.2636 0,0 -2.06655,5.6107 -3.05078,13.1895 -0.19691,1.5748 -0.39301,4.3297 -0.58984,7.873 -1.57482,3.2481 -3.64241,6.4966 -5.41407,7.1856 -3.93702,1.5748 -7.38145,-1.1812 -5.80664,-10.2363 1.47636,-9.1536 8.16868,-21.6531 4.33008,-24.3106 -3.93698,-2.6575 -8.85742,0.5899 -8.85742,0.5899 0,0 -4.23231,7.9723 -6.49609,21.2597 -0.484,1.9485 -0.91496,3.0243 -1.77094,5.3095 0,0 -2.46006,7.5791 -4.82226,8.957 -1.02039,0.5388 -0.96477,-0.31 -1.488,-0.9023 -1.57478,-4.1339 3.56152,-27.4376 -0.67076,-30.2919 -4.23231,-2.8543 -6.79101,0.6875 -6.79101,0.6875 0,0 -3.93592,-6.1019 -10.13672,-5.8067 -6.20077,0.3937 -13.2883,10.0388 -13.38672,23.3262 -0.0223,2.997 -0.30237,3.7469 0.23409,5.9372 -0.64078,1.8664 -2.00416,4.9538 -2.73911,6.4041 -1.62667,1.0378 -1.73288,1.9286 -3.11636,2.1557 -1.77165,-2.3622 -2.11294,-15.775 -1.62081,-30.4403 12.00786,-25.8859 6.29934,-40.06054 -2.26367,-39.56841 -5.70864,0.29518 -7.97195,21.16201 -8.5625,39.17381 -10.13779,-10.0393 -14.5672,-4.5282 -17.7168,3.8379 -3.36797,8.3686 -0.80743,14.6911 -4.36455,21.9973 -0.68897,1.378 -1.69307,3.2181 -2.38207,3.0213 -1.47636,-0.4922 -0.93697,-5.9229 -0.93697,-5.9229 -0.0983,-6.5945 6.1e-4,-13.1895 -0.0977,-19.6855 0,-1.6733 -0.29605,-3.3452 -0.88672,-4.9199 -0.8858,-2.1654 -2.75455,-3.1501 -4.91992,-3.4454 -4.72441,-0.5905 -8.36577,3.9373 -9.54687,5.2168 -0.78739,0.9843 -1.96963,2.9521 -2.85547,4.3301 0,-1.2795 0.0977,-2.5584 0.0977,-3.8379 12.20474,-26.3779 6.39853,-40.84759 -2.36132,-40.35545 -3.44485,0.19691 -4.7251,6.39875 -5.41407,8.85937 -1.57477,6.49608 -2.16411,13.18798 -2.65625,19.88088 -0.34547,4.2147 -0.59598,6.5486 -0.75258,10.7974 -2.65576,9.5173 -4.972,20.1213 -8.91387,28.6248 -1.77165,4.1339 -3.41167,3.5895 -3.41167,3.5895 -0.0983,0 -0.0967,-0.099 -0.19531,-0.1973 -1.87008,-2.3622 -2.06831,-16.9288 -1.57617,-31.791 0.0983,-0.1969 0.19665,-0.3929 0.29492,-0.5898 h 3.34765 c 1.37794,0 2.36133,-1.0837 2.36133,-2.3633 0,-1.2795 -0.98339,-2.3613 -2.36133,-2.3613 h -1.00009 c 8.86747,-22.4071 3.88033,-34.83887 -3.86719,-35.14652 z m -102.10742,1.33984 c -1.18687,-0.007 -2.08594,0.14454 -2.08594,0.14454 0,0 -1.77267,0.78812 -1.87109,5.90625 -0.0983,5.21648 -3.83861,56.49568 0,62.30278 3.74014,5.807 9.44921,3.4454 9.44921,-1.5743 0,-1.4764 0.098,-7.4802 0.29493,-15.2558 0.98426,2.0669 7.67847,14.9601 16.83203,17.8144 9.94091,3.0512 19.09338,-1.2801 16.14062,-16.9297 -2.95275,-15.6496 -12.69726,-20.5703 -12.69726,-20.5703 0,0 5.90562,-5.7081 4.23242,-17.3222 -1.57482,-11.41735 -8.07006,-14.27118 -15.35352,-8.56254 -3.34647,2.75592 -6.49521,7.08524 -8.85742,10.92384 -0.0983,-7.38192 -0.19816,-12.99155 -0.5918,-14.07423 -0.73818,-2.33759 -3.51406,-2.7912 -5.49218,-2.80274 z m 107.30664,4.57618 c 0.082,0.0309 0.16417,0.12687 0.24414,0.29297 3.83856,8.16922 -0.98502,23.13042 -3.15039,28.93752 h -0.49219 c 0.73821,-15.4097 2.16822,-29.69476 3.39844,-29.23049 z m 24.96558,1.89682 c 1.90365,8.94307 -0.11293,17.56187 -3.33531,26.14567 0.64591,-15.871 2.09466,-26.52163 3.33531,-26.14567 z m 54.08882,0.76193 c 2.30354,9.93784 0.66539,15.11104 -2.86997,24.37834 0.64591,-15.5943 1.71043,-24.78782 2.86997,-24.37834 z m -168.46651,1.07953 c 3.64172,0 2.95253,21.55501 -1.96875,21.25981 -2.65746,-0.197 -6.79181,1.5748 -9.94141,3.248 0,-3.7402 0.0977,-7.3821 0.0977,-10.7285 h 0.002 c 2.95276,-4.9213 9.05463,-13.77931 11.81055,-13.77931 z m 33.65625,13.06251 c -2.22139,-0.087 -3.52344,1.3066 -3.52344,1.3066 0,0 -7.18503,3.7414 0,6.5957 7.28349,2.7559 11.41667,-3.6429 7.08594,-6.5957 -1.35334,-0.9227 -2.55278,-1.267 -3.5625,-1.3066 z m 15.99219,9.5137 c 0.16282,3e-4 0.31388,0.049 0.44921,0.1601 0.49214,0.4921 0.29519,2.1642 0,3.6406 h -0.29492 c -1.08268,0.098 -3.05158,-0.3918 -2.95312,-0.9824 0,-0.4306 1.65906,-2.821 2.79883,-2.8183 z m -52.89453,3.0507 c 1.16572,-0.037 2.38375,0.038 3.63867,0.2598 8.95668,1.4764 10.53289,17.814 8.07226,23.6211 -2.46062,5.7086 -5.71006,13.1881 -20.57226,-10.1387 0.0983,-3.5433 0.0986,-7.479 0.19726,-11.416 2.14073,-1.1073 5.1669,-2.2154 8.66407,-2.3262 z m 191.64062,0.5489 c 0.10669,-0.011 0.21544,-0.01 0.32617,0.01 3.44489,0.3937 6.20117,5.6094 6.20117,5.6094 l -2.85546,17.2246 c -5.5118,13.6811 -7.38092,6.4955 -7.87305,-1.6738 -0.47676,-7.914 0.89365,-20.8148 4.20117,-21.166 z m -39.29688,2.4668 c 2.16537,0.5905 4.42904,3.1494 5.51172,4.5273 -0.19691,6.2008 -0.19691,11.9083 0,16.1406 0,1.4764 0.0967,2.8553 0.19532,4.1348 -1.77166,2.3622 -7.38177,9.3504 -8.26758,6.4961 -1.08269,-3.3464 -0.49063,-32.0863 2.56054,-31.2988 z m 84.03844,45.68 c 0.68897,8.0709 -1.21589,13.4728 -2.00328,14.1618 -3.54331,3.248 -6.97031,-0.9131 -6.47817,-3.9642 0.39371,-2.8544 4.05233,-5.67 8.48145,-10.1976 z"
       transform="scale(0.26458333)"
       id="path927"
       inkscape:connector-curvature="0"
       sodipodi:nodetypes="cccccccccccccccccccccccccccccccccccccccccscccccccccccccccccccccccsccccccccccccccccccccccscccccccccccccccccccccccccccccccccccccccccscccccccccccsssccccccccccccccccccccccccsccccccccccccccccccccccccccccccccccccccccccccccccccccccccccccccccccccccccccccccccccccccccccccccccccccccsssccccccsccsccccccccccccccccccccccscccccccccccccccccccccccccccccccccccccc" />
    <g
       id="g1690"
       transform="matrix(0.16019968,0,0,0.16019968,128.51424,200.07407)">
      <path
         id="path1102"
         d="m 291.56117,201.65377 c -1.89177,-1.39829 -5.08971,-3.56311 -7.10653,-4.81073 -4.67613,-2.89267 -7.8679,-5.36067 -10.96519,-8.47872 l -2.46131,-2.4778 -1.15451,1.0642 c -2.1512,1.9829 -5.85173,3.45223 -10.43911,4.14493 -1.37133,0.20707 -5.00273,0.56096 -8.06979,0.78641 -3.06706,0.22546 -6.62794,0.59958 -7.91306,0.83138 -1.40865,0.25408 -2.43249,0.32556 -2.57806,0.17998 -0.40478,-0.40477 -2.54484,-9.28918 -2.99586,-12.43723 -0.76445,-5.3357 -0.44484,-11.39198 0.79865,-15.13368 0.35691,-1.07396 0.6148,-1.97696 0.5731,-2.00667 -0.0417,-0.0297 -1.11832,-0.26768 -2.39248,-0.52881 -4.77432,-0.97846 -10.15601,-3.82641 -20.04064,-10.60535 -6.27889,-4.3061 -8.2146,-5.53892 -10.54002,-6.71279 -1.70331,-0.85983 -2.09372,-1.52374 -1.55374,-2.64221 0.39861,-0.82564 8.47462,-8.42416 12.83468,-12.07582 7.04841,-5.90322 13.68189,-9.49018 19.76429,-10.68724 2.50386,-0.49278 2.50768,-0.534 0.13229,-1.42917 -6.17403,-2.32671 -11.12115,-6.50075 -15.13697,-12.77156 -2.62532,-4.0995 -5.39121,-11.066427 -7.22788,-18.206079 -1.21715,-4.73142 -3.29974,-14.5854 -3.29974,-15.61304 0,-0.32894 0.23578,-0.811441 0.52395,-1.072236 0.48768,-0.441341 1.07843,-0.463449 8.53281,-0.319347 4.65182,0.08993 9.33972,0.324625 11.18387,0.559917 4.35697,0.555896 4.11338,0.584256 3.81202,-0.443728 -0.56931,-1.942041 -0.82212,-7.83005 -0.51678,-12.036311 0.38897,-5.358469 1.20516,-11.36713 1.61039,-11.8554 0.45946,-0.553612 1.02563,-0.480171 2.92913,0.379941 2.47246,1.117209 5.25693,1.937179 11.34753,3.341622 9.10388,2.099283 12.51645,3.482263 15.51568,6.287897 2.12594,1.988717 3.1691,3.647165 4.08028,6.486959 l 0.73863,2.302063 0.0192,-2.339689 c 0.0281,-3.431106 0.8289,-6.852823 3.49759,-14.944858 3.04818,-9.242743 4.48508,-12.213207 7.3282,-15.149463 2.67413,-2.761726 3.1956,-2.802977 4.73202,-0.374324 1.41228,2.232438 2.85915,4.063733 6.63257,8.39483 l 3.62566,4.161493 0.54989,-1.780243 c 1.40357,-4.544018 4.29362,-8.288002 8.49384,-11.003556 2.64283,-1.708668 3.60384,-2.068398 4.27318,-1.59957 0.29383,0.205804 1.11532,1.474986 1.82553,2.820408 0.71022,1.345422 2.54393,4.351221 4.07492,6.679555 1.53099,2.328333 3.21852,4.959249 3.75008,5.846482 2.71178,4.526296 4.8138,11.818573 5.123,17.772574 0.16292,3.13727 0.18719,3.240592 0.72344,3.080787 1.01721,-0.303125 8.2172,-3.080758 8.94225,-3.449767 0.39296,-0.199988 1.03342,-0.363617 1.42325,-0.363617 h 0.70878 l -0.17974,1.918229 c -0.0989,1.055026 -0.24507,2.138341 -0.32489,2.40737 -0.19801,0.667303 0.34038,0.475466 3.25626,-1.160249 3.24059,-1.817864 8.89599,-3.5683 18.35029,-5.679702 4.94199,-1.10368 5.66878,-1.142492 6.17829,-0.329919 0.36061,0.575101 1.03635,4.590883 1.36905,8.135937 0.19094,2.034657 -0.23081,4.952125 -0.923,6.384795 l -0.49452,1.02354 1.10047,0.0195 c 0.60526,0.0107 2.93306,0.10789 5.17288,0.2159 3.78231,0.1824 4.10679,0.23883 4.55479,0.79208 0.56534,0.69817 0.81293,-0.0725 -2.69535,8.39007 -1.91826,4.6272 -2.83055,6.59542 -5.20054,11.219932 -0.0373,0.0728 0.61635,0.16837 1.45253,0.21246 2.09981,0.11072 4.78814,0.8304 11.57449,3.098557 6.14255,2.05299 8.71575,2.57858 11.40225,2.32899 1.38125,-0.12832 1.63839,-0.0828 1.79194,0.31736 0.21767,0.56724 0.24765,0.52069 -4.57814,7.10814 -4.35559,5.94563 -7.55108,9.48006 -10.93673,12.09682 -2.98254,2.30518 -4.92907,3.46724 -7.07203,4.22193 -0.94588,0.33311 -1.75832,0.63342 -1.80542,0.66734 -0.15743,0.11339 1.53827,2.30824 2.07227,2.68226 1.73725,1.21683 -0.99403,3.89772 -5.3501,5.2514 l -1.51138,0.46967 1.26677,1.24695 c 3.028,2.98061 6.00301,9.22719 8.1758,17.16659 0.8829,3.22616 1.00998,7.82364 0.25453,9.20873 -0.80457,1.47513 -1.4849,1.7307 -5.1788,1.94539 -2.67169,0.15528 -3.83546,0.35738 -5.76367,1.0009 -2.67536,0.89289 -5.70033,1.46053 -6.47422,1.2149 -0.27635,-0.0877 -0.50244,-0.0927 -0.50244,-0.011 0,0.41389 2.58095,5.84399 3.65068,7.68072 1.01934,1.75021 1.24346,2.37975 1.32978,3.73528 0.0935,1.46859 0.0426,1.67314 -0.51283,2.06221 -0.91183,0.63867 -2.26595,0.53406 -6.17725,-0.47724 -3.91968,-1.01346 -6.7391,-1.36184 -12.97476,-1.6032 -6.78264,-0.26253 -11.32227,-1.11004 -18.78542,-3.50705 l -3.175,-1.01974 0.0915,2.30312 c 0.11524,2.90032 -0.57559,5.833 -2.10744,8.94641 -1.47792,3.00383 -3.96439,5.47394 -9.09657,9.03676 -2.6187,1.81794 -5.06152,3.80617 -7.1812,5.84487 -3.23996,3.11616 -4.07002,3.72274 -5.5188,4.03294 -0.70296,0.15052 -1.18714,-0.12082 -4.23333,-2.37239 z"
         style="fill:none;stroke:#ff0000;stroke-width:0.26458335"
         inkscape:connector-curvature="0" />
      <path
         inkscape:connector-curvature="0"
         id="path1100"
         d="m 295.15039,159.32617 c -7.18154,4.08854 -15.4144,5.57116 -23.27718,7.79022 -0.9807,0.25886 -1.95293,0.54589 -2.92399,0.83869 0.56475,3.84266 0.45612,7.98191 2.57149,11.39381 1.77705,2.71722 4.53376,4.56174 7.06577,6.52533 5.58273,4.11738 11.40326,8.02443 16.17524,13.10039 0.67898,0.56461 1.75389,0.52502 2.34715,-0.14586 1.60507,-1.24433 2.98682,-2.74844 4.61858,-3.96244 4.42597,-3.70488 9.29585,-7.22248 12.18763,-12.35015 1.41656,-2.77194 1.81563,-6.3224 0.14638,-9.08667 -0.99183,-1.28405 -2.7624,-1.35263 -4.11126,-2.07989 -4.47952,-1.83815 -9.10795,-4.03482 -12.12012,-7.97265 -0.95328,-1.31884 -1.69297,-2.78706 -2.20703,-4.33007 -0.15756,0.0931 -0.31511,0.18619 -0.47266,0.27929 z"
         style="fill:none;stroke:#ff0000;stroke-width:0.26458335" />
      <path
         inkscape:connector-curvature="0"
         id="path1098"
         d="m 246.7793,162.44336 c -1.0378,0.5481 -2.17802,0.85261 -3.25,1.32617 -0.91823,2.58605 -1.15779,5.33768 -1.43982,8.0512 -0.36258,5.01727 0.2741,10.02944 0.80816,15.00815 0.0272,1.24636 -0.11749,2.49563 0.0106,3.73948 0.80279,0.11829 1.54297,-0.37969 2.34813,-0.36097 6.71691,-1.24599 13.77391,-1.12882 20.11295,-3.91992 1.19135,-0.59875 2.31369,-1.41642 3.27134,-2.36755 -2.29106,-3.53842 -4.55684,-7.47104 -4.41516,-11.8308 0.008,-0.86861 0.0941,-1.73518 0.22766,-2.59303 -6.09097,1.77502 -11.8258,4.54026 -17.51367,7.30664 -1.05677,0.31139 -2.22748,-0.70836 -1.99256,-1.80488 -0.34227,-4.28267 1.34371,-8.348 2.06102,-12.50325 0.11827,-0.34144 -0.003,-0.16339 -0.22861,-0.0512 z"
         style="fill:none;stroke:#ff0000;stroke-width:0.26458335" />
      <path
         inkscape:connector-curvature="0"
         id="path1096"
         d="m 311.21484,148.37305 c -3.07885,2.35024 -6.43902,4.30649 -9.92187,5.99414 -0.50483,0.482 -0.83561,1.12116 -1.36524,1.57812 1.86272,2.80563 4.13469,5.38973 7.07509,7.09857 2.43344,1.45118 5.15026,2.41463 7.77215,3.49558 4.51255,1.71141 9.11254,3.24179 13.7399,4.57897 6.63566,1.76227 13.49175,2.36936 20.25465,3.42288 2.35885,0.38995 4.70526,0.87956 7.00782,1.51728 -1.73368,-3.82626 -3.05512,-7.84197 -5.12018,-11.51446 -2.80196,-5.50358 -5.92082,-11.09264 -10.70832,-15.10923 -0.94295,-0.77457 -2.16464,-1.62864 -3.43486,-1.09046 -5.2904,1.37808 -10.77678,2.58403 -16.27006,1.89235 -2.82639,-0.32414 -5.595,-1.17572 -8.10134,-2.5239 -0.30925,0.22005 -0.61849,0.4401 -0.92774,0.66016 z"
         style="fill:none;stroke:#ff0000;stroke-width:0.26458335" />
      <path
         inkscape:connector-curvature="0"
         id="path1094"
         d="m 262.72656,135.58594 c -3.37612,2.09278 -6.75777,4.71443 -8.1683,8.57449 -3.23597,8.03223 -1.89812,17.0149 -4.53287,25.2048 -0.24335,0.73621 -0.50737,1.46707 -0.81836,2.17579 8.96271,-4.96194 18.93737,-7.57929 28.72608,-10.36516 5.2409,-1.54705 10.47967,-3.36586 15.06689,-6.40047 -5.63364,-0.61281 -11.25639,-2.54946 -15.65899,-6.19407 -2.64165,-2.27405 -4.45719,-5.66752 -4.31835,-9.20761 -0.11096,-0.6925 -0.99681,-0.66107 -1.46503,-1.02358 -2.34117,-1.15986 -4.58325,-2.51932 -6.6631,-4.10208 -0.72266,0.44596 -1.44531,0.89192 -2.16797,1.33789 z"
         style="fill:none;stroke:#ff0000;stroke-width:0.26458335" />
      <path
         inkscape:connector-curvature="0"
         id="path1092"
         d="m 360.95898,137.33594 c -6.21816,2.76842 -12.25341,5.92561 -18.4375,8.76758 4.54315,3.15464 7.36843,8.06288 10.10857,12.73418 0.91937,1.56768 1.8412,3.13399 2.83089,4.65839 2.43424,0.59911 4.79007,-0.53737 7.06169,-1.27722 2.41287,-0.8944 4.90876,-1.79229 7.52034,-1.71887 0.75104,-0.33051 0.39225,-1.31399 0.46391,-1.95152 -0.14996,-7.95763 -3.65488,-15.81503 -9.5186,-21.2145 z"
         style="fill:none;stroke:#ff0000;stroke-width:0.26458335" />
      <path
         inkscape:connector-curvature="0"
         id="path1090"
         d="m 247.95117,120.85156 c -4.48268,1.02495 -9.07052,1.77516 -13.26804,3.73152 -4.13839,1.69949 -7.88675,4.34047 -11.01571,7.54359 -4.12684,3.79304 -8.15265,7.70451 -12.53656,11.20341 5.79984,4.22404 11.83203,8.12729 17.97421,11.83194 4.15532,2.29839 8.74741,4.21412 13.58241,4.14242 1.63958,-0.11921 3.22806,-0.6792 4.63479,-1.51928 0.41388,-1.25079 0.15969,-2.65347 0.49782,-3.94226 0.63732,-5.24013 1.3672,-10.74374 4.41373,-15.20753 1.99459,-2.88104 4.91379,-5.06447 8.15485,-6.36389 -5.28605,-1.96443 -9.28668,-6.34605 -12.08059,-11.09864 -0.1047,-0.10349 -0.20263,-0.30089 -0.35691,-0.32128 z"
         style="fill:none;stroke:#ff0000;stroke-width:0.26458335" />
      <path
         inkscape:connector-curvature="0"
         id="path1088"
         d="m 315.02344,134.67969 c -1.37006,0.59829 -2.92079,0.7087 -4.33585,1.215 -1.66092,0.46734 -2.95684,1.72981 -4.62864,2.19943 -1.85161,0.69929 -3.86158,0.66775 -5.79951,0.44511 -0.90131,-0.16126 -1.62652,0.41266 -2.31022,0.89436 -2.5597,1.63384 -5.62006,2.21284 -8.61798,2.25589 -4.00352,0.11118 -8.02293,-0.25557 -11.91327,-1.22268 3.44951,5.89016 9.75091,10.3141 16.65488,10.68459 2.51076,0.21563 4.94738,-0.69933 7.03631,-2.0416 4.55194,-2.6 8.87197,-5.73521 12.41162,-9.62297 1.07923,-1.23676 2.24343,-2.84627 1.82535,-4.57789 -0.0448,-0.13024 -0.16775,-0.27813 -0.32269,-0.22924 z"
         style="fill:none;stroke:#ff0000;stroke-width:0.26458335" />
      <path
         inkscape:connector-curvature="0"
         id="path1086"
         d="m 332.71289,117.18555 c -3.10518,6.27347 -7.68237,11.98879 -13.74805,15.60547 1.74242,1.84686 1.51256,4.80255 0.2797,6.86052 -0.96589,1.92683 -2.44202,3.52936 -3.89884,5.09455 4.21505,0.40588 8.51579,1.42875 12.72,0.48541 8.27664,-1.23894 15.94392,-4.91451 23.22233,-8.93142 3.5088,-1.89883 7.22393,-3.48202 11.09842,-4.42713 1.54349,-0.45377 3.08856,-0.91566 4.57058,-1.54678 -4.73394,-3.52573 -10.40047,-5.41333 -15.52371,-8.2619 -4.46845,-2.31318 -9.08249,-4.45402 -14.02027,-5.54378 -1.29619,-0.34519 -2.59481,-0.68106 -3.89352,-1.01658 -0.26888,0.56054 -0.53776,1.12109 -0.80664,1.68164 z"
         style="fill:none;stroke:#ff0000;stroke-width:0.26458335" />
      <path
         inkscape:connector-curvature="0"
         id="path1084"
         d="m 268.89062,123.29883 c -2.05352,0.50208 -2.95986,2.8661 -2.72761,4.79865 0.21222,2.56601 2.2674,4.5176 4.43913,5.64327 4.20863,2.43475 9.09985,3.2639 13.89256,3.632 3.07051,0.17963 6.1611,0.048 9.20061,-0.42744 -2.79546,-1.00877 -5.27821,-2.71829 -7.50843,-4.65932 -4.20433,-3.17212 -8.55296,-6.27278 -13.423,-8.35028 -1.22525,-0.44692 -2.56051,-0.82489 -3.87326,-0.63688 z"
         style="fill:none;stroke:#ff0000;stroke-width:0.26458335" />
      <path
         inkscape:connector-curvature="0"
         id="path1082"
         d="m 308.32617,123.2207 c -3.94273,1.12035 -7.33544,3.60863 -11.22232,4.90674 -2.42451,0.91794 -4.97103,1.5442 -7.56088,1.73389 3.13357,1.72407 6.27849,3.66122 9.83996,4.32944 3.29945,0.47668 6.8719,-0.40088 9.28133,-2.78438 1.86589,-1.67321 3.12525,-4.46622 2.12081,-6.93894 -0.30684,-0.93096 -1.30321,-1.78185 -2.30883,-1.28396 l -0.0971,0.0241 z"
         style="fill:none;stroke:#ff0000;stroke-width:0.26458335" />
      <path
         inkscape:connector-curvature="0"
         id="path1080"
         d="m 318.8125,100.9082 c -0.31319,0.58301 0.009,1.2845 -0.11358,1.91953 0.0553,5.19701 -1.11377,10.68512 -4.60725,14.69501 -0.6151,0.73145 -1.27488,1.42461 -1.87292,2.17062 2.31897,1.55452 4.06789,4.38885 3.46226,7.25048 -0.19829,1.41835 -0.71309,2.78045 -1.40953,4.02686 9.29408,-4.73849 15.79084,-14.15029 17.77534,-24.2916 0.30756,-1.71332 0.55649,-3.58088 -0.0312,-5.24551 -0.75685,-0.73645 -1.89016,-0.17474 -2.812,-0.25325 -3.45931,0.14147 -6.96105,0.20951 -10.39112,-0.27214 z"
         style="fill:none;stroke:#ff0000;stroke-width:0.26458335" />
      <path
         inkscape:connector-curvature="0"
         id="path1078"
         d="m 247.39258,99.617188 c -1.70104,0.01471 -3.40162,0.04968 -5.10156,0.113281 2.02686,5.221631 4.87193,10.067881 7.32067,15.094301 1.51817,2.8956 2.94329,5.88722 4.97184,8.46688 2.11601,2.28503 4.96669,3.65883 7.70163,5.04819 0.20455,-3.02272 0.68348,-6.37216 3.01377,-8.54709 1.23677,-1.08022 2.98084,-1.50476 4.58779,-1.22634 -1.42041,-2.84666 -1.99976,-6.05204 -3.60235,-8.82028 -1.15592,-2.33069 -1.79236,-4.96335 -3.42695,-7.02933 -2.13923,-2.239 -5.37642,-2.864095 -8.35069,-3.091023 -2.36938,-0.08322 -4.74344,0.0018 -7.11415,-0.0086 z"
         style="fill:none;stroke:#ff0000;stroke-width:0.26458335" />
      <path
         inkscape:connector-curvature="0"
         id="path1076"
         d="m 288.14844,116.01172 c -1.52649,0.57645 -1.75482,2.407 -2.18164,3.76758 -0.54661,2.3761 -0.43142,5.14726 1.16211,7.13086 1.07913,0.54228 2.12363,-0.39688 3.16968,-0.58976 2.09051,-0.76674 4.12134,-1.71038 6.01196,-2.89071 0.1419,-1.25988 -0.81935,-2.30077 -1.46485,-3.30078 -1.60493,-2.0225 -3.85485,-3.69632 -6.4414,-4.12696 -0.0853,0.003 -0.17058,0.007 -0.25586,0.01 z"
         style="fill:none;stroke:#ff0000;stroke-width:0.26458335" />
      <path
         inkscape:connector-curvature="0"
         id="path1074"
         d="m 277.45898,99.832031 c -1.56863,0.120186 -3.57728,0.122446 -4.46289,1.681639 -1.22482,2.12778 -1.22889,4.65639 -1.26953,7.04297 0.29491,5.90144 3.62807,11.6004 8.82169,14.50054 0.37676,0.10583 1.31123,1.17034 1.1373,0.32954 -0.0957,-3.00358 0.50235,-6.2327 2.5625,-8.53125 0.55242,-0.24806 -0.0636,-0.82019 -0.17633,-1.17 -1.64872,-3.44115 -1.20689,-7.42402 -0.35535,-11.01763 0.13134,-0.67213 0.23483,-1.33435 0.34222,-2.01159 -2.06725,-0.799346 -4.39171,-1.002945 -6.59961,-0.824219 z"
         style="fill:none;stroke:#ff0000;stroke-width:0.26458335" />
      <path
         inkscape:connector-curvature="0"
         id="path1072"
         d="m 364.25,102.84766 c -3.76352,4.77908 -7.72113,9.7006 -13.18555,12.61523 -0.16224,0.21869 -1.02129,0.26934 -0.62449,0.454 5.01211,2.57597 10.16922,4.8519 15.27488,7.2335 1.94981,0.32904 3.8446,-0.50377 5.64994,-1.11855 3.33429,-1.54623 5.88976,-4.28637 8.45679,-6.8355 2.93811,-3.14929 5.53187,-6.60868 8.52609,-9.70611 -5.34923,-0.22909 -10.22713,-2.69337 -15.38779,-3.85236 -2.2099,-0.60164 -4.45967,-1.0914 -6.72159,-1.40545 -0.66276,0.87175 -1.32552,1.74349 -1.98828,2.61524 z"
         style="fill:none;stroke:#ff0000;stroke-width:0.26458335" />
      <path
         inkscape:connector-curvature="0"
         id="path1070"
         d="m 307.37109,108.66016 c -1.69525,0.2159 -2.58601,1.93294 -3.29563,3.3056 -1.3899,2.84688 -1.88141,6.017 -2.98952,8.96783 2.41361,-1.41212 5.44926,-2.27696 6.78906,-4.9375 1.11448,-2.12918 1.37613,-4.80351 0.47852,-7.01953 -0.24725,-0.26066 -0.62809,-0.39441 -0.98243,-0.3164 z"
         style="fill:none;stroke:#ff0000;stroke-width:0.26458335" />
      <path
         inkscape:connector-curvature="0"
         id="path1068"
         d="m 297.96094,115.85938 c -0.42135,0.29715 -0.89443,0.89244 -0.79245,1.37503 0.44247,0.39001 0.7457,0.90692 1.09128,1.37887 0.0978,-0.93886 0.19168,-1.92963 -0.15821,-2.83008 l -0.0879,0.0476 z"
         style="fill:none;stroke:#ff0000;stroke-width:0.26458335" />
      <path
         inkscape:connector-curvature="0"
         id="path1066"
         d="m 217.40039,74.408203 c -0.36646,-0.01852 -1.1516,-0.02163 -0.77539,0.559274 2.56272,9.752588 4.55264,19.810776 9.33225,28.781863 3.31287,6.02386 8.35583,11.30597 14.73611,14.028 1.71922,0.87861 3.6708,0.15625 5.48828,0.0156 -0.29324,-0.88961 -0.82845,-1.68454 -1.17982,-2.55635 -2.77474,-5.77458 -5.81611,-11.43785 -8.13659,-17.414354 -0.22358,-1.482745 1.34207,-2.547407 2.68345,-2.535781 5.74805,-0.578464 11.61408,-1.410228 17.35025,-0.301432 2.4108,0.547612 4.74168,1.594037 6.61474,3.227838 -0.96543,-3.203083 -1.62459,-6.54588 -1.45312,-9.90625 -0.89928,-1.193682 -2.17125,-2.048458 -3.24805,-3.03711 -6.47942,-5.185749 -14.5335,-7.915882 -22.60595,-9.376525 -6.18864,-1.111448 -12.51396,-1.571027 -18.80616,-1.484803 z"
         style="fill:none;stroke:#ff0000;stroke-width:0.26458335" />
      <path
         inkscape:connector-curvature="0"
         id="path1064"
         d="m 293.7168,110.00586 c -1.47439,0.30601 -2.70669,1.45938 -3.32813,2.82617 0.74589,0.63266 1.82727,0.65526 2.55664,1.33985 0.41686,0.3383 1.05295,0.50448 1.45598,0.0624 0.73542,-0.38582 0.82239,-1.27297 0.69049,-2.00098 -0.023,-0.86298 -0.146,-2.39249 -1.37498,-2.2274 z"
         style="fill:none;stroke:#ff0000;stroke-width:0.26458335" />
      <path
         inkscape:connector-curvature="0"
         id="path1062"
         d="m 354.95703,79.634766 c -6.01279,-0.01098 -12.2723,0.746165 -17.49613,3.935356 -1.40194,0.917123 -1.34954,2.778307 -2.00038,4.175188 -1.01384,2.798586 -1.9144,5.673416 -3.45857,8.239065 1.81958,-0.271493 3.66246,0.888056 4.30697,2.593489 1.3612,2.773356 0.755,5.993866 0.0369,8.857446 -0.33916,1.28199 -0.71984,2.5527 -1.08211,3.82836 3.41687,0.7029 6.84792,1.39088 10.14258,2.55664 0.80288,1.7e-4 1.43167,-0.6184 2.15489,-0.89364 7.06243,-3.77896 12.18098,-10.28344 16.10043,-17.121957 2.92149,-5.084495 5.2401,-10.482589 7.52007,-15.876979 -0.92679,-0.126964 -1.87482,-0.0177 -2.81022,-0.107676 -4.47034,-0.122572 -8.94224,-0.201715 -13.41439,-0.185292 z"
         style="fill:none;stroke:#ff0000;stroke-width:0.26458335" />
      <path
         inkscape:connector-curvature="0"
         id="path1060"
         d="m 290.5293,97.914062 c -1.23324,0.684706 -1.32724,2.265928 -1.95766,3.396298 -1.33423,3.25576 -2.37986,6.93205 -1.48804,10.42913 0.11709,0.32483 0.13464,0.96074 0.54335,1.01051 0.68959,-2.14069 2.14048,-4.10223 4.19238,-5.11129 1.42332,-0.71714 3.32612,-0.95523 4.65919,0.082 0.60107,-1.72599 1.99173,-3.21062 2.07226,-5.09179 -0.19012,-1.61063 -1.6984,-2.53957 -3.04346,-3.146057 -1.5436,-0.793033 -3.22648,-1.519343 -4.97802,-1.568791 z"
         style="fill:none;stroke:#ff0000;stroke-width:0.26458335" />
      <path
         inkscape:connector-curvature="0"
         id="path1058"
         d="m 301.14453,105.83789 c -1.37918,1.93111 -2.28336,4.20762 -2.49609,6.5625 0.45842,-0.001 1.00501,0.53727 1.30749,-0.0438 1.1889,-1.8973 2.22544,-4.26099 1.46769,-6.5152 -0.10106,-0.33173 -0.0901,-0.26283 -0.27909,-0.004 z"
         style="fill:none;stroke:#ff0000;stroke-width:0.26458335" />
      <path
         inkscape:connector-curvature="0"
         id="path1056"
         d="m 312.73828,95.216797 c -3.05296,1.41929 -6.17501,2.867274 -9.56408,3.21319 -0.8953,0.173078 -1.79061,0.346155 -2.68592,0.519232 0.54255,0.826907 0.96181,1.739931 1.1875,2.705081 1.67276,0.11722 2.53766,1.88515 2.80381,3.34396 0.1078,0.46293 0.14397,0.93966 0.16299,1.41385 1.55926,-1.04464 3.61203,-2.03033 5.47251,-1.18885 1.82314,1.03521 2.619,3.16996 2.88882,5.14588 1.69774,-4.09923 1.42963,-8.62777 1.10161,-12.957706 -0.0464,-0.906059 -0.12041,-1.810546 -0.22075,-2.712215 -0.38217,0.172526 -0.76433,0.345052 -1.14649,0.517578 z"
         style="fill:none;stroke:#ff0000;stroke-width:0.26458335" />
      <path
         inkscape:connector-curvature="0"
         id="path1054"
         d="m 266.17383,69.195312 c 0.98547,9.098037 0.26895,18.290192 1.30549,27.382724 0.22507,1.740314 0.52889,3.449134 0.9699,5.150484 0.61281,-2.016428 1.83413,-4.182206 4.02076,-4.753683 1.97448,-0.627412 4.07788,-0.503425 6.10814,-0.808821 0.76136,-1.864403 1.78995,-3.610298 3.09399,-5.145859 1.88942,-2.329715 4.233,-4.325892 5.83493,-6.87146 0.30211,-1.529569 -0.73277,-2.901648 -1.4957,-4.127288 -3.32662,-4.753246 -8.62031,-7.63528 -13.9207,-9.673157 -2.03911,-0.777121 -4.11832,-1.469162 -6.07111,-2.451768 0.0514,0.432943 0.10287,0.865886 0.1543,1.298828 z"
         style="fill:none;stroke:#ff0000;stroke-width:0.26458335" />
      <path
         inkscape:connector-curvature="0"
         id="path1052"
         d="m 296.58203,80.107422 c -2.06757,0.224683 -3.20851,2.203131 -4.39762,3.663997 -3.32431,4.234229 -7.31503,7.960732 -10.07699,12.6153 1.18496,0.211107 2.35576,0.513232 3.47461,0.958984 1.04174,-1.735307 2.10426,-3.771185 4.14649,-4.470703 1.62372,-0.146926 3.00859,0.899687 4.50097,1.355606 1.34511,0.554946 2.64723,1.210312 3.89746,1.954941 3.00028,-0.732003 6.01207,-1.388117 8.94336,-2.359375 -1.46411,-4.722605 -3.66879,-9.414147 -7.46655,-12.703407 -0.86655,-0.638963 -1.92857,-1.082312 -3.02173,-1.015343 z"
         style="fill:none;stroke:#ff0000;stroke-width:0.26458335" />
      <path
         inkscape:connector-curvature="0"
         id="path1050"
         d="m 334.34766,67.324219 c -6.81041,2.823706 -13.99036,4.646397 -20.80939,7.457709 -3.18422,1.272159 -6.34136,2.775091 -9.04999,4.92315 0.20761,1.065493 1.06207,1.846068 1.49693,2.81891 1.79259,2.987966 3.42071,6.223094 3.69838,9.751403 1.7874,-0.977394 3.6972,-2.4427 5.85978,-1.917675 1.67014,0.457294 2.25411,2.355054 2.41746,3.88951 0.17114,0.928514 0.004,1.968629 0.55479,2.791836 1.07629,0.268673 2.20911,0.09841 3.3086,0.195313 1.0115,-0.02401 2.08783,0.18261 3.0579,-0.09471 1.30878,-0.802732 2.27689,-2.051385 3.25888,-3.209199 3.69512,-4.756175 5.28187,-10.772565 5.92253,-16.675767 0.40687,-3.365522 0.54463,-6.755247 0.74116,-10.13751 -0.15235,0.06901 -0.30469,0.13802 -0.45703,0.20703 z"
         style="fill:none;stroke:#ff0000;stroke-width:0.26458335" />
      <path
         inkscape:connector-curvature="0"
         id="path1048"
         d="m 239.73242,51.234375 c -0.64784,6.565995 -1.01127,13.209605 -0.20703,19.779297 0.64272,1.105945 2.12706,0.925054 3.15214,1.354598 7.0554,1.829335 14.00088,4.984318 19.11739,10.295792 -0.0689,-6.264587 -0.15637,-12.528926 -0.26367,-18.792968 1.84129,-0.580976 3.82112,-0.6865 5.7207,-0.353516 -1.78623,-3.828529 -5.35063,-6.634817 -9.34389,-7.885036 -5.0751,-1.760763 -10.40535,-2.636029 -15.56073,-4.137225 -0.85442,-0.235513 -1.70485,-0.484919 -2.55436,-0.737505 -0.0202,0.158855 -0.0404,0.317709 -0.0606,0.476563 z"
         style="fill:none;stroke:#ff0000;stroke-width:0.26458335" />
      <path
         inkscape:connector-curvature="0"
         id="path1046"
         d="m 284.36328,36.058594 c -3.16573,3.622697 -4.15066,8.442616 -5.56969,12.902847 -1.64054,5.610182 -3.53967,11.15788 -4.48695,16.93895 1.00154,0.774377 2.20608,1.227297 3.26835,1.911576 3.56278,1.94556 7.43098,3.880518 9.65157,7.441939 1.12293,1.722501 1.99462,3.588839 2.90625,5.427735 1.6859,-2.167757 3.55357,-4.601227 6.38729,-5.227747 1.78916,-0.371555 3.64432,0.286921 5.06779,1.362512 0.17891,-4.229734 0.22735,-8.473667 -0.0225,-12.701262 -0.17972,-3.124446 -0.84568,-6.242387 -2.45056,-8.968575 -2.19618,-3.924829 -5.3971,-7.134936 -8.21356,-10.608458 -2.32142,-2.737724 -4.58067,-5.55561 -6.36224,-8.678736 -0.0586,0.06641 -0.11718,0.132812 -0.17578,0.199219 z"
         style="fill:none;stroke:#ff0000;stroke-width:0.26458335" />
      <path
         inkscape:connector-curvature="0"
         id="path1044"
         d="m 358.69727,64.130859 c -6.70492,1.270159 -13.50192,2.635766 -19.59571,5.8125 -0.6341,0.334988 -1.70197,0.406761 -1.70102,1.331679 -0.22531,2.537348 -0.24914,5.08949 -0.31851,7.637071 3.09523,-2.245492 7.07239,-2.337308 10.73075,-2.693796 4.11905,-0.308785 8.25513,-0.398414 12.36105,-0.87261 1.54868,-1.332617 1.73725,-3.548209 1.86854,-5.453371 0.0557,-2.113269 -0.28559,-4.207411 -0.58143,-6.292723 -0.92123,0.177084 -1.84245,0.354167 -2.76367,0.53125 z"
         style="fill:none;stroke:#ff0000;stroke-width:0.26458335" />
      <path
         inkscape:connector-curvature="0"
         id="path1040"
         d="m 308.49023,34.912109 c -4.27908,2.138813 -7.02503,6.511687 -8.40234,10.966797 -0.28919,0.588547 -0.52997,1.388893 0.031,1.885868 4.32173,5.975426 6.3167,13.46217 6.03974,20.799877 -0.0608,1.888107 -0.23813,3.776242 -0.62347,5.626755 4.94335,-2.949343 10.66097,-4.1663 15.91015,-6.386718 0.70485,-7.459537 -1.62149,-14.941543 -5.52101,-21.241403 -2.38108,-3.934015 -5.40981,-7.488774 -7.28563,-11.715629 l -0.0917,0.03983 z"
         style="fill:none;stroke:#ff0000;stroke-width:0.26458335" />
    </g>
  </g>
</svg>
