<?xml version="1.0" encoding="UTF-8" standalone="no"?>
<!-- Created with Inkscape (http://www.inkscape.org/) -->

<svg
   xmlns:dc="http://purl.org/dc/elements/1.1/"
   xmlns:cc="http://creativecommons.org/ns#"
   xmlns:rdf="http://www.w3.org/1999/02/22-rdf-syntax-ns#"
   xmlns:svg="http://www.w3.org/2000/svg"
   xmlns="http://www.w3.org/2000/svg"
   xmlns:sodipodi="http://sodipodi.sourceforge.net/DTD/sodipodi-0.dtd"
   xmlns:inkscape="http://www.inkscape.org/namespaces/inkscape"
   width="201mm"
   height="101mm"
   viewBox="0 0 201 101"
   version="1.1"
   id="svg8"
   inkscape:version="0.92.3 (2405546, 2018-03-11)"
   sodipodi:docname="Happy Birthday Balloons.svg">
  <defs
     id="defs2" />
  <sodipodi:namedview
     id="base"
     pagecolor="#ffffff"
     bordercolor="#666666"
     borderopacity="1.0"
     inkscape:pageopacity="0.0"
     inkscape:pageshadow="2"
     inkscape:zoom="1.4"
     inkscape:cx="510.18876"
     inkscape:cy="295.8347"
     inkscape:document-units="mm"
     inkscape:current-layer="layer1"
     showgrid="false"
     inkscape:window-width="1920"
     inkscape:window-height="1137"
     inkscape:window-x="-8"
     inkscape:window-y="-8"
     inkscape:window-maximized="1" />
  <metadata
     id="metadata5">
    <rdf:RDF>
      <cc:Work
         rdf:about="">
        <dc:format>image/svg+xml</dc:format>
        <dc:type
           rdf:resource="http://purl.org/dc/dcmitype/StillImage" />
        <dc:title></dc:title>
      </cc:Work>
    </rdf:RDF>
  </metadata>
  <g
     inkscape:label="Layer 1"
     inkscape:groupmode="layer"
     id="layer1"
     transform="translate(0,-196)">
    <g
       id="g824">
      <rect
         y="197.15384"
         x="0.15383102"
         height="99.692337"
         width="199.69234"
         id="rect815"
         style="fill:none;stroke:#ff0000;stroke-width:0.30766204;stroke-linejoin:miter;stroke-miterlimit:4;stroke-dasharray:none;stroke-dashoffset:0" />
      <path
         sodipodi:nodetypes="cc"
         inkscape:connector-curvature="0"
         id="rect819"
         d="m 100,197.11667 v 99.76669"
         style="fill:none;stroke:#0000ff;stroke-width:0.17964885;stroke-linejoin:miter;stroke-miterlimit:4;stroke-dasharray:none;stroke-dashoffset:0" />
    </g>
    <rect
       style="fill:none;stroke:#ff0000;stroke-width:0.24619006;stroke-linejoin:miter;stroke-miterlimit:4;stroke-dasharray:none;stroke-dashoffset:0"
       id="rect826"
       width="89.753815"
       height="89.753807"
       x="105.12309"
       y="202.12309" />
    <path
       style="font-style:normal;font-variant:normal;font-weight:normal;font-stretch:normal;font-size:medium;line-height:1.25;font-family:Bettalia;-inkscape-font-specification:Bettalia;letter-spacing:0px;word-spacing:0px;fill:none;fill-opacity:1;stroke:#ff0000;stroke-width:0.57070863;stroke-miterlimit:4;stroke-dasharray:none"
       d="m 417.59375,852.43555 c -3.83781,0.38621 -4.69868,6.03782 -4.95703,8.44922 -0.19691,2.75591 -0.98432,54.72347 -0.49219,58.36523 0.59055,3.74014 10.23545,9.25368 12.59766,-1.9668 l -0.19727,-23.42578 c 6.9882,-0.19691 12.796,0.19727 15.1582,0.19727 -1.1811,11.31889 -1.5739,22.34282 0.88672,24.21289 4.92125,3.54331 10.72662,3.05047 11.21875,-2.6582 0.49214,-5.80706 3.64259,-49.60562 0.39453,-53.8379 -3.24801,-4.23227 -6.0039,-3.15039 -6.0039,-3.15039 0,0 -1.96929,1.96817 -3.15039,9.54688 -0.49213,3.14963 -1.86925,11.71286 -2.85352,20.96484 l -15.74804,2.36133 -0.29493,-33.07031 c 0,0 0.68877,-4.42866 -4.72461,-5.80664 -0.67667,-0.18455 -1.28572,-0.23682 -1.83398,-0.18164 z m 171.68945,30.83398 c -2.73311,0.096 -5.06054,1.63086 -5.06054,1.63086 0,0 -2.98533,5.64822 -5.28321,15.33399 -1.29462,2.90706 -3.04563,3.72993 -4.9068,6.47739 0.68897,-4.72441 0.22256,-7.34164 -1.94281,-11.96763 -2.26378,-4.52753 -5.11685,-6.79102 -8.66015,-6.79102 -1.77166,0.29519 -3.44472,1.18109 -5.01953,2.75586 -1.67324,1.57482 -3.15136,3.44325 -4.5293,5.70704 -0.0983,-1.47636 -0.29405,-2.65713 -0.39258,-3.54297 -0.88584,-4.62599 -2.16585,-7.47943 -3.9375,-8.36524 -1.87007,-0.88584 -3.44432,0.0971 -4.82226,3.14844 -0.39372,0.98426 -0.81616,1.51414 -1.64433,3.48267 -1.155,3.01208 -2.2858,6.17876 -3.28258,8.46484 -1.57481,3.54331 -2.65897,5.72406 -4.92276,9.16895 0.59055,-3.34647 0.20502,-4.5802 -0.77924,-8.22193 -0.98423,-3.64172 -2.4612,-6.69367 -4.42969,-9.1543 -2.06695,-2.46066 -4.33082,-3.54373 -6.98828,-3.44531 -1.96849,0.29518 -3.83772,1.37755 -5.60937,3.05078 -1.87011,1.77166 -3.54509,3.93782 -5.02149,6.39844 -0.0983,-1.67323 -0.29404,-2.95323 -0.39258,-3.9375 -0.98422,-5.21654 -2.46119,-8.26693 -4.42968,-9.34961 -2.06695,-1.08268 -3.83734,0.0979 -5.41211,3.54297 -0.48378,1.50506 -1.80036,2.19708 -2.15068,5.42076 -1.20362,5.19271 -4.04567,11.00251 -6.20229,16.91937 -1.89189,4.07261 -2.13407,7.32213 -4.83704,10.15094 -1.57482,-4.13386 3.6508,-28.06251 -0.58148,-30.91685 -4.23228,-2.85434 -6.79101,0.68945 -6.79101,0.68945 0,0 -3.93787,-6.1019 -10.13868,-5.80664 -6.20076,0.39371 -13.28634,10.03875 -13.38476,23.32617 -0.0983,13.18897 5.80706,18.70194 12.5,15.35547 6.79132,-3.24801 7.67773,-9.25195 7.67773,-9.25195 0,0 -1.18251,6.79025 1.17969,10.13672 1.1811,1.57481 4.72552,2.46082 8.85938,1.47656 4.13385,-1.1811 6.39648,-6.00391 6.39648,-6.00391 1.08268,-2.26374 1.87109,-4.33007 1.87109,-4.33007 0,0 1.85988,-5.21854 3.7461,-12.15821 -0.0361,0.66126 -0.0811,1.22112 -0.11328,1.92188 -0.39372,8.56297 -0.5918,17.42065 -0.5918,26.57422 -0.0983,9.15352 3.5e-4,15.94584 0.19726,20.375 0.19692,3.93702 0.88531,6.692 2.06641,8.36523 1.08268,1.67324 2.4611,2.46094 3.9375,2.46094 1.47636,0.0983 2.9529,-0.29572 4.23242,-1.18164 0.98427,-0.68897 1.67389,-1.57556 2.16602,-2.65821 0.39367,-1.08268 0.68869,-2.16536 0.78711,-3.24804 0.0983,-1.08269 0.0977,-2.06609 0.0977,-2.85352 -0.0983,-0.29518 -0.0977,-0.59103 -0.0977,-0.68945 l 0.0977,-5.41211 c 0,-3.24801 -6.1e-4,-7.38264 0.0977,-12.40234 0,-5.01967 6.1e-4,-10.13741 -0.0977,-15.55079 1.96853,1.08269 4.72504,1.8692 8.16993,2.36133 3.44488,0.49213 6.79144,-0.49097 10.23632,-3.14844 l 0.0977,-0.0996 c 0.19691,-0.19692 0.98491,-0.98339 2.16602,-2.36133 h 0.0976 c 0,-0.0983 0.0977,-0.0986 0.0977,-0.19727 l 0.0996,-0.0977 0.0977,-0.0977 c 1.67324,-1.87007 4.4346,-4.41733 6.69839,-8.84648 1.1811,-2.16537 1.66815,-5.32696 2.75083,-8.37813 -0.0983,1.67323 -0.29492,3.44362 -0.29492,5.41211 -0.39371,7.77558 -0.5918,15.74871 -0.5918,23.91797 -0.0983,8.1693 3.6e-4,14.2712 0.19727,18.30664 0.19691,3.44489 0.78841,5.90641 1.87109,7.38281 0.98423,1.47636 2.16499,2.26287 3.54297,2.36133 1.27952,0.0983 2.55837,-0.29453 3.83789,-1.08203 0.88585,-0.59055 1.47742,-1.37906 1.8711,-2.36328 0.39371,-0.98427 0.68865,-1.96695 0.78711,-2.95117 0.0983,-0.98427 0.0983,-1.87154 0,-2.56055 0,-0.29518 -10e-4,-0.49063 -0.0996,-0.6875 v -0.49219 l 0.0996,-3.9375 v -0.39453 c 0.0983,-2.95276 0.0976,-6.69194 0.0976,-11.12109 0,-4.42912 6.1e-4,-9.15374 -0.0976,-13.97657 1.77165,0.98427 4.23126,1.67273 7.38086,2.06641 3.05117,0.49213 6.20074,-0.49207 9.25195,-2.75586 1.07819,-0.54437 1.97137,-1.17056 2.61243,-1.82565 1.57973,-1.00186 2.65899,-3.40976 3.78547,-4.8089 -2.26378,13.28742 5.1458,18.2494 13.8072,15.78878 3.5433,-0.98427 6.39789,-4.03715 8.46484,-7.28516 -0.19691,4.62599 -0.30567,8.59315 -0.50251,13.41602 -4.42915,4.52753 -8.25861,9.32057 -9.83343,11.28906 -5.61021,6.88978 2.16648,13.58296 8.85938,14.96094 6.79136,1.27952 8.36583,-2.16464 10.03906,-9.8418 1.27952,-6.29923 1.64521,-21.08195 1.64522,-21.08195 13.68109,-15.25591 20.25183,-34.16389 21.13764,-37.60877 l -2.60513,0.22587 c -3.14959,12.10628 -10.92592,23.13799 -18.40624,32.09467 0.0983,-3.93698 1.18011,-12.21288 1.37695,-14.08296 0.49213,-6.10235 3.05253,-14.96045 -1.67188,-17.51953 -4.72441,-2.46062 -6.20117,2.26368 -6.20117,2.26368 0,0 -2.06652,5.61074 -3.05078,13.18945 -0.19691,1.57481 -0.35032,3.25831 -0.54716,6.80162 -1.57481,3.24801 -3.72973,6.49657 -5.50139,7.18554 -3.93702,1.57478 -7.33677,-0.10979 -5.762,-9.1649 1.4764,-9.15356 8.16868,-21.65308 4.33008,-24.31054 -1.23031,-0.83047 -2.5565,-1.08463 -3.79883,-1.04102 z m -115.93359,3.19922 c 0.10669,-0.0113 0.21544,-0.01 0.32617,0.006 3.44485,0.39371 6.19922,5.61133 6.19922,5.61133 l -2.85352,17.22461 c -5.51179,13.68109 -7.38091,6.49547 -7.87304,-1.67383 -0.47676,-7.91401 0.89364,-20.81675 4.20117,-21.16797 z m 89.39062,3.54883 c 1.08269,-0.0983 1.67346,0.78856 1.96875,2.85547 0.19692,2.06694 7.1e-4,4.62537 -0.58984,7.57812 -0.68897,2.95276 -1.77284,5.60969 -3.34766,8.07031 -1.57477,2.46067 -3.64136,3.93756 -6.29882,4.42969 -0.0983,-5.0197 -0.19578,-9.44854 -0.39258,-13.28711 1.27952,-2.06695 2.65684,-4.03461 4.33008,-6.10156 1.57481,-1.96849 3.05055,-3.15121 4.33007,-3.54492 z m -40.8457,0.19726 c 1.08265,-0.0983 1.86881,0.98426 2.16406,3.24805 0.29518,2.36221 0.099,5.21683 -0.58984,8.46484 -0.68897,3.24805 -1.96858,6.29957 -3.74023,8.95704 -1.77166,2.65749 -4.13395,4.33132 -6.98829,4.92187 -0.0983,-5.61025 -0.19696,-10.53139 -0.49218,-14.76367 1.47639,-2.26379 3.05256,-4.52918 4.82422,-6.79297 1.67319,-2.26375 3.34586,-3.54306 4.82226,-4.03516 z m 77.14677,44.12779 c 0.68897,8.07088 -1.23438,13.74574 -2.02177,14.43471 -3.54331,3.24805 -7.54487,-0.65278 -7.05273,-3.70396 0.39371,-2.85433 4.64534,-6.20318 9.0745,-10.73075 z m -79.16044,53.30776 c -0.24992,-0.01 -0.50252,-0.008 -0.75781,0.008 -5.31496,0.29518 -7.6767,18.01271 -8.5625,35.13871 h -2.46094 c -1.27952,0 -2.36328,1.0818 -2.36328,2.3613 0,1.2796 1.08376,2.3633 2.36328,2.3633 h 2.36133 c 0,0.3278 -0.0422,0.8404 -0.082,1.3105 -1.25224,5.7282 -3.52477,11.0038 -5.39043,16.5197 -1.13262,3.9952 -3.14062,8.2968 -6.69927,9.6897 -2.85434,0.9843 -0.51577,-10.3949 -0.51577,-10.3949 0.49213,-4.7244 1.37939,-9.4475 2.06836,-14.1719 0.19691,-1.7716 0.39306,-3.5447 0.0977,-5.3164 l -0.0977,-0.4922 c -0.0983,-0.5905 -0.19697,-1.1809 -0.49219,-1.7715 -0.98427,-2.2638 -1.96906,-2.9518 -4.42969,-2.3613 -0.68901,0.1969 -1.47585,0.6895 -2.0664,1.1816 -0.78739,0.5906 -1.47744,1.1806 -2.36329,1.5743 -0.68897,0.2951 -1.37663,0.3937 -2.16406,0.4921 -0.78739,0 -0.42232,-0.9278 -0.22544,-1.8139 0.19691,-1.3779 -0.24227,-3.5796 -1.81697,-4.1701 -1.37798,-0.4921 -3.3718,1.0623 -4.35603,2.0466 -1.67323,1.4763 -2.65755,4.1349 -0.49218,5.6113 0.98422,0.6889 2.36186,0.984 3.54297,1.2793 0.34942,0.087 -0.35698,-0.057 0,0 -1.07244,4.9918 -3.78039,19.3849 -8.32255,27.5608 -1.57482,3.4449 -1.99581,3.2458 -1.99581,3.2458 -0.59055,-2.559 -0.29493,-8.6621 -0.29493,-8.6621 0,-7.2834 0.98233,-17.7165 0.49024,-21.2598 -0.29518,-2.3621 -2.16361,-4.7246 -4.72266,-5.2168 0,0 -8.16992,-1.6721 -8.16992,15.3555 0,15.9449 -0.39461,23.0309 8.36523,23.8184 2.16537,0.2952 3.83985,-0.295 3.83985,-0.295 2.85434,-1.1811 6.98605,-9.5385 6.98605,-9.5385 0,0 4.61134,-12.4719 6.83621,-24.6197 0.82052,0.1 1.01489,0.1996 1.81055,0.3985 0.49213,0.098 0.88748,-7e-4 0.78906,0.5898 -0.0983,0.5906 -0.19777,1.0833 -0.39453,1.6739 0,0.1969 -0.0976,0.4918 -0.0976,0.7871 -1.37794,6.5945 -4.52763,24.9016 -0.49219,28.7402 1.57478,1.3779 3.93733,2.1656 5.70898,1.4766 0.68897,-0.197 1.27783,-0.4919 1.9668,-0.7871 6.00397,-2.9528 8.96992,-8.8051 8.96992,-8.8051 0.78159,-2.2795 2.76447,-8.111 4.47657,-14.8066 -0.0298,4.2591 -0.53408,7.1382 -0.46408,10.2249 0,1.4764 0.098,2.8553 0.29492,4.1348 l 0.39453,3.3457 c 1.37798,7.185 4.42859,9.7434 8.07032,10.334 2.06691,0.1969 3.84001,-0.3931 5.3164,-1.082 1.9685,-1.1811 3.14969,-2.8544 3.74024,-3.7403 2.85434,-5.2165 4.82226,-12.7949 4.82226,-12.7949 0.74527,-2.7482 1.64238,-6.1147 2.49805,-9.709 -0.14955,5.5843 -0.14741,11.2268 0.73633,16.7949 0.78743,4.5276 2.75654,10.5325 8.16992,11.1231 1.37798,0.098 2.65679,-0.098 3.83789,-0.4922 1.1811,-0.5906 2.26464,-1.9678 0.39453,-3.8379 l -0.19726,-0.1973 c 0,-0.098 -0.0986,-0.1966 -0.19727,-0.2949 -1.87007,-3.0512 -1.57422,-13.0918 -1.57422,-13.0918 v -3.1484 c 0.0983,-3.6417 1.08268,-7.2851 3.24805,-10.041 0.59055,-0.7874 2.26216,-3.051 2.95117,-1.2793 0.29518,0.9842 0.0986,2.1661 0.19727,3.1504 0.0983,3.1496 -0.29405,6.2007 -0.39258,9.2519 0,3.248 0.19659,6.4969 0.78711,9.6465 0.68897,3.7401 2.55857,6.1022 5.31445,7.7754 3.14963,1.2795 7.08594,-0.2969 7.08594,-0.2969 0.7172,-0.5379 2.66322,-1.7842 4.9375,-7.7187 0.8994,4.8426 2.99419,8.3329 6.88086,8.0156 6.98819,-0.4921 11.41623,-5.7089 13.38476,-8.4649 1.27953,6.9882 4.23328,9.5462 7.875,10.1368 1.9685,0.1969 3.73921,-0.3943 5.11719,-1.1817 1.96849,-1.0827 3.14968,-2.6571 3.74024,-3.5429 0.85181,-1.5274 1.59371,-3.2569 2.23437,-4.9434 2.15506,5.7352 6.39449,7.6465 11.01172,5.3379 6.79132,-3.2481 7.67773,-9.252 7.67773,-9.252 0,0 -1.18056,6.7903 1.18164,10.1368 1.18111,1.5748 4.72357,2.4607 8.85743,1.4765 4.13385,-1.1811 6.39843,-6.0039 6.39843,-6.0039 1.08269,-2.2638 1.86914,-4.3301 1.86914,-4.3301 0,0 0.24766,-0.7307 0.35352,-1.0351 1.11828,8.1475 7.00746,11.9249 13.81055,9.9922 3.5433,-0.9843 6.39793,-4.0352 8.46484,-7.2832 -0.19691,4.6259 -0.4561,8.8942 -0.65297,13.717 -4.42912,4.5276 -8.1062,9.0195 -9.68101,10.988 -5.61022,6.8898 2.16452,13.5811 8.85742,14.959 6.79132,1.2795 8.36583,-2.1646 10.03906,-9.8418 1.27952,-6.2992 1.70836,-21.3976 1.70835,-21.3976 13.6811,-15.2559 18.86287,-33.72 19.74868,-37.1649 l -2.47885,0.098 c -3.1496,12.1063 -9.78954,22.7611 -17.26983,31.7178 0.0983,-3.937 1.2452,-11.836 1.44204,-13.7061 0.49213,-6.1023 3.05058,-14.9605 -1.67383,-17.5195 -4.72441,-2.4607 -6.20117,2.2636 -6.20117,2.2636 0,0 -2.06655,5.6107 -3.05078,13.1895 -0.19691,1.5748 -0.39301,4.3297 -0.58984,7.873 -1.57482,3.2481 -3.64241,6.4966 -5.41407,7.1856 -3.93702,1.5748 -7.38145,-1.1812 -5.80664,-10.2363 1.47636,-9.1536 8.16868,-21.6531 4.33008,-24.3106 -3.93698,-2.6575 -8.85742,0.5899 -8.85742,0.5899 0,0 -4.23231,7.9723 -6.49609,21.2597 -0.484,1.9485 -0.91496,3.0243 -1.77094,5.3095 0,0 -2.46006,7.5791 -4.82226,8.957 -1.02039,0.5388 -0.96477,-0.31 -1.488,-0.9023 -1.57478,-4.1339 3.56152,-27.4376 -0.67076,-30.2919 -4.23231,-2.8543 -6.79101,0.6875 -6.79101,0.6875 0,0 -3.93592,-6.1019 -10.13672,-5.8067 -6.20077,0.3937 -13.2883,10.0388 -13.38672,23.3262 -0.0223,2.997 -0.30237,3.7469 0.23409,5.9372 -0.64078,1.8664 -2.00416,4.9538 -2.73911,6.4041 -1.62667,1.0378 -1.73288,1.9286 -3.11636,2.1557 -1.77165,-2.3622 -2.11294,-15.775 -1.62081,-30.4403 12.00786,-25.8859 6.29934,-40.06054 -2.26367,-39.56841 -5.70864,0.29518 -7.97195,21.16201 -8.5625,39.17381 -10.13779,-10.0393 -14.5672,-4.5282 -17.7168,3.8379 -3.36797,8.3686 -0.80743,14.6911 -4.36455,21.9973 -0.68897,1.378 -1.69307,3.2181 -2.38207,3.0213 -1.47636,-0.4922 -0.93697,-5.9229 -0.93697,-5.9229 -0.0983,-6.5945 6.1e-4,-13.1895 -0.0977,-19.6855 0,-1.6733 -0.29605,-3.3452 -0.88672,-4.9199 -0.8858,-2.1654 -2.75455,-3.1501 -4.91992,-3.4454 -4.72441,-0.5905 -8.36577,3.9373 -9.54687,5.2168 -0.78739,0.9843 -1.96963,2.9521 -2.85547,4.3301 0,-1.2795 0.0977,-2.5584 0.0977,-3.8379 12.20474,-26.3779 6.39853,-40.84759 -2.36132,-40.35545 -3.44485,0.19691 -4.7251,6.39875 -5.41407,8.85937 -1.57477,6.49608 -2.16411,13.18798 -2.65625,19.88088 -0.34547,4.2147 -0.59598,6.5486 -0.75258,10.7974 -2.65576,9.5173 -4.972,20.1213 -8.91387,28.6248 -1.77165,4.1339 -3.41167,3.5895 -3.41167,3.5895 -0.0983,0 -0.0967,-0.099 -0.19531,-0.1973 -1.87008,-2.3622 -2.06831,-16.9288 -1.57617,-31.791 0.0983,-0.1969 0.19665,-0.3929 0.29492,-0.5898 h 3.34765 c 1.37794,0 2.36133,-1.0837 2.36133,-2.3633 0,-1.2795 -0.98339,-2.3613 -2.36133,-2.3613 h -1.00009 c 8.86747,-22.4071 3.88033,-34.83887 -3.86719,-35.14652 z m -102.10742,1.33984 c -1.18687,-0.007 -2.08594,0.14454 -2.08594,0.14454 0,0 -1.77267,0.78812 -1.87109,5.90625 -0.0983,5.21648 -3.83861,56.49568 0,62.30278 3.74014,5.807 9.44921,3.4454 9.44921,-1.5743 0,-1.4764 0.098,-7.4802 0.29493,-15.2558 0.98426,2.0669 7.67847,14.9601 16.83203,17.8144 9.94091,3.0512 19.09338,-1.2801 16.14062,-16.9297 -2.95275,-15.6496 -12.69726,-20.5703 -12.69726,-20.5703 0,0 5.90562,-5.7081 4.23242,-17.3222 -1.57482,-11.41735 -8.07006,-14.27118 -15.35352,-8.56254 -3.34647,2.75592 -6.49521,7.08524 -8.85742,10.92384 -0.0983,-7.38192 -0.19816,-12.99155 -0.5918,-14.07423 -0.73818,-2.33759 -3.51406,-2.7912 -5.49218,-2.80274 z m 107.30664,4.57618 c 0.082,0.0309 0.16417,0.12687 0.24414,0.29297 3.83856,8.16922 -0.98502,23.13042 -3.15039,28.93752 h -0.49219 c 0.73821,-15.4097 2.16822,-29.69476 3.39844,-29.23049 z m 24.96558,1.89682 c 1.90365,8.94307 -0.11293,17.56187 -3.33531,26.14567 0.64591,-15.871 2.09466,-26.52163 3.33531,-26.14567 z m 54.08882,0.76193 c 2.30354,9.93784 0.66539,15.11104 -2.86997,24.37834 0.64591,-15.5943 1.71043,-24.78782 2.86997,-24.37834 z m -168.46651,1.07953 c 3.64172,0 2.95253,21.55501 -1.96875,21.25981 -2.65746,-0.197 -6.79181,1.5748 -9.94141,3.248 0,-3.7402 0.0977,-7.3821 0.0977,-10.7285 h 0.002 c 2.95276,-4.9213 9.05463,-13.77931 11.81055,-13.77931 z m 33.65625,13.06251 c -2.22139,-0.087 -3.52344,1.3066 -3.52344,1.3066 0,0 -7.18503,3.7414 0,6.5957 7.28349,2.7559 11.41667,-3.6429 7.08594,-6.5957 -1.35334,-0.9227 -2.55278,-1.267 -3.5625,-1.3066 z m 15.99219,9.5137 c 0.16282,3e-4 0.31388,0.049 0.44921,0.1601 0.49214,0.4921 0.29519,2.1642 0,3.6406 h -0.29492 c -1.08268,0.098 -3.05158,-0.3918 -2.95312,-0.9824 0,-0.4306 1.65906,-2.821 2.79883,-2.8183 z m -52.89453,3.0507 c 1.16572,-0.037 2.38375,0.038 3.63867,0.2598 8.95668,1.4764 10.53289,17.814 8.07226,23.6211 -2.46062,5.7086 -5.71006,13.1881 -20.57226,-10.1387 0.0983,-3.5433 0.0986,-7.479 0.19726,-11.416 2.14073,-1.1073 5.1669,-2.2154 8.66407,-2.3262 z m 191.64062,0.5489 c 0.10669,-0.011 0.21544,-0.01 0.32617,0.01 3.44489,0.3937 6.20117,5.6094 6.20117,5.6094 l -2.85546,17.2246 c -5.5118,13.6811 -7.38092,6.4955 -7.87305,-1.6738 -0.47676,-7.914 0.89365,-20.8148 4.20117,-21.166 z m -39.29688,2.4668 c 2.16537,0.5905 4.42904,3.1494 5.51172,4.5273 -0.19691,6.2008 -0.19691,11.9083 0,16.1406 0,1.4764 0.0967,2.8553 0.19532,4.1348 -1.77166,2.3622 -7.38177,9.3504 -8.26758,6.4961 -1.08269,-3.3464 -0.49063,-32.0863 2.56054,-31.2988 z m 84.03844,45.68 c 0.68897,8.0709 -1.21589,13.4728 -2.00328,14.1618 -3.54331,3.248 -6.97031,-0.9131 -6.47817,-3.9642 0.39371,-2.8544 4.05233,-5.67 8.48145,-10.1976 z"
       transform="scale(0.26458333)"
       id="path927"
       inkscape:connector-curvature="0"
       sodipodi:nodetypes="cccccccccccccccccccccccccccccccccccccccccscccccccccccccccccccccccsccccccccccccccccccccccscccccccccccccccccccccccccccccccccccccccccscccccccccccsssccccccccccccccccccccccccsccccccccccccccccccccccccccccccccccccccccccccccccccccccccccccccccccccccccccccccccccccccccccccccccccccccsssccccccsccsccccccccccccccccccccccscccccccccccccccccccccccccccccccccccccc" />
    <path
       style="fill:none;stroke:#ff0000;stroke-width:0.07972907"
       d="m 185.11914,203.78711 c -3.80895,0.0718 -7.07858,2.80461 -8.77575,6.06694 -0.50856,0.95927 -0.90524,1.97725 -1.17737,3.02876 -1.9562,-1.59647 -4.62686,-2.37974 -7.10543,-1.71387 -3.35181,0.91821 -5.60762,4.17134 -6.13046,7.49415 -0.84892,4.71299 1.04985,10.07234 5.25321,12.59979 1.03393,0.62089 2.2008,1.02279 3.4026,1.14337 0.27277,0.7606 -0.96259,1.26296 -0.54185,2.06337 0.41811,1.0788 1.91603,0.98775 2.71177,0.40343 0.51962,-0.0197 0.18164,1.05777 0.34925,1.47411 0.27486,3.47097 0.46884,7.07937 2.01794,10.26026 0.0597,0.57043 -0.14798,1.15664 0.0684,1.72757 0.48504,1.93434 2.23411,3.18075 3.006,4.9635 0.18978,0.35089 0.22154,0.91001 -0.30879,0.89292 -1.49837,0.0639 -3.24136,-0.28569 -4.51203,0.72796 -0.81965,0.73157 -0.17094,1.92101 0.45025,2.54984 0.16378,0.39381 0.7741,0.2847 0.70241,-0.16062 -0.20686,-0.58662 -1.09931,-1.12807 -0.7168,-1.82617 0.85497,-0.66288 2.04461,-0.54069 3.07031,-0.53515 -0.49654,0.0723 -1.06377,0.0151 -1.51562,0.20117 -0.34017,0.49194 0.42223,0.70834 0.78515,0.58789 0.71166,-0.0226 1.42596,-0.11926 2.09961,-0.35547 -0.28966,1.05096 -0.90095,1.98924 -1.5957,2.80859 -0.20684,0.51413 0.6268,0.64174 0.7832,0.20117 0.8153,-0.9743 1.4016,-2.14184 1.66211,-3.38671 0.98525,-0.48715 2.34596,-0.48001 2.92774,-1.57422 0.46972,-0.84441 0.16503,-1.89036 -0.31055,-2.63281 1.07189,0.79331 2.67691,0.71722 3.62853,-0.23406 0.54318,-0.34053 0.52659,-1.20195 -0.10079,-1.42785 -1.17185,-0.47925 -2.53929,-0.0324 -3.53751,0.658 -0.44047,-0.52241 -0.80055,-1.10443 -1.18164,-1.66992 1.12958,-0.90606 2.03383,-2.22846 1.95827,-3.73276 0.0502,-1.06133 -0.071,-2.12368 -0.28444,-3.16177 0.6207,0.0352 1.21774,-0.2363 1.81055,-0.375 0.81984,-0.46481 0.53536,-1.62516 -0.0156,-2.19532 -0.37201,-0.59129 0.54859,-0.86878 0.97071,-0.96289 3.9385,-1.79024 6.18944,-6.16544 6.21251,-10.38194 0.0493,-2.09599 -0.3975,-4.22051 -1.41369,-6.06142 2.8019,-3.1886 4.0351,-7.82788 2.76199,-11.92645 -0.83839,-2.68412 -3.08599,-5.00762 -5.93191,-5.44464 -0.4874,-0.0828 -0.98261,-0.11247 -1.47656,-0.0937 z"
       id="path885"
       inkscape:connector-curvature="0" />
    <path
       style="fill:none;stroke:#ff0000;stroke-width:0.07972907"
       d="m 175.35938,234.23633 c -0.54791,0.19973 -0.98021,0.7646 -1.63672,0.68164 -0.13118,0.49618 0.0184,1.16124 0.0234,1.71705 0.26692,3.17289 0.47414,6.45043 1.79686,9.37279 0.24672,0.13718 0.5526,-0.55116 0.86259,-0.7127 0.49484,-0.52884 1.4726,-0.87482 1.96358,-0.14667 0.62375,0.87781 0.68348,2.49589 -0.41797,3.02734 -0.85873,0.2135 -1.67688,-0.35456 -2.23047,-0.95703 -0.13372,1.6594 1.16227,2.96233 2.06943,4.20523 0.59784,0.78903 1.2119,1.68128 1.21964,2.71079 0.79829,-0.98513 1.29636,-2.16345 1.83789,-3.29883 -0.59786,-0.59117 -1.79858,-1.03804 -1.56055,-2.08008 0.0174,-0.4558 0.71068,-0.72738 0.28596,-1.15171 -1.16414,-2.51703 -2.04278,-5.17452 -2.65856,-7.8766 -0.29746,-1.35275 -0.38894,-2.73856 -0.43795,-4.12013 -0.41613,-0.41885 -0.67171,-1.00341 -1.11718,-1.37109 z"
       id="path883"
       inkscape:connector-curvature="0" />
    <path
       style="fill:none;stroke:#ff0000;stroke-width:0.07972907"
       d="m 181.20117,251.73438 c -0.29175,0.71485 -0.65954,1.39771 -1.05078,2.0625 0.84879,-0.18455 1.64877,-1.10188 1.15119,-1.97407 -0.0255,-0.057 -0.0604,-0.27536 -0.10041,-0.0884 z"
       id="path881"
       inkscape:connector-curvature="0" />
    <path
       style="fill:none;stroke:#ff0000;stroke-width:0.07972907"
       d="m 183.9375,249.78711 c -0.46496,0.0633 -1.13747,0.20261 -1.38867,0.51758 0.72999,0.42886 1.80121,0.19857 2.28515,-0.44727 -0.28509,-0.10245 -0.59884,-0.0772 -0.89648,-0.0703 z"
       id="path879"
       inkscape:connector-curvature="0" />
    <path
       style="fill:none;stroke:#ff0000;stroke-width:0.07972907"
       d="m 180.00391,248.68359 c -0.37701,0.71475 0.57758,1.0694 0.99218,1.46094 0.3702,0.19603 -0.4524,-0.53983 -0.49023,-0.7207 -0.17214,-0.21939 -0.34649,-0.59556 -0.50195,-0.74024 z"
       id="path877"
       inkscape:connector-curvature="0" />
    <path
       style="fill:none;stroke:#ff0000;stroke-width:0.07972907"
       d="m 177.42188,245.48438 c -0.52842,0.22599 -0.91809,0.67977 -1.22071,1.15429 0.37586,0.45666 0.9931,1.08146 1.62695,0.73633 0.35284,-0.56145 0.38173,-1.60902 -0.30664,-1.90234 l -0.0993,0.0117 z"
       id="path875"
       inkscape:connector-curvature="0" />
    <path
       style="fill:none;stroke:#ff0000;stroke-width:0.07972907"
       d="m 177.01562,236.33594 c 0.20235,3.843 1.4952,7.52865 3.02019,11.02678 0.20632,0.46217 0.71973,-0.42851 1.01692,-0.61272 1.20847,-1.56 0.8927,-3.72667 0.46875,-5.51953 -0.0287,-0.5206 -0.49474,-0.64194 -0.91796,-0.44727 -0.79569,0.14491 -1.90862,-0.1214 -1.98047,-1.08398 -0.19028,-0.8705 1.03764,-1.02107 1.10351,-1.76953 -0.50551,-0.49269 -1.29566,-0.63436 -1.83858,-1.11555 -0.24166,-0.0548 -0.94048,-0.94658 -0.87236,-0.4782 z"
       id="path873"
       inkscape:connector-curvature="0" />
    <path
       inkscape:connector-curvature="0"
       style="fill:none;stroke:#ff0000;stroke-width:0.07972907"
       d="m 182.80076,240.01663 c 0.14278,-0.19601 0.17708,-0.20712 0.36918,-0.1196 0.11647,0.0531 0.24596,0.0965 0.28775,0.0965 0.17552,0 0.0522,-0.3303 -0.28573,-0.76554 -0.19893,-0.25619 -0.38215,-0.54728 -0.40715,-0.64687 -0.025,-0.0996 -0.0715,-0.16496 -0.10337,-0.14527 -0.0319,0.0197 -0.47831,-0.009 -0.99209,-0.0643 l -0.93416,-0.10013 -0.2676,0.37248 c -0.14718,0.20487 -0.43129,0.50931 -0.63135,0.67653 -0.27195,0.22733 -0.3426,0.32951 -0.28,0.40495 0.14603,0.17595 0.74271,0.21431 1.26639,0.0814 0.53954,-0.13692 0.61894,-0.12192 1.06862,0.20198 0.40127,0.28903 0.7028,0.29164 0.90951,0.008 z"
       id="path871" />
    <path
       style="fill:none;stroke:#ff0000;stroke-width:0.07972907"
       d="m 180.75781,237.52539 c -0.22754,0.45836 0.63249,0.47194 0.92774,0.50391 0.39676,-0.004 1.30328,0.29721 1.24414,-0.375 -0.71802,-0.0868 -1.4495,-0.0917 -2.17188,-0.12891 z"
       id="path869"
       inkscape:connector-curvature="0" />
    <path
       inkscape:connector-curvature="0"
       style="fill:none;stroke:#ff0000;stroke-width:0.07972907"
       d="m 188.69942,220.88171 c -0.43816,0.62292 -0.0446,-0.62131 -3.36771,-2.62004 -0.87355,-0.40361 -1.60691,-0.55206 -2.67506,-0.5415 -1.49727,0.0148 -2.69922,0.43365 -3.98423,1.3884 -2.76254,2.05254 -4.44989,6.46373 -3.75982,11.40321"
       id="path867" />
    <path
       inkscape:connector-curvature="0"
       style="fill:none;stroke:#ff0000;stroke-width:0.07972907"
       d="m 188.51933,225.34331 c -0.0951,-0.38228 -0.64745,-1.49507 -1.00392,-2.02264 -0.90016,-1.3322 -2.26102,-2.37843 -3.66283,-2.81599 -0.24118,-0.0753 -0.48533,-0.15167 -0.54257,-0.16974 -0.0641,-0.0202 0.0662,-0.19908 0.33885,-0.46528 0.25438,-0.24835 0.44291,-0.5024 0.44291,-0.59681 0,-0.14247 0.0266,-0.15427 0.19958,-0.0885 2.13818,0.81294 3.69765,2.43955 4.19302,4.37356 0.18606,0.72641 0.29608,2.00467 0.17254,2.00467 -0.0457,0 -0.10758,-0.0987 -0.13758,-0.21925 z"
       id="path865" />
    <path
       inkscape:connector-curvature="0"
       style="fill:none;stroke:#ff0000;stroke-width:0.07972907"
       d="m 172.26171,234.00388 c 0.45959,-0.25799 0.64814,-0.27706 1.1065,-0.11193 0.51137,0.18423 0.66287,0.15614 0.84772,-0.15716 0.13685,-0.23195 0.21042,-0.27905 0.43582,-0.27905 0.37185,0 0.35085,-0.16715 -0.062,-0.4938 -0.18328,-0.145 -0.44732,-0.37744 -0.58677,-0.51654 l -0.25354,-0.25292 -0.95743,0.16587 -0.95742,0.16587 -0.25109,0.6141 c -0.1381,0.33776 -0.32222,0.67849 -0.40917,0.75717 -0.51765,0.46846 0.30065,0.55003 1.08742,0.10839 z"
       id="path861" />
    <path
       style="fill:none;stroke:#ff0000;stroke-width:0.07972907"
       d="m 173.53906,231.3457 c -0.626,0.22484 -1.28481,0.32645 -1.93554,0.42383 0.063,0.64706 0.92163,0.24379 1.32884,0.21585 0.34858,-0.0391 1.09238,-0.16976 0.78834,-0.65335 -0.0612,-0.0129 -0.12121,0.006 -0.18164,0.0137 z"
       id="path859"
       inkscape:connector-curvature="0" />
    <path
       style="fill:none;stroke:#ff0000;stroke-width:0.07972907"
       d="m 174.9126,230.51178 c -0.33337,0.25438 -0.3077,0.0226 -0.45556,-1.21874 -0.12326,-1.03487 -0.1162,-1.9256 0.0236,-2.97812 0.34478,-2.5956 1.34635,-4.77792 2.97932,-6.49163 0.27096,-0.28437 0.49266,-0.55569 0.49266,-0.60295 0,-0.21512 -0.49381,-1.51252 -0.83373,-2.19047 -1.64194,-3.2748 -1.67843,-1.86735 -1.26529,-2.40608"
       id="path857"
       inkscape:connector-curvature="0"
       sodipodi:nodetypes="ccccssc" />
    <path
       inkscape:connector-curvature="0"
       style="fill:none;stroke:#ff0000;stroke-width:0.07972907"
       d="m 175.70152,217.7258 c -1.41158,-1.92248 -3.65746,-3.16585 -5.71843,-3.16585 -0.56736,0 -0.66454,-0.0544 -0.43605,-0.24402 0.18382,-0.15256 0.43268,-0.67531 0.43268,-0.90887 0,-0.18554 0.0288,-0.2025 0.34377,-0.2025 0.43508,0 1.44373,0.26223 2.16881,0.56387 1.50839,0.62748 2.66975,1.79784 3.2696,3.29493 0.24553,0.61279 0.40599,1.16413 0.33881,1.16413 -0.017,0 -0.19659,-0.22576 -0.39919,-0.50169 z"
       id="path855" />
    <path
       inkscape:connector-curvature="0"
       style="fill:none;stroke:#ff0000;stroke-width:0.07972907"
       d="m 175.8536,214.62379 0.43834,0.58598 c 0.75039,1.00313 1.31288,2.08791 1.73956,3.35483 0.11801,0.3504 0.2117,0.5163 0.27016,0.47837 0.0492,-0.0319 0.34063,-0.22379 0.64759,-0.42634 2.11095,-1.39289 4.60225,-1.54984 6.81683,-0.42946 0.91331,0.46206 1.99713,1.40776 2.6275,2.29267 0.14838,0.20829 0.27322,0.40187 0.30584,0.40187"
       id="path851" />
    <path
       inkscape:connector-curvature="0"
       style="fill:none;stroke:#ff0000;stroke-width:0.07972907"
       d="m 190.39037,213.93256 c 0,-1.11542 -0.42989,-2.6486 -1.0565,-3.76792 -0.36339,-0.64914 -1.2666,-1.6298 -1.95067,-2.11794 l -0.5109,-0.36457 0.42286,-0.14315 c 0.24612,-0.0833 0.51574,-0.24711 0.6451,-0.39189 l 0.22225,-0.24874 0.22474,0.16003 c 0.34541,0.24595 1.13157,1.11441 1.46896,1.62274 0.39696,0.59807 0.73413,1.32956 0.90903,1.97211 0.21111,0.77559 0.18721,2.22993 -0.0508,3.0895 -0.10016,0.36177 -0.21406,0.65776 -0.25311,0.65776 -0.0391,0 -0.071,-0.21057 -0.071,-0.46793 z"
       id="path849" />
  </g>
</svg>
