<?xml version="1.0" encoding="UTF-8" standalone="no"?>
<!-- Created with Inkscape (http://www.inkscape.org/) -->

<svg
   xmlns:dc="http://purl.org/dc/elements/1.1/"
   xmlns:cc="http://creativecommons.org/ns#"
   xmlns:rdf="http://www.w3.org/1999/02/22-rdf-syntax-ns#"
   xmlns:svg="http://www.w3.org/2000/svg"
   xmlns="http://www.w3.org/2000/svg"
   xmlns:sodipodi="http://sodipodi.sourceforge.net/DTD/sodipodi-0.dtd"
   xmlns:inkscape="http://www.inkscape.org/namespaces/inkscape"
   width="261mm"
   height="131mm"
   viewBox="0 0 261 131"
   version="1.1"
   id="svg8"
   inkscape:version="0.92.3 (2405546, 2018-03-11)"
   sodipodi:docname="Wedding.svg">
  <defs
     id="defs2" />
  <sodipodi:namedview
     id="base"
     pagecolor="#ffffff"
     bordercolor="#666666"
     borderopacity="1.0"
     inkscape:pageopacity="0.0"
     inkscape:pageshadow="2"
     inkscape:zoom="0.70710678"
     inkscape:cx="803.49659"
     inkscape:cy="358.74998"
     inkscape:document-units="mm"
     inkscape:current-layer="layer1"
     showgrid="false"
     inkscape:window-width="1920"
     inkscape:window-height="1137"
     inkscape:window-x="-8"
     inkscape:window-y="-8"
     inkscape:window-maximized="1" />
  <metadata
     id="metadata5">
    <rdf:RDF>
      <cc:Work
         rdf:about="">
        <dc:format>image/svg+xml</dc:format>
        <dc:type
           rdf:resource="http://purl.org/dc/dcmitype/StillImage" />
        <dc:title></dc:title>
      </cc:Work>
    </rdf:RDF>
  </metadata>
  <g
     inkscape:label="Layer 1"
     inkscape:groupmode="layer"
     id="layer1"
     transform="translate(0,-166)">
    <g
       id="g824"
       transform="matrix(1.3,0,0,1.3,0,-89.100009)">
      <rect
         y="197.15384"
         x="0.15383102"
         height="99.692337"
         width="199.69234"
         id="rect815"
         style="fill:none;stroke:#ff0000;stroke-width:0.30766204;stroke-linejoin:miter;stroke-miterlimit:4;stroke-dasharray:none;stroke-dashoffset:0" />
      <path
         sodipodi:nodetypes="cc"
         inkscape:connector-curvature="0"
         id="rect819"
         d="m 100,197.11667 v 99.76669"
         style="fill:none;stroke:#0000ff;stroke-width:0.17964885;stroke-linejoin:miter;stroke-miterlimit:4;stroke-dasharray:none;stroke-dashoffset:0" />
    </g>
    <rect
       style="fill:none;stroke:#ff0000;stroke-width:0.32825342;stroke-linejoin:miter;stroke-miterlimit:4;stroke-dasharray:none;stroke-dashoffset:0"
       id="rect826"
       width="119.67175"
       height="119.67175"
       x="135.16412"
       y="172.16412" />
    <path
       style="fill:none;stroke:#ff0000;stroke-width:0.24198595"
       d="m 274.15243,282.13354 c -0.15069,-0.3927 0.32215,-6.12882 1.02454,-12.42885 0.94325,-8.46046 1.20352,-12.78348 1.53471,-25.49135 0.16729,-6.41896 0.14738,-8.38069 -0.0921,-9.07447 -0.746,-2.16111 -0.84792,-2.73912 -0.84792,-4.80924 0,-1.91363 0.0961,-2.42169 0.74776,-3.95304 0.58297,-1.36997 0.71787,-1.97547 0.61216,-2.74768 -0.0745,-0.54477 -0.24843,-2.35166 -0.38634,-4.01531 -0.34752,-4.19227 -0.57639,-5.8119 -1.47037,-10.40539 -0.5318,-2.73255 -0.784,-4.75654 -0.79903,-6.41263 -0.0219,-2.41459 -0.0194,-2.42513 1.14533,-4.83972 2.60974,-6.21194 4.02599,-4.78357 3.33413,-12.18104 -0.30309,-3.11634 0.0871,-5.79645 0.98252,-6.74965 1.5796,-1.68141 5.27973,-2.11797 7.87915,-0.92964 1.49276,0.68243 3.09847,2.13497 2.8337,2.56339 -0.0742,0.11994 -0.18321,1.28403 -0.24243,2.58687 -0.0815,1.79429 -0.0136,2.616 0.27984,3.3881 0.45363,1.19337 0.33076,1.69552 -0.44175,1.80525 -0.41391,0.0588 -0.68386,0.39174 -1.0452,1.2892 -0.74052,1.83918 -0.70642,1.81489 -2.54818,1.81489 -1.60833,0 -1.68776,0.0277 -2.04259,0.71394 -0.20306,0.39267 -0.3692,1.27646 -0.3692,1.96396 0,1.05418 0.13653,1.43601 0.87136,2.43705 1.16248,1.58362 2.58221,2.52909 4.08936,2.72331 1.4966,0.19286 2.26994,-0.16528 2.83171,-1.31135 0.57005,-1.16298 0.53534,-1.41984 -0.23036,-1.70505 -2.08055,-0.77494 -2.41988,-1.08935 -2.01513,-1.8671 0.23444,-0.45046 0.84887,-2.51684 0.80664,-2.71277 -0.0144,-0.0666 -0.0976,-0.30454 -0.18491,-0.52887 -0.1165,-0.29919 0.0984,-0.57025 0.80644,-1.01722 0.5871,-0.37062 1.17466,-1.02862 1.49975,-1.67953 0.7522,-1.50613 2.64989,-3.78109 3.28756,-3.94114 0.29472,-0.074 1.00833,0.0743 1.5858,0.32939 0.57747,0.25514 1.33562,0.53537 1.68479,0.62273 0.93343,0.23355 3.41775,3.01077 3.7814,4.22724 0.16636,0.55651 0.30248,1.72677 0.30248,2.60057 0,0.98193 0.14763,1.87422 0.38653,2.33619 0.53338,1.03144 0.2756,2.05048 -0.79638,3.14829 l -0.88375,0.90504 0.44328,1.30409 0.44327,1.30409 -0.61348,0.82074 c -0.33741,0.45141 -0.74594,1.2341 -0.90785,1.73931 -0.20362,0.63542 -0.58582,1.10257 -1.23988,1.51545 -1.03875,0.65575 -1.13216,0.94258 -0.5688,1.74688 0.34306,0.4898 0.34152,0.53782 -0.0173,0.53782 -0.21669,0 -0.55732,-0.16334 -0.75696,-0.36298 -0.49838,-0.49837 -0.67944,-0.45858 -1.04818,0.23041 -0.30737,0.57434 -1.51965,1.20029 -1.79374,0.9262 -0.0742,-0.0742 -0.256,0.17976 -0.40413,0.56423 -0.90461,2.3478 1.25864,5.06921 7.0521,8.87165 1.14268,0.74997 2.78781,2.11647 3.65587,3.03666 1.37678,1.45945 3.60922,4.73221 4.48615,6.57668 0.15819,0.33273 0.82696,1.76776 1.48614,3.18895 1.4029,3.0246 2.59102,4.43346 4.85591,5.7581 2.66333,1.55767 3.80282,1.77461 9.45184,1.79948 2.72839,0.012 6.01351,-0.0693 7.30026,-0.18074 2.22284,-0.19249 2.35289,-0.17768 2.60678,0.2967 0.23357,0.43644 0.1585,0.56856 -0.59634,1.04953 -0.75118,0.47866 -0.84646,0.64472 -0.73227,1.27621 0.43868,2.42579 0.43755,2.49931 -0.0485,3.18814 -1.108,1.57034 -1.7812,3.24994 -1.70691,4.25869 0.11383,1.54591 0.96829,1.92735 4.71453,2.10462 2.78884,0.13195 3.02438,0.18181 3.6057,0.76312 0.38941,0.38942 0.6728,1.00108 0.75796,1.63602 0.0861,0.64194 0.30147,1.1026 0.58689,1.25536 0.74882,0.40075 0.57806,1.74261 -0.42038,3.30342 -0.6141,0.95999 -0.97212,1.90295 -1.21296,3.19469 -1.13255,6.07441 -1.67302,7.68962 -3.4965,10.44948 -0.4741,0.71755 -1.00077,1.79466 -1.17038,2.39357 -0.50052,1.76733 -1.32981,2.95435 -3.49756,5.00631 -2.15385,2.0388 -3.13363,2.613 -6.12464,3.58937 l -1.83743,0.59979 h -25.50623 c -23.40503,0 -25.51875,-0.0326 -25.65834,-0.39641 z m 12.35471,-4.61851 c 0.56245,-10.36249 0.96628,-18.89152 1.48692,-31.40396 0.46148,-11.0909 0.82637,-19.53289 0.96697,-22.37177 0.0973,-1.96393 0.0655,-2.23735 -0.22538,-1.93589 -0.24936,0.25849 -0.44224,2.00993 -0.73153,6.64267 -0.21609,3.46041 -0.49264,7.21724 -0.61454,8.34852 -0.1219,1.13129 -0.34282,3.20026 -0.49093,4.59773 -0.36125,3.40851 -0.91365,8.18076 -1.20445,10.40541 -0.29238,2.23683 -0.88991,6.96693 -1.20747,9.55844 -0.53294,4.34917 -0.95686,8.88171 -1.0977,11.73632 -0.082,1.66365 -0.26497,3.32706 -0.40643,3.69646 -0.20099,0.52489 -0.17894,0.76282 0.10093,1.08893 0.19696,0.22952 0.42042,0.59412 0.49657,0.81022 0.0762,0.21611 0.53329,0.46699 1.01585,0.55753 0.59853,0.11228 0.96204,0.35032 1.14365,0.74892 0.14642,0.32138 0.34423,0.53613 0.43955,0.47721 0.0953,-0.0589 0.24292,-1.38945 0.32799,-2.95674 z m 9.83332,-69.7873 c 0,-0.13309 -0.1089,-0.17469 -0.24199,-0.0924 -0.13309,0.0822 -0.24198,0.25844 -0.24198,0.39154 0,0.13309 0.10889,0.17468 0.24198,0.0924 0.13309,-0.0822 0.24199,-0.25844 0.24199,-0.39153 z m -9.50486,-4.49831 c -0.5435,-0.54348 -0.9272,-0.15169 -0.62496,0.63814 0.21072,0.55067 0.25083,0.5622 0.63154,0.18149 0.3807,-0.3807 0.38029,-0.43275 -0.006,-0.81963 z"
       id="path868"
       inkscape:connector-curvature="0"
       sodipodi:nodetypes="csscscccccccccccccsscsccccccccccccsscccccccccscsscsccccccccccccsccsssccccscccssccccscccccccccscscsccccc" />
    <g
       id="g935"
       transform="matrix(0.71456948,0,0,0.71456948,97.911955,251.56665)">
      <path
         sodipodi:nodetypes="cccscsssccccccccccccsccccccccccscccccccscssscccccscsccccccccccssscssccccccccccccccscccssccccsccscccsccccccccccccccsccccccccscsccccccsscsscscsscscssccc"
         inkscape:connector-curvature="0"
         id="path920"
         d="m 436.29791,44.405965 c -3.59541,-0.308372 -8.04217,-0.536702 -11.77396,-0.604565 -3.11316,-0.05661 -4.80897,-0.210553 -8.99583,-0.816618 -0.50932,-0.07373 -3.42635,-0.243282 -6.48229,-0.376788 -3.05594,-0.133504 -5.85391,-0.298141 -6.21771,-0.365858 -0.85343,-0.158853 -4.13319,-0.523954 -5.15938,-0.574339 -1.7864,-0.08771 -1.98437,-0.138877 -1.98437,-0.512882 0,-0.494067 1.39556,-3.350334 2.97673,-6.092409 3.15807,-5.476743 5.58954,-10.34005 6.9448,-13.890625 0.52768,-1.382448 1.068,-2.751667 1.20071,-3.042709 1.88539,-4.134818 3.19833,-10.7808054 2.87481,-14.5520847 -0.025,-0.291041 0.0799,-1.243541 0.23295,-2.116666 0.15308,-0.87312497 0.28384,-5.218319 0.29057,-9.655988 0.0127,-8.3264513 0.0315,-8.7432943 0.73526,-16.2535303 0.23081,-2.463046 0.35606,-5.17961 0.27833,-6.03681 -0.0777,-0.857197 -0.0317,-1.937605 0.10224,-2.400901 0.20538,-0.710327 0.41137,-11.156061 0.23573,-11.954857 -0.032,-0.145521 -0.0742,-0.420531 -0.0938,-0.611134 -0.0196,-0.190606 -0.3577,-0.542365 -0.75136,-0.781685 -0.66561,-0.40466 -0.84165,-0.403297 -2.51354,0.01945 -1.08922,0.275413 -2.54808,0.427083 -3.70136,0.38481 -1.28877,-0.04724 -2.01512,0.04117 -2.24896,0.273746 -0.51454,0.511731 -0.44363,7.025535 0.12937,11.885047 0.32905,2.790516 0.71482,4.719252 1.25678,6.283357 1.04707,3.021912 1.03066,3.227676 -0.27496,3.448259 -0.58132,0.09822 -1.12344,0.286168 -1.20472,0.417677 -0.22769,0.368416 -3.83286,0.08371 -4.25239,-0.335815 -0.3086,-0.308599 -0.2633,-0.7597 0.29883,-2.975671 0.68581,-2.703555 0.87614,-4.085481 1.05901,-7.689289 0.13467,-2.653869 -0.29528,-8.702593 -0.6681,-9.399215 -0.37598,-0.702532 -1.34937,-0.660929 -3.30045,0.14106 -0.87128,0.35814 -2.53815,0.791882 -3.70417,0.963877 -2.52251,0.372084 -2.93118,0.386035 -3.97725,0.135776 -1.35392,-0.323905 -1.63678,0.146712 -1.96155,3.26371 -0.15921,1.527969 -0.40181,5.3975 -0.53912,8.598959 -0.1373,3.201458 -0.45916,7.190052 -0.71523,8.863542 -0.25608,1.67349 -0.43966,3.697552 -0.40796,4.497917 0.20237,5.109761 0.11929,12.4292053 -0.16819,14.8166673 -0.18399,1.527969 -0.73459,4.802188 -1.22356,7.2760423 -0.87337,4.418632 -0.89031,4.637831 -0.96105,12.4354174 -0.0798,8.796467 -0.0172,9.267211 1.50601,11.33462 0.92993,1.262118 1.11058,1.373712 4.74038,2.928192 1.64639,0.705075 2.41113,1.427115 2.07795,1.961936 -0.39629,0.636124 -2.09171,1.558655 -3.911,2.128096 l -1.56846,0.490932 0.64242,0.420256 c 0.35333,0.231143 1.11867,0.616673 1.70076,0.856734 1.80519,0.74449 2.74439,1.653585 3.72971,3.610166 0.69722,1.384507 0.86329,1.944309 0.64228,2.16507 -0.19773,0.197514 -1.82999,0.297749 -4.84858,0.297749 h -4.5505 l -2.91041,-1.026727 c -1.60073,-0.5647 -3.02948,-1.109302 -3.175,-1.21023 -0.14552,-0.100926 -0.91943,-0.129445 -1.7198,-0.06337 -4.57433,0.37761 -4.80301,0.250071 -5.27095,-2.939651 -0.1963,-1.338112 -0.31104,-3.087778 -0.25496,-3.888142 0.0561,-0.800365 0.0942,-5.979584 0.0847,-11.509375 -0.0156,-9.07388 -0.075,-10.415326 -0.60871,-13.7583344 -1.20958,-7.5759103 0.82253,-33.0807526 -0.43027,-33.3360116 -0.48032,-0.09787 -0.93668,-0.241305 -1.01413,-0.318749 -0.0774,-0.07744 0.0774,-1.133041 0.34416,-2.345775 -0.94653,-13.147358 0.19522,-4.693197 -1.55553,-20.223426 -0.0501,-0.363802 -0.18929,-1.018646 -0.30936,-1.455208 -0.12007,-0.436563 -0.27673,-1.329531 -0.34813,-1.984375 -0.0714,-0.654844 -0.24534,-1.785938 -0.38652,-2.513542 -0.14118,-0.727604 -0.33771,-2.096823 -0.43672,-3.042708 -0.099,-0.945886 -0.29013,-2.310906 -0.42468,-3.033377 -0.44041,-2.364806 -0.32229,-6.194632 0.25332,-8.213424 0.96589,-3.387585 1.41377,-4.757787 1.65002,-5.047918 0.12872,-0.158084 0.40159,-0.762296 0.60636,-1.342692 0.20478,-0.580397 1.01004,-2.179934 1.78948,-3.554528 3.1443,-5.545194 3.40538,-6.490578 2.66843,-9.662555 -0.24388,-1.04973 -0.22233,-2.2658 0.0786,-4.43475 0.20687,-1.49103 1.27456,-3.13732 3.12773,-4.82273 l 1.62782,-1.48045 1.98437,0.17411 c 1.09141,0.0958 2.52016,0.29381 3.175,0.44012 0.65485,0.1463 2.02407,0.30766 3.04271,0.35858 2.15119,0.10753 2.88798,0.34886 4.04981,1.32648 0.85901,0.72281 1.06664,1.55078 0.61525,2.45349 -0.30767,0.6153 -1.14271,3.93294 -1.28105,5.08964 -0.0609,0.50933 0.0704,1.69383 0.29193,2.632231 0.41709,1.767212 0.27235,2.394855 -0.55227,2.394855 -0.23551,0 -0.36481,0.22964 -0.33519,0.595312 0.11783,1.454629 -0.0282,1.970663 -0.65224,2.304633 -0.53142,0.284404 -0.60144,0.449945 -0.40683,0.961803 0.39738,1.045189 -0.28076,1.429919 -2.52042,1.429919 -2.43124,0 -2.78086,0.132434 -2.78086,1.053375 0,1.267769 0.72355,2.859621 2.62585,5.777037 3.19675,4.902589 3.4765,6.013297 3.57748,14.203964 l 0.0652,5.291667 0.90061,0.44673 c 1.62905,0.808064 2.99008,0.868056 4.75124,0.209426 1.71626,-0.64184 2.23151,-1.239703 2.01618,-2.339452 -0.15886,-0.811347 0.49653,-4.204586 0.90782,-4.700153 0.15405,-0.185622 0.8359,-0.417516 1.51522,-0.515324 0.67933,-0.09781 1.62697,-0.33773 2.10587,-0.533162 0.75067,-0.306329 2.22558,-0.339577 5.40775,-0.121896 0.10618,0.0073 0.42123,0.45969 0.70011,1.005393 0.27887,0.545703 0.94849,1.393272 1.48804,1.883487 l 0.981,0.891301 -0.17973,1.678332 c -0.17638,1.647005 -0.16696,1.681538 0.50509,1.85021 0.37665,0.09454 1.07026,0.09707 1.54134,0.0056 0.47108,-0.09143 1.00533,-0.184097 1.18723,-0.20592 0.44328,-0.05318 0.41905,-0.891302 -0.0467,-1.61444 -0.808,-1.25462 -1.24841,-3.815461 -0.98414,-5.72243 0.31931,-2.304177 0.64327,-2.89941 2.99418,-5.501296 2.19127,-2.425211 4.44604,-5.962526 4.5294,-7.105812 0.0477,-0.654382 -0.0765,-0.809438 -0.87038,-1.086126 -0.50932,-0.177521 -1.37727,-0.329486 -1.92877,-0.3377 -1.18481,-0.01765 -3.12556,-0.933495 -2.97719,-1.40495 0.255,-0.810287 0.35279,-3.904568 0.12779,-4.043627 -0.5318,-0.328671 -0.20334,-1.303501 0.80942,-2.40221 0.93546,-1.014852 1.05833,-1.299152 1.05833,-2.448678 0,-0.88987 0.12071,-1.34684 0.38228,-1.447214 0.21025,-0.08068 0.46217,-0.572547 0.55981,-1.093035 0.18231,-0.9718 1.80276,-3.69826 2.57414,-4.33108 0.29525,-0.24222 1.33833,-0.36636 3.28679,-0.39119 2.81603,-0.0359 2.88618,-0.0218 5.23553,1.05434 1.30968,0.59988 3.16671,1.34511 4.12673,1.65606 1.86739,0.60485 3.83711,1.74351 4.07117,2.353456 0.0787,0.205072 0.15135,1.432874 0.16145,2.728448 0.0236,3.026297 -0.27719,3.549547 -3.34465,5.81815 -1.30288,0.96357 -2.92195,2.275095 -3.59794,2.9145 -1.15348,1.091067 -1.2406,1.270267 -1.41665,2.914212 -0.15798,1.475195 -0.0763,2.138648 0.51782,4.203597 l 0.7054,2.451936 -0.52891,2.406907 c -0.8279,3.767542 -0.95082,6.071089 -0.43903,8.227737 0.3231,1.361557 0.39274,2.39525 0.26293,3.902917 -0.92384,3.548605 -0.12211,2.156389 0.54002,3.439583 1.46767,2.844287 4.19041,6.55051 8.18972,11.147931 2.26406,2.602654 4.80039,5.671868 5.63629,6.820475 5.00679,6.879818 7.00499,9.475065 8.93022,11.598471 0.59372,0.654844 1.56367,1.845469 2.15544,2.645834 0.59177,0.800365 3.00427,3.717396 5.36111,6.4822923 l 4.28517,5.027083 3.53251,7.1437503 c 1.94288,3.929063 4.91908,7.9135044 5.81345,9.2544764 3.04879,4.571185 6.48524,7.765602 10.89694,10.637653 7.99398,5.204145 11.63037,8.203209 16.37206,10.111505 1.30969,0.527087 2.43914,1.076114 2.50989,1.22006 0.32642,0.664144 -4.38916,1.859781 -9.38906,2.380602 -2.41736,0.251807 -7.02875,1.138426 -8.76659,1.685523 -4.86468,1.531483 -6.45733,1.792838 -12.26778,2.013151 -5.19645,0.197033 -5.92153,0.279104 -10.58334,1.197888 -2.11005,0.415864 -4.80927,0.939893 -5.99827,1.164503 -3.31213,0.625692 -12.13902,0.973595 -16.09444,0.634349 z"
         style="fill:none;stroke:#ff0000;stroke-width:0.26458335" />
      <path
         id="path918"
         d="m 449.52708,41.684987 c 2.23333,-0.210415 10.26835,-1.745459 10.56385,-2.018162 0.33981,-0.313585 -0.46586,-1.144924 -1.93761,-1.999367 -0.66985,-0.388884 -1.27744,-0.789514 -1.3502,-0.890286 -0.0728,-0.100774 -1.13439,-0.875061 -2.35919,-1.720641 -1.2248,-0.845576 -2.44519,-1.755698 -2.71198,-2.022491 -0.26679,-0.266792 -0.57437,-0.485809 -0.68351,-0.486703 -0.51969,-0.0043 -7.27796,-7.082928 -9.06198,-9.491604 -0.36381,-0.491181 -1.19724,-1.520354 -1.85209,-2.287053 -2.0154,-2.359652 -5.15459,-7.581853 -8.34619,-13.8843004 -0.58742,-1.15997 -1.56411,-3.2712133 -2.75401,-5.95312527 -0.32282,-0.727604 -0.80153,-1.799166 -1.06381,-2.38125003 -0.26227,-0.582083 -0.80052,-1.951302 -1.19611,-3.042708 -0.39559,-1.091407 -0.87422,-2.282032 -1.06362,-2.645834 -0.18941,-0.363802 -0.43036,-1.137708 -0.53544,-1.719792 -0.10509,-0.582083 -0.28755,-1.1810943 -0.40547,-1.3311343 -0.11793,-0.15004 -0.27163,-0.566759 -0.34158,-0.926042 -0.26437,-1.358059 -1.83374,-7.559223 -2.06711,-8.167971 -0.35715,-0.931598 -0.59566,-0.461698 -1.26267,2.487647 -1.21955,5.392571 -1.92382,7.9815513 -2.62702,9.6572923 -0.83489,1.989532 -3.28344,5.964468 -5.43549,8.823865 l -1.49364,1.984579 -0.41005,4.4515063 c -0.48321,5.2456644 -1.06394,8.1583304 -2.23588,11.2141014 -0.99044,2.582513 -5.77244,12.098802 -7.20476,14.337635 -1.42102,2.221162 -2.88701,5.230395 -2.73766,5.619584 0.15559,0.405463 2.22543,0.922126 3.87426,0.967073 0.65484,0.01786 2.44078,-0.05177 3.96875,-0.154707 1.88075,-0.126706 3.9804,-0.05845 6.50015,0.211315 2.51233,0.26897 5.0061,0.350565 7.67292,0.251058 3.34934,-0.124979 4.49473,-0.05607 7.52276,0.452548 3.00808,0.505272 4.68936,0.608288 10.65155,0.65264 3.89382,0.02896 7.15233,0.12532 7.24113,0.214122 0.0888,0.0888 0.47483,0.113379 0.85783,0.05461 0.383,-0.05876 1.41075,-0.174146 2.28387,-0.25641 z"
         style="fill:none;stroke:#ff0000;stroke-width:0.26458335"
         inkscape:connector-curvature="0" />
      <path
         id="path916"
         transform="matrix(0.26458333,0,0,0.26458333,0,166)"
         d="m 1598.291,-748.38281 c -0.5631,0 -0.6362,1.32251 -0.1777,3.25 0.4251,1.7875 0.8062,4.37499 0.8457,5.75 0.039,1.375 0.4027,3.02228 0.8086,3.66015 0.4059,0.63786 0.1813,4.23865 -0.1543,5.11328 -0.2751,0.71689 0.069,4.49711 0.7187,7.16211 0.2025,5.47708 2.2447,11.97441 2.7032,14.06446 9.9905,45.22205 36.6156,103.2707 68.455,149.24219 10.5225,15.19294 22.9838,28.23848 42.8106,44.82421 22.7446,19.02664 35.2092,27.0249 57.1992,36.69922 3.4632,1.52359 10.5425,1.46724 16.5508,-0.13281 2.778,-0.73981 10.6747,-3.63407 17.5469,-6.42969 19.6129,-7.97858 25.1201,-9.21255 41.4101,-9.28906 7.7044,-0.0363 15.5681,-0.38547 17.4746,-0.77539 l 3.4668,-0.70898 -3.4746,-1.38868 c -1.9109,-0.76386 -4.7121,-2.24178 -6.2246,-3.2832 -1.5125,-1.04142 -2.7572,-1.52418 -2.7656,-1.07422 -0.01,0.44995 -0.3458,0.32082 -0.75,-0.28516 -0.4041,-0.606 -4.9924,-3.01169 -10.1973,-5.3457 -9.9827,-4.47653 -20.3111,-7.46648 -33.5371,-9.71289 -1.65,-0.28025 -3.9,-1.30676 -5,-2.2793 -1.7729,-1.56746 -17.5844,-7.09898 -21.5,-7.52148 -0.825,-0.089 -2.4822,-0.69587 -3.6836,-1.34961 -1.2013,-0.65373 -2.6339,-1.18945 -3.1816,-1.18945 -0.9126,0 -5.9051,-2.16509 -19.8223,-8.59961 -2.8535,-1.31928 -5.4302,-2.40039 -5.7246,-2.40039 -2.064,0 -34.3186,-21.31588 -39.5879,-26.16211 -1.925,-1.77045 -5.75,-5.23305 -8.5,-7.69531 -11.3047,-10.12186 -24.9342,-23.83417 -30.3359,-30.52149 -13.5056,-16.71988 -39.3099,-55.33556 -47.7891,-71.51367 -4.7901,-9.13932 -5.6705,-10.63887 -7.5352,-12.84961 -7.9589,0.85807 -12.9962,-35.10895 -15.1601,-41.33594 -0.1083,-1.59281 -0.4287,-3.47031 -0.7871,-5.17187 -1.7691,-8.39939 -3.1685,-12.75 -4.1016,-12.75 z"
         style="fill:none;stroke:#ff0000;stroke-width:1.00000012"
         inkscape:connector-curvature="0" />
      <path
         sodipodi:nodetypes="cczcsscccsscssc"
         inkscape:connector-curvature="0"
         id="path914"
         d="m 478.35344,25.183437 c -4.3579,-3.84507 -8.24797,-7.686743 -10.95283,-11.561569 -2.91215,-3.42399 -2.66934,-3.7473698 -5.10363,-5.4528319 -2.43429,-1.7054622 -4.05599,-3.0646758 -7.26583,-4.8238108 -6.24337,-3.39616797 -10.39726,-6.693802 -15.70558,-12.468138 -6.43058,-6.9951233 -11.48731,-15.3268193 -15.09476,-24.8708353 -0.55004,-1.455208 -1.00676,-2.514449 -1.01492,-2.353868 -0.0346,0.67941 1.62865,6.830918 2.63945,9.762202 1.71527,4.974273 5.66357,13.178757 8.50761,17.6786423 3.18588,5.040733 9.10715,12.452866 12.95695,16.2192583 6.88994,6.7406604 12.99374,10.8899594 21.91864,14.9000484 2.60913,1.172321 6.85635,2.658162 7.60677,2.661146 0.32742,0.0013 0.59532,0.121428 0.59532,0.266949 0,0.145521 0.26193,0.264583 0.58208,0.264583 0.33668,0 0.47611,-0.0935 0.33073,-0.221776 z"
         style="fill:none;stroke:#ff0000;stroke-width:0.26458335" />
      <path
         sodipodi:nodetypes="cccccscccssccc"
         inkscape:connector-curvature="0"
         id="path912"
         d="m 461.15003,3.2463583 c -0.58636,-2.64833297 -1.4911,-4.39828 -4.0696,-7.871354 -0.97235,-1.309688 -2.35203,-2.797969 -2.70216,-3.307292 -1.42852,-1.6679372 -1.47444,-1.8438258 -3.35308,-3.6937923 -1.5726,-1.563137 -2.36397,-2.53991 -3.90183,-3.317666 -1.15095,-0.582084 -2.51407,-1.475053 -3.02915,-1.984376 -0.51508,-0.509322 -2.11987,-1.81901 -3.56619,-2.910417 -9.19028,-6.935047 -12.94646,-11.680317 -16.28047,-20.567547 -0.55877,-1.489496 -1.13828,-2.918246 -1.28777,-3.175001 -0.50097,-0.860382 -0.33146,0.688542 0.35626,3.255474 1.91956,7.164784 6.97794,17.015913 12.55522,24.451128 2.72106,3.62752 6.9447,7.7601193 12.50641,12.2368323 2.1076,1.696437 8.74743,6.071439 10.40983,6.859061 2.07387,0.9825753 2.57572,0.9878753 2.36253,0.02495 z"
         style="fill:none;stroke:#ff0000;stroke-width:0.26458335" />
      <path
         id="path910"
         d="m 414.69313,-4.3604127 c 3.07002,-6.2272493 4.18465,-9.6407793 5.05412,-15.4781263 0.54477,-3.65737 0.52166,-3.453386 0.64851,-5.724321 0.0499,-0.892805 0.16613,-1.745364 0.25835,-1.894573 0.24074,-0.389525 0.14518,-7.991523 -0.10045,-7.991523 -0.23438,0 -1.0497,2.934084 -1.83804,6.614584 -0.86529,4.039801 -2.61648,8.801092 -5.01162,13.626042 l -2.23279,4.497917 0.0676,2.5135423 c 0.0372,1.382448 0.10664,2.811198 0.15432,3.175 0.0477,0.363802 0.0972,1.733021 0.11007,3.042708 l 0.0234,2.38125103 0.65064,-0.79375 c 0.35785,-0.436563 1.35501,-2.22250103 2.21591,-3.96875103 z"
         style="fill:none;stroke:#ff0000;stroke-width:0.26458335"
         inkscape:connector-curvature="0" />
      <path
         sodipodi:nodetypes="cccccccccscc"
         inkscape:connector-curvature="0"
         id="path908"
         d="m 412.30909,-14.480726 c 0.80889,-1.618445 3.58768,-10.018877 3.8775,-11.721857 0.0854,-0.5016 0.4392,-1.864498 0.78631,-3.028664 0.70945,-2.379436 1.73077,-6.930147 1.87049,-8.334376 l 0.0921,-0.926042 -1.50507,1.719792 c -0.82778,0.945886 -2.35568,2.621682 -3.39533,3.723992 l -1.29495,1.739618 -0.46803,2.857518 c -0.46079,6.744386 -0.90161,14.962207 -0.55692,14.962207 0.0539,0 0.32112,-0.446484 0.59386,-0.992188 z"
         style="fill:none;stroke:#ff0000;stroke-width:0.26458335" />
      <path
         sodipodi:nodetypes="sscczcsss"
         inkscape:connector-curvature="0"
         id="path906"
         d="m 443.83854,-20.619025 c 0,-0.572778 -3.86961,-5.90526 -5.57762,-7.686181 -3.15902,-3.293872 -6.62972,-7.30259 -7.50004,-8.662675 -3.03932,-4.749642 -4.15336,-6.373845 -4.90156,-7.14618 -1.99342,-2.246693 -1.78292,-1.425452 -1.71348,-0.595309 0.0694,0.830144 -0.0502,0.954821 1.16472,3.968751 3.08329,7.648835 8.18662,13.669045 16.2296,19.145489 1.81239,1.234051 2.29838,1.44045 2.29838,0.976109 z"
         style="fill:none;stroke:#ff0000;stroke-width:0.26458335" />
      <path
         sodipodi:nodetypes="sccccs"
         inkscape:connector-curvature="0"
         id="path902"
         d="m 415.82105,-37.636441 c 1.36288,-2.123131 4.49637,-6.860115 5.33265,-7.83596 2.79927,-1.998742 -1.71572,-1.222271 -3.69789,-1.212478 -2.37579,0.01175 -3.68878,0.300153 -3.907,0.858223 -0.13279,0.339617 -0.8978,10.093429 -0.92696,11.818666 -0.009,0.540036 1.94891,-1.680718 3.1992,-3.628451 z"
         style="fill:none;stroke:#ff0000;stroke-width:0.26458335" />
      <path
         id="path900"
         d="m 396.71379,-47.331788 c 0.28167,-0.178364 0.12642,-0.387419 -0.66145,-0.890715 -1.1248,-0.718524 -1.42638,-0.69787 -1.42638,0.09769 0,0.751914 1.34563,1.263026 2.08783,0.793028 z"
         style="fill:none;stroke:#ff0000;stroke-width:0.26458335"
         inkscape:connector-curvature="0" />
      <path
         id="path898"
         d="m 404.03424,-49.066585 c 0.55002,-0.416012 0.34708,-0.495252 -0.61089,-0.238524 -0.32742,0.08774 -0.59531,0.264713 -0.59531,0.393261 0,0.359079 0.63449,0.277685 1.2062,-0.154737 z"
         style="fill:none;stroke:#ff0000;stroke-width:0.26458335"
         inkscape:connector-curvature="0" />
      <path
         id="path896"
         d="m 414.83037,-53.058756 c 1.28977,-0.225605 2.41121,-0.344027 2.49207,-0.26316 0.0809,0.08087 0.354,-0.04027 0.60696,-0.2692 0.38897,-0.352012 0.44327,-0.782164 0.35192,-2.787893 -0.19508,-4.283047 -1.42914,-5.884189 -4.81556,-6.247999 -1.27684,-0.137173 -1.46951,-0.0847 -2.1767,0.592836 -0.42673,0.408832 -0.91256,1.157502 -1.07962,1.663711 -0.54015,1.636649 0.15496,6.205757 1.12121,7.370017 0.37077,0.446754 0.63771,0.442306 3.49972,-0.05831 z"
         style="fill:none;stroke:#ff0000;stroke-width:0.26458335"
         inkscape:connector-curvature="0" />
    </g>
    <path
       style="fill:none;stroke:#ff0000;stroke-width:0.12956932"
       d="m 194.29902,285.40151 c -0.17816,-0.0375 -1.49004,-0.36427 -2.91531,-0.7261 -3.16812,-0.80431 -4.54348,-0.89627 -8.13543,-0.54395 -1.7622,0.17285 -2.97257,0.20965 -5.11949,0.15561 -3.38592,-0.0852 -5.1052,-0.3546 -7.57497,-1.18697 -1.05229,-0.35465 -2.16585,-0.63259 -2.8813,-0.71916 -2.14017,-0.25897 -7.94387,-2.42979 -8.1865,-3.06209 -0.15465,-0.40302 2.19246,-8.50641 4.49918,-15.53343 3.45814,-10.53456 9.24867,-26.34982 10.74513,-29.34745 1.64327,-3.29169 3.9124,-6.74127 6.53406,-9.93324 0.63428,-0.77225 2.39608,-2.64281 3.91514,-4.15681 l 2.76189,-2.75274 0.32344,-1.06956 c 0.712,-2.35444 1.13025,-4.83049 1.43917,-8.5198 0.31309,-3.73907 0.61726,-5.46814 1.15106,-6.54324 0.65094,-1.311 1.79614,-3.09607 2.68304,-4.18213 0.83204,-1.01889 1.02003,-1.38598 1.02003,-1.99174 v -0.39116 l -0.53038,0.42007 c -0.66871,0.52962 -0.87264,0.93543 -0.6224,1.23856 0.15639,0.18943 0.15457,0.21062 -0.0133,0.1558 -0.26495,-0.0865 -0.31941,-0.70958 -0.0923,-1.05618 0.17704,-0.2702 0.1672,-0.28331 -0.21264,-0.28315 -0.3131,1.2e-4 -0.42427,-0.0728 -0.51983,-0.34098 -0.0669,-0.18764 -0.0792,-0.45002 -0.0275,-0.58307 0.0811,-0.20855 0.11876,-0.18383 0.27256,0.1792 0.21029,0.49634 0.66461,0.56916 1.03026,0.16513 0.1775,-0.19614 0.21603,-0.39448 0.16485,-0.8486 -0.0689,-0.61089 -0.21841,-0.89692 -0.32009,-0.61223 -0.082,0.22944 -0.55452,0.20183 -0.55452,-0.0324 0,-0.10689 0.0438,-0.17977 0.0971,-0.16196 0.0535,0.0178 0.11176,-0.0259 0.12957,-0.0971 0.0179,-0.0712 -0.12795,-0.18045 -0.32392,-0.24265 -0.19597,-0.0622 -0.54581,-0.29228 -0.77742,-0.5113 l -0.42109,-0.39822 v 0.40486 c 0,0.70684 -0.28056,0.84896 -1.55544,0.78802 -0.9247,-0.0442 -1.22327,-0.11471 -1.72084,-0.40631 -1.21268,-0.71067 -1.63361,-1.63399 -1.60262,-3.51531 0.0198,-1.20162 0.0373,-1.27432 0.37643,-1.56605 0.24572,-0.21137 0.59264,-0.33275 1.1223,-0.39267 0.60804,-0.0687 0.78027,-0.13881 0.83247,-0.33838 0.0385,-0.1472 0.15514,-0.23488 0.28106,-0.21126 0.15373,0.0288 0.27219,-0.12611 0.41434,-0.54199 0.27367,-0.80066 0.78612,-1.50981 1.7074,-2.36274 0.90444,-0.83736 1.52063,-1.07793 3.08756,-1.20541 0.58514,-0.0476 1.12365,-0.15856 1.19668,-0.24656 0.0929,-0.11195 0.43822,-0.14231 1.15,-0.10106 0.84063,0.0486 1.12499,0.0113 1.63793,-0.21567 0.78255,-0.34616 0.8853,-0.34391 0.77627,0.0169 -0.0719,0.23783 -0.0568,0.2617 0.082,0.12957 0.44995,-0.42856 0.5121,0.12571 0.10776,0.96096 l -0.26959,0.5569 0.27436,0.3853 c 0.39651,0.55686 0.75505,1.41794 0.92538,2.22246 0.21202,1.00147 0.42138,1.33951 1.0622,1.71505 0.31096,0.18224 0.6405,0.42186 0.73232,0.5325 0.16888,0.20348 0.14664,0.25666 -0.44131,1.05526 -0.0847,0.11496 -0.0537,0.24639 0.0971,0.41313 0.22841,0.25239 0.30152,0.67762 0.11649,0.67762 -0.0576,0 -0.21798,0.0922 -0.35631,0.20494 -0.1999,0.16286 -0.20692,0.19104 -0.0343,0.13726 0.32052,-0.0998 0.56052,0.24837 0.40754,0.59122 -0.0804,0.18023 -0.0788,0.4798 0.004,0.84395 0.10562,0.46159 0.0921,0.60161 -0.0741,0.76781 -0.2242,0.2242 -1.49113,0.55928 -2.12659,0.56246 -0.52917,0.003 -0.60959,0.12888 -0.86797,1.36251 -0.11941,0.5701 -0.45028,1.52318 -0.73526,2.11793 -0.58677,1.22463 -0.63133,1.67794 -0.25196,2.56299 0.1464,0.34154 0.32287,1.07306 0.39215,1.6256 0.14769,1.17784 0.67362,2.91673 1.40401,4.64208 0.28659,0.677 0.52288,1.41328 0.52507,1.63619 0.005,0.54024 -0.26543,1.15764 -0.80817,1.84295 -0.42588,0.53779 -0.44078,0.59168 -0.32259,1.16613 0.97539,4.74057 1.38762,6.33354 1.82684,7.0594 0.52639,0.86993 0.79953,1.93662 1.69751,6.62938 1.25437,6.55516 1.42051,7.06974 2.63552,8.16288 0.39605,0.35631 0.68033,0.57945 0.63175,0.49588 -0.0486,-0.0836 0.22925,-1.15931 0.61742,-2.39052 0.38816,-1.2312 0.68239,-2.27636 0.65382,-2.32257 -0.0286,-0.0461 0.0324,-2.41054 0.13548,-5.25407 0.10313,-2.84353 0.18941,-6.80263 0.19185,-8.798 0.008,-6.85895 0.40318,-10.18679 1.83358,-15.4562 l 0.53775,-1.98098 -0.22516,-0.67519 c -0.21441,-0.64292 -0.21423,-0.69994 0.004,-1.19346 0.12601,-0.28505 0.21585,-0.61514 0.19964,-0.73355 -0.0162,-0.11839 0.0256,-0.2493 0.0929,-0.2909 0.10687,-0.0661 -0.39086,-1.55586 -0.65833,-1.97058 -0.15963,-0.24749 -1.02243,-0.30924 -2.26886,-0.1624 -1.39703,0.1646 -1.76376,0.10137 -2.0634,-0.35597 -0.18738,-0.28598 -0.19736,-0.41724 -0.0684,-0.89945 0.17332,-0.64802 0.1106,-0.91176 -0.23856,-1.00307 -0.25292,-0.0662 -0.2705,-0.16111 -0.25955,-1.40265 0.005,-0.56379 -0.0178,-0.60386 -0.38346,-0.67701 -0.55932,-0.11186 -0.50334,-0.4421 0.26394,-1.55687 0.63704,-0.92555 0.65394,-0.97449 0.70485,-2.04116 0.0287,-0.60108 0.11815,-1.26623 0.19881,-1.4781 0.0806,-0.21187 0.19676,-0.6476 0.25796,-0.96828 0.0612,-0.32069 0.15073,-0.68509 0.19892,-0.80981 0.11819,-0.30593 -0.26984,-0.30593 -0.44802,0 -0.12229,0.20994 -0.13237,0.20809 -0.13602,-0.0251 -0.002,-0.13849 0.30602,-0.55201 0.68483,-0.91893 1.0819,-1.0479 3.39176,-1.83018 5.79502,-1.9626 2.03293,-0.112 2.63448,0.0947 3.77734,1.29789 0.746,0.78539 0.92439,1.0653 1.15771,1.81653 0.24132,0.77693 0.26699,1.09309 0.20518,2.52659 -0.0865,2.00738 -0.18503,2.34838 -1.00166,3.46852 -0.39462,0.54129 -0.64552,1.0208 -0.64552,1.23373 0,0.19155 -0.0721,0.37235 -0.16044,0.40176 -0.12708,0.0423 -0.12641,0.12815 0.003,0.4127 0.13621,0.29897 0.19613,0.33227 0.35721,0.19857 0.15663,-0.12999 0.24097,-0.11773 0.4421,0.0643 0.1367,0.12371 0.30049,0.19282 0.36398,0.15358 0.12024,-0.0743 1.02019,0.92858 1.2827,1.42944 0.083,0.15835 0.70785,1.03941 1.38854,1.95793 2.32867,3.14222 3.89032,5.97497 4.28303,7.76918 0.38465,1.75732 0.51287,4.18157 0.32856,6.21178 -0.42314,4.66086 0.17596,9.18002 2.60753,19.66967 0.29821,1.28645 0.59471,3.47049 0.70617,5.20165 l 0.0846,1.31457 -0.48241,0.32781 c -0.26532,0.18029 -1.11878,0.57862 -1.89658,0.88516 l -1.41418,0.55737 -0.31396,1.03949 c -0.51875,1.71748 -0.58146,2.51555 -0.58061,7.3884 9.8e-4,6.44732 0.16708,9.56814 0.56796,10.68056 0.38005,1.05458 1.16057,4.40942 1.44905,6.22822 0.19356,1.22038 0.20408,2.14108 0.1022,8.94029 -0.13782,9.1943 -0.1402,10.51709 -0.0202,11.29546 0.10376,0.67315 0.21843,0.58275 -1.04753,0.82569 l -0.37105,0.0712 0.30738,0.76098 c 0.16906,0.41855 0.34333,1.02328 0.38727,1.34385 l 0.0799,0.58286 -0.82601,0.25288 c -1.04632,0.32031 -2.517,0.48484 -2.63449,0.29473 -0.13159,-0.21291 -0.57981,-0.1649 -1.02677,0.11 -0.62289,0.3831 -1.91377,0.56994 -3.90237,0.56484 -2.66631,-0.007 -5.12132,-0.44592 -7.52963,-1.34669 l -0.79202,-0.29625 -2.44721,0.60903 c -4.26835,1.06222 -8.94438,1.71208 -10.28614,1.42953 z m 20.07317,-11.51256 c 0.0744,-0.9961 0.19608,-3.41835 0.27031,-5.38278 0.19374,-5.12725 0.0524,-7.22624 -0.76878,-11.41808 -1.36868,-6.98652 -2.29486,-12.46056 -2.72518,-16.10687 -0.15138,-1.28274 -0.30654,-2.58644 -0.3448,-2.8971 -0.0677,-0.55024 -0.0798,-0.56281 -0.46438,-0.48589 -0.21717,0.0435 -0.58699,0.079 -0.82184,0.079 -0.36723,0 -0.43872,0.0534 -0.51074,0.38121 -0.13754,0.62627 -0.81011,1.45574 -1.14207,1.4085 -0.20166,-0.0287 -0.2968,-0.14457 -0.32583,-0.39684 -0.0342,-0.29656 -0.10346,-0.35631 -0.41346,-0.35631 -0.20484,0 -0.41162,-0.0634 -0.4595,-0.14086 -0.0479,-0.0775 -0.13655,-0.0914 -0.19704,-0.0309 -0.0605,0.0605 0.21269,1.10051 0.60706,2.31116 2.71159,8.3241 4.93052,18.5493 6.45264,29.73464 0.24729,1.81721 0.48996,3.72873 0.53926,4.24781 0.0493,0.51909 0.10749,0.92594 0.12933,0.90412 0.0218,-0.0219 0.10054,-0.85467 0.17502,-1.85078 z m -15.01734,-50.3672 c -1.57433,-3.90589 -2.10602,-5.47873 -2.58007,-7.63237 -0.26288,-1.1943 -0.51224,-2.20571 -0.55411,-2.24759 -0.22622,-0.22622 -1.01324,3.82122 -1.01414,5.21543 l -4.9e-4,0.80979 1.27974,1.29866 c 0.70387,0.71428 1.7971,1.99587 2.42942,2.84798 0.63233,0.85212 1.15739,1.55048 1.16679,1.55189 0.009,10e-4 -0.31779,-0.82829 -0.72711,-1.84379 z M 188.07969,187.8578 c 0.32677,-0.34783 0.15444,-0.45985 -0.18509,-0.12032 -0.18037,0.18037 -0.27625,0.44424 -0.16141,0.44424 0.0232,0 0.17913,-0.14577 0.3465,-0.32392 z"
       id="path948"
       inkscape:connector-curvature="0"
       sodipodi:nodetypes="ccsscscsscscccssscsscccccccccsscsccssccccccccccssccscccccccsccccccccsccccccsccscccccsccccsccccccccsccccsccscsccccccsccsccsccccccsccccccccccccsccscssccscccsccsssssccccccscccccsc" />
  </g>
</svg>
