<?xml version="1.0" encoding="UTF-8" standalone="no"?>
<!-- Created with Inkscape (http://www.inkscape.org/) -->

<svg
   xmlns:dc="http://purl.org/dc/elements/1.1/"
   xmlns:cc="http://creativecommons.org/ns#"
   xmlns:rdf="http://www.w3.org/1999/02/22-rdf-syntax-ns#"
   xmlns:svg="http://www.w3.org/2000/svg"
   xmlns="http://www.w3.org/2000/svg"
   xmlns:sodipodi="http://sodipodi.sourceforge.net/DTD/sodipodi-0.dtd"
   xmlns:inkscape="http://www.inkscape.org/namespaces/inkscape"
   width="161mm"
   height="305.5mm"
   viewBox="0 0 161 305.5"
   version="1.1"
   id="svg8"
   inkscape:version="0.92.2 (5c3e80d, 2017-08-06)"
   sodipodi:docname="I Choose You.svg">
  <defs
     id="defs2" />
  <sodipodi:namedview
     id="base"
     pagecolor="#ffffff"
     bordercolor="#666666"
     borderopacity="1.0"
     inkscape:pageopacity="0.0"
     inkscape:pageshadow="2"
     inkscape:zoom="0.49497475"
     inkscape:cx="543.08633"
     inkscape:cy="559.59679"
     inkscape:document-units="mm"
     inkscape:current-layer="layer1"
     showgrid="false"
     inkscape:window-width="1920"
     inkscape:window-height="1017"
     inkscape:window-x="-8"
     inkscape:window-y="-8"
     inkscape:window-maximized="1" />
  <metadata
     id="metadata5">
    <rdf:RDF>
      <cc:Work
         rdf:about="">
        <dc:format>image/svg+xml</dc:format>
        <dc:type
           rdf:resource="http://purl.org/dc/dcmitype/StillImage" />
        <dc:title></dc:title>
      </cc:Work>
    </rdf:RDF>
  </metadata>
  <g
     inkscape:label="Layer 1"
     inkscape:groupmode="layer"
     id="layer1"
     transform="translate(0,8.5)">
    <path
       style="fill:none;stroke:#0000ff;stroke-width:0.25801888"
       d="m 60.856326,-0.2999551 c -2.190559,0.03015 -4.548192,-0.1836287 -6.959263,0.4252963 C 38.480604,4.0188138 24.528265,16.691284 24.470435,26.85239 c -0.01368,2.403226 0.509744,3.827701 2.020031,5.499407 1.333357,1.475867 2.835581,2.133359 5.253426,2.299084 3.729164,0.255603 8.249007,-1.704039 9.497094,-4.117579 0.833874,-1.612534 -0.428754,-1.558964 -2.501138,0.106456 -2.107149,1.693351 -5.35972,1.041109 -6.611482,-1.326018 -1.232308,-2.330331 0.300758,-7.197786 2.007629,-10.221598 2.380339,-4.216895 7.215039,-7.985008 10.757482,-9.7627122 5.771854,-2.896481 15.545538,-5.375541 17.016531,-4.708238 0.53381,0.242151 0.42467,0.363177 -1.538406,1.705837 -4.102973,2.806261 -6.286767,5.2490822 -8.868709,9.9198092 -7.591332,13.732737 -11.763682,20.430357 -15.857947,25.454776 -6.102364,7.488695 -12.548254,11.7969 -18.706351,12.503113 -1.576364,0.180771 -4.422391,-0.180102 -5.353677,-0.678511 -0.468982,-0.250965 -0.4684,-0.273767 0.02532,-0.816488 1.530861,-1.682846 1.423419,-3.438565 -0.309541,-5.057574 -0.937323,-0.875689 -3.2821191,-1.039694 -4.442108,-0.310573 -1.6827076,1.057669 -2.6752205,3.025743 -2.6732203,5.299416 0.00275,2.740078 2.2493684,4.823801 6.4647203,5.996016 1.255128,0.349031 2.577296,0.460521 5.403289,0.453721 3.457075,-0.0079 5.06082,-0.219956 7.869285,-1.041281 0.293963,-0.08596 0.01651,0.272767 -0.644922,0.834057 -4.188047,3.554023 -9.030803,8.940736 -11.566217,12.865364 -2.9517926,4.569147 -5.3001337,10.312647 -5.9892992,14.648717 -0.1934845,1.22059 -0.2658771,3.27155 -0.1855179,5.28908 0.1148477,2.884523 0.2352516,3.578193 0.9653164,5.562463 1.1320489,3.076836 3.1625381,5.742126 5.6833747,7.460006 0.619439,0.42212 0.513376,0.43803 -2.9181693,0.45113 -4.6715177,0.0178 -5.3407601,0.332 -5.3407601,2.50579 0,1.23831 1.0521024,2.26516 2.5698688,2.50786 1.6813636,0.26886 2.6330434,0.97967 3.5667076,2.66288 0.456761,0.82345 3.565848,7.07014 6.909138,13.88185 l 6.078699,12.38477 -0.0801,7.7525 c -0.09319,9.00754 -0.09224,9.0038 -2.204,9.27023 -2.999526,0.37843 -3.681429,0.83355 -3.681429,2.45773 0,1.03409 0.399611,1.77493 1.11311,2.06241 0.303925,0.12247 2.597603,0.19359 5.488038,0.22737 v 118.27562 l 4.900734,10 4.900734,-10 V 160.84886 h -0.117821 c 3.138961,-0.0524 5.643096,-0.14422 5.904547,-0.27647 1.378977,-0.69749 1.622139,-2.88002 0.409279,-3.67471 -0.317992,-0.20835 -1.265894,-0.50107 -2.106332,-0.65061 -2.263503,-0.40271 -2.363629,-0.45269 -2.667537,-1.32446 -0.176324,-0.5058 -0.27957,-3.61285 -0.27957,-8.41293 v -7.61142 l 2.227255,-4.7997 c 1.2251,-2.63983 2.578084,-5.55418 3.006534,-6.47661 0.428459,-0.92242 2.205718,-4.75411 3.949629,-8.51473 1.743903,-3.76062 3.529642,-7.26908 3.967718,-7.79642 0.629404,-0.75764 1.171842,-1.07062 2.586405,-1.4919 1.123739,-0.33466 1.937414,-0.74334 2.185911,-1.09812 0.966991,-1.64148 0.402151,-3.11933 1.410398,-3.1248 2.043274,0 5.353974,-0.68623 8.491842,-3.66859 l 1.836063,-1.74511 0.262517,1.23403 c 0.512402,2.4117 2.03114,2.81574 3.985286,3.63854 l 0.79375,0.33435 -0.774112,0.17363 c -6.421956,1.44157 -11.021981,3.93591 -15.176852,8.22896 -3.701333,3.82442 -6.249337,8.78661 -7.267258,14.15262 -0.500173,2.63674 -0.500173,7.55489 0,10.19162 2.524504,13.30808 13.94155,22.76968 27.475842,22.76968 8.927761,0 17.103312,-4.13581 22.442042,-11.35228 6.257985,-8.45907 7.150505,-19.81537 2.302701,-29.30364 -2.654919,-5.19626 -7.271753,-9.67872 -12.715502,-12.34447 -2.417191,-1.18369 -6.654681,-2.45987 -8.25686,-2.48667 -0.707961,-0.0119 -0.564356,-0.13449 1.185974,-1.01389 3.334459,-1.67529 5.337863,-3.22627 8.344193,-6.460066 l 1.562696,-1.68103 -5.3e-4,2.0686 c -0.0011,2.415006 0.596123,3.940026 2.123903,5.423956 4.495591,5.15243 10.08013,0.29361 9.065596,2.46032 -0.138919,0.25956 -0.252179,0.87733 -0.252179,1.37304 -3e-6,1.20867 0.881093,1.88274 2.769853,2.11873 1.00676,0.12579 1.63646,0.36522 2.05053,0.77929 0.68493,0.68498 0.60145,-1.62225 0.73277,20.23028 0.0949,15.79351 0.28428,17.72774 2.11512,21.59455 1.91308,4.04052 5.44935,6.92433 11.64874,8.0044 0.91064,0.15865 0.37149,0.28859 1.40006,0.53203 v 0 118.30042 l 4.90074,10 4.90073,-10 v -118.30042 0 c 2.37867,-0.68936 0.9392,-0.31273 2.37867,-0.68936 6.10295,-1.5968 10.17041,-5.23327 11.71918,-10.47688 1.03427,-3.5017 1.1205,-4.98837 1.28209,-22.11648 0.13542,-14.3542 0.21196,-16.75199 0.54467,-17.08423 0.21286,-0.21257 1.17634,-0.55182 2.14095,-0.75396 2.10295,-0.44068 2.76159,-0.95574 2.76159,-2.15956 0,-2.1671 -0.68756,-2.39188 -7.32772,-2.40089 l -5.18624,-0.007 1.80609,-0.96325 c 7.80944,-4.16637 16.6213,-12.237369 16.01194,-14.665249 -0.21558,-0.85894 -1.78968,-1.56684 -2.42414,-1.09037 -0.23595,0.17719 -2.69288,2.60816 -5.46013,5.402253 -4.85092,4.89797 -7.3573,6.974816 -10.11876,8.386046 -1.5753,0.80505 -2.07673,0.78406 -3.10059,-0.13074 -0.80043,-0.71521 -0.84217,-0.84105 -0.82527,-2.515606 0.0218,-2.15837 1.32016,-6.10705 2.28875,-6.96133 0.37935,-0.334593 1.17149,-0.626273 1.99936,-0.736393 2.76689,-0.36802 7.62298,-2.50976 10.53062,-4.64416 5.64418,-4.1432 6.7926,-10.25286 2.00143,-10.64741 -5.57459,-0.45907 -14.44237,4.97095 -18.80505,11.51506 -0.82046,1.23068 -1.26853,1.72878 -1.19373,1.32601 0.5464,-2.94241 1.86128,-8.53435 2.15387,-9.15964 0.1992,-0.42572 0.65024,-1.28202 1.00253,-1.90273 0.35228,-0.62072 0.57754,-1.23064 0.50074,-1.35496 -0.22428,-0.36288 -3.8782,-0.26012 -4.94182,0.13901 -0.53503,0.20077 -1.28067,0.4324 -1.65726,0.5147 -1.66124,0.36315 -5.36775,4.1641 -9.45782,9.69915 -2.62607,3.55384 -3.12574,4.10973 -2.41484,2.68666 0.79667,-1.59475 1.59209,-5.02321 1.59008,-6.85798 -0.002,-2.42261 -0.35111,-3.34559 -1.76371,-4.6669 -2.78566,-2.60567 -7.07382,-2.6313 -12.17548,-0.0734 -3.46177,1.7357 -5.243741,3.02881 -8.0238,5.82187 -2.332969,2.34388 -2.468931,2.43927 -2.229321,1.57148 0.14002,-0.5082 0.206777,-1.94118 0.147277,-3.18482 -0.09558,-1.99916 -0.197445,-2.38832 -0.877467,-3.35587 -0.508709,-0.72381 -1.283144,-1.35693 -2.287714,-1.87069 -1.339419,-0.685 -1.780524,-0.77721 -3.731556,-0.77773 -2.8081,-5.3e-4 -4.120841,0.37159 -7.595402,2.15388 -7.048917,3.998603 -11.504029,10.968208 -16.322885,15.657733 -3.594471,3.49659 -5.171031,5.23739 -5.628228,4.49762 -0.359601,-0.58184 -0.289875,-1.39211 1.579747,-4.1863 6.283984,-9.391543 7.301754,-11.339193 7.366992,-14.100953 0.03919,-1.6589 -0.486976,-2.87934 -1.538406,-3.56826 -0.516284,-0.33829 -1.221685,-0.45387 -2.768307,-0.45372 -2.459106,2.5e-4 -3.930115,0.58445 -6.590813,2.61845 -2.349346,1.79598 -2.55102,1.90023 -1.975072,1.01957 2.9357,-4.48887 11.735366,-19.473877 12.20184,-20.778572 1.066514,-2.982957 -0.151897,-3.427299 -6.024957,-2.196767 -0.418804,0.08775 -0.645813,0.411914 -0.850593,1.21388 -0.430564,1.686279 -0.768019,2.428602 -1.885675,4.149103 -0.567774,0.874032 -2.624436,4.433824 -4.570261,7.910626 -6.992557,12.49431 -11.017946,19.12536 -12.583213,20.7269 -3.432842,3.512383 -8.291269,6.397943 -12.436449,7.386633 -2.610045,0.62253 -6.072108,0.68742 -7.886858,0.14831 -4.247886,-1.2619 -6.321364,-4.64243 -6.335014,-10.329603 -0.02006,-8.35258 8.661314,-20.227624 13.753388,-25.275532 5.092074,-5.047909 7.739945,-5.358185 9.05408,-5.842541 1.314135,-0.484356 4.525664,-0.61945 5.859812,-0.20597 1.338041,0.414686 3.440041,1.236866 3.778655,3.8104 0.335817,2.552297 -0.804254,6.686938 -2.487187,9.466383 -3.351442,5.535048 -9.1829,7.64767 -11.300972,3.69981 -1.455576,-2.713039 0.312854,-6.361296 4.030244,-8.314736 2.205908,-1.159169 2.513436,-1.487969 2.104782,-2.251543 -0.264501,-0.494255 -0.445749,-0.544566 -1.462958,-0.405144 -2.881831,0.395002 -6.537613,3.326361 -8.125087,6.514849 -1.090975,2.19125 -1.399302,4.153394 -0.974616,6.199104 0.249229,1.20054 0.520612,1.67662 1.535821,2.69183 1.884379,1.88438 4.315852,2.24739 7.59437,1.1343 5.688737,-1.93138 12.375811,-9.966922 13.974342,-16.792778 0.275748,-1.17725 0.381772,-2.526882 0.314192,-3.992523 -0.170542,-3.701399 -1.634588,-5.9485 -4.837432,-7.423319 -2.253329,-1.037611 -5.94165,-1.087596 -9.152411,-0.124024 -0.2858,0.08577 -0.06653,-0.219413 0.516247,-0.719335 4.664506,-4.001347 9.061661,-9.583947 13.419852,-17.036685 0.910116,-1.556351 1.65468,-2.870682 1.65468,-2.920754 0,-0.05006 0.449678,-0.885097 0.998905,-1.8557 0.549227,-0.9706 2.650966,-4.95739 4.670515,-8.859925 C 64.28993,7.5744268 66.677765,4.8048508 70.971458,4.8048508 c 2.391899,-3e-6 2.89243,-1.218065 0.798401,-1.943037 -0.48869,-0.169188 -1.332777,-0.6090179 -1.875337,-0.9771989 -2.200061,-1.493004 -5.387274,-2.23461 -9.038209,-2.184363 z M 148.40963,78.440461 c 0.49785,-0.0142 0.78135,0.32562 0.78135,1.08107 0,1.35516 -1.13138,3.58353 -2.63085,5.18108 -1.84723,1.96806 -4.42417,3.363257 -5.99963,4.098967 v -5.3e-4 c -0.70956,0.33135 -1.61123,0.60417 -2.0035,0.60513 l -0.71313,0.003 0.71158,-1.09657 c 4.09352,-6.30915 8.07615,-9.820907 9.85418,-9.871757 z m -61.147681,0.17363 c 1.028896,0.017 1.62237,0.81175 1.753383,2.39158 0.314058,3.78719 -4.908566,13.840033 -9.747726,18.763723 -1.155581,1.175766 -2.26941,2.000666 -3.582209,2.652546 -2.40538,1.1944 -3.075835,1.20212 -4.298964,0.0486 -0.942131,-0.88855 -0.950393,-0.91294 -0.767394,-2.37763 0.64816,-5.187646 4.123205,-11.307119 9.421645,-16.592269 3.283149,-3.27491 5.717498,-4.9114 7.221265,-4.88652 z m 23.887941,0.016 c 0.43176,-0.007 0.7818,0.13899 1.14877,0.43614 1.01567,0.82244 0.98154,2.57517 -0.11473,5.85133 -2.49035,7.442303 -8.10479,15.300009 -12.502582,17.498149 -1.047922,0.52378 -2.249789,0.9524 -2.670638,0.9524 -0.919612,0 -2.519744,-1.46478 -2.519744,-2.30684 0,-1.05942 0.783614,-4.335686 1.398363,-5.846666 2.499971,-6.144653 9.242981,-14.115243 13.623451,-16.103413 0.69203,-0.3141 1.20535,-0.47419 1.63711,-0.4811 z m -52.476892,1.05161 c 0.408776,-0.024 0.710017,0.0917 0.89762,0.3483 0.878927,1.20202 0.135559,2.92596 -4.1398,9.59786 -4.042968,6.309233 -5.603187,9.527773 -5.773806,11.912449 -0.10821,1.51232 -0.04226,1.94609 0.412376,2.71663 l 0.541052,0.91726 h -6.080249 -5.021916 c 2.563095,-3.98663 3.741288,-7.758336 5.649269,-10.965736 4.595718,-7.730733 7.308924,-11.120973 10.603487,-13.250353 1.250826,-0.80845 2.230673,-1.23639 2.911967,-1.27641 z m 67.477522,3.39772 c 0.16904,0.16904 -1.67474,7.58171 -2.54351,10.225743 -1.29255,3.93371 -2.91743,7.188666 -4.29276,8.599466 -1.44675,1.48406 -2.47769,2.07461 -3.27371,1.87482 -0.75991,-0.19073 -1.27447,-1.45033 -1.08055,-2.64531 0.30064,-1.852646 -0.76759,-2.426896 -2.43034,-1.306376 -1.72735,1.164056 -2.02037,2.958446 -0.72451,4.434346 l 0.80047,0.91209 h -3.2985 -3.2985 l 1.14308,-0.94258 c 3.51331,-2.89703 8.23539,-8.130156 16.3406,-18.109489 1.4051,-1.72998 2.60153,-3.09951 2.65823,-3.04271 z M 35.813927,98.672794 c 0.0075,0.007 0.0037,0.024 -0.01188,0.0506 -0.12496,0.21286 -0.783796,1.26366 -1.464508,2.334736 -0.680723,1.07109 -1.414407,2.37024 -1.630392,2.88716 -0.355883,0.8518 -0.353814,0.97894 0.02532,1.35806 0.230076,0.23008 0.722598,0.39897 1.093991,0.37517 1.254628,-0.0802 1.360424,-0.0298 1.07125,0.51056 -0.504375,0.94243 -0.312724,2.07577 0.486794,2.87528 0.414806,0.41482 0.966499,0.75473 1.225764,0.75551 1.009468,0.003 2.413799,0.56225 2.685108,1.06919 0.449736,0.84034 -0.07216,2.39692 -2.757455,8.2181 -1.341988,2.90917 -3.161885,6.88079 -4.044196,8.82634 h -5.29e-4 c -0.882312,1.94555 -1.662237,3.54158 -1.733228,3.54758 -0.07095,0.005 -0.671652,-1.18023 -1.335317,-2.63446 -0.663665,-1.45423 -2.51586,-5.43082 -4.116028,-8.83667 -2.36547,-5.03472 -2.928805,-6.4595 -3.013255,-7.62176 -0.128413,-1.76794 0.04704,-1.93735 2.490288,-2.39934 1.015738,-0.19206 2.07255,-0.55308 2.348177,-0.80253 1.299069,-1.17564 0.736467,-3.25892 -1.02216,-3.78582 l -1.033528,-0.31005 1.908929,-0.82993 c 2.171803,-0.94438 4.939167,-2.67111 7.37526,-4.602296 0.802254,-0.63598 1.398751,-1.03765 1.451589,-0.98547 z m 91.832633,0.29507 0.16846,1.648996 c 0.19018,1.85763 0.61185,2.82023 1.67897,3.83387 0.78039,0.74128 2.35154,1.49733 3.11092,1.49707 0.38996,-1.3e-4 0.4468,0.19034 0.3731,1.25367 -0.0759,1.09511 -0.003,1.32035 0.57981,1.7787 0.36694,0.28863 1.38711,0.65168 2.26705,0.80667 0.87994,0.15501 1.78035,0.46199 2.00039,0.68213 0.35336,0.35354 0.40007,2.39511 0.39998,17.48472 -1e-4,18.64296 -0.0132,18.8289 -1.52859,21.81934 -0.93359,1.84236 -3.14779,3.74879 -5.11183,4.40128 -1.6141,0.53625 -4.79771,0.85793 -6.2606,0.63304 -3.57053,-0.54892 -6.19233,-2.44028 -7.5091,-5.41776 -1.19893,-2.71085 -1.2635,-3.80328 -1.2635,-21.25193 0,-9.01132 0.084,-16.68368 0.18708,-17.04961 0.21812,-0.77466 0.93473,-1.15484 2.66546,-1.41438 1.5856,-0.23777 2.43655,-1.0394 2.43655,-2.29495 0,-0.92386 -0.70539,-1.94054 -1.35444,-1.95234 -0.17739,-0.003 0.4081,-0.39975 1.30121,-0.88108 2.36633,-1.27528 3.33434,-2.09117 4.66845,-3.93361 z M 73.72014,110.23332 c 3.432641,0.0134 4.127154,0.0931 6.140194,0.70539 7.95701,2.42035 13.853599,8.46696 15.908591,16.3127 0.857218,3.27276 1.502497,2.9502 -5.907135,2.9502 h -6.435265 l -0.848526,-1.59163 c -1.886802,-3.54001 -4.655042,-5.38742 -8.365382,-5.58312 -4.46669,-0.23559 -7.833272,1.75165 -9.808704,5.78931 l -0.677995,1.38544 h -6.419763 -6.420278 v -0.71468 c 0,-0.3931 0.239075,-1.58282 0.531749,-2.64428 1.819333,-6.59842 6.729351,-12.21348 13.02091,-14.89057 3.348625,-1.42486 5.024604,-1.73536 9.281604,-1.71876 z m -0.173114,17.9002 c 0.758082,0.007 1.541587,0.18319 2.302185,0.55139 3.328688,1.6114 3.53764,6.49987 0.363802,8.51266 -0.93281,0.59157 -1.469313,0.74408 -2.607593,0.74311 -3.30155,-0.004 -5.575597,-2.7478 -4.897377,-5.91024 0.518237,-2.41642 2.564736,-3.91823 4.838983,-3.89692 z m -22.852869,7.74475 6.481776,0.001 6.481773,0.001 0.857829,1.65881 c 1.035973,2.00357 2.897333,3.80887 4.891175,4.74338 1.306629,0.61241 1.785416,0.69143 4.184756,0.69143 2.425041,0 2.858902,-0.0734 4.136183,-0.70073 0.78481,-0.38544 1.907477,-1.11257 2.494936,-1.61541 1.126641,-0.96437 2.532412,-3.03097 2.807581,-4.1274 l 0.163814,-0.65215 h 6.580995 6.580476 l -0.176215,1.22576 c -0.534792,3.71975 -2.83608,8.28106 -5.773809,11.44323 -3.117279,3.35546 -6.499059,5.43008 -10.89701,6.6859 -2.478929,0.70786 -7.589322,0.9114 -10.174571,0.40514 -5.376981,-1.05295 -10.405821,-4.07349 -13.683919,-8.21913 -2.404253,-3.0405 -4.042767,-6.61505 -4.728395,-10.31514 z"
       id="path349"
       inkscape:connector-curvature="0"
       sodipodi:nodetypes="cscsssccaccscccccsccccccscccscsscccccscccccccccccsccccccccccccccsccscccccccccccccscccccccccscsccscccscscccccsscccccccccccccccccccccsccccsccccscccczzssccccccscscccccsscscccscccccccccscccccssccccsscccccccccccccccccscccccccccccssccccccscccscccccccccccssccccsccccsccsccccccsccccccccscsccccccccccccsccccccccccccccccc" />
    <path
       inkscape:connector-curvature="0"
       style="fill:none;stroke:#ff0000;stroke-width:0.25996169"
       d="M 0.1299808,-7.8700299 V 296.87002 H 48.653634 v -121.8122 h 56.318526 v 121.8122 H 159.8701 V 66.302186 H 86.829598 V -7.8700299 Z"
       id="rect2206" />
  </g>
</svg>
