<?xml version="1.0" encoding="UTF-8" standalone="no"?>
<!-- Created with Inkscape (http://www.inkscape.org/) -->

<svg
   xmlns:dc="http://purl.org/dc/elements/1.1/"
   xmlns:cc="http://creativecommons.org/ns#"
   xmlns:rdf="http://www.w3.org/1999/02/22-rdf-syntax-ns#"
   xmlns:svg="http://www.w3.org/2000/svg"
   xmlns="http://www.w3.org/2000/svg"
   xmlns:sodipodi="http://sodipodi.sourceforge.net/DTD/sodipodi-0.dtd"
   xmlns:inkscape="http://www.inkscape.org/namespaces/inkscape"
   width="210mm"
   height="297mm"
   viewBox="0 0 744.09448819 1052.3622047"
   id="svg2"
   version="1.1"
   inkscape:version="0.91 r13725"
   sodipodi:docname="Sweet 16.svg">
  <defs
     id="defs4" />
  <sodipodi:namedview
     id="base"
     pagecolor="#ffffff"
     bordercolor="#666666"
     borderopacity="1.0"
     inkscape:pageopacity="0.0"
     inkscape:pageshadow="2"
     inkscape:zoom="0.98994949"
     inkscape:cx="517.07062"
     inkscape:cy="602.10031"
     inkscape:document-units="px"
     inkscape:current-layer="layer1"
     showgrid="false"
     inkscape:window-width="1920"
     inkscape:window-height="1137"
     inkscape:window-x="-8"
     inkscape:window-y="-8"
     inkscape:window-maximized="1" />
  <metadata
     id="metadata7">
    <rdf:RDF>
      <cc:Work
         rdf:about="">
        <dc:format>image/svg+xml</dc:format>
        <dc:type
           rdf:resource="http://purl.org/dc/dcmitype/StillImage" />
        <dc:title></dc:title>
      </cc:Work>
    </rdf:RDF>
  </metadata>
  <g
     inkscape:label="Layer 1"
     inkscape:groupmode="layer"
     id="layer1">
    <path
       style="fill:none;stroke:#ff0000"
       d="m 254.27604,881.68853 c -12.59614,-45.0647 -14.30392,-50.02572 -19.57614,-70.77212 -0.70033,-2.74788 -0.60413,-3.30112 0.52478,-3.0178 0.40451,0.10154 0.81105,0.0623 0.90341,-0.0871 0.0923,-0.14946 0.66571,-0.26486 1.2741,-0.25646 0.60837,0.009 1.37716,-0.12979 1.7084,-0.30706 0.33124,-0.17728 0.98204,-0.32232 1.44622,-0.32232 l 0.84394,0 0.0531,-1.94986 c 0.23997,-8.81159 -1.40691,-98.70391 -1.92872,-106.08679 -0.0617,-0.87383 -0.18356,-2.95367 -0.27068,-4.62188 -0.0871,-1.66821 -0.28805,-5.43794 -0.44654,-8.37717 -0.15847,-2.93922 -0.2737,-6.758 -0.25605,-8.48618 0.0851,-3.53492 -1.09347,-2.4962 -3.31084,-2.4898 -3.50679,0.003 -13.12631,1.06034 -19.68152,2.16544 -5.7295,1.73778 -10.2379,1.45777 -16.46546,2.44254 -5.13543,0.82417 -6.83768,0.95408 -7.23566,0.55226 -0.27272,-0.27538 -0.44284,-1.61907 -0.56202,-4.43906 -1.45629,-7.38766 -0.57767,-14.99465 -1.28973,-21.95394 -0.15257,-1.42989 -0.41936,-5.3946 -0.59288,-8.81046 -0.17352,-3.41586 -0.43827,-7.90053 -0.58834,-9.96593 -0.15008,-2.06541 -0.3386,-5.28345 -0.41896,-7.15121 -0.0803,-1.86773 -0.16122,-3.49261 -0.17972,-3.61084 -0.14527,-0.92828 0.10416,-1.16039 1.4069,-1.30921 0.75467,-0.0862 3.32198,-0.41516 5.70514,-0.73104 2.38315,-0.31585 5.43793,-0.66621 6.78838,-0.77861 1.35046,-0.11237 2.58537,-0.30155 2.74425,-0.42036 0.27389,-0.20484 5.03343,-0.82966 7.90972,-1.03837 0.73373,-0.0532 2.69894,-0.30082 4.36715,-0.55017 1.66821,-0.24938 4.26802,-0.57257 5.77735,-0.71821 4.34125,-0.41895 11.77804,-1.798 12.8407,-2.38114 0.31011,-0.17017 1.48002,-0.53391 2.59981,-0.80831 5.18947,-1.27165 7.28077,-2.65692 8.2708,-5.47849 0.30447,-0.86773 0.55358,-1.85349 0.55358,-2.19057 0,-0.33711 0.084,-0.69689 0.18663,-0.79956 0.22848,-0.22846 0.36314,-1.36689 0.51895,-4.38709 0.15039,-2.9149 0.18429,-12.5796 0.045,-12.81951 -0.0574,-0.0987 -0.1924,-3.2993 -0.30012,-7.11235 -0.10773,-3.81306 -0.3178,-8.6227 -0.46683,-10.68811 -0.14903,-2.0654 -0.33657,-5.25016 -0.41674,-7.07725 -0.0802,-1.82709 -0.21491,-4.4269 -0.29939,-5.77736 -0.0845,-1.35045 -0.22842,-4.27524 -0.31985,-6.49952 -0.0914,-2.22428 -0.21245,-4.75909 -0.26895,-5.63292 -0.13118,-2.02851 -0.66751,-11.15161 -0.86609,-14.73224 -0.0837,-1.50934 -0.19928,-3.52419 -0.25684,-4.47745 -0.0576,-0.95327 -0.19508,-4.72299 -0.30561,-8.37716 -0.11053,-3.65418 -0.26706,-6.75344 -0.34783,-6.88724 -0.0808,-0.13381 -0.19334,-1.80089 -0.25016,-3.70462 -0.0568,-1.90375 -0.24159,-4.82108 -0.41064,-6.48294 -0.16905,-1.66185 -0.24872,-3.11642 -0.17707,-3.23237 0.0716,-0.11595 -0.0427,-2.61376 -0.25421,-5.55068 -0.21148,-2.93691 -0.47469,-7.22472 -0.58489,-9.52844 -0.11021,-2.30372 -0.23799,-4.70854 -0.28395,-5.34405 -0.22461,-3.10602 -0.68639,-12.0604 -0.70761,-13.72121 -0.0132,-1.0327 -0.164,-2.30869 -0.33512,-2.83556 -0.17114,-0.52683 -0.24234,-1.22098 -0.15825,-1.54255 0.0841,-0.32157 0.0418,-1.32041 -0.094,-2.21966 -0.13576,-0.89921 -0.32354,-4.67272 -0.41729,-8.38557 -0.0938,-3.71281 -0.24845,-6.87681 -0.3438,-7.03109 -0.0953,-0.15429 -0.20893,-1.60117 -0.25239,-3.21533 -0.0435,-1.61416 -0.17335,-3.16466 -0.28862,-3.44555 -0.11526,-0.28087 -0.0523,-0.8905 0.14002,-1.35468 0.2022,-0.48816 0.24651,-1.00358 0.10511,-1.22249 -0.13446,-0.20818 -0.24447,-1.67843 -0.24447,-3.2672 l 0,-2.88868 c -4.65555,0.67388 -3.55492,0.64139 -6.90039,0.85092 -1.09431,0.0802 -2.26714,0.32763 -2.60631,0.54986 -0.45424,0.29764 -2.28863,0.45641 -6.96525,0.60286 -3.49172,0.10934 -6.99854,0.25894 -7.79293,0.3324 -1.43107,0.13236 -8.9986,0.6018 -10.11036,0.62719 -0.66688,0.0153 -10.40991,0.6486 -12.13244,0.7887 -3.74075,0.30423 -15.48066,0.75611 -15.93098,0.61321 -1.1907,-0.37793 -1.60975,-2.10675 -2.00334,-8.26485 -0.0863,-1.35046 -0.35578,-4.92519 -0.59882,-7.94385 -0.24303,-3.01867 -0.54349,-7.57634 -0.66768,-10.12814 -0.1242,-2.5518 -0.36917,-5.54158 -0.54438,-6.64395 -0.1752,-1.10238 -0.45296,-4.90812 -0.61725,-8.45724 -0.16428,-3.54911 -0.42595,-6.69072 -0.58151,-6.98138 -0.15555,-0.29066 -0.21112,-0.89659 -0.12347,-1.3465 0.0876,-0.44994 0.0365,-2.7679 -0.11364,-5.15106 -0.15014,-2.38316 -0.18858,-4.85297 -0.0854,-5.48848 0.18346,-1.12999 0.21934,-1.16018 1.6277,-1.36903 0.79206,-0.11746 2.41503,-0.28532 3.60661,-0.37302 1.19158,-0.0877 3.36829,-0.35831 4.83712,-0.60136 1.46884,-0.24303 3.28871,-0.50182 4.04415,-0.57514 2.38318,-0.23121 7.03768,-0.95384 10.03956,-1.5587 0.79439,-0.16006 2.09429,-0.41319 2.88868,-0.56251 2.68624,-0.50491 5.37638,-1.16786 5.92037,-1.45901 0.29764,-0.15928 0.92891,-0.28962 1.40281,-0.28962 0.4739,0 1.45211,-0.25311 2.17378,-0.56246 0.72168,-0.30934 1.79278,-0.65261 2.38024,-0.76281 0.58745,-0.1102 1.40516,-0.37628 1.81714,-0.59125 0.41197,-0.21498 0.92965,-0.39168 1.1504,-0.39263 0.65356,-0.003 5.91612,-1.80395 6.38703,-2.18586 0.23831,-0.19328 0.85428,-0.4409 1.36881,-0.55024 0.51453,-0.10936 1.00966,-0.31882 1.10029,-0.46545 0.0906,-0.14666 0.48211,-0.26665 0.86992,-0.26665 0.38782,0 0.70513,-0.12999 0.70513,-0.28887 0,-0.15888 0.17745,-0.28887 0.39434,-0.28887 0.21689,0 0.70435,-0.24305 1.08325,-0.5401 0.3789,-0.29704 1.11246,-0.63259 1.63013,-0.74565 0.51768,-0.11303 1.0747,-0.45497 1.23786,-0.75981 0.16314,-0.30484 0.60111,-0.55425 0.97326,-0.55425 0.37215,0 0.83846,-0.19498 1.03624,-0.4333 0.19778,-0.23832 0.52477,-0.4333 0.72664,-0.4333 0.20186,0 0.44184,-0.19499 0.5333,-0.4333 0.0915,-0.23832 0.35472,-0.4333 0.58505,-0.4333 0.23033,0 1.11184,-0.59626 1.95892,-1.32504 0.84708,-0.72875 2.06267,-1.57395 2.70132,-1.87819 1.13021,-0.53839 7.65985,-6.92254 10.16679,-9.94025 2.79652,-3.36629 3.39203,-4.12708 4.45324,-5.68928 0.61465,-0.90485 1.11755,-1.78228 1.11755,-1.94985 0,-0.16761 0.12123,-0.30473 0.2694,-0.30473 0.14817,0 0.3599,-0.28514 0.47051,-0.63363 0.1106,-0.34849 0.64263,-1.2618 1.18226,-2.02956 2.85469,-4.06139 3.12769,-7.58156 0.39906,-5.14542 -0.53952,0.48168 -1.08752,0.87579 -1.21779,0.87579 -1.71796,2.8976 -5.18637,4.01845 -9.19167,5.8268 -1.88646,0.8517 -2.46667,1.10764 -4.33302,1.91118 -0.55607,0.23944 -1.23676,0.54619 -1.51263,0.68167 -0.27588,0.13551 -0.65804,0.24637 -0.84924,0.24637 -0.57234,0 -6.96463,2.03652 -7.80663,2.48713 -0.42918,0.22967 -1.27411,0.40089 -1.87764,0.38049 -1.24005,-0.042 -3.45129,0.32431 -6.00809,0.99507 -4.93489,1.29467 -21.10733,2.3651 -31.05327,2.05537 -3.0981,-0.0965 -5.8279,-0.22572 -6.06622,-0.28722 -0.23831,-0.0615 -1.85095,-0.18854 -3.58365,-0.28231 -1.73268,-0.0938 -3.29257,-0.26099 -3.46641,-0.3716 -0.34196,-0.21763 -2.56643,-0.48888 -6.67115,-0.81345 -1.42989,-0.11306 -2.6648,-0.29571 -2.74424,-0.40588 -0.0794,-0.11018 -1.24935,-0.41595 -2.59981,-0.67945 -1.35046,-0.26353 -3.23532,-0.66913 -4.18858,-0.90135 -15.79591,-4.00807 -24.87669,-7.59549 -37.01232,-16.1003 -2.66427,-1.7006 -15.34681,-11.91875 -16.77846,-15.46106 0.0914,-0.47822 -0.24974,-1.03116 -1.30407,-2.11356 -2.84869,-4.74513 -6.39446,-9.31911 -8.478715,-13.99853 -0.560837,-1.27101 -1.142645,-2.53666 -1.292904,-2.81254 -3.348867,-11.73288 -4.244304,-18.09175 -1.459896,-29.05871 0.481061,-0.74968 1.528514,-2.75977 2.327666,-4.46685 2.667239,-5.32998 7.558119,-10.5187 12.958219,-14.33792 5.44727,-3.4249 6.60569,-3.38237 11.89886,-4.79605 0.87382,-0.23973 3.50217,-0.57806 5.84077,-0.75183 5.3004,-0.39385 8.18079,0.0296 11.02646,1.62098 1.00114,0.55986 2.09164,1.01794 2.42335,1.01794 0.37821,0 0.93292,0.45779 1.48758,1.22769 4.01118,8.52826 0.52064,11.56914 -4.99361,14.51567 -0.25079,0.2508 -0.95909,0.43398 -1.68162,0.43491 -3.96742,0.10274 -5.11533,2.6666 -8.36375,3.94907 -1.11048,0.2221 -3.71379,3.09748 -3.72612,4.11554 -0.005,0.40933 -0.32927,1.26421 -0.7207,1.89972 -0.46095,0.74841 -0.71219,1.58608 -0.71314,2.37779 -8.7e-4,0.67228 -0.15734,2.1312 -0.34783,3.24204 -0.27082,1.57934 -0.26853,2.88943 0.0105,6.00842 0.19627,2.19378 0.4376,4.29743 0.53628,4.67476 0.11954,0.45717 0.0744,0.62119 -0.13525,0.49162 -0.1747,-0.10798 -0.13229,0.17109 0.0953,0.62741 0.2255,0.45204 0.4756,1.34396 0.55577,1.98203 0.24256,1.93054 3.05893,7.86444 4.55187,9.59046 0.46353,0.53591 0.98172,1.27928 1.1515,1.65194 3.60903,4.802 5.16903,5.02504 9.17908,10.18656 0,0.1818 0.25888,0.33055 0.57529,0.33055 0.3164,0 0.73887,0.2669 0.93882,0.59312 0.19994,0.32623 1.01348,0.98996 1.80787,1.47498 0.79438,0.485 1.76931,1.17628 2.1665,1.53617 0.3972,0.35987 1.06185,0.73407 1.47702,0.83154 0.41517,0.0975 1.52009,0.68361 2.45538,1.30254 0.93528,0.61892 2.0255,1.22078 2.42269,1.33747 0.39719,0.11669 1.17714,0.45107 1.73321,0.74306 0.55607,0.29199 1.62695,0.72997 2.37972,0.97329 0.75278,0.24332 1.59771,0.55704 1.87764,0.69714 0.58578,0.2932 1.91109,0.75649 3.97536,1.38971 0.79439,0.24368 1.79009,0.6258 2.21266,0.84917 0.42259,0.22337 0.95768,0.33345 1.18911,0.24465 0.23143,-0.0888 1.18559,0.11981 2.12035,0.46359 0.93477,0.34378 1.92768,0.61904 2.20648,0.61169 0.2788,-0.008 0.86375,0.17277 1.2999,0.40029 0.43616,0.22753 1.37796,0.41767 2.09291,0.42252 0.71494,0.005 1.85457,0.13681 2.53248,0.2932 0.67792,0.15639 2.18665,0.33364 3.35273,0.39387 1.16608,0.0603 2.4109,0.26515 2.76626,0.45531 0.35535,0.19019 0.94571,0.27059 1.31191,0.1787 0.36619,-0.092 1.36151,-0.0124 2.21182,0.17641 1.81106,0.40245 2.95147,0.46178 12.37855,0.64426 4.11895,0.0797 8.58659,0.003 10.6881,-0.18698 1.98596,-0.17818 4.2608,-0.35598 5.05518,-0.39512 0.79439,-0.0391 2.0293,-0.27093 2.74424,-0.51511 0.71495,-0.2442 1.85237,-0.53192 2.5276,-0.6394 0.67522,-0.10746 1.22768,-0.30877 1.22768,-0.44734 0,-0.13857 0.32783,-0.25196 0.72852,-0.25196 0.40068,0 1.58857,-0.38997 2.63976,-0.8666 1.05119,-0.47663 2.10074,-0.8666 2.33235,-0.8666 0.23161,0 1.49422,-0.58496 2.8058,-1.29991 1.3116,-0.71494 2.5851,-1.2999 2.83002,-1.2999 0.24492,0 0.52014,-0.19499 0.61159,-0.4333 0.0915,-0.23832 0.36987,-0.4333 0.61872,-0.4333 0.71876,0 6.27722,-5.75301 7.32045,-7.57667 0.52068,-0.9102 1.0687,-1.7303 1.21784,-1.82248 0.14913,-0.0922 0.27116,-0.39974 0.27116,-0.6835 0,-0.28375 0.22748,-0.72185 0.50552,-0.97355 0.44873,-0.40623 0.50468,-1.08447 0.49805,-6.03878 -0.007,-5.11902 -0.0625,-5.72464 -0.672,-7.31434 -0.36549,-0.95326 -0.86508,-1.95553 -1.11019,-2.22726 -0.24511,-0.27173 -0.73616,-1.11667 -1.09123,-1.87764 -0.35508,-0.76098 -1.44451,-2.18162 -2.42098,-3.15698 -0.97647,-0.97537 -1.77539,-1.89694 -1.77539,-2.04793 0,-0.15099 -0.30898,-0.4153 -0.68662,-0.58736 -6.91147,-5.42788 -12.70475,-9.63726 -21.27293,-14.22328 -0.16577,0 -0.36994,-0.17863 -0.45372,-0.39695 -9.90301,-7.70957 -19.14431,-11.45683 -28.96706,-19.16667 -6.18376,-3.95198 -12.30695,-8.58566 -17.80347,-12.46504 -14.90181,-8.89001 -42.34193,-37.32182 -48.73036,-51.48444 -9.08805,-15.43125 -11.97287,-42.17328 -12.15616,-58.10109 0.28181,-10.62701 2.47805,-21.476218 5.30014,-31.706392 6.64911,-15.129301 12.60209,-25.106521 24.09981,-36.417686 2.22428,-2.186324 4.37401,-4.311051 4.7772,-4.721628 0.40317,-0.410568 0.85324,-0.746492 1.00015,-0.746492 0.14692,0 0.59698,-0.325419 1.00017,-0.723142 14.331,-12.829679 35.25298,-18.503335 52.29591,-18.943438 2.4626,-0.03572 4.80242,-0.06981 5.19962,-0.07568 1.6755,-0.02465 8.44704,0.397202 8.67928,0.54074 0.13912,0.08599 1.20049,0.214889 2.35858,0.286461 3.39556,0.209833 7.28951,0.889048 9.90504,1.727708 0.63551,0.203767 2.1304,0.664828 3.32198,1.024584 2.06402,0.623145 4.44521,1.58493 6.11079,2.46822 0.4217,0.223641 1.00666,0.409508 1.2999,0.413042 0.29324,0.0039 0.85814,0.260626 1.25534,0.571313 0.39719,0.310687 1.01464,0.567779 1.37212,0.571313 0.35747,0.0039 0.64995,0.125657 0.64995,0.2714 0,0.145734 0.58496,0.48837 1.2999,0.761407 0.71495,0.273048 1.29991,0.593007 1.29991,0.711019 0,0.118022 0.42247,0.38301 0.93882,0.588866 0.51635,0.205857 1.82031,0.936577 2.89768,1.623822 1.07738,0.687235 2.0253,1.249526 2.10648,1.249526 0.0812,0 0.30462,0.133004 0.49651,0.295569 0.19189,0.162575 0.99058,0.780029 1.77486,1.372121 0.78429,0.592102 1.88921,1.498395 2.45538,2.013995 0.56617,0.51559 1.1919,0.938059 1.39049,0.93882 0.1986,7.51e-4 0.36109,0.127265 0.36109,0.281135 0,0.153861 0.68245,0.795234 1.51655,1.425264 4.44644,3.358558 12.44989,12.194046 16.12477,17.801121 3.89944,5.9497 4.73001,7.418496 8.24481,14.580237 3.30491,6.734092 3.79931,7.802604 4.41067,9.532632 0.30879,0.873824 0.97428,2.693691 1.47886,4.044147 1.27046,3.400241 2.8369,8.184856 3.35732,10.254796 0.23967,0.95326 0.54685,2.12318 0.68263,2.59981 1.33193,4.67573 2.6286,10.95233 3.61714,17.50897 1.5634,10.36947 1.3418,24.02526 -0.56199,34.63164 -0.68211,3.80014 -0.63364,4.16984 0.70508,5.3793 1.74909,1.58019 3.62383,4.81321 4.30273,7.42008 0.52032,1.99799 0.57571,2.94449 0.48479,8.28429 -0.0926,5.44072 -0.36267,7.9499 -1.04183,9.68073 -0.49807,1.26936 -1.42985,5.7678 -2.27369,10.97697 -0.15442,0.95326 -0.49211,3.03311 -0.75042,4.62188 -0.91207,5.60985 -1.02804,6.37894 -1.32836,8.81046 -0.60239,4.87696 -1.33623,11.71228 -1.44211,13.43235 -0.0195,0.31775 -0.14628,1.94263 -0.2816,3.61085 -0.4911,6.05374 -0.76381,24.85239 -0.42954,29.60893 0.0447,0.63551 0.11806,3.4303 0.16311,6.21065 0.0784,4.83629 0.2011,7.0524 0.85594,15.45442 0.87802,3.86972 2.77677,26.22375 3.94473,26.41971 0.45559,-0.0143 2.61838,0.003 4.8062,0.0376 3.81128,0.0609 4.00784,0.0353 4.6941,-0.60942 0.39393,-0.37008 0.71914,-0.8777 0.72267,-1.12804 0.004,-0.25035 0.26062,-0.78015 0.57132,-1.17734 0.31068,-0.3972 0.56776,-0.97192 0.5713,-1.27715 0.004,-0.30525 0.18849,-0.76022 0.41102,-1.01104 0.22252,-0.25083 0.53955,-0.91102 0.7045,-1.46709 0.16496,-0.55607 0.5188,-1.596 0.78632,-2.31094 0.53139,-1.42007 0.62274,-1.73373 1.68265,-5.77736 0.39561,-1.50933 0.99961,-3.78416 1.3422,-5.05518 0.92315,-4.78961 1.93916,-9.88584 2.61609,-14.20253 0.31511,-2.03899 0.69748,-4.16223 0.8497,-4.7183 0.15221,-0.55607 0.28314,-1.98596 0.29095,-3.17754 0.008,-1.19158 0.14783,-2.75146 0.31117,-3.4664 0.16334,-0.71495 0.42425,-3.24977 0.5798,-5.63292 0.15556,-2.38316 0.32679,-4.78798 0.38052,-5.34405 0.19586,-2.02684 0.20873,-12.31564 0.0331,-26.43139 -0.14762,-11.8627 -0.10328,-15.03885 0.24817,-17.77599 0.46066,-3.58782 1.23776,-7.65053 1.59923,-8.36081 1.51997,-7.04244 5.64728,-10.68707 11.53807,-10.90293 4.4254,-0.14907 4.53804,-0.13783 6.09746,0.6088 0.87382,0.41838 2.17373,1.3277 2.88867,2.02073 1.19658,0.90272 2.28123,1.57339 2.94472,2.68842 1.33675,2.27467 1.58268,2.86354 1.96807,4.71265 0.18214,0.87383 0.43859,1.97875 0.56991,2.45538 0.76891,2.79082 1.73681,15.0169 1.74308,22.01771 0.002,2.50696 0.12566,6.70295 0.27427,9.32443 0.14861,2.62147 0.28919,6.97615 0.31242,9.67706 0.0232,2.70091 0.157,6.66562 0.29727,8.81046 0.14028,2.14485 0.4554,6.95449 0.70026,10.68811 0.24487,3.7336 0.57481,7.63331 0.73321,8.66602 0.1584,1.0327 0.42264,2.78757 0.58719,3.89971 0.16455,1.11214 0.49361,3.12699 0.73125,4.47745 0.23763,1.35045 0.56174,3.23532 0.72024,4.18858 0.66479,3.99839 0.86599,4.94106 1.84963,8.66603 1.039,3.93465 1.85486,6.19986 3.69349,10.2548 0.39622,0.87382 0.80988,2.00976 0.91924,2.52428 0.10938,0.51453 0.31886,1.00967 0.46552,1.1003 0.14664,0.0906 0.26662,0.38461 0.26661,0.65327 -2e-5,0.52498 0.82566,0.60371 2.46242,0.23481 1.67679,-0.37794 3.92107,-3.69285 5.20646,-7.69021 0.28098,-0.87382 0.76322,-2.22789 1.07164,-3.00904 0.30842,-0.78116 0.68894,-2.21105 0.8456,-3.17755 0.28597,-1.76416 0.48234,-2.87706 1.07465,-6.09028 0.55428,-3.00688 1.17876,-9.34904 1.4364,-14.58782 0.37737,-7.67325 0.0765,-37.26517 -0.47861,-47.08541 -0.0763,-1.35046 -0.17588,-4.17255 -0.22118,-6.27132 -0.0453,-2.09875 -0.20294,-5.86848 -0.35032,-8.37716 -0.14738,-2.50867 -0.27565,-5.08118 -0.28506,-5.71669 -0.0235,-1.5901 -0.31892,-6.79548 -0.52457,-9.24376 -0.0934,-1.11214 -0.23074,-2.93201 -0.30517,-4.04415 -0.0744,-1.11214 -0.25426,-2.34705 -0.39964,-2.74424 -0.14538,-0.39719 -0.33014,-1.85075 -0.41058,-3.23012 -0.0804,-1.37937 -0.2113,-2.80927 -0.29081,-3.17754 0.30326,-8.78198 -3.06745,-21.2013 6.62316,-24.44743 2.04935,-0.67767 7.30897,-1.11911 8.11927,-0.68145 0.30071,0.16243 1.1115,0.50396 1.80173,0.75896 3.82478,1.41301 6.81556,4.64509 8.4322,9.11251 0.72893,2.01431 1.63121,6.16704 2.13396,9.8215 0.47744,3.4707 0.91048,17.35409 1.16682,37.40835 0.0751,5.87846 0.26775,11.20807 0.42804,11.84358 0.1603,0.63551 0.29453,1.58067 0.29832,2.10036 0.97645,3.21811 3.33931,8.97682 6.88649,9.01257 0.84456,0.005 1.75449,0.12299 2.02207,0.26295 0.75441,0.39461 3.49553,-0.43298 4.29641,-1.29715 1.43588,-1.54931 1.53219,-1.88017 1.55241,-5.33309 0.0107,-1.81572 0.13623,-3.69128 0.27907,-4.16791 0.14285,-0.47663 0.32995,-2.2315 0.41574,-3.89971 0.0858,-1.66821 0.29418,-3.94304 0.46303,-5.05518 0.16884,-1.11214 0.41331,-2.73702 0.54327,-3.61085 0.67968,-4.57082 1.36383,-7.63454 2.70926,-12.13244 0.40395,-1.35046 0.87755,-3.04033 1.05243,-3.75528 1.46759,-3.23504 1.79773,-7.11942 3.24687,-10.11037 10.31115,-20.89062 19.19501,-30.81404 38.06866,-30.68339 8.86672,1.63724 16.34083,5.78774 20.5096,13.1897 0,0.0667 0.36784,0.94283 0.81744,1.94691 2.51366,5.61367 3.13334,8.14875 3.947,16.14741 0.97345,9.56923 0.23669,21.60696 -1.88146,30.74151 -0.33156,1.4299 -0.6739,2.92479 -0.76073,3.32198 -0.98368,4.49965 -3.54172,11.47134 -5.82949,15.88772 -3.99995,7.72159 -8.74576,13.66445 -13.62482,17.06144 -0.55607,0.38715 -1.07603,0.77517 -1.15547,0.86227 -0.75524,0.828 -7.35937,4.3191 -8.17051,4.3191 -0.25377,0 -0.53218,0.11447 -0.61863,0.25437 -0.0865,0.1399 -0.45162,0.32193 -0.81143,0.40449 -0.35985,0.0826 -1.36918,0.34076 -2.243,0.57378 -0.87383,0.23302 -2.82368,0.65175 -4.33302,0.93048 -1.50933,0.27875 -2.92657,0.55957 -3.14943,0.62404 -0.33466,0.0968 -0.3714,0.80736 -0.21099,4.0813 0.354,7.22477 2.62985,17.15801 5.56376,24.28371 0.56635,1.3755 1.07933,2.8552 1.13993,3.28824 1.6322,3.97523 3.94723,6.32381 6.47823,9.44454 3.16783,2.3936 6.22602,2.59777 9.56562,2.0509 l 2.77859,-1.47116 c 3.7972,-2.01048 8.47321,-5.40259 9.7438,-7.06842 0.96894,-1.27035 1.79129,-2.08999 3.07106,-3.06087 0.55243,-0.4191 1.38969,-1.32871 1.86054,-2.02136 0.47086,-0.69265 1.08866,-1.45466 1.37284,-1.69337 0.53178,-0.44663 1.03617,-1.23296 1.76077,-2.74496 0.22841,-0.47663 0.97935,-1.47521 1.6687,-2.2191 0.68938,-0.74387 1.63337,-2.23876 2.09779,-3.32197 0.46438,-1.08321 1.14683,-2.63197 1.51655,-3.44169 0.36969,-0.80971 0.67185,-1.65465 0.67139,-1.87764 0,-0.35924 0.38304,-1.24952 1.60662,-3.72741 0.72798,-1.47421 1.20822,-3.66117 1.11096,-5.05913 -0.99559,-14.30852 -1.05148,-15.63502 -1.04053,-24.69423 0.022,-18.16586 0.6143,-24.96337 3.3586,-38.53939 0.25421,-1.25757 0.57393,-2.42749 0.7105,-2.59981 0.13655,-0.17232 0.32064,-0.70327 0.40907,-1.17991 0.27737,-1.49507 1.0719,-4.59658 1.33205,-5.19961 0.13707,-0.31776 0.78234,-2.20262 1.43397,-4.18858 5.78047,-18.02305 17.80011,-34.92355 36.81682,-36.40341 5.78732,-0.19572 12.66501,1.18013 17.0377,5.7326 0.72422,0.81467 3.58239,5.57301 4.54186,7.5614 1.33073,2.75769 1.89685,4.37857 2.84832,8.15486 1.29439,5.13742 1.57875,8.92452 1.38238,18.41197 -0.17381,8.39872 -0.51736,11.96712 -1.64175,17.05218 -0.33376,1.50933 -0.80816,3.65417 -1.05425,4.76631 -0.24609,1.11214 -0.56246,2.41205 -0.70299,2.88868 -0.14053,0.47663 -0.60105,2.03652 -1.02337,3.46641 -2.0286,6.86884 -6.04958,14.87547 -10.26038,20.43074 -6.06235,7.99801 -14.36293,13.19198 -23.93386,14.97629 -4.0607,0.75704 -4.0404,0.74738 -4.07737,1.94024 -0.14059,4.53585 0.85681,12.00151 2.47802,18.54861 0.38113,1.53911 1.36695,4.86083 1.58603,5.34405 0.14406,0.31775 0.41525,1.0977 0.60266,1.73321 0.58872,1.99653 3.35147,7.43382 4.73122,9.31143 2.60767,5.2581 10.57634,8.44707 15.20484,4.5259 0.40589,-0.38162 0.86576,-0.69386 1.02195,-0.69386 0.1562,0 0.73405,-0.38468 1.28411,-0.85485 0.55006,-0.47018 1.15373,-0.86015 1.3415,-0.86661 0.50425,-0.0173 6.0889,-4.90029 7.6567,-6.69467 2.00263,-2.29206 6.30086,-7.95648 6.30086,-8.30362 0,-0.16551 0.24641,-0.53347 0.54758,-0.8177 0.55078,-0.51978 1.29375,-1.67762 2.27792,-3.54988 0.29231,-0.55607 0.67341,-1.27102 0.84691,-1.58878 0.17349,-0.31775 0.47683,-1.16269 0.67413,-1.87764 0.19726,-0.71494 0.71237,-2.14484 1.14466,-3.17754 1.38244,-3.30258 1.41482,-3.56986 1.45208,-11.988 0.0196,-4.44856 0.0744,-9.12821 0.12167,-10.39923 0.0472,-1.27102 0.16882,-6.27565 0.27024,-11.12141 0.21772,-10.40244 0.38806,-14.85673 0.93339,-24.40931 0.0998,-1.74765 0.21318,-3.95749 0.25201,-4.91075 0.0388,-0.95326 0.15679,-3.87805 0.26212,-6.49952 0.10529,-2.62148 0.25651,-4.95085 0.33598,-5.17638 0.0795,-0.22554 0.20726,-1.85042 0.28393,-3.61085 0.0766,-1.76043 0.26694,-5.02064 0.42287,-7.24493 0.3367,-4.80371 0.46716,-7.02357 0.87417,-14.87668 0.16881,-3.25698 0.43905,-7.0267 0.60056,-8.37716 0.97004,-8.11119 1.14495,-7.51056 -2.18699,-7.51056 -5.07069,0.43958 -8.59042,-0.69225 -15.22133,-1.68907 -0.738,-0.50091 -1.45182,-0.91074 -1.58629,-0.91074 -0.48446,0 -3.45463,-2.18607 -4.72692,-3.47909 -1.09472,-1.11256 -2.3848,-3.27952 -3.51794,-5.90911 -0.13692,-0.31776 -0.21382,-2.40698 -0.17092,-4.64274 0.0602,-3.13788 0.17684,-4.16877 0.51132,-4.51997 0.23832,-0.25024 0.88827,-1.04129 1.44434,-1.75791 0.63796,-0.82216 1.3175,-1.36608 1.84153,-1.47404 1.57823,-0.32512 8.4243,-0.16476 11.59081,0.27149 4.60667,-0.0505 9.25592,1.87157 13.14301,-0.79184 l 1.224,-5.61035 c 0.34241,-7.80403 2.24995,-21.72737 7.22353,-25.411252 0.63299,-0.571871 1.68866,-1.283968 2.34595,-1.582426 1.25152,-0.568309 2.93042,-0.730354 3.19144,-0.308049 0.0841,0.136009 0.80793,0.184346 1.60864,0.107411 1.58394,-0.152205 4.62245,0.344311 5.77946,0.944404 2.07892,1.078247 4.33795,4.155902 5.19392,7.076092 1.23679,4.21936 1.35112,7.47209 0.77691,22.10033 l -0.0454,1.15547 3.38391,0.19871 c 8.37069,0.49154 16.79491,1.94813 19.48684,3.3694 0.29014,0.15318 1.28751,0.64794 2.21639,1.09945 2.05749,1.00011 4.86283,3.61505 5.54305,5.16686 0.37493,0.85533 0.5057,1.97765 0.52014,4.46452 0.0182,3.11216 -0.0319,3.41589 -0.79075,4.80875 -1.99469,3.66104 -3.67457,4.70698 -8.993,5.59925 -5.78266,0.97015 -8.26161,1.03712 -11.10366,0.29995 -2.76351,-0.7168 -9.59439,-1.13331 -11.26887,-0.68711 -0.90257,0.24051 -1.02823,0.39851 -1.22264,1.53734 -0.23944,1.40268 -1.00742,9.76333 -1.39271,15.16208 -0.33469,4.68978 -0.74765,9.91757 -1.28928,16.32102 -0.24863,2.93923 -0.57568,7.22891 -0.72682,9.53263 -0.15113,2.30372 -0.40548,5.74847 -0.56522,7.65499 -0.27108,3.23556 -0.50417,6.70915 -1.58933,23.68715 -0.82341,12.88295 -1.15278,23.24829 -1.15197,36.25289 0,12.16072 0.0487,13.44586 0.64117,17.18762 0.93469,5.90314 2.6932,12.3373 4.17321,15.26947 0.51647,1.02319 0.63823,1.10053 1.47955,0.93958 0.65027,-0.1244 1.54657,-0.83766 3.08329,-2.45364 4.63747,-5.07563 7.6299,-10.75156 9.94981,-16.06635 0.20727,-0.47663 0.71816,-1.56105 1.13531,-2.40981 0.41716,-0.84877 0.75845,-1.71135 0.75845,-1.91684 0,-0.20549 0.19418,-0.74595 0.43151,-1.20102 0.23737,-0.45509 0.43235,-1.06774 0.43331,-1.36149 0,-0.29374 0.1754,-0.9437 0.38757,-1.44434 0.63129,-1.48961 1.10093,-2.86889 1.34271,-3.94337 0.12514,-0.55607 0.64733,-1.79098 1.16044,-2.74425 0.51309,-0.95326 1.16134,-2.44191 1.44053,-3.30811 0.42879,-1.33037 0.6529,-1.62383 1.44335,-1.88997 0.51465,-0.17328 1.08369,-0.51587 1.26452,-0.76129 0.24074,-0.32673 1.12439,-0.49804 3.29994,-0.63974 3.42672,-0.22319 3.87498,-0.0756 5.71562,1.88185 2.0652,2.19624 2.62664,4.70369 2.1596,9.64491 -0.23652,2.50251 -0.67135,4.00368 -2.75626,9.51574 -0.42064,1.11214 -0.90337,2.41204 -1.07271,2.88867 -0.1693,0.47663 -0.4201,0.9901 -0.55731,1.14103 -0.13718,0.15093 -0.24944,0.43572 -0.24944,0.63285 0,0.19713 -0.51996,1.47874 -1.15547,2.848 -0.6355,1.36928 -1.15547,2.60078 -1.15547,2.73669 0,0.45725 -5.09513,10.23845 -6.6248,12.71773 -2.27657,3.68982 -4.48063,6.52941 -7.07393,9.11363 -5.38614,5.36725 -10.36807,7.43831 -17.93227,7.45472 -12.00086,0.21346 -15.59805,-6.08281 -19.05283,-16.13505 -1.01009,-2.9874 -1.55891,-3.31645 -2.64996,-1.58877 -0.35118,0.55607 -0.90881,1.2847 -1.23921,1.61917 -0.33038,0.33448 -0.6007,0.69713 -0.6007,0.8059 0,0.36042 -7.32367,7.51172 -9.8215,9.59036 -5.4538,4.53849 -11.47362,7.64074 -17.31707,8.92418 -1.54454,0.67718 0.0285,1.97241 0.0713,2.22209 -0.44974,0.0866 1.29927,1.09845 2.9468,1.70478 1.1659,0.42908 1.46386,0.57063 2.43068,1.15478 14.2274,5.37418 29.08138,21.34147 35.09987,33.39428 0.91811,2.03614 1.84456,4.09201 2.05879,4.56864 0.41319,0.91932 1.48694,4.15016 2.25608,6.78839 0.43027,1.4758 0.98423,4.32614 1.65617,8.5216 0.15266,0.95326 0.35839,4.73589 0.45719,8.40584 0.27428,10.19013 -0.36868,15.19239 -2.92964,22.79186 -2.05067,6.08526 -4.12679,9.96359 -8.67692,16.20909 -2.00939,2.75807 -7.84397,8.19687 -11.20289,10.44294 -4.29991,2.87527 -6.3126,3.79395 -12.77217,5.82981 -0.86507,0.27266 -3.78604,0.83878 -7.39943,1.43414 -5.69864,0.9389 -17.34026,-0.55971 -20.33186,-2.61732 -0.63551,-0.43711 -1.95116,-1.13582 -2.92363,-1.55269 -1.07277,-0.45988 -1.91566,-1.03351 -2.14311,-1.45855 -0.20622,-0.38532 -0.46308,-0.70056 -0.5708,-0.70056 -0.10772,0 -0.50821,-0.27373 -0.89,-0.6083 -0.38177,-0.33454 -1.24182,-0.98743 -1.91115,-1.45086 -1.60732,-1.11278 -2.69774,-2.16539 -3.70222,-3.57376 -0.45326,-0.63551 -1.17211,-1.54544 -1.59741,-2.02207 -0.67574,-0.7573 -1.25853,-1.72581 -2.86796,-4.76632 -0.21027,-0.39719 -0.49469,-0.91715 -0.63204,-1.15547 -0.13739,-0.23832 -0.44443,-0.88827 -0.68234,-1.44434 -0.23791,-0.55607 -0.61367,-1.40101 -0.83503,-1.87764 -0.22136,-0.47663 -0.48784,-1.19158 -0.59218,-1.58877 -0.10433,-0.39719 -0.31957,-1.17713 -0.47827,-1.7332 -0.97173,-3.40448 -1.69439,-9.19816 -1.85566,-14.87669 -0.22792,-8.02607 1.14149,-14.97377 4.15637,-21.08733 1.53744,-3.11761 2.76758,-4.90625 4.96679,-7.2217 0.9054,-0.95326 1.72622,-1.96363 1.82403,-2.24528 0.21841,-0.62886 -0.73156,-1.65443 -1.53247,-1.65443 -0.31236,0 -1.0442,-0.22711 -1.6263,-0.50471 -4.60696,-0.43424 -6.83824,-1.02541 -11.01374,-0.98717 -5.92271,0.075 -11.18802,0.82694 -15.40803,2.20036 -6.13133,1.99547 -11.47925,4.71201 -15.94133,8.09756 -2.06471,1.56659 -7.31841,6.84198 -8.89565,8.9324 -3.72119,4.93192 -6.52364,9.67793 -8.62984,14.61474 -0.50835,1.19158 -1.04148,2.42648 -1.18476,2.74424 -0.70986,1.57447 -2.8831,7.43305 -2.8831,7.77227 0,0.2133 -0.20819,0.95662 -0.46265,1.65183 -0.54862,1.49897 -1.22549,3.75612 -1.54845,5.16371 -0.12756,0.55607 -0.7018,2.81158 -1.27607,5.01223 -0.57427,2.20068 -1.19111,4.86549 -1.37079,5.92179 -0.17968,1.05633 -0.42726,2.44056 -0.55024,3.07606 -0.40502,2.09349 -1.37102,8.0439 -1.71165,10.54367 -0.18404,1.35046 -0.45508,3.30032 -0.60235,4.33302 -0.14726,1.0327 -0.47706,4.08632 -0.73288,6.78579 -0.25583,2.69949 -0.58294,5.12826 -0.72691,5.39729 -0.14397,0.26902 -0.26247,0.92013 -0.2633,1.44693 0,0.52678 -0.24075,1.34777 -0.53314,1.82441 -1.08715,1.7722 0.55506,3.59478 1.86591,2.0708 0.35361,-0.41109 1.33616,-1.21064 2.18344,-1.77677 0.84728,-0.56612 2.25545,-1.5541 3.12927,-2.19551 0.87383,-0.64137 2.13407,-1.42931 2.80052,-1.75094 0.66647,-0.32165 1.55061,-0.89884 1.96473,-1.28266 0.41415,-0.38382 0.86039,-0.69784 0.99162,-0.69784 0.13124,0 0.39119,-0.18384 0.57768,-0.40855 0.18647,-0.22468 1.66477,-1.07103 3.28512,-1.88079 1.62035,-0.80972 3.14106,-1.59622 3.37938,-1.74773 0.82783,-0.52632 5.95026,-2.89576 6.26025,-2.89576 0.1715,0 1.07542,-0.33916 2.00876,-0.75371 2.21191,-0.98244 6.79861,-2.64701 8.62974,-3.13182 0.79439,-0.21032 2.28928,-0.64585 3.32198,-0.96782 1.0327,-0.32197 3.43752,-0.92885 5.34405,-1.34861 1.90653,-0.41975 4.05137,-0.94176 4.76632,-1.16006 0.71494,-0.21827 1.639,-0.32934 2.05344,-0.24684 0.41444,0.0825 2.03932,-0.1102 3.61085,-0.42824 4.78887,-0.96924 15.1189,-1.29667 20.04493,-0.63537 1.19158,0.15998 3.92137,0.48267 6.06622,0.71715 2.14484,0.23447 4.74465,0.60881 5.77735,0.83188 2.73387,0.59053 10.44661,2.53891 11.1214,2.80947 0.31776,0.12739 1.0977,0.38517 1.73321,0.57282 5.7186,2.30001 12.96437,3.83182 16.82521,7.45582 -0.0401,0.23499 0.51444,0.74164 1.27714,1.16679 0.74144,0.41331 1.91135,1.23517 2.59981,1.82637 0.68849,0.59119 1.51274,1.07866 1.83174,1.08325 0.74883,0.0107 6.5419,4.98525 8.2305,7.06752 0.71495,0.8816 1.4299,1.60495 1.58877,1.60744 0.15888,0.003 1.22573,1.02455 2.3708,2.2713 5.78992,6.30414 9.8542,12.254 14.45941,21.1677 0.62736,1.21429 1.41938,2.59926 1.76006,3.07769 0.34069,0.47845 0.61942,1.18932 0.61942,1.57976 0,0.3904 0.38853,1.56673 0.86343,2.61407 1.60291,4.15954 2.46205,7.25029 3.60378,12.04131 1.88518,7.81626 3.29026,16.93319 3.31932,21.53765 0.009,1.32824 0.16073,2.23454 0.437,2.59981 0.33942,0.44873 0.42568,1.71457 0.43197,6.33807 -1.33067,8.10546 -0.1474,15.75981 -0.97671,21.52064 -0.78908,0.73382 -2.93065,16.79284 -4.09395,18.15591 -0.89763,6.22071 -3.71758,7.36091 -5.60691,13.83269 0,0.31654 -0.23338,0.88555 -0.51861,1.26443 -0.28523,0.3789 -0.77078,1.27387 -1.07903,1.98882 -0.30823,0.71495 -1.00466,2.14484 -1.54761,3.17755 -0.54299,1.0327 -1.22639,2.35684 -1.51867,2.94252 -0.2923,0.5857 -0.66436,1.14703 -0.82682,1.24744 -0.16246,0.10041 -0.48576,0.59614 -0.71847,1.10163 -0.23274,0.50549 -0.55538,1.11404 -0.717,1.35236 -0.16162,0.23832 -0.78171,1.23191 -1.37793,2.20799 -0.59622,0.97608 -1.47403,2.37871 -1.95066,3.11694 -1.0061,1.5583 -7.50897,10.07593 -8.54289,11.18969 -0.38549,0.41525 -1.67581,1.83226 -2.86739,3.14889 -3.62188,4.00203 -8.91887,9.05597 -12.85461,12.26483 -1.11214,0.90675 -2.12603,1.82824 -2.25308,2.04778 -0.12704,0.21951 -0.41215,0.39913 -0.63357,0.39913 -0.22142,0 -0.57285,0.22748 -0.78095,0.50552 -0.44818,0.59873 -2.70421,2.38316 -3.01301,2.38316 -0.11823,0 -0.48333,0.24978 -0.81131,0.55508 -0.32801,0.30531 -1.5713,1.1033 -2.76288,1.7733 -1.19158,0.67003 -2.63802,1.58846 -3.21431,2.04094 -0.57629,0.45248 -1.29124,0.92189 -1.58877,1.04313 -0.68901,0.28081 -4.53771,2.44443 -4.72955,2.65885 -0.0794,0.0888 -1.18436,0.66787 -2.45537,1.28685 -1.27102,0.61899 -2.76935,1.4147 -3.32964,1.76828 -0.56028,0.3536 -1.46831,0.74163 -2.01782,0.86232 -0.54954,0.12069 -1.26105,0.38815 -1.58112,0.59438 -0.32009,0.20619 -1.6219,0.78034 -2.89292,1.27587 -1.27102,0.49555 -2.76591,1.11251 -3.32198,1.37102 -1.98276,0.92178 -4.77981,1.87799 -5.60886,1.91748 -0.46337,0.0219 -0.89667,0.20261 -0.96288,0.4012 -0.0663,0.1986 -0.30799,0.36109 -0.53732,0.36109 -0.2293,0 -1.42088,0.3133 -2.64794,0.6962 -2.22003,0.69279 -4.54585,1.32243 -7.57506,2.05067 -0.87382,0.21009 -2.23872,0.57661 -3.03311,0.81455 -0.79438,0.23791 -2.41926,0.58444 -3.61084,0.77003 -3.37418,0.5256 -3.39371,0.53244 -4.01607,1.40647 -0.53539,0.75187 -0.70542,1.77111 -0.92218,5.52792 -0.0139,0.23831 0.0586,3.42308 0.16095,7.07725 0.40572,14.49486 1.43404,102.4391 1.11579,102.82257 -0.18909,0.22783 -0.23467,0.808 -0.11468,1.45905 0.1096,0.59443 0.26166,3.71844 0.33795,6.94227 0.0763,3.22379 0.26345,6.18953 0.41591,6.59054 0.15246,0.40098 0.2772,1.24057 0.2772,1.86574 0,1.02762 0.0711,1.13666 0.74115,1.13666 0.40765,0 1.01993,-0.1492 1.36065,-0.33153 0.92359,-0.49431 3.9888,-0.53062 4.75805,-0.0563 -2.98729,22.27356 -2.97511,18.26122 -13.55308,77.40027 -14.66114,-54.80173 -21.38241,-71.60701 -18.92038,-72.57297 0.40451,0.10153 0.80745,0.0681 0.89544,-0.0742 0.088,-0.14239 0.94812,-0.26995 1.91138,-0.28353 2.13744,-0.03 4.20992,-0.86807 4.5847,-1.8538 0.14475,-0.38076 0.20807,-3.73509 0.14071,-7.45406 -0.0674,-3.71897 -1.17957,-99.06267 -1.23694,-108.16587 l -0.10431,-16.55128 -0.64334,-0.68479 c -0.57294,-0.60986 -0.82206,-0.6676 -2.2763,-0.5275 -3.68098,0.58481 -1.94849,0.32639 -5.7407,0.3629 -1.39491,0.01 -3.83613,0.0283 -5.42491,0.042 -26.47195,0.94299 -47.49963,-14.76664 -59.8315,-20.52889 -0.33749,-0.007 -1.18242,0.19507 -1.87764,0.44916 -41.09997,6.83132 -83.34864,12.29395 -123.05181,17.88151 -1.52591,0.21417 -3.27391,0.5981 -3.88445,0.8532 -0.61055,0.2551 -1.28443,0.39694 -1.49752,0.31516 -2.23248,0.51404 -2.36412,0.52573 -3.64467,0.6778 -0.4643,1.51494 0.10704,2.73315 0.30241,4.3827 0.0926,4.39267 0.69546,8.60772 0.82949,12.25769 0.0817,2.38316 0.26854,5.11296 0.41498,6.06622 0.14646,0.95326 0.2619,4.20302 0.25654,7.22169 -0.006,3.01867 0.0792,5.7179 0.18797,5.99831 0.10874,0.28043 0.13154,0.76287 0.0507,1.07213 -0.0809,0.30926 1.55722,83.43839 1.78825,84.10899 0.24466,0.71013 0.40231,2.13211 0.37754,3.40532 -0.0234,1.20232 0.0499,3.31423 0.16285,4.69314 0.19634,2.39651 0.23251,2.49744 0.8202,2.28867 0.95816,-0.34037 3.83659,-0.18331 4.34301,0.23696 0.36947,0.30663 0.43067,0.82899 0.32298,2.7569 -4.33452,12.73121 -2.38746,20.57199 -13.93503,75.78455 z m 217.36461,-265.129 c 3.03326,-0.319 5.93196,-0.71322 8.37716,-1.13927 1.98513,-0.34586 5.58532,-1.67006 7.53188,-2.77032 0.96095,-0.54316 2.2917,-1.22859 2.95723,-1.52318 2.22552,-0.98512 8.93037,-7.15126 10.46125,-9.62073 0.43142,-0.69594 1.07722,-1.59033 1.43512,-1.98753 0.63184,-0.70122 0.92294,-1.18964 2.15212,-3.61084 0.32264,-0.63551 0.71331,-1.35046 0.86814,-1.58877 0.29791,-0.45849 1.3928,-2.85881 2.15729,-4.72937 0.25143,-0.6152 0.45713,-1.3216 0.45713,-1.5698 0,-0.24819 0.24649,-0.97975 0.54773,-1.62571 0.30126,-0.64594 0.61494,-1.49943 0.69703,-1.89662 0.0821,-0.3972 0.40338,-1.7621 0.71388,-3.03311 0.31051,-1.27102 0.71908,-3.15588 0.90791,-4.18858 0.18886,-1.03271 0.46485,-2.34362 0.61333,-2.91315 0.1485,-0.56953 0.26183,-1.86943 0.25186,-2.88867 -0.01,-1.01924 0.1037,-3.02309 0.25259,-4.45298 0.14888,-1.4299 0.27901,-2.92479 0.28915,-3.32198 0.0101,-0.3972 0.1148,-1.11214 0.23248,-1.58877 0.64432,-2.60946 0.40202,-11.87865 -0.45311,-17.33206 -0.14949,-0.95327 -0.41349,-2.83813 -0.58672,-4.18858 -0.34563,-2.6947 -0.64597,-3.98048 -1.47355,-6.30858 -0.30152,-0.84823 -0.54824,-1.913 -0.54824,-2.36612 0,-0.45312 -0.11557,-0.89529 -0.25686,-0.98258 -0.14128,-0.0873 -0.3439,-0.51748 -0.45026,-0.95589 -0.4346,-1.79142 -2.5301,-5.99213 -4.41118,-8.84282 -6.20314,-6.07789 -6.37172,-8.21412 -14.44116,-10.84724 -4.00541,-1.28578 -6.74835,-1.57436 -13.25902,-1.39494 -7.7526,0.21362 -12.14544,1.05691 -17.09195,3.2811 -0.83882,0.37718 -1.59155,0.68577 -1.67269,0.68577 -0.0812,0 -0.4998,0.23679 -0.93027,0.52618 -0.43047,0.28941 -1.91921,1.27587 -3.30826,2.19216 -3.06517,2.0219 -7.65008,6.74133 -9.96977,10.26228 -1.70282,2.58458 -4.30612,7.86699 -5.06293,10.27323 -0.24987,0.79438 -0.44474,2.15928 -0.4331,3.03311 -1.53784,6.25567 -3.8467,9.8452 -4.12526,16.32102 -0.10459,2.54204 -0.28372,5.33683 -0.39806,6.21065 -0.11187,5.3601 0.10867,10.40139 0.23823,15.48513 0.0667,2.71781 0.25293,5.18763 0.41374,5.48848 0.16084,0.30089 0.44515,1.65195 0.63181,3.00241 0.18664,1.35045 0.57537,3.17032 0.86383,4.04414 0.28846,0.87383 0.86051,2.66504 1.27122,3.98048 0.41071,1.31545 0.92452,2.74534 1.14178,3.17755 0.21729,0.4322 0.47756,1.21925 0.57837,1.74898 0.10084,0.52969 0.42579,1.30964 0.72214,1.7332 0.29632,0.42354 0.8965,1.42002 1.3337,2.2144 0.9156,1.66365 2.37244,3.40616 5.14257,6.15098 2.24187,2.22139 3.79069,3.42565 5.84425,4.54403 0.79439,0.43264 1.56783,0.90054 1.71876,1.03981 0.15094,0.13926 0.44483,0.25319 0.65311,0.25319 0.20827,0 0.92972,0.24999 1.60321,0.55552 1.6068,0.72893 3.69479,1.16628 7.57963,1.58759 3.39468,0.36816 3.58831,0.36524 8.23273,-0.1232 z m -123.4678,-14.31325 c 2.97526,-0.13718 4.54386,-0.10038 4.94839,0.1161 0.47571,0.2546 0.72147,0.20492 1.24877,-0.25242 0.36109,-0.31316 0.81722,-0.56938 1.01362,-0.56938 0.19641,0 0.64271,-0.23127 0.9918,-0.51396 l 0.63469,-0.51392 -0.64153,-1.7248 c -0.35283,-0.94861 -1.06119,-2.93102 -1.57412,-4.40535 -0.51293,-1.47429 -1.01542,-2.76336 -1.11664,-2.86458 -0.10122,-0.10122 -0.18404,-0.48126 -0.18404,-0.84448 0,-0.36325 -0.12333,-0.95904 -0.27407,-1.32396 -0.15074,-0.36496 -0.61289,-1.83348 -1.02699,-3.26337 -0.41411,-1.4299 -1.0036,-3.44741 -1.30999,-4.48331 -0.30639,-1.03594 -0.80652,-3.07523 -1.1114,-4.53176 -0.30488,-1.45656 -0.63986,-2.78665 -0.7444,-2.95581 -0.16632,-0.26911 -0.44845,-1.57537 -0.8772,-4.06127 -0.0685,-0.3972 -0.26346,-1.43712 -0.43323,-2.31095 -0.3394,-1.74681 -1.02596,-5.81822 -1.43699,-8.52159 -0.14494,-0.95326 -0.4198,-2.57814 -0.61079,-3.61085 -0.19099,-1.0327 -0.37128,-2.3326 -0.40066,-2.88867 -0.0929,-1.75814 -0.74964,-7.59635 -1.02362,-9.09933 -0.25628,-1.40586 -0.62468,-5.61053 -0.72133,-8.23273 -0.0264,-0.71495 -0.13567,-2.59981 -0.24293,-4.18858 -0.25499,-3.777 -0.47547,-7.63783 -0.75059,-13.14348 -0.29917,-5.98692 -0.29684,-30.3562 0.003,-30.92856 0.13051,-0.24918 0.29554,-1.83001 0.36673,-3.51298 0.0712,-1.68294 0.21922,-3.20516 0.32894,-3.3827 0.10972,-0.17754 0.2519,-1.52149 0.31596,-2.98657 0.10768,-2.46271 0.48173,-5.8091 1.29866,-11.61866 0.17873,-1.27102 0.3685,-2.76591 0.42172,-3.32198 0.0532,-0.55607 0.24065,-1.72599 0.41651,-2.59981 0.17586,-0.87382 0.38173,-2.23872 0.45747,-3.03311 7.19598,-51.00762 43.00478,-116.29272 87.48143,-128.80942 1.35086,-0.25342 2.05065,-0.62485 3.28434,-1.7432 1.43625,-1.30198 1.34552,-1.48504 -1.22768,-2.4766 -6.14866,-1.59921 -10.2538,-6.88939 -14.58782,-10.46421 -0.23832,-0.0875 -0.74993,-0.78984 -1.13695,-1.56077 -0.38699,-0.77093 -1.24949,-2.24662 -1.91669,-3.27932 -6.10159,-10.28531 -9.00972,-19.60403 -10.82479,-31.631 -0.13964,-0.95327 -0.37978,-2.57815 -0.53363,-3.61085 -0.65677,-4.40806 -0.90008,-7.07289 -1.06817,-11.69914 -0.0981,-2.70091 -0.30314,-5.14497 -0.45558,-5.43124 -0.23199,-0.43571 -0.49766,-0.48859 -1.63106,-0.32465 -0.74467,0.10772 -1.50231,0.31364 -1.68366,0.45761 -0.46159,0.36646 -10.3932,0.33485 -12.05864,-0.0384 -0.75374,-0.16892 -1.47539,-0.24227 -1.60368,-0.16299 -0.12825,0.0792 -0.25645,1.39066 -0.28485,2.91418 -0.0283,1.52352 -0.17497,3.09445 -0.32573,3.49095 -0.15073,0.3965 -0.2739,1.2649 -0.2737,1.92979 0,1.84462 -1.63536,14.26004 -2.31937,17.60212 -3.64391,17.80462 -9.75352,30.75493 -17.70796,37.53482 -2.17574,1.85447 -4.66914,3.25337 -7.27103,4.07936 -4.16879,1.32342 -12.33452,1.37498 -16.60989,0.10486 -7.28372,-3.48609 -12.44702,-7.61259 -16.22215,-14.92657 -0.1993,-0.39719 -0.71232,-1.17916 -1.14006,-1.73769 -0.42774,-0.55854 -0.92874,-1.53347 -1.11333,-2.16651 -0.43754,-1.50046 -1.25266,-2.86463 -1.76857,-2.95984 -0.22546,-0.0416 -0.72909,0.39535 -1.11918,0.97102 -0.66196,0.97689 -0.71438,1.32855 -0.78638,5.27526 -0.0425,2.32573 0.0423,6.43844 0.18823,9.13936 0.14595,2.70091 0.33952,7.38056 0.43014,10.39923 0.0906,3.01867 0.22073,6.91838 0.28915,8.66603 0.0684,1.74765 0.20176,5.90734 0.29635,9.24376 0.0946,3.33642 0.35579,10.74588 0.58047,16.46546 0.22469,5.71958 0.48217,13.38901 0.5722,17.04319 0.09,3.65417 0.2273,7.68388 0.30504,8.9549 0.0777,1.27101 0.26843,5.75568 0.42379,9.96593 0.15534,4.21024 0.35049,9.27987 0.43365,11.26584 0.0832,1.98596 0.28898,7.77054 0.45735,12.8546 0.16837,5.08407 0.49602,12.88349 0.72811,17.33205 0.48464,9.28964 0.49637,9.66003 0.36123,11.41028 -0.0552,0.71494 -0.004,3.70472 0.11469,6.64395 0.11828,2.93923 0.29108,7.22891 0.384,9.53263 0.0929,2.30372 0.22754,5.03352 0.29915,6.06622 0.0716,1.0327 0.18608,5.1924 0.25439,9.24377 1.51516,30.37614 0.52138,21.9563 1.97105,70.4837 -0.16794,7.07471 0.0631,14.4545 0.52704,16.83864 -0.14145,9.25369 0.1488,15.66134 1.39229,25.76933 0.0405,10.74192 8.07959,7.31677 16.93071,6.91636 z M 483.41513,315.66576 c 3.57892,-0.60247 16.60789,-0.67202 17.99836,-0.0961 1.18306,0.49004 3.02126,-0.0314 3.25447,-0.92317 0.12987,-0.4967 -0.36383,-1.15988 -2.4355,-3.27147 -4.75568,-3.43398 -5.56429,-8.67256 -8.6712,-12.9847 -2.07465,1.39231 -3.05469,3.34176 -4.52153,5.35185 -0.64334,0.8871 -1.71813,2.252 -2.38845,3.03311 -2.04564,2.38376 -7.16091,7.58485 -7.31153,7.43423 -0.078,-0.078 -0.27953,0.11574 -0.44794,0.43041 -0.3188,0.59568 -0.0892,0.95046 0.83714,1.29339 0.65289,0.24171 0.66682,0.2407 3.68618,-0.26758 z M 256.89925,256.76927 c 0.34546,-0.52722 0.37511,-0.89805 0.14187,-1.77373 -0.16219,-0.60894 -0.31563,-3.90194 -0.34097,-7.3178 -0.0253,-3.41586 -0.0631,-7.6246 -0.0838,-9.35276 0.0444,-5.19428 0.39974,-9.44024 0.79712,-14.90069 0.0979,-1.34417 0.37211,-3.55401 0.60945,-4.91075 0.53039,-3.03199 0.55643,-4.8319 0.0723,-4.99767 -1.99142,1.98332 -3.96638,3.47562 -6.75368,4.83379 -1.25039,0.60431 -2.61111,1.27145 -3.02382,1.48254 -2.16107,1.10529 -6.22649,2.31018 -9.12097,2.70321 -1.08472,0.1473 -2.81716,0.41362 -3.84986,0.59184 -3.08643,0.53262 -13.5998,0.43062 -16.17658,-0.15695 -1.19158,-0.2717 -2.84958,-0.59712 -3.68443,-0.72317 -2.50524,-0.3782 -7.54249,-2.44513 -9.45905,-3.8813 -0.47663,-0.35717 -1.58155,-1.00404 -2.45538,-1.43749 -3.50852,-1.7404 -4.88172,-2.52133 -5.61378,-3.19255 -0.34657,-0.31775 -1.77217,-1.35768 -3.168,-2.31094 -3.61031,-2.4656 -4.54167,-3.22757 -5.13241,-4.19897 -0.28639,-0.47092 -0.63865,-0.85621 -0.78282,-0.85621 -0.35146,0 -4.65712,-4.18192 -4.65712,-4.52327 0,-0.14774 -0.51996,-0.82622 -1.15547,-1.50774 -0.63551,-0.68152 -1.15547,-1.36377 -1.15547,-1.51611 0,-0.15234 -0.55246,-1.00432 -1.22769,-1.89328 -1.27821,-1.68281 -1.82707,-2.53255 -3.04489,-4.71412 -0.39911,-0.71494 -0.8316,-1.36987 -0.96108,-1.4554 -0.12949,-0.0855 -0.44878,-0.99545 -0.70952,-2.02207 -0.26074,-1.02662 -0.6175,-2.04293 -0.7928,-2.25847 -0.33683,-0.41416 -0.95617,-1.43403 -1.1654,-1.91905 -0.49629,-1.1505 -2.77862,-8.89371 -2.89491,-9.8215 -0.0796,-0.63551 -0.35072,-2.32538 -0.60236,-3.75528 -1.53163,-8.70325 -2.2965,-25.71118 -1.34453,-29.8978 1.0259,-7.73752 2.50004,-12.64516 5.94214,-19.643 2.40727,-3.76845 6.0146,-11.44899 9.73325,-12.5753 0.42615,-0.0936 0.84658,-0.35722 0.9343,-0.58582 0.0877,-0.22861 0.45606,-0.41851 0.81853,-0.422 0.36245,-0.004 1.22566,-0.26347 1.91824,-0.57773 1.00452,-0.45582 1.88099,-0.57052 4.33302,-0.56704 4.72864,0.007 6.73206,0.99336 9.75964,4.80655 1.22134,1.53826 1.88088,3.54108 2.0547,6.23954 0.17686,2.74587 -0.26026,4.51178 -1.56454,6.32031 -3.26955,4.72443 -7.40312,9.06589 -8.47244,14.94045 -0.15854,0.89691 -0.42664,2.28069 -0.59577,3.07508 -0.49048,2.30366 -0.58896,3.69649 -0.68419,9.67707 -0.11394,7.15496 0.24794,13.30176 1.00667,17.099 0.3272,1.63752 0.64032,3.43493 0.69582,3.99425 0.28213,2.8431 4.43293,11.69483 7.4946,15.9825 2.03122,2.8446 6.51667,7.56755 7.47055,7.86612 0.35255,0.11035 1.16095,0.54532 1.79646,0.96664 2.18281,1.44707 4.53887,2.37854 8.62091,3.4083 3.49599,0.88192 4.55027,1.02956 7.26681,1.01767 4.81525,0.15127 7.16209,-1.25748 10.79337,-3.24906 0.17091,0 0.60519,-0.39827 0.96507,-0.88504 0.35989,-0.48678 1.07873,-1.14734 1.59742,-1.4679 0.5187,-0.32057 0.94309,-0.70986 0.94309,-0.86507 0,-0.15521 0.45036,-0.76207 1.00081,-1.34856 1.28494,-1.36909 3.5113,-4.38071 3.90363,-5.28048 0.16706,-0.38315 0.56038,-1.08659 0.87402,-1.56322 0.31364,-0.47663 0.65962,-1.06159 0.76883,-1.29991 0.10921,-0.23831 0.484,-0.82327 0.83286,-1.2999 0.34887,-0.47663 0.70638,-1.19158 0.79447,-1.58877 0.39934,-1.8005 0.89055,-3.35472 1.17466,-3.71662 1.73351,-6.10358 4.24819,-11.70276 4.68117,-17.53751 0.0764,-1.17985 0.26545,-2.4784 0.4203,-2.88564 0.15483,-0.40725 0.28152,-1.48302 0.28152,-2.39059 0,-0.95532 0.17212,-1.89588 0.4088,-2.23378 -0.25597,-4.2438 0.8918,-8.86033 0.86833,-12.65879 -0.0607,-5.46945 -0.37595,-14.52085 -0.51918,-14.90626 -0.0886,-0.23832 -0.22311,-1.73321 -0.29895,-3.32198 -0.15607,-3.26912 -0.29142,-4.54655 -0.52266,-4.93288 -0.0878,-0.14671 -0.25555,-1.23859 -0.37276,-2.42642 -0.1172,-1.18782 -0.39193,-2.66655 -0.61051,-3.28608 -0.21857,-0.61951 -0.39741,-1.49235 -0.39741,-1.93963 0,-0.44728 -0.1198,-0.88727 -0.2662,-0.97776 -0.14642,-0.0905 -0.35684,-1.0109 -0.46762,-2.04536 -0.11078,-1.03446 -0.44597,-2.36048 -0.74485,-2.94671 -0.29887,-0.58624 -0.5442,-1.33087 -0.54519,-1.65475 -8.6e-4,-0.32389 -0.19561,-0.96053 -0.43253,-1.41479 -0.23691,-0.45425 -0.61484,-1.49418 -0.83985,-2.31094 -0.39377,-1.429307 -0.86957,-2.866857 -1.35203,-4.084838 -0.12586,-0.317755 -0.30976,-0.991221 -0.40866,-1.496595 -0.0989,-0.505374 -0.36646,-1.073749 -0.59456,-1.263064 -0.2281,-0.189304 -0.41473,-0.514377 -0.41473,-0.72239 0,-0.208004 -0.56523,-1.539511 -1.25607,-2.9589 -0.69082,-1.41939 -1.33707,-2.825665 -1.43609,-3.125067 -0.099,-0.299392 -0.68529,-1.339546 -1.30282,-2.311461 -0.61753,-0.971904 -1.20138,-2.080309 -1.29746,-2.463116 -0.0961,-0.382808 -0.63447,-1.233157 -1.19641,-1.889657 -0.56194,-0.656509 -1.02171,-1.326191 -1.02171,-1.488178 0,-0.161997 -0.16249,-0.466656 -0.36108,-0.677029 -0.1986,-0.210373 -0.84281,-1.032095 -1.43158,-1.826057 -0.58876,-0.793953 -1.49869,-2.018116 -2.02207,-2.720354 -1.16271,-1.560068 -9.21872,-9.668341 -10.28981,-10.356588 -0.42468,-0.272874 -1.00906,-0.789273 -1.29863,-1.147555 -0.28956,-0.358273 -0.65703,-0.651406 -0.8166,-0.651406 -0.15957,0 -0.66685,-0.376732 -1.1273,-0.837168 -0.46045,-0.460445 -1.45787,-1.148441 -2.2165,-1.52887 -0.75863,-0.380439 -2.15928,-1.095078 -3.11254,-1.588108 -2.85778,-1.47802 -4.27103,-2.063949 -5.48848,-2.275497 -0.63551,-0.110424 -1.28547,-0.296262 -1.44434,-0.412965 -0.15888,-0.116702 -0.80883,-0.294173 -1.44434,-0.394381 -0.63551,-0.100199 -1.80542,-0.335751 -2.59981,-0.523428 -0.79439,-0.187687 -3.06922,-0.36096 -5.05518,-0.385051 -1.98597,-0.02407 -4.66245,-0.148026 -5.94774,-0.275416 -1.67094,-0.165618 -2.65434,-0.126852 -3.45089,0.136027 -0.61271,0.202217 -2.1488,0.406967 -3.41355,0.455015 -1.43106,0.0544 -2.38304,0.222447 -2.52062,0.445058 -10.14466,3.575398 -18.40946,8.445548 -26.48079,15.812315 -0.67523,0.619515 -1.22769,1.221823 -1.22769,1.338468 -8.23929,7.892175 -13.09136,17.944461 -16.19499,27.875688 -1.01567,3.260698 -1.09592,3.569618 -1.42594,5.488488 -0.1776,1.0327 -0.43633,2.26761 -0.57496,2.74424 -0.93071,3.20018 -1.44749,9.25135 -1.45802,17.07245 -0.008,5.98238 0.13335,8.54157 0.90812,16.4362 0.35549,3.62216 1.57964,10.47372 1.95616,10.94855 0.25312,0.31921 0.51092,1.41673 0.80435,3.42442 0.0872,0.59678 0.27485,1.15692 0.41694,1.24473 0.1421,0.0878 0.25836,0.41375 0.25836,0.72428 0,0.31053 0.11773,0.79033 0.26162,1.06621 1.65695,4.12829 3.05486,7.15806 4.5048,11.33413 3.15944,7.29663 5.59036,12.00875 10.39957,18.05423 7.11926,6.20115 8.19464,13.34892 20.04893,19.78751 0.14721,0 0.31098,0.0981 0.36394,0.21809 0.16305,0.3693 3.91478,3.24832 4.23298,3.24832 0.16472,0 0.47127,0.16271 0.68121,0.3616 0.46648,0.44189 2.76683,1.94935 2.97466,1.94935 6.06498,3.71497 12.48849,8.45021 18.34996,11.86209 1.19158,0.68341 2.73147,1.69272 3.42198,2.24291 0.69051,0.55018 1.92542,1.32947 2.74424,1.73176 0.81883,0.40228 2.2755,1.26076 3.23707,1.90774 2.65152,1.78405 2.80498,1.87851 3.78593,2.33042 0.5018,0.23117 0.95677,0.52532 1.01104,0.65367 7.41322,4.8652 17.34122,9.95698 23.98173,16.03787 0.29832,0.28248 1.15622,0.97968 1.90645,1.54936 0.75024,0.56968 2.53398,2.13186 3.96387,3.47153 1.4299,1.33966 2.84031,2.6595 3.13427,2.93296 0.77274,0.71888 2.67631,0.49243 3.25249,-0.38693 z m 178.74954,-14.758 c 0.46132,-0.21986 1.07112,-0.39975 1.35507,-0.39975 0.28399,0 0.59782,-0.13185 0.69739,-0.293 0.0996,-0.16115 0.66416,-0.53944 1.25458,-0.84065 0.59042,-0.30121 1.71902,-1.14291 2.50801,-1.87043 0.78895,-0.72752 1.5143,-1.32416 1.61185,-1.32585 0.0976,-0.002 0.54942,-0.55554 1.00419,-1.23077 0.45473,-0.67523 1.20556,-1.58049 1.66847,-2.01171 3.67478,-4.62071 6.45066,-11.60466 7.81644,-18.28124 0.78962,-4.01439 1.0578,-5.44415 1.32743,-7.07726 1.35511,-8.20767 1.04362,-24.83611 -0.51678,-27.58686 -0.18025,-0.31775 -0.54111,-1.05951 -0.80193,-1.64834 -0.2687,-0.60661 -0.90378,-1.32405 -1.46542,-1.65543 -0.9652,-0.56947 -1.04458,-0.57203 -3.02144,-0.0976 -1.96072,0.47057 -2.06725,0.54209 -3.11154,2.08874 -3.45067,5.1106 -6.60499,13.01165 -8.82739,22.11108 -1.33639,5.4717 -1.58412,6.6556 -2.17616,10.39923 -0.32662,2.06541 -0.71959,4.40524 -0.87327,5.19962 -0.51055,2.6391 -1.58652,14.11174 -1.89333,20.18769 -0.18375,3.63865 -0.1728,3.73698 0.4864,4.37901 0.7222,0.70339 1.40661,0.69263 2.95743,-0.0465 z m 78.67191,-2.82422 c 0.75475,-0.38019 1.8716,-0.92701 2.48192,-1.21517 1.97877,-0.93427 6.25647,-4.57481 6.25647,-5.32458 0,-0.14137 0.23557,-0.48959 0.52346,-0.77381 4.20825,-5.0658 6.37742,-10.85994 8.01287,-16.69336 0.26506,-0.95326 0.65954,-2.31816 0.8766,-3.03311 0.21708,-0.71495 0.38607,-1.55988 0.37552,-1.87764 -0.0107,-0.31775 0.12739,-1.40255 0.30655,-2.41067 0.17913,-1.0081 0.25441,-2.05758 0.16725,-2.33218 -0.0871,-0.27459 0.024,-0.87967 0.24678,-1.34461 0.45855,-0.95653 0.82287,-7.97652 0.77966,-15.02279 -0.0214,-3.47227 -0.17355,-5.04939 -0.75057,-7.77418 -0.39811,-1.88004 -0.88078,-3.6246 -1.07262,-3.8768 -4.4023,-4.54761 -8.81032,3.08079 -10.09064,5.62515 -4.06601,8.1281 -6.61885,16.88938 -9.16941,31.4691 -0.46744,2.67212 -1.35713,9.98897 -2.06321,16.96812 -0.30328,2.99791 -0.1905,7.43969 0.20548,8.09114 0.25562,0.42057 1.55786,0.20847 2.91389,-0.47461 z"
       id="path4147"
       inkscape:connector-curvature="0"
       sodipodi:nodetypes="ccccccscsccscccccccsscccccccccsssscscssccccscsccscssssccccccsccscccsccscssscsccssssccsscscscccccssscccssscsccscssccsccccsccsssccsccccccccccccssscccccccsscccssccsccccsssscscsscscsccccsccccsssscscsscsscssssscccccccccssccccsssscscsssssscsscssssssscssssssssscscscccsccccccsccccsssssccscccscscssssssssccssssssscsscccsccccsssscccssccsscsccccsssssscsccsccsscccssssccccccsssscscccccsscsscssssscccsscsscsscsccsccccccssccsscssscccccccsssccscssccssssssssscscsccssccsccsssssscccscsssccccssccscccccsssscssccsccssccssccssscsccsssccsccssccssccscscccssccssssscsccsscccsccccssssccccccccccccscsssssscscsccsccsccccsccscccccccccscssccccccccscsccccccscccccccccscscccccssssscssccscccsccccsscsccssscsscccccccsscccssscssscccccsccsssscscscccsssscsscsssscssccccccccccscsccccssssccscscsscssscscssscsscccccccccscccssccccccccssccssscsccscsssssscssccssccccccsssccssssscsccsssscsccccccscccscsssssccsscscsccscsscsscssssssccccsccccccscsssccscccccscscccsscccsccccscsccccccsscsssssssccsssccccccccsccsscss" />
  </g>
</svg>
