<?xml version="1.0" encoding="UTF-8" standalone="no"?>
<!-- Created with Inkscape (http://www.inkscape.org/) -->

<svg
   width="505mm"
   height="200mm"
   viewBox="0 0 505 200"
   version="1.1"
   id="svg1"
   xml:space="preserve"
   inkscape:version="1.3 (0e150ed6c4, 2023-07-21)"
   sodipodi:docname="C3500 V2 500mm.svg"
   xmlns:inkscape="http://www.inkscape.org/namespaces/inkscape"
   xmlns:sodipodi="http://sodipodi.sourceforge.net/DTD/sodipodi-0.dtd"
   xmlns="http://www.w3.org/2000/svg"
   xmlns:svg="http://www.w3.org/2000/svg"><sodipodi:namedview
     id="namedview1"
     pagecolor="#ffffff"
     bordercolor="#666666"
     borderopacity="1.0"
     inkscape:showpageshadow="2"
     inkscape:pageopacity="0.0"
     inkscape:pagecheckerboard="0"
     inkscape:deskcolor="#d1d1d1"
     inkscape:document-units="mm"
     inkscape:zoom="0.49764326"
     inkscape:cx="923.3522"
     inkscape:cy="548.58575"
     inkscape:window-width="1620"
     inkscape:window-height="1028"
     inkscape:window-x="-6"
     inkscape:window-y="23"
     inkscape:window-maximized="1"
     inkscape:current-layer="layer1" /><defs
     id="defs1"><marker
       id="DistanceX"
       orient="auto"
       refX="0"
       refY="0"
       style="overflow:visible"><path
         d="M 3,-3 -3,3 M 0,-5 V 5"
         style="stroke:#000000;stroke-width:0.5"
         id="path1" /></marker><pattern
       id="Hatch"
       patternUnits="userSpaceOnUse"
       width="8"
       height="8"
       x="0"
       y="0"><path
         d="M8 4 l-4,4"
         stroke="#000000"
         stroke-width="0.25"
         linecap="square"
         id="path2" /><path
         d="M6 2 l-4,4"
         stroke="#000000"
         stroke-width="0.25"
         linecap="square"
         id="path3" /><path
         d="M4 0 l-4,4"
         stroke="#000000"
         stroke-width="0.25"
         linecap="square"
         id="path4" /></pattern><symbol
       id="*MODEL_SPACE" /><symbol
       id="*PAPER_SPACE" /><symbol
       id="*PAPER_SPACE0" /><marker
       id="DistanceX-8"
       orient="auto"
       refX="0"
       refY="0"
       style="overflow:visible"><path
         d="M 3,-3 -3,3 M 0,-5 V 5"
         style="stroke:#000000;stroke-width:0.5"
         id="path1-8" /></marker><pattern
       id="Hatch-8"
       patternUnits="userSpaceOnUse"
       width="8"
       height="8"
       x="0"
       y="0"><path
         d="M8 4 l-4,4"
         stroke="#000000"
         stroke-width="0.25"
         linecap="square"
         id="path2-2" /><path
         d="M6 2 l-4,4"
         stroke="#000000"
         stroke-width="0.25"
         linecap="square"
         id="path3-8" /><path
         d="M4 0 l-4,4"
         stroke="#000000"
         stroke-width="0.25"
         linecap="square"
         id="path4-9" /></pattern><symbol
       id="*MODEL_SPACE-0" /><symbol
       id="*PAPER_SPACE-8" /><symbol
       id="*PAPER_SPACE0-4" /></defs><g
     inkscape:label="Layer 1"
     inkscape:groupmode="layer"
     id="layer1"><path
       id="path40"
       style="fill:none;stroke:#ff0000;stroke-width:0.264583;stroke-linecap:round"
       d="M 500.13129,0.1322915 H 0.1322915 M 500.13129,101.94238 V 0.1322915 M 0.1322915,101.94238 H 500.13129 M 0.1322915,0.1322915 V 101.94238 M 340.13245,40.135711 v -20.00012 m 0,0 h -3.00037 m 0,0 v 20.00012 m 0,0 h 3.00037 m 150.00023,39.9997 v -19.99985 m 0,0 h -3.00037 m 0,0 v 19.99985 m 0,0 h 3.00037 m 0,-39.9997 v -20.00012 m 0,0 h -3.00037 m 0,0 v 20.00012 m 0,0 h 3.00037 m -150.00023,39.9997 v -19.99985 m 0,0 h -3.00037 m 0,0 v 19.99985 m 0,0 h 3.00037 M 163.13229,40.132271 v -19.99986 m 0,0 h -3.00011 m 0,0 v 19.99986 m 0,0 h 3.00011 m -149.999988,40.0005 v -20.00038 m 0,0 h -3.000005 m 0,0 v 20.00038 m 0,0 h 3.000005 m 0,-40.0005 v -19.99986 m 0,0 h -3.000005 m 0,0 v 19.99986 m 0,0 h 3.000005 m 149.999988,40.0005 v -20.00038 m 0,0 h -3.00011 m 0,0 v 20.00038 m 0,0 h 3.00011" /><path
       id="path28-0"
       style="fill:none;stroke:#ff0000;stroke-width:0.264583;stroke-linecap:round"
       d="m 110.1323,156.17822 a 3,3 0 0 0 -3,-3 m 3,13.05078 v -10.05152 m -3.94161,14.93692 a 5,5 0 0 0 3.94161,-4.8867 m -4.47775,1.93805 0.53615,2.94746 m -0.53615,-2.94746 -21.45488,3.89996 m 0,0 0.53665,2.95275 m 0,0 -19.677378,3.57716 m -0.53657,-2.95275 0.53657,2.95275 m -0.53657,-2.95275 -19.6776,3.57981 m 0,0 0.53684,2.95011 m 0,0 -19.6776,3.57717 m -0.53657,-2.95011 0.53657,2.95011 m -0.53657,-2.95011 -19.6773305,3.57717 m 0,0 0.53658,2.95275 m -5.8944,-4.92025 a 5,5 0 0 0 5.89443,4.91935 m -5.89442,-82.12312 v 77.20277 m 4.99999,-82.20156 a 5,5 0 0 0 -5,4.99999 m 5.0001,-4.99917 h 8.3677205 m 4.81292,3.6441 a 5,5 0 0 0 -4.81288,-3.64492 m 4.81288,3.64492 a 10.802827,10.802827 0 0 0 0.43427,1.24534 m 0,0 A 99.689429,99.689429 0 0 0 88.6322,161.98738 m 0,0 a 10.796031,10.796031 0 0 0 11.08419,-6.8834 m 2.80107,-1.92576 a 3,3 0 0 0 -2.80107,1.92576 m 2.80107,-1.92688 h 4.61484" /><path
       id="path28-0-1"
       style="fill:none;stroke:#ff0000;stroke-width:0.264583;stroke-linecap:round"
       d="m 43.396343,136.01069 a 3,3 0 0 0 3,3 m -3,-13.05078 v 10.05152 m 3.94161,-14.93692 a 5,5 0 0 0 -3.94161,4.8867 m 4.47775,-1.93805 -0.53615,-2.94746 m 0.53615,2.94746 21.45488,-3.89996 m 0,0 -0.53665,-2.95275 m 0,0 19.67738,-3.57716 m 0.53657,2.95275 -0.53657,-2.95275 m 0.53657,2.95275 19.677597,-3.57981 m 0,0 -0.53684,-2.95011 m 0,0 19.6776,-3.57717 m 0.53657,2.95011 -0.53657,-2.95011 m 0.53657,2.95011 19.67733,-3.57717 m 0,0 -0.53658,-2.95275 m 5.8944,4.92025 a 5,5 0 0 0 -5.89443,-4.91935 m 5.89442,82.12312 v -77.20277 m -4.99999,82.20156 a 5,5 0 0 0 5,-4.99999 m -5.0001,4.99917 h -8.36772 m -4.81292,-3.6441 a 5,5 0 0 0 4.81288,3.64492 m -4.81288,-3.64492 a 10.802827,10.802827 0 0 0 -0.43427,-1.24534 m 0,0 A 99.689429,99.689429 0 0 0 64.896443,130.20153 m 0,0 a 10.796031,10.796031 0 0 0 -11.08419,6.8834 m -2.80107,1.92576 a 3,3 0 0 0 2.80107,-1.92576 m -2.80107,1.92688 h -4.61484" /><path
       id="path28-0-0"
       style="fill:none;stroke:#ff0000;stroke-width:0.264583;stroke-linecap:round"
       d="m 264.94237,157.31486 a 3,3 0 0 0 -3,-3 m 3,13.05078 v -10.05152 m -3.94161,14.93692 a 5,5 0 0 0 3.94161,-4.8867 m -4.47775,1.93805 0.53615,2.94746 m -0.53615,-2.94746 -21.45488,3.89996 m 0,0 0.53665,2.95275 m 0,0 -19.67738,3.57716 m -0.53657,-2.95275 0.53657,2.95275 m -0.53657,-2.95275 -19.6776,3.57981 m 0,0 0.53684,2.95011 m 0,0 -19.6776,3.57717 m -0.53657,-2.95011 0.53657,2.95011 m -0.53657,-2.95011 -19.67733,3.57717 m 0,0 0.53658,2.95275 m -5.8944,-4.92025 a 5,5 0 0 0 5.89443,4.91935 m -5.89442,-82.12312 v 77.20277 m 4.99999,-82.20156 a 5,5 0 0 0 -5,4.99999 m 5.0001,-4.99917 h 8.36772 m 4.81292,3.6441 a 5,5 0 0 0 -4.81288,-3.64492 m 4.81288,3.64492 a 10.802827,10.802827 0 0 0 0.43427,1.24534 m 0,0 a 99.689429,99.689429 0 0 0 69.8849,54.89016 m 0,0 a 10.796031,10.796031 0 0 0 11.08419,-6.8834 m 2.80107,-1.92576 a 3,3 0 0 0 -2.80107,1.92576 m 2.80107,-1.92688 h 4.61484" /><path
       id="path28-0-1-9"
       style="fill:none;stroke:#ff0000;stroke-width:0.264583;stroke-linecap:round"
       d="m 198.20641,137.14733 a 3,3 0 0 0 3,3 m -3,-13.05078 v 10.05152 m 3.94161,-14.93692 a 5,5 0 0 0 -3.94161,4.8867 m 4.47775,-1.93805 -0.53615,-2.94746 m 0.53615,2.94746 21.45488,-3.89996 m 0,0 -0.53665,-2.95275 m 0,0 19.67738,-3.57716 m 0.53657,2.95275 -0.53657,-2.95275 m 0.53657,2.95275 19.6776,-3.57981 m 0,0 -0.53684,-2.95011 m 0,0 19.6776,-3.57717 m 0.53657,2.95011 -0.53657,-2.95011 m 0.53657,2.95011 19.67733,-3.57717 m 0,0 -0.53658,-2.95275 m 5.8944,4.92025 a 5,5 0 0 0 -5.89443,-4.91935 m 5.89442,82.12312 v -77.20277 m -4.99999,82.20156 a 5,5 0 0 0 5,-4.99999 m -5.0001,4.99917 h -8.36772 m -4.81292,-3.6441 a 5,5 0 0 0 4.81288,3.64492 m -4.81288,-3.64492 a 10.802827,10.802827 0 0 0 -0.43427,-1.24534 m 0,0 a 99.689429,99.689429 0 0 0 -69.8849,-54.89016 m 0,0 a 10.796031,10.796031 0 0 0 -11.08419,6.8834 m -2.80107,1.92576 a 3,3 0 0 0 2.80107,-1.92576 m -2.80107,1.92688 h -4.61484" /></g></svg>
