  0
SECTION
  2
HEADER
  9
$ACADVER
  1
AC1014
  9
$HANDSEED
  5
FFFF
  9
$MEASUREMENT
 70
     1
  0
ENDSEC
  0
SECTION
  2
TABLES
  0
TABLE
  2
VPORT
  5
8
330
0
100
AcDbSymbolTable
 70
     4
  0
VPORT
  5
2E
330
8
100
AcDbSymbolTableRecord
100
AcDbViewportTableRecord
  2
*ACTIVE
 70
     0
 10
0.0
 20
0.0
 11
1.0
 21
1.0
 12
210.0
 22
148.5
 13
0.0
 23
0.0
 14
10.0
 24
10.0
 15
10.0
 25
10.0
 16
0.0
 26
0.0
 36
1.0
 17
0.0
 27
0.0
 37
0.0
 40
341.0
 41
1.24
 42
50.0
 43
0.0
 44
0.0
 50
0.0
 51
0.0
 71
     0
 72
   100
 73
     1
 74
     3
 75
     0
 76
     0
 77
     0
 78
     0
  0
ENDTAB
  0
TABLE
  2
LTYPE
  5
5
330
0
100
AcDbSymbolTable
 70
     1
  0
LTYPE
  5
14
330
5
100
AcDbSymbolTableRecord
100
AcDbLinetypeTableRecord
  2
BYBLOCK
 70
     0
  3

 72
    65
 73
     0
 40
0.0
  0
LTYPE
  5
15
330
5
100
AcDbSymbolTableRecord
100
AcDbLinetypeTableRecord
  2
BYLAYER
 70
     0
  3

 72
    65
 73
     0
 40
0.0
  0
LTYPE
  5
16
330
5
100
AcDbSymbolTableRecord
100
AcDbLinetypeTableRecord
  2
CONTINUOUS
 70
     0
  3
Solid line
 72
    65
 73
     0
 40
0.0
  0
ENDTAB
  0
TABLE
  2
LAYER
  5
2
100
AcDbSymbolTable
 70
2
  0
LAYER
  5
50
100
AcDbSymbolTableRecord
100
AcDbLayerTableRecord
  2
0
 70
0
  6
CONTINUOUS
  0
LAYER
  5
51
100
AcDbSymbolTableRecord
100
AcDbLayerTableRecord
  2
Layer_1
 70
0
  6
CONTINUOUS
  0
ENDTAB
  0
TABLE
  2
STYLE
  5
3
330
0
100
AcDbSymbolTable
 70
     1
  0
STYLE
  5
11
330
3
100
AcDbSymbolTableRecord
100
AcDbTextStyleTableRecord
  2
STANDARD
 70
     0
 40
0.0
 41
1.0
 50
0.0
 71
     0
 42
2.5
  3
txt
  4

  0
ENDTAB
  0
TABLE
  2
VIEW
  5
6
330
0
100
AcDbSymbolTable
 70
     0
  0
ENDTAB
  0
TABLE
  2
UCS
  5
7
330
0
100
AcDbSymbolTable
 70
     0
  0
ENDTAB
  0
TABLE
  2
APPID
  5
9
330
0
100
AcDbSymbolTable
 70
     2
  0
APPID
  5
12
330
9
100
AcDbSymbolTableRecord
100
AcDbRegAppTableRecord
  2
ACAD
 70
     0
  0
ENDTAB
  0
TABLE
  2
DIMSTYLE
  5
A
330
0
100
AcDbSymbolTable
 70
     1
  0
DIMSTYLE
105
27
330
A
100
AcDbSymbolTableRecord
100
AcDbDimStyleTableRecord
  2
ISO-25
 70
     0
  3

  4

  5

  6

  7

 40
1.0
 41
2.5
 42
0.625
 43
3.75
 44
1.25
 45
0.0
 46
0.0
 47
0.0
 48
0.0
140
2.5
141
2.5
142
0.0
143
0.03937007874016
144
1.0
145
0.0
146
1.0
147
0.625
 71
     0
 72
     0
 73
     0
 74
     0
 75
     0
 76
     0
 77
     1
 78
     8
170
     0
171
     3
172
     1
173
     0
174
     0
175
     0
176
     0
177
     0
178
     0
270
     2
271
     2
272
     2
273
     2
274
     3
340
11
275
     0
280
     0
281
     0
282
     0
283
     0
284
     8
285
     0
286
     0
287
     3
288
     0
  0
ENDTAB
  0
TABLE
  2
BLOCK_RECORD
  5
1
330
0
100
AcDbSymbolTable
 70
     1
  0
BLOCK_RECORD
  5
1F
330
1
100
AcDbSymbolTableRecord
100
AcDbBlockTableRecord
  2
*MODEL_SPACE
  0
BLOCK_RECORD
  5
1B
330
1
100
AcDbSymbolTableRecord
100
AcDbBlockTableRecord
  2
*PAPER_SPACE
  0
ENDTAB
  0
ENDSEC
  0
SECTION
  2
BLOCKS
  0
BLOCK
  5
20
330
1F
100
AcDbEntity
  8
0
100
AcDbBlockBegin
  2
*MODEL_SPACE
 70
     0
 10
0.0
 20
0.0
 30
0.0
  3
*MODEL_SPACE
  1

  0
ENDBLK
  5
21
330
1F
100
AcDbEntity
  8
0
100
AcDbBlockEnd
  0
BLOCK
  5
1C
330
1B
100
AcDbEntity
 67
     1
  8
0
100
AcDbBlockBegin
  2
*PAPER_SPACE
  1

  0
ENDBLK
  5
1D
330
1B
100
AcDbEntity
 67
     1
  8
0
100
AcDbBlockEnd
  0
ENDSEC
  0
SECTION
  2
ENTITIES
  0
SPLINE
  5
100
100
AcDbEntity
  8
Layer_1
 62
7
100
AcDbSpline
 70
8
 71
3
 72
8
 73
4
 74
0
 40
0
 40
0
 40
0
 40
0
 40
1
 40
1
 40
1
 40
1
 10
115.518632
 20
33.193813
 30
0.0
 10
115.696857
 20
32.501866
 30
0.0
 10
115.492396
 20
31.767399
 30
0.0
 10
114.982265
 20
31.267077
 30
0.0
  0
SPLINE
  5
101
100
AcDbEntity
  8
Layer_1
 62
7
100
AcDbSpline
 70
8
 71
3
 72
8
 73
4
 74
0
 40
0
 40
0
 40
0
 40
0
 40
1
 40
1
 40
1
 40
1
 10
114.982265
 20
31.267077
 30
0.0
 10
114.472135
 20
30.766755
 30
0.0
 10
113.733836
 20
30.576591
 30
0.0
 10
113.045480
 20
30.768216
 30
0.0
  0
SPLINE
  5
102
100
AcDbEntity
  8
Layer_1
 62
7
100
AcDbSpline
 70
8
 71
3
 72
8
 73
4
 74
0
 40
0
 40
0
 40
0
 40
0
 40
1
 40
1
 40
1
 40
1
 10
113.045480
 20
30.768216
 30
0.0
 10
112.357123
 20
30.959841
 30
0.0
 10
111.823287
 20
31.504144
 30
0.0
 10
111.645061
 20
32.196091
 30
0.0
  0
SPLINE
  5
103
100
AcDbEntity
  8
Layer_1
 62
7
100
AcDbSpline
 70
8
 71
3
 72
8
 73
4
 74
0
 40
0
 40
0
 40
0
 40
0
 40
1
 40
1
 40
1
 40
1
 10
111.645061
 20
32.196091
 30
0.0
 10
111.466835
 20
32.888038
 30
0.0
 10
111.671297
 20
33.622505
 30
0.0
 10
112.181427
 20
34.122827
 30
0.0
  0
SPLINE
  5
104
100
AcDbEntity
  8
Layer_1
 62
7
100
AcDbSpline
 70
8
 71
3
 72
8
 73
4
 74
0
 40
0
 40
0
 40
0
 40
0
 40
1
 40
1
 40
1
 40
1
 10
112.181427
 20
34.122827
 30
0.0
 10
112.691558
 20
34.623148
 30
0.0
 10
113.429856
 20
34.813313
 30
0.0
 10
114.118213
 20
34.621688
 30
0.0
  0
SPLINE
  5
105
100
AcDbEntity
  8
Layer_1
 62
7
100
AcDbSpline
 70
8
 71
3
 72
8
 73
4
 74
0
 40
0
 40
0
 40
0
 40
0
 40
1
 40
1
 40
1
 40
1
 10
114.118213
 20
34.621688
 30
0.0
 10
114.806569
 20
34.430062
 30
0.0
 10
115.340406
 20
33.885760
 30
0.0
 10
115.518632
 20
33.193813
 30
0.0
  0
LWPOLYLINE
  5
106
100
AcDbEntity
  8
Layer_1
 62
7
100
AcDbPolyline
 90
96
 70
1
 10
119.450707
 20
35.161723
 30
0.0
 10
120.199753
 20
35.476559
 30
0.0
 10
120.667810
 20
35.549791
 30
0.0
 10
122.105765
 20
35.298519
 30
0.0
 10
122.302890
 20
34.533198
 30
0.0
 10
121.165250
 20
33.618525
 30
0.0
 10
120.720055
 20
33.456530
 30
0.0
 10
119.912119
 20
33.370332
 30
0.0
 10
119.897818
 20
31.896811
 30
0.0
 10
120.703926
 20
31.794939
 30
0.0
 10
121.145892
 20
31.624326
 30
0.0
 10
122.265564
 20
30.687743
 30
0.0
 10
122.053616
 20
29.926403
 30
0.0
 10
120.611050
 20
29.703095
 30
0.0
 10
120.144508
 20
29.785386
 30
0.0
 10
119.401708
 20
30.114708
 30
0.0
 10
118.652563
 20
28.845761
 30
0.0
 10
119.299749
 20
28.354481
 30
0.0
 10
119.597184
 20
27.985745
 30
0.0
 10
120.098557
 20
26.614801
 30
0.0
 10
119.534341
 20
26.061428
 30
0.0
 10
118.173393
 20
26.589321
 30
0.0
 10
117.810499
 20
26.893870
 30
0.0
 10
117.331877
 20
27.550461
 30
0.0
 10
116.048617
 20
26.826091
 30
0.0
 10
116.363453
 20
26.077045
 30
0.0
 10
116.436685
 20
25.608988
 30
0.0
 10
116.185413
 20
24.171033
 30
0.0
 10
115.420092
 20
23.973908
 30
0.0
 10
114.505420
 20
25.111548
 30
0.0
 10
114.343424
 20
25.556743
 30
0.0
 10
114.257226
 20
26.364679
 30
0.0
 10
112.783705
 20
26.378980
 30
0.0
 10
112.681833
 20
25.572872
 30
0.0
 10
112.511220
 20
25.130906
 30
0.0
 10
111.574638
 20
24.011234
 30
0.0
 10
110.813297
 20
24.223182
 30
0.0
 10
110.589989
 20
25.665748
 30
0.0
 10
110.672281
 20
26.132290
 30
0.0
 10
111.001602
 20
26.875090
 30
0.0
 10
109.732655
 20
27.624235
 30
0.0
 10
109.241375
 20
26.977049
 30
0.0
 10
108.872640
 20
26.679614
 30
0.0
 10
107.501695
 20
26.178241
 30
0.0
 10
106.948322
 20
26.742457
 30
0.0
 10
107.476215
 20
28.103405
 30
0.0
 10
107.780765
 20
28.466299
 30
0.0
 10
108.437355
 20
28.944921
 30
0.0
 10
107.712985
 20
30.228181
 30
0.0
 10
106.963939
 20
29.913345
 30
0.0
 10
106.495882
 20
29.840113
 30
0.0
 10
105.057927
 20
30.091385
 30
0.0
 10
104.860802
 20
30.856706
 30
0.0
 10
105.998443
 20
31.771378
 30
0.0
 10
106.443638
 20
31.933374
 30
0.0
 10
107.251574
 20
32.019572
 30
0.0
 10
107.265875
 20
33.493093
 30
0.0
 10
106.459766
 20
33.594965
 30
0.0
 10
106.017800
 20
33.765578
 30
0.0
 10
104.898128
 20
34.702161
 30
0.0
 10
105.110076
 20
35.463501
 30
0.0
 10
106.552642
 20
35.686809
 30
0.0
 10
107.019184
 20
35.604517
 30
0.0
 10
107.761985
 20
35.275196
 30
0.0
 10
108.511129
 20
36.544143
 30
0.0
 10
107.863943
 20
37.035423
 30
0.0
 10
107.566508
 20
37.404159
 30
0.0
 10
107.065136
 20
38.775103
 30
0.0
 10
107.629351
 20
39.328476
 30
0.0
 10
108.990299
 20
38.800583
 30
0.0
 10
109.353193
 20
38.496034
 30
0.0
 10
109.831815
 20
37.839443
 30
0.0
 10
111.115075
 20
38.563813
 30
0.0
 10
110.800240
 20
39.312859
 30
0.0
 10
110.727007
 20
39.780916
 30
0.0
 10
110.978279
 20
41.218871
 30
0.0
 10
111.743600
 20
41.415996
 30
0.0
 10
112.658273
 20
40.278355
 30
0.0
 10
112.820268
 20
39.833161
 30
0.0
 10
112.906466
 20
39.025224
 30
0.0
 10
114.379987
 20
39.010923
 30
0.0
 10
114.481859
 20
39.817032
 30
0.0
 10
114.652472
 20
40.258998
 30
0.0
 10
115.589055
 20
41.378670
 30
0.0
 10
116.350395
 20
41.166722
 30
0.0
 10
116.573703
 20
39.724156
 30
0.0
 10
116.491412
 20
39.257614
 30
0.0
 10
116.162090
 20
38.514813
 30
0.0
 10
117.431037
 20
37.765669
 30
0.0
 10
117.922317
 20
38.412855
 30
0.0
 10
118.291053
 20
38.710290
 30
0.0
 10
119.661997
 20
39.211662
 30
0.0
 10
120.215370
 20
38.647447
 30
0.0
 10
119.687477
 20
37.286499
 30
0.0
 10
119.382928
 20
36.923605
 30
0.0
 10
118.726338
 20
36.444983
 30
0.0
  0
LWPOLYLINE
  5
107
100
AcDbEntity
  8
Layer_1
 62
7
100
AcDbPolyline
 90
1
 70
1
 10
115.518632
 20
33.193813
 30
0.0
  0
ENDSEC
  0
SECTION
  2
OBJECTS
  0
DICTIONARY
  5
C
330
0
100
AcDbDictionary
  3
ACAD_GROUP
350
D
  3
ACAD_MLINESTYLE
350
17
  0
DICTIONARY
  5
D
330
C
100
AcDbDictionary
  0
DICTIONARY
  5
1A
330
C
100
AcDbDictionary
  0
DICTIONARY
  5
17
330
C
100
AcDbDictionary
  3
STANDARD
350
18
  0
DICTIONARY
  5
19
330
C
100
AcDbDictionary
  0
ENDSEC
  0
EOF
