  0
SECTION
  2
HEADER
  9
$ACADVER
  1
AC1014
  9
$HANDSEED
  5
FFFF
  9
$MEASUREMENT
 70
     1
  0
ENDSEC
  0
SECTION
  2
TABLES
  0
TABLE
  2
VPORT
  5
8
330
0
100
AcDbSymbolTable
 70
     4
  0
VPORT
  5
2E
330
8
100
AcDbSymbolTableRecord
100
AcDbViewportTableRecord
  2
*ACTIVE
 70
     0
 10
0.0
 20
0.0
 11
1.0
 21
1.0
 12
210.0
 22
148.5
 13
0.0
 23
0.0
 14
10.0
 24
10.0
 15
10.0
 25
10.0
 16
0.0
 26
0.0
 36
1.0
 17
0.0
 27
0.0
 37
0.0
 40
341.0
 41
1.24
 42
50.0
 43
0.0
 44
0.0
 50
0.0
 51
0.0
 71
     0
 72
   100
 73
     1
 74
     3
 75
     0
 76
     0
 77
     0
 78
     0
  0
ENDTAB
  0
TABLE
  2
LTYPE
  5
5
330
0
100
AcDbSymbolTable
 70
     1
  0
LTYPE
  5
14
330
5
100
AcDbSymbolTableRecord
100
AcDbLinetypeTableRecord
  2
BYBLOCK
 70
     0
  3

 72
    65
 73
     0
 40
0.0
  0
LTYPE
  5
15
330
5
100
AcDbSymbolTableRecord
100
AcDbLinetypeTableRecord
  2
BYLAYER
 70
     0
  3

 72
    65
 73
     0
 40
0.0
  0
LTYPE
  5
16
330
5
100
AcDbSymbolTableRecord
100
AcDbLinetypeTableRecord
  2
CONTINUOUS
 70
     0
  3
Solid line
 72
    65
 73
     0
 40
0.0
  0
ENDTAB
  0
TABLE
  2
LAYER
  5
2
100
AcDbSymbolTable
 70
2
  0
LAYER
  5
50
100
AcDbSymbolTableRecord
100
AcDbLayerTableRecord
  2
0
 70
0
  6
CONTINUOUS
  0
LAYER
  5
51
100
AcDbSymbolTableRecord
100
AcDbLayerTableRecord
  2
Layer_1
 70
0
  6
CONTINUOUS
  0
ENDTAB
  0
TABLE
  2
STYLE
  5
3
330
0
100
AcDbSymbolTable
 70
     1
  0
STYLE
  5
11
330
3
100
AcDbSymbolTableRecord
100
AcDbTextStyleTableRecord
  2
STANDARD
 70
     0
 40
0.0
 41
1.0
 50
0.0
 71
     0
 42
2.5
  3
txt
  4

  0
ENDTAB
  0
TABLE
  2
VIEW
  5
6
330
0
100
AcDbSymbolTable
 70
     0
  0
ENDTAB
  0
TABLE
  2
UCS
  5
7
330
0
100
AcDbSymbolTable
 70
     0
  0
ENDTAB
  0
TABLE
  2
APPID
  5
9
330
0
100
AcDbSymbolTable
 70
     2
  0
APPID
  5
12
330
9
100
AcDbSymbolTableRecord
100
AcDbRegAppTableRecord
  2
ACAD
 70
     0
  0
ENDTAB
  0
TABLE
  2
DIMSTYLE
  5
A
330
0
100
AcDbSymbolTable
 70
     1
  0
DIMSTYLE
105
27
330
A
100
AcDbSymbolTableRecord
100
AcDbDimStyleTableRecord
  2
ISO-25
 70
     0
  3

  4

  5

  6

  7

 40
1.0
 41
2.5
 42
0.625
 43
3.75
 44
1.25
 45
0.0
 46
0.0
 47
0.0
 48
0.0
140
2.5
141
2.5
142
0.0
143
0.03937007874016
144
1.0
145
0.0
146
1.0
147
0.625
 71
     0
 72
     0
 73
     0
 74
     0
 75
     0
 76
     0
 77
     1
 78
     8
170
     0
171
     3
172
     1
173
     0
174
     0
175
     0
176
     0
177
     0
178
     0
270
     2
271
     2
272
     2
273
     2
274
     3
340
11
275
     0
280
     0
281
     0
282
     0
283
     0
284
     8
285
     0
286
     0
287
     3
288
     0
  0
ENDTAB
  0
TABLE
  2
BLOCK_RECORD
  5
1
330
0
100
AcDbSymbolTable
 70
     1
  0
BLOCK_RECORD
  5
1F
330
1
100
AcDbSymbolTableRecord
100
AcDbBlockTableRecord
  2
*MODEL_SPACE
  0
BLOCK_RECORD
  5
1B
330
1
100
AcDbSymbolTableRecord
100
AcDbBlockTableRecord
  2
*PAPER_SPACE
  0
ENDTAB
  0
ENDSEC
  0
SECTION
  2
BLOCKS
  0
BLOCK
  5
20
330
1F
100
AcDbEntity
  8
0
100
AcDbBlockBegin
  2
*MODEL_SPACE
 70
     0
 10
0.0
 20
0.0
 30
0.0
  3
*MODEL_SPACE
  1

  0
ENDBLK
  5
21
330
1F
100
AcDbEntity
  8
0
100
AcDbBlockEnd
  0
BLOCK
  5
1C
330
1B
100
AcDbEntity
 67
     1
  8
0
100
AcDbBlockBegin
  2
*PAPER_SPACE
  1

  0
ENDBLK
  5
1D
330
1B
100
AcDbEntity
 67
     1
  8
0
100
AcDbBlockEnd
  0
ENDSEC
  0
SECTION
  2
ENTITIES
  0
LWPOLYLINE
  5
100
100
AcDbEntity
  8
Layer_1
 62
7
100
AcDbPolyline
 90
192
 70
1
 10
70.739609
 20
171.361110
 30
0.0
 10
71.002619
 20
171.382290
 30
0.0
 10
71.703899
 20
171.267420
 30
0.0
 10
72.678659
 20
170.859570
 30
0.0
 10
72.678659
 20
170.176350
 30
0.0
 10
71.703899
 20
169.768500
 30
0.0
 10
71.002619
 20
169.653630
 30
0.0
 10
70.739609
 20
169.674810
 30
0.0
 10
70.601069
 20
168.622460
 30
0.0
 10
70.860589
 20
168.574850
 30
0.0
 10
71.508249
 20
168.282390
 30
0.0
 10
72.344239
 20
167.636140
 30
0.0
 10
72.167409
 20
166.976210
 30
0.0
 10
71.120299
 20
166.834540
 30
0.0
 10
70.413179
 20
166.905090
 30
0.0
 10
70.164619
 20
166.993620
 30
0.0
 10
69.758429
 20
166.012980
 30
0.0
 10
69.996789
 20
165.899820
 30
0.0
 10
70.546679
 20
165.449700
 30
0.0
 10
71.186929
 20
164.609110
 30
0.0
 10
70.845319
 20
164.017430
 30
0.0
 10
69.797219
 20
164.151590
 30
0.0
 10
69.132459
 20
164.402760
 30
0.0
 10
68.915279
 20
164.552600
 30
0.0
 10
68.269119
 20
163.710510
 30
0.0
 10
68.470069
 20
163.539520
 30
0.0
 10
68.884729
 20
162.962410
 30
0.0
 10
69.285589
 20
161.984750
 30
0.0
 10
68.802489
 20
161.501650
 30
0.0
 10
67.824829
 20
161.902510
 30
0.0
 10
67.247719
 20
162.317170
 30
0.0
 10
67.076729
 20
162.518120
 30
0.0
 10
66.234639
 20
161.871960
 30
0.0
 10
66.384479
 20
161.654780
 30
0.0
 10
66.635649
 20
160.990020
 30
0.0
 10
66.769809
 20
159.941920
 30
0.0
 10
66.178129
 20
159.600310
 30
0.0
 10
65.337539
 20
160.240560
 30
0.0
 10
64.887419
 20
160.790450
 30
0.0
 10
64.774259
 20
161.028810
 30
0.0
 10
63.793619
 20
160.622620
 30
0.0
 10
63.882149
 20
160.374060
 30
0.0
 10
63.952699
 20
159.666940
 30
0.0
 10
63.811029
 20
158.619830
 30
0.0
 10
63.151099
 20
158.443000
 30
0.0
 10
62.504849
 20
159.278990
 30
0.0
 10
62.212389
 20
159.926650
 30
0.0
 10
62.164779
 20
160.186170
 30
0.0
 10
61.112429
 20
160.047630
 30
0.0
 10
61.133609
 20
159.784620
 30
0.0
 10
61.018739
 20
159.083340
 30
0.0
 10
60.610889
 20
158.108580
 30
0.0
 10
59.927669
 20
158.108580
 30
0.0
 10
59.519819
 20
159.083340
 30
0.0
 10
59.404949
 20
159.784620
 30
0.0
 10
59.426129
 20
160.047630
 30
0.0
 10
58.373779
 20
160.186170
 30
0.0
 10
58.326169
 20
159.926650
 30
0.0
 10
58.033709
 20
159.278990
 30
0.0
 10
57.387459
 20
158.443000
 30
0.0
 10
56.727529
 20
158.619830
 30
0.0
 10
56.585859
 20
159.666940
 30
0.0
 10
56.656409
 20
160.374060
 30
0.0
 10
56.744939
 20
160.622620
 30
0.0
 10
55.764299
 20
161.028810
 30
0.0
 10
55.651139
 20
160.790450
 30
0.0
 10
55.201019
 20
160.240560
 30
0.0
 10
54.360429
 20
159.600310
 30
0.0
 10
53.768749
 20
159.941920
 30
0.0
 10
53.902909
 20
160.990020
 30
0.0
 10
54.154079
 20
161.654780
 30
0.0
 10
54.303919
 20
161.871960
 30
0.0
 10
53.461829
 20
162.518120
 30
0.0
 10
53.290839
 20
162.317170
 30
0.0
 10
52.713729
 20
161.902510
 30
0.0
 10
51.736069
 20
161.501650
 30
0.0
 10
51.252969
 20
161.984750
 30
0.0
 10
51.653829
 20
162.962410
 30
0.0
 10
52.068489
 20
163.539520
 30
0.0
 10
52.269439
 20
163.710510
 30
0.0
 10
51.623279
 20
164.552600
 30
0.0
 10
51.406099
 20
164.402760
 30
0.0
 10
50.741339
 20
164.151590
 30
0.0
 10
49.693239
 20
164.017430
 30
0.0
 10
49.351629
 20
164.609110
 30
0.0
 10
49.991879
 20
165.449700
 30
0.0
 10
50.541769
 20
165.899820
 30
0.0
 10
50.780129
 20
166.012980
 30
0.0
 10
50.373939
 20
166.993620
 30
0.0
 10
50.125379
 20
166.905090
 30
0.0
 10
49.418259
 20
166.834540
 30
0.0
 10
48.371149
 20
166.976210
 30
0.0
 10
48.194319
 20
167.636140
 30
0.0
 10
49.030309
 20
168.282390
 30
0.0
 10
49.677969
 20
168.574850
 30
0.0
 10
49.937489
 20
168.622460
 30
0.0
 10
49.798949
 20
169.674810
 30
0.0
 10
49.535939
 20
169.653630
 30
0.0
 10
48.834659
 20
169.768500
 30
0.0
 10
47.859899
 20
170.176350
 30
0.0
 10
47.859899
 20
170.859570
 30
0.0
 10
48.834659
 20
171.267420
 30
0.0
 10
49.535939
 20
171.382290
 30
0.0
 10
49.798949
 20
171.361110
 30
0.0
 10
49.937489
 20
172.413460
 30
0.0
 10
49.677969
 20
172.461070
 30
0.0
 10
49.030309
 20
172.753530
 30
0.0
 10
48.194319
 20
173.399780
 30
0.0
 10
48.371149
 20
174.059710
 30
0.0
 10
49.418259
 20
174.201380
 30
0.0
 10
50.125379
 20
174.130830
 30
0.0
 10
50.373939
 20
174.042300
 30
0.0
 10
50.780129
 20
175.022940
 30
0.0
 10
50.541769
 20
175.136100
 30
0.0
 10
49.991879
 20
175.586220
 30
0.0
 10
49.351629
 20
176.426810
 30
0.0
 10
49.693239
 20
177.018490
 30
0.0
 10
50.741339
 20
176.884330
 30
0.0
 10
51.406099
 20
176.633160
 30
0.0
 10
51.623279
 20
176.483320
 30
0.0
 10
52.269439
 20
177.325410
 30
0.0
 10
52.068489
 20
177.496400
 30
0.0
 10
51.653829
 20
178.073510
 30
0.0
 10
51.252969
 20
179.051170
 30
0.0
 10
51.736069
 20
179.534270
 30
0.0
 10
52.713729
 20
179.133410
 30
0.0
 10
53.290839
 20
178.718750
 30
0.0
 10
53.461829
 20
178.517800
 30
0.0
 10
54.303919
 20
179.163960
 30
0.0
 10
54.154079
 20
179.381140
 30
0.0
 10
53.902909
 20
180.045900
 30
0.0
 10
53.768749
 20
181.094000
 30
0.0
 10
54.360429
 20
181.435610
 30
0.0
 10
55.201019
 20
180.795360
 30
0.0
 10
55.651139
 20
180.245470
 30
0.0
 10
55.764299
 20
180.007110
 30
0.0
 10
56.744939
 20
180.413300
 30
0.0
 10
56.656409
 20
180.661860
 30
0.0
 10
56.585859
 20
181.368980
 30
0.0
 10
56.727529
 20
182.416090
 30
0.0
 10
57.387459
 20
182.592920
 30
0.0
 10
58.033709
 20
181.756930
 30
0.0
 10
58.326169
 20
181.109270
 30
0.0
 10
58.373779
 20
180.849750
 30
0.0
 10
59.426129
 20
180.988290
 30
0.0
 10
59.404949
 20
181.251300
 30
0.0
 10
59.519819
 20
181.952580
 30
0.0
 10
59.927669
 20
182.927340
 30
0.0
 10
60.610889
 20
182.927340
 30
0.0
 10
61.018739
 20
181.952580
 30
0.0
 10
61.133609
 20
181.251300
 30
0.0
 10
61.112429
 20
180.988290
 30
0.0
 10
62.164779
 20
180.849750
 30
0.0
 10
62.212389
 20
181.109270
 30
0.0
 10
62.504849
 20
181.756930
 30
0.0
 10
63.151099
 20
182.592920
 30
0.0
 10
63.811029
 20
182.416090
 30
0.0
 10
63.952699
 20
181.368980
 30
0.0
 10
63.882149
 20
180.661860
 30
0.0
 10
63.793619
 20
180.413300
 30
0.0
 10
64.774259
 20
180.007110
 30
0.0
 10
64.887419
 20
180.245470
 30
0.0
 10
65.337539
 20
180.795360
 30
0.0
 10
66.178129
 20
181.435610
 30
0.0
 10
66.769809
 20
181.094000
 30
0.0
 10
66.635649
 20
180.045900
 30
0.0
 10
66.384479
 20
179.381140
 30
0.0
 10
66.234639
 20
179.163960
 30
0.0
 10
67.076729
 20
178.517800
 30
0.0
 10
67.247719
 20
178.718750
 30
0.0
 10
67.824829
 20
179.133410
 30
0.0
 10
68.802489
 20
179.534270
 30
0.0
 10
69.285589
 20
179.051170
 30
0.0
 10
68.884729
 20
178.073510
 30
0.0
 10
68.470069
 20
177.496400
 30
0.0
 10
68.269119
 20
177.325410
 30
0.0
 10
68.915279
 20
176.483320
 30
0.0
 10
69.132459
 20
176.633160
 30
0.0
 10
69.797219
 20
176.884330
 30
0.0
 10
70.845319
 20
177.018490
 30
0.0
 10
71.186929
 20
176.426810
 30
0.0
 10
70.546679
 20
175.586220
 30
0.0
 10
69.996789
 20
175.136100
 30
0.0
 10
69.758429
 20
175.022940
 30
0.0
 10
70.164619
 20
174.042300
 30
0.0
 10
70.413179
 20
174.130830
 30
0.0
 10
71.120299
 20
174.201380
 30
0.0
 10
72.167409
 20
174.059710
 30
0.0
 10
72.344239
 20
173.399780
 30
0.0
 10
71.508249
 20
172.753530
 30
0.0
 10
70.860589
 20
172.461070
 30
0.0
 10
70.601069
 20
172.413460
 30
0.0
  0
ENDSEC
  0
SECTION
  2
OBJECTS
  0
DICTIONARY
  5
C
330
0
100
AcDbDictionary
  3
ACAD_GROUP
350
D
  3
ACAD_MLINESTYLE
350
17
  0
DICTIONARY
  5
D
330
C
100
AcDbDictionary
  0
DICTIONARY
  5
1A
330
C
100
AcDbDictionary
  0
DICTIONARY
  5
17
330
C
100
AcDbDictionary
  3
STANDARD
350
18
  0
DICTIONARY
  5
19
330
C
100
AcDbDictionary
  0
ENDSEC
  0
EOF
