<?xml version="1.0" encoding="UTF-8" standalone="no"?>
<!-- Created with Inkscape (http://www.inkscape.org/) -->

<svg
   xmlns:dc="http://purl.org/dc/elements/1.1/"
   xmlns:cc="http://creativecommons.org/ns#"
   xmlns:rdf="http://www.w3.org/1999/02/22-rdf-syntax-ns#"
   xmlns:svg="http://www.w3.org/2000/svg"
   xmlns="http://www.w3.org/2000/svg"
   xmlns:sodipodi="http://sodipodi.sourceforge.net/DTD/sodipodi-0.dtd"
   xmlns:inkscape="http://www.inkscape.org/namespaces/inkscape"
   width="800mm"
   height="500mm"
   viewBox="0 0 800 500"
   version="1.1"
   id="svg7548"
   inkscape:version="0.92.3 (2405546, 2018-03-11)"
   sodipodi:docname="Sheet_3_Screen_to_top.svg">
  <defs
     id="defs7542" />
  <sodipodi:namedview
     id="base"
     pagecolor="#ffffff"
     bordercolor="#666666"
     borderopacity="1.0"
     inkscape:pageopacity="0.0"
     inkscape:pageshadow="2"
     inkscape:zoom="0.24748737"
     inkscape:cx="1617.9954"
     inkscape:cy="222.96976"
     inkscape:document-units="mm"
     inkscape:current-layer="layer1"
     showgrid="false"
     inkscape:window-width="1920"
     inkscape:window-height="1137"
     inkscape:window-x="-8"
     inkscape:window-y="-8"
     inkscape:window-maximized="1" />
  <metadata
     id="metadata7545">
    <rdf:RDF>
      <cc:Work
         rdf:about="">
        <dc:format>image/svg+xml</dc:format>
        <dc:type
           rdf:resource="http://purl.org/dc/dcmitype/StillImage" />
        <dc:title></dc:title>
      </cc:Work>
    </rdf:RDF>
  </metadata>
  <g
     inkscape:label="Layer 1"
     inkscape:groupmode="layer"
     id="layer1"
     transform="translate(0,203)">
    <path
       inkscape:connector-curvature="0"
       d="m 787.38074,215.87921 h -25"
       style="fill:none;stroke:#ff0000;stroke-width:0.238125;stroke-linecap:round"
       id="path986" />
    <path
       inkscape:connector-curvature="0"
       d="m 787.38074,290.87921 v -75"
       style="fill:none;stroke:#ff0000;stroke-width:0.238125;stroke-linecap:round"
       id="path988" />
    <path
       inkscape:connector-curvature="0"
       d="m 687.38074,290.87921 h 100"
       style="fill:none;stroke:#ff0000;stroke-width:0.238125;stroke-linecap:round"
       id="path990" />
    <path
       inkscape:connector-curvature="0"
       d="m 787.38074,-175.12077 h -100"
       style="fill:none;stroke:#ff0000;stroke-width:0.238125;stroke-linecap:round"
       id="path994" />
    <path
       inkscape:connector-curvature="0"
       d="M 787.38074,190.87921 V -175.12077"
       style="fill:none;stroke:#ff0000;stroke-width:0.238125;stroke-linecap:round"
       id="path996" />
    <path
       inkscape:connector-curvature="0"
       d="m 762.38074,190.87921 h 25"
       style="fill:none;stroke:#ff0000;stroke-width:0.238125;stroke-linecap:round"
       id="path998" />
    <path
       inkscape:connector-curvature="0"
       d="m 762.38074,215.87921 v -25"
       style="fill:none;stroke:#ff0000;stroke-width:0.238125;stroke-linecap:round"
       id="path1000" />
    <path
       inkscape:connector-curvature="0"
       d="m 737.38074,262.67921 a 4.2000003,4.2000003 0 1 0 0,8.4 4.2000003,4.2000003 0 1 0 0,-8.4 z"
       style="fill:none;stroke:#ff0000;stroke-width:0.238125;stroke-linecap:round"
       id="path1002" />
    <path
       inkscape:connector-curvature="0"
       d="m 737.38074,-155.32079 a 4.2,4.2 0 1 0 0,8.4 4.2,4.2 0 1 0 0,-8.4 z"
       style="fill:none;stroke:#ff0000;stroke-width:0.238125;stroke-linecap:round"
       id="path1004" />
    <path
       inkscape:connector-curvature="0"
       d="m 82.32727,-48.58074 a 20,20 0 0 0 -39.99999,0"
       style="fill:none;stroke:#ff0000;stroke-width:0.238125;stroke-linecap:round"
       id="path402" />
    <path
       inkscape:connector-curvature="0"
       d="m 82.32727,6.41926 v -55"
       style="fill:none;stroke:#ff0000;stroke-width:0.238125;stroke-linecap:round"
       id="path404" />
    <path
       inkscape:connector-curvature="0"
       d="m 42.32728,6.41926 a 20,20 0 0 0 39.99999,0"
       style="fill:none;stroke:#ff0000;stroke-width:0.238125;stroke-linecap:round"
       id="path406" />
    <path
       inkscape:connector-curvature="0"
       d="m 42.32728,-48.58074 v 55"
       style="fill:none;stroke:#ff0000;stroke-width:0.238125;stroke-linecap:round"
       id="path408" />
    <path
       inkscape:connector-curvature="0"
       d="m 34.0445,63.0097 v 0.4"
       style="fill:none;stroke:#ff0000;stroke-width:0.238125;stroke-linecap:round"
       id="path410" />
    <path
       inkscape:connector-curvature="0"
       d="m 34.0445,63.0097 a 0.39999999,0.39999999 0 0 0 -0.4,-0.4"
       style="fill:none;stroke:#ff0000;stroke-width:0.238125;stroke-linecap:round"
       id="path412" />
    <path
       inkscape:connector-curvature="0"
       d="m 22.8445,62.6097 h 10.8"
       style="fill:none;stroke:#ff0000;stroke-width:0.238125;stroke-linecap:round"
       id="path414" />
    <path
       inkscape:connector-curvature="0"
       d="M 22.8445,90.03074 V 62.6097"
       style="fill:none;stroke:#ff0000;stroke-width:0.238125;stroke-linecap:round"
       id="path416" />
    <path
       inkscape:connector-curvature="0"
       d="M 22.8445,90.03074 139.41851,70.03912"
       style="fill:none;stroke:#ff0000;stroke-width:0.238125;stroke-linecap:round"
       id="path418" />
    <path
       inkscape:connector-curvature="0"
       d="m 129.0497,-0.88673 10.36881,70.92585"
       style="fill:none;stroke:#ff0000;stroke-width:0.238125;stroke-linecap:round"
       id="path420" />
    <path
       inkscape:connector-curvature="0"
       d="m 134.98659,-1.75466 -5.93689,0.86793"
       style="fill:none;stroke:#ff0000;stroke-width:0.238125;stroke-linecap:round"
       id="path422" />
    <path
       inkscape:connector-curvature="0"
       d="M 134.98659,-1.75466 121.69055,-92.7037"
       style="fill:none;stroke:#ff0000;stroke-width:0.238125;stroke-linecap:round"
       id="path424" />
    <path
       inkscape:connector-curvature="0"
       d="m 115.75365,-91.83577 5.9369,-0.86793"
       style="fill:none;stroke:#ff0000;stroke-width:0.238125;stroke-linecap:round"
       id="path426" />
    <path
       inkscape:connector-curvature="0"
       d="m 109.38885,-135.37299 6.3648,43.53722"
       style="fill:none;stroke:#ff0000;stroke-width:0.238125;stroke-linecap:round"
       id="path428" />
    <path
       inkscape:connector-curvature="0"
       d="m 22.8445,-122.72087 86.54435,-12.65212"
       style="fill:none;stroke:#ff0000;stroke-width:0.238125;stroke-linecap:round"
       id="path430" />
    <path
       inkscape:connector-curvature="0"
       d="m 22.8445,-84.4575 v -38.26337"
       style="fill:none;stroke:#ff0000;stroke-width:0.238125;stroke-linecap:round"
       id="path432" />
    <path
       inkscape:connector-curvature="0"
       d="m 33.6445,-84.4575 h -10.8"
       style="fill:none;stroke:#ff0000;stroke-width:0.238125;stroke-linecap:round"
       id="path434" />
    <path
       inkscape:connector-curvature="0"
       d="m 33.6445,-84.4575 a 0.39999999,0.39999999 0 0 0 0.4,-0.4"
       style="fill:none;stroke:#ff0000;stroke-width:0.238125;stroke-linecap:round"
       id="path436" />
    <path
       inkscape:connector-curvature="0"
       d="m 34.0445,-85.2575 v 0.4"
       style="fill:none;stroke:#ff0000;stroke-width:0.238125;stroke-linecap:round"
       id="path438" />
    <path
       inkscape:connector-curvature="0"
       d="m 34.4445,-85.6575 a 0.39999999,0.39999999 0 0 0 -0.4,0.4"
       style="fill:none;stroke:#ff0000;stroke-width:0.238125;stroke-linecap:round"
       id="path440" />
    <path
       inkscape:connector-curvature="0"
       d="M 36.44451,-85.6575 H 34.4445"
       style="fill:none;stroke:#ff0000;stroke-width:0.238125;stroke-linecap:round"
       id="path442" />
    <path
       inkscape:connector-curvature="0"
       d="m 36.84451,-85.2575 a 0.39999999,0.39999999 0 0 0 -0.4,-0.4"
       style="fill:none;stroke:#ff0000;stroke-width:0.238125;stroke-linecap:round"
       id="path444" />
    <path
       inkscape:connector-curvature="0"
       d="m 36.84451,-84.8575 v -0.4"
       style="fill:none;stroke:#ff0000;stroke-width:0.238125;stroke-linecap:round"
       id="path446" />
    <path
       inkscape:connector-curvature="0"
       d="m 36.84451,-84.8575 a 0.39999999,0.39999999 0 0 0 0.39999,0.4"
       style="fill:none;stroke:#ff0000;stroke-width:0.238125;stroke-linecap:round"
       id="path448" />
    <path
       inkscape:connector-curvature="0"
       d="m 38.4445,-84.4575 h -1.2"
       style="fill:none;stroke:#ff0000;stroke-width:0.238125;stroke-linecap:round"
       id="path450" />
    <path
       inkscape:connector-curvature="0"
       d="m 38.84452,-84.0575 a 0.39999999,0.39999999 0 0 0 -0.40002,-0.4"
       style="fill:none;stroke:#ff0000;stroke-width:0.238125;stroke-linecap:round"
       id="path452" />
    <path
       inkscape:connector-curvature="0"
       d="m 38.84452,-81.7575 v -2.3"
       style="fill:none;stroke:#ff0000;stroke-width:0.238125;stroke-linecap:round"
       id="path454" />
    <path
       inkscape:connector-curvature="0"
       d="m 38.4445,-81.3575 a 0.39999999,0.39999999 0 0 0 0.40002,-0.4"
       style="fill:none;stroke:#ff0000;stroke-width:0.238125;stroke-linecap:round"
       id="path456" />
    <path
       inkscape:connector-curvature="0"
       d="m 37.2445,-81.3575 h 1.2"
       style="fill:none;stroke:#ff0000;stroke-width:0.238125;stroke-linecap:round"
       id="path458" />
    <path
       inkscape:connector-curvature="0"
       d="m 37.2445,-81.3575 a 0.39999999,0.39999999 0 0 0 -0.39999,0.4"
       style="fill:none;stroke:#ff0000;stroke-width:0.238125;stroke-linecap:round"
       id="path460" />
    <path
       inkscape:connector-curvature="0"
       d="m 36.84451,-80.5575 v -0.4"
       style="fill:none;stroke:#ff0000;stroke-width:0.238125;stroke-linecap:round"
       id="path462" />
    <path
       inkscape:connector-curvature="0"
       d="m 36.44451,-80.1575 a 0.39999999,0.39999999 0 0 0 0.4,-0.4"
       style="fill:none;stroke:#ff0000;stroke-width:0.238125;stroke-linecap:round"
       id="path464" />
    <path
       inkscape:connector-curvature="0"
       d="m 34.4445,-80.1575 h 2.00001"
       style="fill:none;stroke:#ff0000;stroke-width:0.238125;stroke-linecap:round"
       id="path466" />
    <path
       inkscape:connector-curvature="0"
       d="m 34.0445,-80.5575 a 0.39999999,0.39999999 0 0 0 0.4,0.4"
       style="fill:none;stroke:#ff0000;stroke-width:0.238125;stroke-linecap:round"
       id="path468" />
    <path
       inkscape:connector-curvature="0"
       d="m 34.0445,-80.9575 v 0.4"
       style="fill:none;stroke:#ff0000;stroke-width:0.238125;stroke-linecap:round"
       id="path470" />
    <path
       inkscape:connector-curvature="0"
       d="m 34.0445,-80.9575 a 0.39999999,0.39999999 0 0 0 -0.4,-0.4"
       style="fill:none;stroke:#ff0000;stroke-width:0.238125;stroke-linecap:round"
       id="path472" />
    <path
       inkscape:connector-curvature="0"
       d="m 22.8445,-81.3575 h 10.8"
       style="fill:none;stroke:#ff0000;stroke-width:0.238125;stroke-linecap:round"
       id="path474" />
    <path
       inkscape:connector-curvature="0"
       d="m 22.8445,-47.9075 v -33.45"
       style="fill:none;stroke:#ff0000;stroke-width:0.238125;stroke-linecap:round"
       id="path476" />
    <path
       inkscape:connector-curvature="0"
       d="M 16.84449,-47.9075 H 22.8445"
       style="fill:none;stroke:#ff0000;stroke-width:0.238125;stroke-linecap:round"
       id="path478" />
    <path
       inkscape:connector-curvature="0"
       d="M 16.84449,-47.9075 V 11.0597"
       style="fill:none;stroke:#ff0000;stroke-width:0.238125;stroke-linecap:round"
       id="path480" />
    <path
       inkscape:connector-curvature="0"
       d="M 22.8445,11.0597 H 16.84449"
       style="fill:none;stroke:#ff0000;stroke-width:0.238125;stroke-linecap:round"
       id="path482" />
    <path
       inkscape:connector-curvature="0"
       d="m 22.8445,59.5097 v -48.45"
       style="fill:none;stroke:#ff0000;stroke-width:0.238125;stroke-linecap:round"
       id="path484" />
    <path
       inkscape:connector-curvature="0"
       d="m 33.6445,59.5097 h -10.8"
       style="fill:none;stroke:#ff0000;stroke-width:0.238125;stroke-linecap:round"
       id="path486" />
    <path
       inkscape:connector-curvature="0"
       d="m 33.6445,59.5097 a 0.39999999,0.39999999 0 0 0 0.4,-0.4"
       style="fill:none;stroke:#ff0000;stroke-width:0.238125;stroke-linecap:round"
       id="path488" />
    <path
       inkscape:connector-curvature="0"
       d="m 34.0445,58.7097 v 0.4"
       style="fill:none;stroke:#ff0000;stroke-width:0.238125;stroke-linecap:round"
       id="path490" />
    <path
       inkscape:connector-curvature="0"
       d="m 34.4445,58.3097 a 0.39999999,0.39999999 0 0 0 -0.4,0.4"
       style="fill:none;stroke:#ff0000;stroke-width:0.238125;stroke-linecap:round"
       id="path492" />
    <path
       inkscape:connector-curvature="0"
       d="M 36.44451,58.3097 H 34.4445"
       style="fill:none;stroke:#ff0000;stroke-width:0.238125;stroke-linecap:round"
       id="path494" />
    <path
       inkscape:connector-curvature="0"
       d="m 36.84451,58.7097 a 0.39999999,0.39999999 0 0 0 -0.4,-0.4"
       style="fill:none;stroke:#ff0000;stroke-width:0.238125;stroke-linecap:round"
       id="path496" />
    <path
       inkscape:connector-curvature="0"
       d="m 36.84451,59.1097 v -0.4"
       style="fill:none;stroke:#ff0000;stroke-width:0.238125;stroke-linecap:round"
       id="path498" />
    <path
       inkscape:connector-curvature="0"
       d="m 36.84451,59.1097 a 0.39999999,0.39999999 0 0 0 0.39999,0.4"
       style="fill:none;stroke:#ff0000;stroke-width:0.238125;stroke-linecap:round"
       id="path500" />
    <path
       inkscape:connector-curvature="0"
       d="m 38.4445,59.5097 h -1.2"
       style="fill:none;stroke:#ff0000;stroke-width:0.238125;stroke-linecap:round"
       id="path502" />
    <path
       inkscape:connector-curvature="0"
       d="m 38.84452,59.9097 a 0.39999999,0.39999999 0 0 0 -0.40002,-0.4"
       style="fill:none;stroke:#ff0000;stroke-width:0.238125;stroke-linecap:round"
       id="path504" />
    <path
       inkscape:connector-curvature="0"
       d="m 38.84452,62.2097 v -2.3"
       style="fill:none;stroke:#ff0000;stroke-width:0.238125;stroke-linecap:round"
       id="path506" />
    <path
       inkscape:connector-curvature="0"
       d="m 38.4445,62.6097 a 0.39999999,0.39999999 0 0 0 0.40002,-0.4"
       style="fill:none;stroke:#ff0000;stroke-width:0.238125;stroke-linecap:round"
       id="path508" />
    <path
       inkscape:connector-curvature="0"
       d="m 37.2445,62.6097 h 1.2"
       style="fill:none;stroke:#ff0000;stroke-width:0.238125;stroke-linecap:round"
       id="path510" />
    <path
       inkscape:connector-curvature="0"
       d="m 37.2445,62.6097 a 0.39999999,0.39999999 0 0 0 -0.39999,0.4"
       style="fill:none;stroke:#ff0000;stroke-width:0.238125;stroke-linecap:round"
       id="path512" />
    <path
       inkscape:connector-curvature="0"
       d="m 36.84451,63.4097 v -0.4"
       style="fill:none;stroke:#ff0000;stroke-width:0.238125;stroke-linecap:round"
       id="path514" />
    <path
       inkscape:connector-curvature="0"
       d="m 36.44451,63.8097 a 0.39999999,0.39999999 0 0 0 0.4,-0.4"
       style="fill:none;stroke:#ff0000;stroke-width:0.238125;stroke-linecap:round"
       id="path516" />
    <path
       inkscape:connector-curvature="0"
       d="m 34.4445,63.8097 h 2.00001"
       style="fill:none;stroke:#ff0000;stroke-width:0.238125;stroke-linecap:round"
       id="path518" />
    <path
       inkscape:connector-curvature="0"
       d="m 34.0445,63.4097 a 0.39999999,0.39999999 0 0 0 0.4,0.4"
       style="fill:none;stroke:#ff0000;stroke-width:0.238125;stroke-linecap:round"
       id="path520" />
    <path
       inkscape:connector-curvature="0"
       d="m 378.57699,-77.22282 a 24,24 0 1 0 0,-48 24,24 0 1 0 0,48 z"
       style="fill:none;stroke:#ff0000;stroke-width:0.238125;stroke-linecap:round"
       id="path736" />
    <path
       inkscape:connector-curvature="0"
       d="m 378.57699,-13.22283 a 24,24 0 1 0 0,-48 24,24 0 1 0 0,48 z"
       style="fill:none;stroke:#ff0000;stroke-width:0.238125;stroke-linecap:round"
       id="path738" />
    <path
       inkscape:connector-curvature="0"
       d="m 378.57699,164.98134 a 24,24 0 1 0 0,-47.99999 24,24 0 1 0 0,47.99999 z"
       style="fill:none;stroke:#ff0000;stroke-width:0.238125;stroke-linecap:round"
       id="path740" />
    <path
       inkscape:connector-curvature="0"
       d="m 378.57699,228.98135 a 24.00001,24.00001 0 1 0 0,-48.00002 24.00001,24.00001 0 1 0 0,48.00002 z"
       style="fill:none;stroke:#ff0000;stroke-width:0.238125;stroke-linecap:round"
       id="path742" />
    <path
       inkscape:connector-curvature="0"
       d="m 356.427,185.08134 a 2.250005,2.250005 0 1 0 0,-4.50001 2.250005,2.250005 0 1 0 0,4.50001 z"
       style="fill:none;stroke:#ff0000;stroke-width:0.238125;stroke-linecap:round"
       id="path744" />
    <path
       inkscape:connector-curvature="0"
       d="m 400.72699,229.38135 a 2.250005,2.250005 0 1 0 0,-4.50001 2.250005,2.250005 0 1 0 0,4.50001 z"
       style="fill:none;stroke:#ff0000;stroke-width:0.238125;stroke-linecap:round"
       id="path746" />
    <path
       inkscape:connector-curvature="0"
       d="m 400.72699,165.38134 a 2.250005,2.250005 0 1 0 0,-4.50001 2.250005,2.250005 0 1 0 0,4.50001 z"
       style="fill:none;stroke:#ff0000;stroke-width:0.238125;stroke-linecap:round"
       id="path748" />
    <path
       inkscape:connector-curvature="0"
       d="m 356.427,121.08133 a 2.25,2.25 0 1 0 0,-4.49998 2.25,2.25 0 1 0 0,4.49998 z"
       style="fill:none;stroke:#ff0000;stroke-width:0.238125;stroke-linecap:round"
       id="path750" />
    <path
       inkscape:connector-curvature="0"
       d="m 400.72699,-12.82282 a 2.250005,2.250005 0 1 0 0,-4.50001 2.250005,2.250005 0 1 0 0,4.50001 z"
       style="fill:none;stroke:#ff0000;stroke-width:0.238125;stroke-linecap:round"
       id="path752" />
    <path
       inkscape:connector-curvature="0"
       d="m 356.427,-57.12283 a 2.25,2.25 0 1 0 0,-4.49999 2.25,2.25 0 1 0 0,4.49999 z"
       style="fill:none;stroke:#ff0000;stroke-width:0.238125;stroke-linecap:round"
       id="path754" />
    <path
       inkscape:connector-curvature="0"
       d="m 400.72699,-76.82283 a 2.25,2.25 0 1 0 0,-4.49999 2.25,2.25 0 1 0 0,4.49999 z"
       style="fill:none;stroke:#ff0000;stroke-width:0.238125;stroke-linecap:round"
       id="path756" />
    <path
       inkscape:connector-curvature="0"
       d="m 356.427,-121.12282 a 2.25,2.25 0 1 0 0,-4.5 2.25,2.25 0 1 0 0,4.5 z"
       style="fill:none;stroke:#ff0000;stroke-width:0.238125;stroke-linecap:round"
       id="path758" />
    <path
       inkscape:connector-curvature="0"
       d="M 329.62074,-187.12074 V -29.78741"
       style="fill:none;stroke:#ff0000;stroke-width:0.238125;stroke-linecap:round"
       id="path760" />
    <path
       inkscape:connector-curvature="0"
       d="m 335.62075,-29.78741 h -6.00001"
       style="fill:none;stroke:#ff0000;stroke-width:0.238125;stroke-linecap:round"
       id="path762" />
    <path
       inkscape:connector-curvature="0"
       d="M 335.62075,133.54593 V -29.78741"
       style="fill:none;stroke:#ff0000;stroke-width:0.238125;stroke-linecap:round"
       id="path764" />
    <path
       inkscape:connector-curvature="0"
       d="m 329.62074,133.54593 h 6.00001"
       style="fill:none;stroke:#ff0000;stroke-width:0.238125;stroke-linecap:round"
       id="path766" />
    <path
       inkscape:connector-curvature="0"
       d="M 329.62074,133.54593 V 290.87924"
       style="fill:none;stroke:#ff0000;stroke-width:0.238125;stroke-linecap:round"
       id="path768" />
    <path
       inkscape:connector-curvature="0"
       d="m 335.62075,290.87924 h -6.00001"
       style="fill:none;stroke:#ff0000;stroke-width:0.238125;stroke-linecap:round"
       id="path770" />
    <path
       inkscape:connector-curvature="0"
       d="m 335.62075,296.87925 v -6.00001"
       style="fill:none;stroke:#ff0000;stroke-width:0.238125;stroke-linecap:round"
       id="path772" />
    <path
       inkscape:connector-curvature="0"
       d="m 335.62075,296.87925 h 82.84999"
       style="fill:none;stroke:#ff0000;stroke-width:0.238125;stroke-linecap:round"
       id="path774" />
    <path
       inkscape:connector-curvature="0"
       d="m 418.47074,290.87924 v 6.00001"
       style="fill:none;stroke:#ff0000;stroke-width:0.238125;stroke-linecap:round"
       id="path776" />
    <path
       inkscape:connector-curvature="0"
       d="m 424.47074,290.87924 h -6"
       style="fill:none;stroke:#ff0000;stroke-width:0.238125;stroke-linecap:round"
       id="path778" />
    <path
       inkscape:connector-curvature="0"
       d="m 418.47074,133.54593 h 6"
       style="fill:none;stroke:#ff0000;stroke-width:0.238125;stroke-linecap:round"
       id="path782" />
    <path
       inkscape:connector-curvature="0"
       d="M 418.47074,-29.78741 V 133.54593"
       style="fill:none;stroke:#ff0000;stroke-width:0.238125;stroke-linecap:round"
       id="path784" />
    <path
       inkscape:connector-curvature="0"
       d="m 424.47074,-29.78741 h -6"
       style="fill:none;stroke:#ff0000;stroke-width:0.238125;stroke-linecap:round"
       id="path786" />
    <path
       inkscape:connector-curvature="0"
       d="m 418.47074,-187.12074 h 6"
       style="fill:none;stroke:#ff0000;stroke-width:0.238125;stroke-linecap:round"
       id="path790" />
    <path
       inkscape:connector-curvature="0"
       d="m 418.47074,-193.12074 v 6"
       style="fill:none;stroke:#ff0000;stroke-width:0.238125;stroke-linecap:round"
       id="path792" />
    <path
       inkscape:connector-curvature="0"
       d="M 418.47074,-193.12074 H 335.62075"
       style="fill:none;stroke:#ff0000;stroke-width:0.238125;stroke-linecap:round"
       id="path794" />
    <path
       inkscape:connector-curvature="0"
       d="m 335.62075,-187.12074 v -6"
       style="fill:none;stroke:#ff0000;stroke-width:0.238125;stroke-linecap:round"
       id="path796" />
    <path
       inkscape:connector-curvature="0"
       d="m 329.62074,-187.12074 h 6.00001"
       style="fill:none;stroke:#ff0000;stroke-width:0.238125;stroke-linecap:round"
       id="path798" />
    <path
       inkscape:connector-curvature="0"
       d="m 524.49075,133.54591 h -6"
       style="fill:none;stroke:#ff0000;stroke-width:0.238125;stroke-linecap:round"
       id="path897" />
    <path
       inkscape:connector-curvature="0"
       d="M 524.49075,133.54591 V -29.78743"
       style="fill:none;stroke:#ff0000;stroke-width:0.238125;stroke-linecap:round"
       id="path899" />
    <path
       inkscape:connector-curvature="0"
       d="m 518.49075,-29.78743 h 6"
       style="fill:none;stroke:#ff0000;stroke-width:0.238125;stroke-linecap:round"
       id="path901" />
    <g
       id="g8517">
      <path
         id="path780"
         style="fill:none;stroke:#ff0000;stroke-width:0.238125;stroke-linecap:round"
         d="M 424.47074,290.87924 V 133.54593"
         inkscape:connector-curvature="0" />
      <path
         id="path788"
         style="fill:none;stroke:#ff0000;stroke-width:0.238125;stroke-linecap:round"
         d="M 424.47074,-29.78741 V -187.12074"
         inkscape:connector-curvature="0" />
      <path
         id="path885"
         style="fill:none;stroke:#ff0000;stroke-width:0.238125;stroke-linecap:round"
         d="m 442.47076,290.87922 h -18"
         inkscape:connector-curvature="0" />
      <path
         id="path887"
         style="fill:none;stroke:#ff0000;stroke-width:0.238125;stroke-linecap:round"
         d="m 442.47076,296.87923 v -6.00001"
         inkscape:connector-curvature="0" />
      <path
         id="path889"
         style="fill:none;stroke:#ff0000;stroke-width:0.238125;stroke-linecap:round"
         d="m 442.47076,296.87923 h 58.01999"
         inkscape:connector-curvature="0" />
      <path
         id="path891"
         style="fill:none;stroke:#ff0000;stroke-width:0.238125;stroke-linecap:round"
         d="m 500.49075,290.87922 v 6.00001"
         inkscape:connector-curvature="0" />
      <path
         id="path893"
         style="fill:none;stroke:#ff0000;stroke-width:0.238125;stroke-linecap:round"
         d="m 518.49075,290.87922 h -18"
         inkscape:connector-curvature="0" />
      <path
         id="path895"
         style="fill:none;stroke:#ff0000;stroke-width:0.238125;stroke-linecap:round"
         d="M 518.49075,133.54591 V 290.87922"
         inkscape:connector-curvature="0" />
      <path
         id="path903"
         style="fill:none;stroke:#ff0000;stroke-width:0.238125;stroke-linecap:round"
         d="M 518.49075,-187.12076 V -29.78743"
         inkscape:connector-curvature="0" />
      <path
         id="path905"
         style="fill:none;stroke:#ff0000;stroke-width:0.238125;stroke-linecap:round"
         d="m 500.49075,-187.12076 h 18"
         inkscape:connector-curvature="0" />
      <path
         id="path907"
         style="fill:none;stroke:#ff0000;stroke-width:0.238125;stroke-linecap:round"
         d="m 500.49075,-193.12076 v 6"
         inkscape:connector-curvature="0" />
      <path
         id="path909"
         style="fill:none;stroke:#ff0000;stroke-width:0.238125;stroke-linecap:round"
         d="M 500.49075,-193.12076 H 442.47076"
         inkscape:connector-curvature="0" />
      <path
         id="path911"
         style="fill:none;stroke:#ff0000;stroke-width:0.238125;stroke-linecap:round"
         d="m 442.47076,-187.12076 v -6"
         inkscape:connector-curvature="0" />
      <path
         id="path913"
         style="fill:none;stroke:#ff0000;stroke-width:0.238125;stroke-linecap:round"
         d="m 424.47076,-187.12076 h 18"
         inkscape:connector-curvature="0" />
    </g>
    <path
       inkscape:connector-curvature="0"
       d="m 167.87077,-152.92081 a 4.2,4.2 0 1 0 0,-8.4 4.2,4.2 0 1 0 0,8.4 z"
       style="fill:none;stroke:#ff0000;stroke-width:0.238125;stroke-linecap:round"
       id="path1063" />
    <path
       inkscape:connector-curvature="0"
       d="M 14.87076,-136.62081 V 240.37916"
       style="fill:none;stroke:#ff0000;stroke-width:0.238125;stroke-linecap:round"
       id="path1065" />
    <path
       inkscape:connector-curvature="0"
       d="M 314.87077,-136.62081 H 14.87076"
       style="fill:none;stroke:#ff0000;stroke-width:0.238125;stroke-linecap:round"
       id="path1067" />
    <path
       inkscape:connector-curvature="0"
       d="M 314.87077,240.37916 V -136.62081"
       style="fill:none;stroke:#ff0000;stroke-width:0.238125;stroke-linecap:round"
       id="path1069" />
    <path
       inkscape:connector-curvature="0"
       d="M 14.87076,240.37916 H 314.87077"
       style="fill:none;stroke:#ff0000;stroke-width:0.238125;stroke-linecap:round"
       id="path1071" />
    <path
       inkscape:connector-curvature="0"
       d="m 258.62077,-187.12081 h 71"
       style="fill:none;stroke:#ff0000;stroke-width:0.238125;stroke-linecap:round"
       id="path1079" />
    <path
       inkscape:connector-curvature="0"
       d="m 258.62077,-193.12081 v 6"
       style="fill:none;stroke:#ff0000;stroke-width:0.238125;stroke-linecap:round"
       id="path1081" />
    <path
       inkscape:connector-curvature="0"
       d="m 258.62077,-193.12081 h -181.5"
       style="fill:none;stroke:#ff0000;stroke-width:0.238125;stroke-linecap:round"
       id="path1083" />
    <path
       inkscape:connector-curvature="0"
       d="m 77.12077,-187.12081 v -6"
       style="fill:none;stroke:#ff0000;stroke-width:0.238125;stroke-linecap:round"
       id="path1085" />
    <path
       inkscape:connector-curvature="0"
       d="m 0.12077,-187.12081 h 77"
       style="fill:none;stroke:#ff0000;stroke-width:0.238125;stroke-linecap:round"
       id="path1087" />
    <path
       inkscape:connector-curvature="0"
       d="M 0.12077,-187.12081 V 290.87916"
       style="fill:none;stroke:#ff0000;stroke-width:0.238125;stroke-linecap:round"
       id="path1089" />
    <path
       inkscape:connector-curvature="0"
       d="m 77.12077,290.87916 h -77"
       style="fill:none;stroke:#ff0000;stroke-width:0.238125;stroke-linecap:round"
       id="path1091" />
    <path
       inkscape:connector-curvature="0"
       d="m 77.12077,296.87916 v -6"
       style="fill:none;stroke:#ff0000;stroke-width:0.238125;stroke-linecap:round"
       id="path1093" />
    <path
       inkscape:connector-curvature="0"
       d="m 77.12077,296.87916 h 181.5"
       style="fill:none;stroke:#ff0000;stroke-width:0.238125;stroke-linecap:round"
       id="path1095" />
    <path
       inkscape:connector-curvature="0"
       d="m 258.62077,290.87916 v 6"
       style="fill:none;stroke:#ff0000;stroke-width:0.238125;stroke-linecap:round"
       id="path1097" />
    <path
       inkscape:connector-curvature="0"
       d="m 329.62077,290.87916 h -71"
       style="fill:none;stroke:#ff0000;stroke-width:0.238125;stroke-linecap:round"
       id="path1099" />
    <path
       inkscape:connector-curvature="0"
       d="m 167.87077,265.07916 a 4.2,4.2 0 1 0 0,-8.4 4.2,4.2 0 1 0 0,8.4 z"
       style="fill:none;stroke:#ff0000;stroke-width:0.238125;stroke-linecap:round"
       id="path1105" />
    <path
       inkscape:connector-curvature="0"
       d="m 615.44027,251.87924 h 1"
       style="fill:none;stroke:#ff0000;stroke-width:0.238125;stroke-linecap:round"
       id="path1754" />
    <path
       inkscape:connector-curvature="0"
       d="m 609.94027,246.37924 a 5.5,5.5 0 0 0 5.5,5.5"
       style="fill:none;stroke:#ff0000;stroke-width:0.238125;stroke-linecap:round"
       id="path1756" />
    <path
       inkscape:connector-curvature="0"
       d="m 609.94027,-142.62076 v 389"
       style="fill:none;stroke:#ff0000;stroke-width:0.238125;stroke-linecap:round"
       id="path1758" />
    <path
       inkscape:connector-curvature="0"
       d="m 615.44027,-148.12076 a 5.5,5.5 0 0 0 -5.5,5.5"
       style="fill:none;stroke:#ff0000;stroke-width:0.238125;stroke-linecap:round"
       id="path1760" />
    <path
       inkscape:connector-curvature="0"
       d="m 616.44027,-148.12076 h -1"
       style="fill:none;stroke:#ff0000;stroke-width:0.238125;stroke-linecap:round"
       id="path1762" />
    <path
       inkscape:connector-curvature="0"
       d="m 621.94027,-142.62076 a 5.5,5.5 0 0 0 -5.5,-5.5"
       style="fill:none;stroke:#ff0000;stroke-width:0.238125;stroke-linecap:round"
       id="path1764" />
    <path
       inkscape:connector-curvature="0"
       d="m 621.94027,246.37924 v -389"
       style="fill:none;stroke:#ff0000;stroke-width:0.238125;stroke-linecap:round"
       id="path1766" />
    <path
       inkscape:connector-curvature="0"
       d="m 616.44027,251.87924 a 5.5,5.5 0 0 0 5.5,-5.5"
       style="fill:none;stroke:#ff0000;stroke-width:0.238125;stroke-linecap:round"
       id="path1768" />
    <path
       inkscape:connector-curvature="0"
       d="m 665.44027,251.87924 h 1"
       style="fill:none;stroke:#ff0000;stroke-width:0.238125;stroke-linecap:round"
       id="path1770" />
    <path
       inkscape:connector-curvature="0"
       d="m 659.94027,246.37924 a 5.5,5.5 0 0 0 5.5,5.5"
       style="fill:none;stroke:#ff0000;stroke-width:0.238125;stroke-linecap:round"
       id="path1772" />
    <path
       inkscape:connector-curvature="0"
       d="m 659.94027,-142.62076 v 389"
       style="fill:none;stroke:#ff0000;stroke-width:0.238125;stroke-linecap:round"
       id="path1774" />
    <path
       inkscape:connector-curvature="0"
       d="m 665.44027,-148.12076 a 5.5,5.5 0 0 0 -5.5,5.5"
       style="fill:none;stroke:#ff0000;stroke-width:0.238125;stroke-linecap:round"
       id="path1776" />
    <path
       inkscape:connector-curvature="0"
       d="m 666.44027,-148.12076 h -1"
       style="fill:none;stroke:#ff0000;stroke-width:0.238125;stroke-linecap:round"
       id="path1778" />
    <path
       inkscape:connector-curvature="0"
       d="m 671.94027,-142.62076 a 5.5,5.5 0 0 0 -5.5,-5.5"
       style="fill:none;stroke:#ff0000;stroke-width:0.238125;stroke-linecap:round"
       id="path1780" />
    <path
       inkscape:connector-curvature="0"
       d="m 671.94027,246.37924 v -389"
       style="fill:none;stroke:#ff0000;stroke-width:0.238125;stroke-linecap:round"
       id="path1782" />
    <path
       inkscape:connector-curvature="0"
       d="m 666.44027,251.87924 a 5.5,5.5 0 0 0 5.5,-5.5"
       style="fill:none;stroke:#ff0000;stroke-width:0.238125;stroke-linecap:round"
       id="path1784" />
    <path
       inkscape:connector-curvature="0"
       d="M 631.08408,-193.12076 H 574.78741"
       style="fill:none;stroke:#ff0000;stroke-width:0.238125;stroke-linecap:round"
       id="path1786" />
    <path
       inkscape:connector-curvature="0"
       d="m 574.78741,-187.12076 v -6"
       style="fill:none;stroke:#ff0000;stroke-width:0.238125;stroke-linecap:round"
       id="path1788" />
    <path
       inkscape:connector-curvature="0"
       d="m 518.49074,-187.12076 h 56.29667"
       style="fill:none;stroke:#ff0000;stroke-width:0.238125;stroke-linecap:round"
       id="path1790" />
    <path
       inkscape:connector-curvature="0"
       d="M 574.78741,290.87922 H 518.49074"
       style="fill:none;stroke:#ff0000;stroke-width:0.238125;stroke-linecap:round"
       id="path1802" />
    <path
       inkscape:connector-curvature="0"
       d="m 574.78741,296.87923 v -6.00001"
       style="fill:none;stroke:#ff0000;stroke-width:0.238125;stroke-linecap:round"
       id="path1804" />
    <path
       inkscape:connector-curvature="0"
       d="m 574.78741,296.87923 h 56.29667"
       style="fill:none;stroke:#ff0000;stroke-width:0.238125;stroke-linecap:round"
       id="path1806" />
    <path
       inkscape:connector-curvature="0"
       d="m 631.08408,290.87922 v 6.00001"
       style="fill:none;stroke:#ff0000;stroke-width:0.238125;stroke-linecap:round"
       id="path1808" />
    <path
       inkscape:connector-curvature="0"
       d="M 687.38074,290.87922 H 631.08408"
       style="fill:none;stroke:#ff0000;stroke-width:0.238125;stroke-linecap:round"
       id="path1810" />
    <path
       inkscape:connector-curvature="0"
       d="M 687.38074,290.87922 V -187.12076"
       style="fill:none;stroke:#ff0000;stroke-width:0.238125;stroke-linecap:round"
       id="path1812" />
    <path
       inkscape:connector-curvature="0"
       d="m 631.08408,-187.12076 h 56.29666"
       style="fill:none;stroke:#ff0000;stroke-width:0.238125;stroke-linecap:round"
       id="path1814" />
    <path
       inkscape:connector-curvature="0"
       d="m 631.08408,-193.12076 v 6"
       style="fill:none;stroke:#ff0000;stroke-width:0.238125;stroke-linecap:round"
       id="path1816" />
    <path
       inkscape:connector-curvature="0"
       d="m 559.94027,246.37924 a 5.5,5.5 0 0 0 5.5,5.5"
       style="fill:none;stroke:#ff0000;stroke-width:0.238125;stroke-linecap:round"
       id="path1818" />
    <path
       inkscape:connector-curvature="0"
       d="m 559.94027,-142.62076 v 389"
       style="fill:none;stroke:#ff0000;stroke-width:0.238125;stroke-linecap:round"
       id="path1820" />
    <path
       inkscape:connector-curvature="0"
       d="m 565.44027,-148.12076 a 5.5,5.5 0 0 0 -5.5,5.5"
       style="fill:none;stroke:#ff0000;stroke-width:0.238125;stroke-linecap:round"
       id="path1822" />
    <path
       inkscape:connector-curvature="0"
       d="m 566.44027,-148.12076 h -1"
       style="fill:none;stroke:#ff0000;stroke-width:0.238125;stroke-linecap:round"
       id="path1824" />
    <path
       inkscape:connector-curvature="0"
       d="m 571.94027,-142.62076 a 5.5,5.5 0 0 0 -5.5,-5.5"
       style="fill:none;stroke:#ff0000;stroke-width:0.238125;stroke-linecap:round"
       id="path1826" />
    <path
       inkscape:connector-curvature="0"
       d="m 571.94027,246.37924 v -389"
       style="fill:none;stroke:#ff0000;stroke-width:0.238125;stroke-linecap:round"
       id="path1828" />
    <path
       inkscape:connector-curvature="0"
       d="m 566.44027,251.87924 a 5.5,5.5 0 0 0 5.5,-5.5"
       style="fill:none;stroke:#ff0000;stroke-width:0.238125;stroke-linecap:round"
       id="path1830" />
    <path
       inkscape:connector-curvature="0"
       d="m 565.44027,251.87924 h 1"
       style="fill:none;stroke:#ff0000;stroke-width:0.238125;stroke-linecap:round"
       id="path1832" />
    <path
       sodipodi:nodetypes="cssssccscsccccscscsccssccssscscsccscscccccccscsscsscsccsccccssccscccscccsssssscsssscssscsssssssssscccsscccccsssssssscsscscssssssssssscssscssscscssssscssssssscccccccccccccssccccscccsscsccsccsccssssccscssccscscsssscsssscccssscsccccccsscccccccccscscsccccsccccccsccssscccsccscccccccsscscccsccccccssccccssscscsssssscssssscccssccssscccssssssssscccsssccc"
       inkscape:connector-curvature="0"
       d="m 497.04148,47.253478 c 0.99478,-1.94088 3.21208,-2.82765 5.35892,-2.14322 1.16257,0.37064 2.38425,1.61871 2.72213,2.78093 1.20479,4.14439 -3.82917,7.28025 -7.0452,4.38877 -1.15148,-1.03527 -1.47722,-1.81223 -1.40761,-3.35737 0.0316,-0.70147 0.15135,-1.2391 0.37176,-1.66911 z m -48.68631,-132.121 c 0.11937,0.15783 0.21704,0.46643 0.21704,0.6858 0,0.80977 0.31496,0.96451 3.70106,1.81819 1.75103,0.44148 3.46396,0.94876 3.8065,1.12729 l 0.6228,0.32463 -0.005,3.56985 -0.005,3.56979 -0.52157,0.39546 c -0.40432,0.30653 -1.27494,0.57943 -3.873,1.21405 -2.30225,0.56239 -3.40991,0.89866 -3.53823,1.07414 -0.10273,0.14049 -0.1889,0.4922 -0.19149,0.78155 -0.003,0.28934 -0.10237,0.65522 -0.22173,0.81301 -0.19168,0.25345 -0.21649,-0.64471 -0.21234,-7.6869 0.004,-7.04347 0.03,-7.94032 0.22174,-7.68687 z m 0,19.66069 c 0.11937,0.15784 0.21704,0.49969 0.21704,0.75971 0,0.89186 0.25129,1.0164 3.82331,1.89467 1.81826,0.44706 3.41477,0.90599 3.54779,1.01979 0.13303,0.11383 0.35975,0.24881 0.50383,0.29996 0.24326,0.0863 0.25744,0.3453 0.19869,3.63023 -0.0591,3.30483 -0.0829,3.5569 -0.36163,3.83565 -0.46615,0.46614 -0.6424,0.52562 -4.01638,1.35508 -1.74802,0.42972 -3.29464,0.88203 -3.43692,1.00509 -0.14657,0.12678 -0.25869,0.43027 -0.25869,0.70015 0,0.26201 -0.0998,0.55919 -0.22174,0.66041 -0.19664,0.16319 -0.22121,-0.70082 -0.21704,-7.63184 0.004,-6.90457 0.03,-7.7824 0.22174,-7.5289 z m -0.0829,19.66677 c 0.079,0.0488 0.18691,0.41566 0.23993,0.81531 0.053,0.39963 0.20461,0.82049 0.33688,0.93526 0.13229,0.11478 1.72665,0.5858 3.54303,1.04672 2.14533,0.54439 3.45818,0.95266 3.74678,1.16516 l 0.44426,0.3271 -0.0512,3.49665 -0.0512,3.49663 -0.38158,0.3536 c -0.34538,0.32004 -3.07155,1.06743 -7.41618,2.03316 l -0.55434,0.12322 v -6.94076 c 0,-4.45138 0.0515,-6.90897 0.14354,-6.85205 z m 0.15211,47.4543796 c 0.192,0 0.22174,0.57467 0.22174,4.284899 0,3.9774104 -0.0187,4.2885004 -0.26095,4.3351504 -0.2453,0.0472 -0.25859,-0.20967 -0.22174,-4.2848904 0.0338,-3.737489 0.0698,-4.335159 0.26095,-4.335159 z m -0.1431,40.7967304 c 0.067,-0.0414 0.16435,0.0587 0.21633,0.2225 0.10665,0.33601 -0.31314,0.31885 7.49483,0.30667 3.07688,-0.005 4.12198,0.0386 4.20608,0.17467 0.0616,0.0996 0.13723,0.7476 0.16817,1.44006 0.0873,1.95355 0.27201,1.86191 -3.61551,1.79345 -1.77477,-0.0313 -3.45967,-0.0421 -3.74423,-0.024 -1.03948,0.0661 -4.6598,0.0962 -4.7737,0.0397 -0.15503,-0.0769 -0.10912,-3.856 0.048,-3.95312 z m 5.47894,8.94631 c 6.55742,0 6.39182,-0.0314 6.54469,1.24075 0.19899,1.65608 0.13826,1.74426 -1.23715,1.79603 -0.36587,0.0137 -1.03108,0.0946 -1.47825,0.1797 -0.44717,0.085 -2.75877,0.16287 -5.1369,0.17293 l -4.32388,0.0183 v -1.70385 -1.70388 z m -5.61863,54.001712 c 0.0146,-13.511922 0.0399,-24.599742 0.10434,-24.639582 h 1e-5 c 0.23129,-0.14294 2.1099,0.60385 2.91652,1.15939 0.95136,0.65523 2.0409,1.81717 2.44299,2.60533 0.44431,0.87092 0.83672,2.4805 1.11129,4.55823 0.21883,1.65599 0.22814,2.08167 0.0662,3.02834 -0.1661,0.97099 -0.25893,1.17273 -0.78351,1.702539 -0.32729,0.33057 -0.6854,0.60104 -0.79579,0.60104 -0.11039,0 -0.31622,0.0588 -0.45741,0.13058 -0.14117,0.0718 -0.42298,0.19887 -0.62624,0.28233 -1.89486,0.77812 -2.56268,1.37523 -3.1125,2.78294 -0.23204,0.59409 -0.343,1.19695 -0.35046,1.9041 -0.01,0.942113 0.0487,1.153603 0.65429,2.361623 l 0.66521,1.32685 -0.0408,4.88179 c -0.0224,2.68498 -0.10141,7.84198 -0.1755,11.45999 -0.14751,7.20316 0.51242,7.6746 -0.28657,9.69686 l -0.65908,1.66814 c -0.2986,1.54538 -0.0776,2.27659 0.086,2.76106 0.31417,0.93032 0.72442,1.46502 1.52493,1.87583 0.35106,0.18015 1.66768,0.51495 2.98477,0.75898 0.25505,0.0473 0.92708,0.69994 0.92708,0.90039 0,0.0915 0.0777,0.24409 0.17264,0.33905 0.28878,0.28877 0.56191,1.25102 0.56426,1.9879 0.006,1.84295 -0.72566,5.587 -1.3188,6.74966 -0.42185,0.8269 -1.53799,1.9984 -2.54397,2.67017 -0.7477,0.49929 -2.462,1.19168 -2.95052,1.19168 -0.0763,0 -0.13225,-3.75122 -0.13225,-8.86948 0,-4.87822 -0.0421,-10.65659 -0.0115,-10.82507 z m -14.78176,80.81446 c 0.3874,0 0.74616,0.1103 0.99782,0.30676 0.21612,0.16872 0.75881,0.51863 1.20598,0.77758 l 0.81304,0.47081 0.0379,11.78753 0.0379,11.78754 h 5.8372 5.8372 l 0.038,-10.45861 c 0.0354,-9.76043 0.054,-10.429 0.27878,-10.01513 0.13246,0.24391 0.31959,1.12888 0.41587,1.96659 0.25416,2.21174 0.67178,3.22931 1.50137,3.65831 0.65023,0.33625 1.53284,0.25938 2.64959,-0.23077 1.40347,-0.61599 3.46124,-1.27314 4.89867,-1.5644 1.49261,-0.30244 2.41929,-0.21867 4.17703,0.37759 3.05523,1.03639 5.28276,1.1766 18.801,1.18342 l 9.62371,0.005 0.49219,-0.3326 c 1.38102,-0.93324 1.73589,-3.42119 2.07856,-14.57221 0.12781,-4.15923 0.12761,-6.47058 -10e-4,-9.38686 -0.29966,-6.8036 -0.68484,-8.37804 -2.26723,-9.2674 l -0.62277,-0.35002 -6.58108,-0.0563 c -7.87484,-0.0673 -18.04331,0.17234 -19.73989,0.4653 -0.65175,0.11254 -1.90853,0.41203 -2.79284,0.66553 -0.88431,0.25351 -1.95356,0.46091 -2.3761,0.46091 -0.92314,0 -2.55585,-0.40248 -4.0677,-1.00273 -1.32633,-0.52658 -2.34087,-0.68459 -3.48101,-0.54214 -1.27002,0.15868 -1.65172,0.56944 -1.91637,2.06226 -0.11531,0.65043 -0.21197,1.52708 -0.21481,1.94812 -0.003,0.48686 -0.0882,0.84851 -0.23314,0.9935 -0.12539,0.12539 -0.32057,0.47938 -0.43373,0.78664 -0.17954,0.48748 -0.20229,-0.47686 -0.17854,-7.56779 l 0.0272,-8.12645 1.03477,-0.26444 c 3.13508,-0.80119 5.84921,-3.11071 6.88257,-5.85656 0.36537,-0.97085 0.79302,-3.07734 1.00974,-4.97368 0.34105,-2.9843 0.48797,-3.85131 0.69056,-4.07517 0.11704,-0.12927 0.21275,-0.30704 0.21275,-0.39503 0,-0.26488 0.88581,-0.92541 1.24103,-0.92541 0.18226,0 0.68025,-0.1036 1.10664,-0.23023 1.6778,-0.49825 2.86697,-2.32005 2.8892,-4.42625 0.01,-0.92682 -0.0535,-1.16586 -0.60638,-2.29128 l -0.61729,-1.25651 0.13532,-5.61734 c 0.0744,-3.08954 0.12024,-8.24494 0.1018,-11.45643 -0.037,-6.44846 -0.0196,-6.61021 0.93405,-8.67665 0.64443,-1.39639 0.7269,-2.589883 0.28241,-4.087123 -0.23765,-0.80056 -0.49005,-1.29751 -0.86832,-1.70971 -0.57017,-0.62133 -1.4268,-1.1939 -1.78978,-1.19629 -0.12196,-5.4e-4 -0.38804,-0.0864 -0.5913,-0.19025 -0.20326,-0.10383 -0.56301,-0.20333 -0.79945,-0.2211 -0.65408,-0.0492 -1.33016,-0.65954 -1.78555,-1.611999 -0.32733,-0.68459 -0.45338,-1.26384 -0.62116,-2.85451 -0.2575,-2.44145 -0.65442,-4.52919 -1.07205,-5.6389 -0.96938,-2.57587 -3.5226,-4.87739 -6.29126,-5.67107 -0.48783,-0.13984 -1.03663,-0.31172 -1.21956,-0.38197 l -0.3326,-0.1277 v -9.24222 -9.24221 h 5.85235 5.85235 l 0.4302,0.40604 0.4302,0.40604 v 2.40264 2.40262 h 21.65108 21.65109 l 0.70741,-0.39357 c 0.38908,-0.21648 1.34985,-0.81517 2.13504,-1.33042 0.7852,-0.51527 1.46347,-0.93686 1.50729,-0.93686 0.0438,0 0.48234,-0.23602 0.97452,-0.52446 l 0.89487,-0.52447 v -12.55478 -12.55455 l -0.55434,-0.27427 c -0.55632,-0.27521 -4.81477,-2.76435 -6.45864,-3.77517 l -0.87825,-0.54003 H 481.5121 460.70025 l -0.0401,2.84562 c -0.031,2.20017 -0.0833,2.84562 -0.23032,2.84562 -0.1046,0 -0.24829,0.094 -0.31931,0.20896 -0.10642,0.17218 -1.13144,0.22124 -5.82604,0.27878 -5.4581,0.0669 -5.69877,0.0816 -5.74151,0.35124 -0.0245,0.15479 -0.11112,0.2788 -0.19243,0.27558 -0.0972,-0.004 -0.15475,-4.37228 -0.16805,-12.75575 -0.0111,-7.012441 0.0104,-12.633491 0.0478,-12.491201 0.0374,0.14229 0.17956,0.25972 0.31588,0.26095 0.48109,0.004 0.60065,0.23907 0.82183,1.61311 0.12287,0.76336 0.31008,1.44289 0.41601,1.5101 0.29042,0.18419 30.99106,0.15835 32.47199,-0.0274 4.32946,-0.54286 7.89474,-3.57356 9.20937,-7.8285004 0.49451,-1.60055 0.49337,-4.46963 -0.002,-6.055609 -1.1731,-3.75271997 -3.95805,-6.53605 -7.53039,-7.52597 -2.12625,-0.58921 -4.02245,-0.65748 -15.33004,-0.55183 -5.85386,0.0547 -11.2212,0.0546 -11.92742,0 l -1.28403,-0.0997 -0.10083,-0.60716 c -0.29436,-1.77266 -1.147,-2.25384 -3.5268,-1.99025 -2.06852,0.22909 -2.02194,0.18506 -2.40301,2.27121 -0.1781,0.97499 -0.37057,2.29062 -0.42771,2.9236 -0.0785,0.86933 -0.1667,1.18451 -0.36057,1.28828003 -0.14116,0.0755 -0.29867,0.0953 -0.35001,0.044 -0.0513,-0.0513 -0.0933,-5.73654003 -0.0933,-12.63381963 v -12.54046 l 3.43693,0.003 c 4.16962,0.003 4.70604,0.10282 5.18189,0.95996 0.56891,1.02475 1.04154,1.15746 4.53758,1.27399 3.86939,0.12898 4.84914,0.24133 5.02857,0.57661 0.28743,0.53705 0.45842,0.53146 7.3148,-0.23904 6.45408,-0.72528 7.50719,-0.95556 8.38498,-1.83336 l 0.55842,-0.5584 v -31.65922 c 0,-34.75357 0.0723,-32.07123 -0.88623,-32.87779 -0.72501,-0.61006 -2.31012,-0.93683 -6.57892,-1.35626 -1.30086,-0.12781 -3.48088,-0.3605 -4.84449,-0.51708 -2.75911,-0.31686 -3.31675,-0.27803 -3.51552,0.24477 -0.0729,0.19183 -0.2174,0.34991 -0.32104,0.3513 -1.89119,0.0253 -7.18257,0.33155 -7.75534,0.44886 -0.98225,0.20119 -1.70123,0.68741 -1.866,1.26192 -0.0895,0.31203 -0.32145,0.55632 -0.75109,0.79102 -0.61202,0.33433 -0.67409,0.33824 -4.01439,0.25322 -1.86602,-0.0475 -3.50917,-0.0887 -3.65146,-0.0915 -0.2436,-0.005 -0.25869,-0.55268 -0.25869,-9.39202 v -9.386878 h -5.83908 -5.83907 v 8.618618 8.61862 l -0.46497,0.63225 c -0.55167,0.75018 -0.89726,0.90425 -2.02811,0.90425 -0.46627,0 -0.92759,0.0798 -1.02516,0.17739 -0.25553,0.25553 -0.2414,2.98543 0.0166,3.19952 0.10668,0.0885 0.6401,0.15336 1.18538,0.14407 0.54529,-0.009 1.01681,0.01 1.04783,0.0419 0.031,0.0324 0.32912,0.42288 0.66243,0.86788 l 0.60603,0.80885 v 6.55475 6.55475 l -0.62825,0.72952 -0.62826,0.72952 -1.04217,8e-5 c -0.61337,5e-5 -1.11514,0.073 -1.21955,0.17746 -0.11292,0.11292 -0.17739,0.68461 -0.17739,1.57282 0,1.65044 0.0993,1.78571 1.31537,1.79291 0.77935,0.004 0.81642,0.0245 1.5869,0.85467 l 0.78891,0.84998 0.002,6.34347 0.002,6.3435 -0.35512,0.60428 c -0.55284,0.94076 -1.10244,1.26951 -2.12235,1.26951 -0.47485,0 -0.9432,0.0798 -1.04076,0.17739 -0.26693,0.26692 -0.23891,2.88653 0.0338,3.15922 0.13391,0.13393 0.52603,0.21213 1.07173,0.21378 0.82408,0.003 0.89343,0.0332 1.63663,0.72466 l 0.77608,0.72208 -0.002,6.70352 c -0.001,3.68696 -0.0511,6.7715 -0.11087,6.85456 -0.0597,0.0831 -0.4033,0.39905 -0.76347,0.70217 -0.5819,0.48974 -0.74661,0.55166 -1.47825,0.55583 -1.23366,0.007 -1.34077,0.1449 -1.34077,1.72565 0,1.66945 0.12182,1.81744 1.49607,1.81744 0.93005,0 0.9719,0.0168 1.57747,0.63387 l 0.62208,0.63384 v 11.40228 11.4020396 l -0.9239,0.82419 c -0.86224,0.76918003 -0.97373,0.82422003 -1.67042,0.82485003 -0.41058,0 -0.82634,0.0805 -0.92391,0.17806 -0.0981,0.0982 -0.17739,0.56962 -0.17739,1.05544 0,1.06730997 0.19995,1.26879997 1.26573,1.27548997 0.7197,0.004 0.78051,0.0385 1.58911,0.88775 l 0.84078,0.883089 v 2.86949 2.86948 l -0.68331,0.8300004 -0.68332,0.83003 h -0.87856 c -1.28069,0 -1.45043,0.13277 -1.45043,1.13453 0,1.02587 0.21093,1.21949 1.33548,1.22597 0.78933,0.004 0.84518,0.0321 1.58911,0.78542 l 0.77103,0.78074 -0.01,11.525671 -0.01,11.52568 -0.82726,0.70217 c -0.77056,0.65405 -0.88388,0.70232 -1.65338,0.70443 -1.17065,0.003 -1.21717,0.0567 -1.16569,1.34119 l 0.0439,1.09566 1.1076,0.0739 1.1076,0.0739 0.70325,1.02517 c 0.64532,0.94074 0.70326,1.09758 0.70326,1.9041 0,0.84326 -0.0315,0.91672 -0.77607,1.81165 l -0.77609,0.93273 -0.84856,-0.0105 c -0.47793,-0.006 -0.94603,0.0704 -1.07173,0.17471 -0.278,0.23074 -0.31401,2.0686 -0.0458,2.33683 0.0997,0.0997 0.57749,0.17738 1.09089,0.17738 0.89715,0 0.92249,0.0113 1.41706,0.62827 0.88261,1.1011 1.01029,1.3847 1.01029,2.24392 0,0.63864 -0.0584,0.8443 -0.27244,0.95884 -0.14984,0.0802 -0.54877,0.5118 -0.88652,0.95914 l -0.61408,0.81334 -0.73693,-0.0873 c -1.04232,-0.12345 -1.18566,0.0393 -1.18566,1.34616 0,0.62816 0.0724,1.13341 0.17739,1.23842 0.0976,0.0976 0.5552,0.17738 1.01697,0.17738 0.8195,0 0.85326,0.0165 1.41173,0.69085 1.18881,1.43545 1.08747,0.64141 1.08856,8.52931 l 0.001,7.07669 -1.20883,1.23844 c -1.00558,1.03024 -1.28642,1.23845 -1.67042,1.23845 -0.64219,0 -0.81638,0.23656 -0.81638,1.10868 0,0.91369 0.17004,1.10869 0.96674,1.10869 0.55938,0 0.7029,0.0895 1.67042,1.04181 l 1.05847,1.0418 v 33.815702 33.81601 l -1.13208,0.91578 c -0.91408,0.73943 -1.23432,0.91622 -1.66303,0.91804 -0.83146,0.004 -0.92147,0.12688 -0.87122,1.1938 l 0.0447,0.94745 0.66521,0.0458 c 0.51772,0.0357 0.77992,0.15577 1.18259,0.54171 0.28457,0.27274 0.80011,0.64133 1.14565,0.81909 l 0.62825,0.3232 v 7.87579 7.87576 l -0.47516,0.19682 c -0.26134,0.10825 -0.88394,0.51013 -1.38355,0.89306 -0.49961,0.38293 -1.10067,0.71819 -1.33569,0.74502 -0.40397,0.0461 -0.42975,0.0912 -0.47198,0.82486 -0.0429,0.74518 -0.0297,0.77608 0.3326,0.77608 0.20751,0 0.37729,0.0652 0.37729,0.14482 0,0.0796 0.28271,0.28831 0.62825,0.46367 0.34554,0.17538 0.8028,0.45945 1.01615,0.63127 0.21333,0.17182 0.59583,0.42572 0.84999,0.56422 l 0.4621,0.25182 v 3.10467 3.10468 l -1.07173,0.63232 c -1.24124,0.73234 -2.12568,1.15461 -2.41829,1.15461 -0.15449,0 -0.2056,0.23885 -0.2056,0.96087 v 0.96086 h 0.60488 z"
       style="fill:#000000;stroke:none;stroke-width:0.15025938"
       id="path4146" />
  </g>
</svg>
