<?xml version="1.0" encoding="UTF-8" standalone="no"?>
<!-- Created with Inkscape (http://www.inkscape.org/) -->

<svg
   width="134mm"
   height="71mm"
   viewBox="0 0 134 71"
   version="1.1"
   id="svg1"
   inkscape:version="1.1.2 (b8e25be833, 2022-02-05)"
   sodipodi:docname="Audio Single.svg"
   xmlns:inkscape="http://www.inkscape.org/namespaces/inkscape"
   xmlns:sodipodi="http://sodipodi.sourceforge.net/DTD/sodipodi-0.dtd"
   xmlns="http://www.w3.org/2000/svg"
   xmlns:svg="http://www.w3.org/2000/svg">
  <sodipodi:namedview
     id="namedview1"
     pagecolor="#ffffff"
     bordercolor="#000000"
     borderopacity="0.25"
     inkscape:showpageshadow="2"
     inkscape:pageopacity="0.0"
     inkscape:pagecheckerboard="0"
     inkscape:deskcolor="#d1d1d1"
     inkscape:document-units="mm"
     inkscape:zoom="2.0485264"
     inkscape:cx="235.77924"
     inkscape:cy="183.05842"
     inkscape:window-width="1920"
     inkscape:window-height="1137"
     inkscape:window-x="-8"
     inkscape:window-y="-8"
     inkscape:window-maximized="1"
     inkscape:current-layer="layer1"
     inkscape:pageshadow="2"
     showgrid="false" />
  <defs
     id="defs1" />
  <g
     inkscape:label="Layer 1"
     inkscape:groupmode="layer"
     id="layer1">
    <path
       id="path205"
       style="fill:none;stroke:#ff0000;stroke-width:0.1;stroke-linecap:round;stroke-dasharray:none"
       d="m 36.052124,29.13248 v 2.599999 M 26.051985,29.13248 H 36.052124 M 26.051985,31.732479 V 29.13248 m 10.000139,2.599999 H 26.051985" />
    <path
       id="path213"
       style="fill:none;stroke:#ff0000;stroke-width:0.1;stroke-linecap:round;stroke-dasharray:none"
       d="m 71.051998,29.13248 v 2.599999 M 61.052073,29.13248 h 9.999925 m -9.999925,2.599999 V 29.13248 m 9.999925,2.599999 h -9.999925" />
    <path
       id="path221"
       style="fill:none;stroke:#ff0000;stroke-width:0.0981698;stroke-linecap:round;stroke-dasharray:none"
       d="m 22.733218,15.281423 v 19.701829 m -2.60183,-19.701829 h 2.60183 m -2.60183,19.701829 V 15.281423 m 2.60183,19.701829 h -2.60183" />
    <path
       id="path229"
       style="fill:none;stroke:#ff0000;stroke-width:0.0981744;stroke-linecap:round;stroke-dasharray:none"
       d="m 79.733301,20.281425 v 9.701825 m -2.601826,-9.701825 h 2.601826 m -2.601826,9.701825 v -9.701825 m 2.601826,9.701825 h -2.601826" />
    <path
       style="fill:none;stroke:#ff0000;stroke-width:0.264583;stroke-linecap:round"
       d="m 40.132263,42.533625 v 0.198438"
       id="path243" />
    <path
       style="fill:none;stroke:#ff0000;stroke-width:0.264583;stroke-linecap:round"
       d="M 40.132263,7.532426 V 7.732451"
       id="path259" />
    <path
       id="path261"
       style="fill:none;stroke:#ff0000;stroke-width:0.264583;stroke-linecap:round"
       d="M 40.13229,7.532375 A 7.3999999,7.3999999 0 0 0 32.732291,0.132377 m 7.399999,7.6 a 7.3999999,7.3999999 0 0 0 7.400001,7.399999 m 1.03e-4,-5.9e-5 h 45.199834 m 7.400062,7.400052 a 7.3999999,7.3999999 0 0 0 -7.400002,-7.399993 m 7.400062,12.600458 v -5.201708 m -7.400062,12.601257 a 7.3999999,7.3999999 0 0 0 7.400002,-7.399999 M 92.732228,35.13323 H 47.532394 m -1.03e-4,-8.47e-4 a 7.3999999,7.3999999 0 0 0 -7.400001,7.399999 m -7.399999,7.599997 A 7.3999999,7.3999999 0 0 0 40.13229,42.73238 m -39.999999,0 a 7.3999999,7.3999999 0 0 0 7.4,7.399999 m -7.4,-42.599953 v 35.199637 m 7.4,-42.599686 a 7.3999999,7.3999999 0 0 0 -7.4,7.399998 M 32.732397,0.132295 H 7.532289" />
    <path
       id="path364"
       style="fill:none;stroke:#ff0000;stroke-width:0.264583;stroke-linecap:round"
       d="m 67.407769,64.750894 c 0,2.76142 2.238568,4.99999 4.999987,5 m -4.999987,-5 c 0,-2.76143 -2.238586,-6.58751 -5.000016,-6.5875 m -8.47e-4,2e-5 H 47.407677 m 0,-10.000008 v 10.000008 m 0,-10.000008 h 14.999229 m 8.47e-4,-6e-6 c 2.76143,9e-6 5.000016,-3.82607 5.000016,-6.5875 m 4.999987,-5 c -2.761419,7e-6 -4.999987,2.238581 -4.999987,5 m 13.000067,-5 h -7.99968 m 9.9996,2 c 0,-1.10457 -0.89543,-2 -2,-2 m 2.00006,3.16783 v -1.167831 m -1.66672,3.139868 c 0.96229,-0.162659 1.66666,-0.996089 1.66666,-1.972027 m -1.66666,1.972027 c -11.111114,1.878117 -11.111114,21.017147 0,22.895267 m 1.66666,1.97202 c 0,-0.97594 -0.70438,-1.80936 -1.66666,-1.97202 m 1.66672,3.13992 v -1.16787 m -2.00006,3.16781 c 1.10457,0 2,-0.89543 2,-2 m -9.9996,2.00005 h 7.99968"
       sodipodi:nodetypes="cccccccccccccccccccccccccccccccc" />
    <path
       id="path586"
       style="fill:none;stroke:#ff0000;stroke-width:0.264583;stroke-linecap:round"
       d="m 109.45237,10.132383 c -1e-5,-5.5228388 -4.47715,-9.9999875 -9.999985,-9.9999985 m 9.999985,9.9999985 c -1e-5,5.522848 8.71048,6.295834 14.23333,6.295834 m -10e-4,2.7e-5 h 10.00125 m 0,19.999959 V 16.428244 m 0,19.999959 H 123.6847 m 10e-4,1.3e-5 c -5.52285,0 -14.23333,0.772986 -14.23333,6.295833 m -9.999985,9.999999 c 5.522835,-1.1e-5 9.999975,-4.477159 9.999985,-9.999999 m -28.000097,9.999999 h 17.999082 m -19.998982,-2 c 0,1.10457 0.89543,2 2,2 m -2.00008,-5.58178 v 3.58178 m 1.83681,-5.575093 c -1.037788,0.085 -1.836729,0.952059 -1.83673,1.993323 m 1.83673,-1.993323 c 11.675154,-0.956265 20.663257,-7.006492 20.663257,-18.720739 0,-11.714247 -8.988103,-17.7644738 -20.663257,-18.7207388 m -1.83673,-1.993323 c 1e-6,1.041264 0.798942,1.908319 1.83673,1.993323 m -1.83681,-5.575201 v 3.581931 m 2.00008,-5.5818227 c -1.104569,-10e-8 -1.999999,0.8954292 -2,1.9999977 M 99.451355,0.1322915 H 81.452273"
       sodipodi:nodetypes="cccccccccccccccccccccccsccccccccc" />
    <path
       id="path441"
       style="fill:none;stroke:#ff0000;stroke-width:0.264583;stroke-linecap:round"
       d="M 0.132291,50.121671 V 70.121523 M 45.132363,50.121671 H 0.132291 M 45.132363,70.121523 V 50.121671 m -10.0002,19.999852 h 10.0002 m -10.0002,0 V 67.12115 m 0,0 H 10.132298 m 0,0 v 3.000373 m -10.000007,0 h 10.000007" />
    <g
       id="g2174"
       transform="matrix(0.82582471,0,0,0.82582471,-13.074244,-34.957661)">
      <text
         xml:space="preserve"
         style="font-style:normal;font-weight:normal;font-size:10.5833px;line-height:1.25;font-family:sans-serif;fill:#000000;fill-opacity:1;stroke:none;stroke-width:0.264583"
         x="26.034441"
         y="111.77674"
         id="text1708"><tspan
           sodipodi:role="line"
           id="tspan1706"
           style="font-style:normal;font-variant:normal;font-weight:normal;font-stretch:normal;font-size:10.5833px;font-family:Georgia;-inkscape-font-specification:'Georgia, Normal';font-variant-ligatures:normal;font-variant-caps:normal;font-variant-numeric:normal;font-variant-east-asian:normal;stroke-width:0.264583"
           x="26.034441"
           y="111.77674">AUDIO</tspan></text>
      <text
         xml:space="preserve"
         style="font-style:normal;font-weight:normal;font-size:10.5833px;line-height:1.25;font-family:sans-serif;fill:#000000;fill-opacity:1;stroke:none;stroke-width:0.264583"
         x="30.509535"
         y="120.17895"
         id="text6498"><tspan
           sodipodi:role="line"
           id="tspan6496"
           style="font-style:normal;font-variant:normal;font-weight:normal;font-stretch:normal;font-size:10.5833px;font-family:Georgia;-inkscape-font-specification:'Georgia, Normal';font-variant-ligatures:normal;font-variant-caps:normal;font-variant-numeric:normal;font-variant-east-asian:normal;stroke-width:0.264583"
           x="30.509535"
           y="120.17895">2024</tspan></text>
    </g>
  </g>
</svg>
