<?xml version="1.0" encoding="UTF-8" standalone="no"?>
<!-- Created with Inkscape (http://www.inkscape.org/) -->

<svg
   width="132mm"
   height="71mm"
   viewBox="0 0 132 71"
   version="1.1"
   id="svg1"
   inkscape:version="1.3 (0e150ed6c4, 2023-07-21)"
   sodipodi:docname="Socapex Single.svg"
   xmlns:inkscape="http://www.inkscape.org/namespaces/inkscape"
   xmlns:sodipodi="http://sodipodi.sourceforge.net/DTD/sodipodi-0.dtd"
   xmlns="http://www.w3.org/2000/svg"
   xmlns:svg="http://www.w3.org/2000/svg">
  <sodipodi:namedview
     id="namedview1"
     pagecolor="#ffffff"
     bordercolor="#000000"
     borderopacity="0.25"
     inkscape:showpageshadow="2"
     inkscape:pageopacity="0.0"
     inkscape:pagecheckerboard="0"
     inkscape:deskcolor="#d1d1d1"
     inkscape:document-units="mm"
     inkscape:zoom="1.4485269"
     inkscape:cx="200.89374"
     inkscape:cy="224.02069"
     inkscape:window-width="1920"
     inkscape:window-height="1009"
     inkscape:window-x="-8"
     inkscape:window-y="-8"
     inkscape:window-maximized="1"
     inkscape:current-layer="layer1" />
  <defs
     id="defs1" />
  <g
     inkscape:label="Layer 1"
     inkscape:groupmode="layer"
     id="layer1">
    <path
       id="path205"
       style="fill:none;stroke:#ff0000;stroke-width:0.1;stroke-linecap:round;stroke-dasharray:none"
       d="m 36.052124,29.13248 v 2.599999 M 26.051985,29.13248 H 36.052124 M 26.051985,31.732479 V 29.13248 m 10.000139,2.599999 H 26.051985" />
    <path
       id="path213"
       style="fill:none;stroke:#ff0000;stroke-width:0.1;stroke-linecap:round;stroke-dasharray:none"
       d="m 71.051998,29.13248 v 2.599999 M 61.052073,29.13248 h 9.999925 m -9.999925,2.599999 V 29.13248 m 9.999925,2.599999 h -9.999925" />
    <path
       id="path221"
       style="fill:none;stroke:#ff0000;stroke-width:0.0981698;stroke-linecap:round;stroke-dasharray:none"
       d="m 22.733218,15.281423 v 19.701829 m -2.60183,-19.701829 h 2.60183 m -2.60183,19.701829 V 15.281423 m 2.60183,19.701829 h -2.60183" />
    <path
       id="path229"
       style="fill:none;stroke:#ff0000;stroke-width:0.0981744;stroke-linecap:round;stroke-dasharray:none"
       d="m 79.733301,20.281425 v 9.701825 m -2.601826,-9.701825 h 2.601826 m -2.601826,9.701825 v -9.701825 m 2.601826,9.701825 h -2.601826" />
    <path
       style="fill:none;stroke:#ff0000;stroke-width:0.264583;stroke-linecap:round"
       d="m 40.132263,42.533625 v 0.198438"
       id="path243" />
    <path
       style="fill:none;stroke:#ff0000;stroke-width:0.264583;stroke-linecap:round"
       d="M 40.132263,7.532426 V 7.732451"
       id="path259" />
    <path
       id="path261"
       style="fill:none;stroke:#ff0000;stroke-width:0.264583;stroke-linecap:round"
       d="M 40.13229,7.532375 A 7.3999999,7.3999999 0 0 0 32.732291,0.132377 m 7.399999,7.6 a 7.3999999,7.3999999 0 0 0 7.400001,7.399999 m 1.03e-4,-5.9e-5 h 45.199834 m 7.400062,7.400052 a 7.3999999,7.3999999 0 0 0 -7.400002,-7.399993 m 7.400062,12.600458 v -5.201708 m -7.400062,12.601257 a 7.3999999,7.3999999 0 0 0 7.400002,-7.399999 M 92.732228,35.13323 H 47.532394 m -1.03e-4,-8.47e-4 a 7.3999999,7.3999999 0 0 0 -7.400001,7.399999 m -7.399999,7.599997 A 7.3999999,7.3999999 0 0 0 40.13229,42.73238 m -39.999999,0 a 7.3999999,7.3999999 0 0 0 7.4,7.399999 m -7.4,-42.599953 v 35.199637 m 7.4,-42.599686 a 7.3999999,7.3999999 0 0 0 -7.4,7.399998 M 32.732397,0.132295 H 7.532289" />
    <path
       id="path364"
       style="fill:none;stroke:#ff0000;stroke-width:0.264583;stroke-linecap:round"
       d="m 67.750311,61.467141 a 5,5 0 0 0 4.999987,5 m -4.999987,-5 a 5,5 0 0 0 -5.000016,-5 m -8.47e-4,2e-5 H 47.750219 m 0,-10.00001 v 10.00001 m 0,-10.00001 h 14.999229 m 8.47e-4,-6e-6 a 5,5 0 0 0 5.000016,-5 m 4.999987,-5 a 5,5 0 0 0 -4.999987,5 m 13.000067,-5 h -7.99968 m 9.9996,2 a 1.9999999,1.9999999 0 0 0 -2,-2 m 2.00006,3.16783 v -1.167831 m -1.66672,3.139868 a 1.9999999,1.9999999 0 0 0 1.66666,-1.972027 m -1.66666,1.972027 a 10,10 0 0 0 0,19.720269 m 1.66666,1.97202 a 1.9999999,1.9999999 0 0 0 -1.66666,-1.97202 m 1.66672,3.13992 v -1.16787 m -2.00006,3.16781 a 1.9999999,1.9999999 0 0 0 2,-2 m -9.9996,2.00005 h 7.99968" />
    <path
       id="path586"
       style="fill:none;stroke:#ff0000;stroke-width:0.264583;stroke-linecap:round"
       d="m 110.91362,10.132382 a 10,10 0 0 0 -9.99998,-9.999998 m 9.99998,9.999998 a 10,10 0 0 0 10,10.000001 m -10e-4,2.7e-5 h 10.00125 m 0,19.999959 V 20.13241 m 0,19.999959 h -10.00125 m 10e-4,1.3e-5 a 10,10 0 0 0 -10,10 m -9.99998,9.999999 a 10,10 0 0 0 9.99998,-9.999999 m -28.000092,9.999999 h 17.999082 m -19.998982,-2 a 1.9999999,1.9999999 0 0 0 2,2 m -2.00008,-5.58178 v 3.58178 m 1.83681,-5.575093 a 1.9999999,1.9999999 0 0 0 -1.83673,1.993323 m 1.83673,-1.993323 a 22.5,22.5 0 0 0 0,-44.849812 m -1.83673,-1.993323 a 1.9999999,1.9999999 0 0 0 1.83673,1.993323 m -1.83681,-5.5752 v 3.58193 m 2.00008,-5.581822 a 1.9999999,1.9999999 0 0 0 -2,1.999998 M 100.91261,0.132291 H 82.913528" />
    <g
       id="g2196"
       transform="translate(-75.354177,-32.062317)">
      <path
         id="path441"
         style="fill:none;stroke:#ff0000;stroke-width:0.264583;stroke-linecap:round"
         d="M 75.486468,82.183988 V 102.18384 M 120.48654,82.183988 H 75.486468 M 120.48654,102.18384 V 82.183988 m -10.0002,19.999852 h 10.0002 m -10.0002,0 v -3.000373 m 0,0 H 85.486475 m 0,0 v 3.000373 m -10.000007,0 h 10.000007" />
      <g
         id="g2174"
         transform="translate(57.721949,0.47192797)">
        <path
           d="m 24.68307,86.407094 q 0.186035,0.206706 0.272852,0.454753 0.09095,0.243913 0.09095,0.570508 0,0.777214 -0.574642,1.281576 -0.574642,0.504362 -1.42627,0.504362 -0.392741,0 -0.785482,-0.119889 -0.392741,-0.124024 -0.677995,-0.297656 l -0.177767,0.30179 h -0.33073 l -0.05788,-2.00918 h 0.334863 q 0.103353,0.37207 0.239779,0.673861 0.14056,0.297656 0.367936,0.558105 0.214974,0.243913 0.500228,0.388607 0.289388,0.144694 0.669727,0.144694 0.285254,0 0.496094,-0.07441 0.214974,-0.07441 0.347266,-0.21084 0.132292,-0.136426 0.194303,-0.318327 0.06615,-0.186035 0.06615,-0.425814 0,-0.3514 -0.198437,-0.65319 -0.198438,-0.305925 -0.591179,-0.463021 -0.268718,-0.107487 -0.615983,-0.235645 -0.347266,-0.132291 -0.599447,-0.248047 -0.496094,-0.223242 -0.77308,-0.58291 -0.272852,-0.363802 -0.272852,-0.946713 0,-0.334863 0.136426,-0.624251 0.136426,-0.289388 0.388607,-0.516765 0.239779,-0.214974 0.566374,-0.334863 0.326595,-0.124024 0.682129,-0.124024 0.405144,0 0.723471,0.124024 0.322461,0.124023 0.587044,0.289388 l 0.169499,-0.28112 h 0.330729 l 0.03307,1.947169 H 24.46396 q -0.09095,-0.334864 -0.206706,-0.640788 -0.111621,-0.305925 -0.293522,-0.553972 -0.177767,-0.239779 -0.434083,-0.380339 -0.256315,-0.144694 -0.628385,-0.144694 -0.392741,0 -0.669727,0.252181 -0.276986,0.252182 -0.276986,0.615984 0,0.380338 0.177767,0.63252 0.177767,0.248047 0.516765,0.409277 0.30179,0.144694 0.591178,0.252181 0.293523,0.103353 0.566374,0.223242 0.248047,0.107487 0.475424,0.243913 0.23151,0.136426 0.401009,0.318327 z"
           style="font-size:8.46667px;line-height:1.25;font-family:Georgia;-inkscape-font-specification:Georgia;text-align:center;letter-spacing:0px;word-spacing:0px;text-anchor:middle;stroke-width:0.264583"
           id="path2133" />
        <path
           d="m 30.520442,83.926625 q 0.388607,0.405143 0.607715,0.979785 0.219108,0.570508 0.219108,1.26504 0,0.698665 -0.223242,1.269173 -0.223242,0.570508 -0.620117,0.971518 -0.384473,0.396875 -0.892969,0.611849 -0.508497,0.214974 -1.083139,0.214974 -0.611849,0 -1.132748,-0.227377 -0.516764,-0.23151 -0.888835,-0.640788 -0.37207,-0.401009 -0.587044,-0.971517 -0.21084,-0.574642 -0.21084,-1.227832 0,-0.715202 0.223242,-1.273308 0.223242,-0.56224 0.615983,-0.971517 0.388607,-0.405144 0.901238,-0.620118 0.516764,-0.214974 1.079004,-0.214974 0.58291,0 1.099675,0.219108 0.516764,0.219108 0.892969,0.615984 z m -0.615983,4.15892 q 0.23151,-0.376204 0.334863,-0.851627 0.107487,-0.475424 0.107487,-1.062468 0,-0.603581 -0.119889,-1.107944 -0.115755,-0.504362 -0.343132,-0.859896 -0.227376,-0.3514 -0.570508,-0.545703 -0.343132,-0.198438 -0.785482,-0.198438 -0.496094,0 -0.84336,0.227377 -0.347265,0.227376 -0.566374,0.607715 -0.206705,0.363802 -0.310058,0.851628 -0.09922,0.487826 -0.09922,1.025261 0,0.595312 0.107487,1.07487 0.107487,0.479557 0.338997,0.851628 0.223243,0.363802 0.56224,0.570508 0.338998,0.202572 0.810287,0.202572 0.44235,0 0.797884,-0.206706 0.355534,-0.206706 0.578777,-0.578777 z"
           style="font-size:8.46667px;line-height:1.25;font-family:Georgia;-inkscape-font-specification:Georgia;text-align:center;letter-spacing:0px;word-spacing:0px;text-anchor:middle;stroke-width:0.264583"
           id="path2135" />
        <path
           d="m 34.666961,89.23483 q -0.525033,0 -1.008724,-0.206706 -0.479558,-0.206706 -0.851628,-0.595313 -0.367937,-0.388607 -0.587045,-0.946712 -0.219108,-0.56224 -0.219108,-1.26504 0,-0.7028 0.214974,-1.273308 0.214974,-0.574642 0.595313,-0.988054 0.376204,-0.409277 0.888835,-0.632519 0.51263,-0.223243 1.095541,-0.223243 0.434082,0 0.785482,0.107487 0.3514,0.107487 0.669727,0.301791 l 0.169498,-0.28112 h 0.33073 l 0.03721,2.091863 h -0.338998 q -0.06615,-0.305925 -0.198437,-0.661459 -0.132292,-0.359668 -0.310059,-0.607715 -0.198438,-0.28112 -0.471289,-0.438216 -0.272852,-0.161231 -0.624252,-0.161231 -0.401009,0 -0.748275,0.177767 -0.343132,0.177767 -0.595313,0.525033 -0.239778,0.334863 -0.376204,0.851628 -0.136426,0.516765 -0.136426,1.153418 0,0.56224 0.14056,1.033529 0.144694,0.467156 0.409277,0.82269 0.264584,0.351399 0.624252,0.549837 0.363802,0.198438 0.810287,0.198438 0.334863,0 0.615983,-0.103353 0.28112,-0.107487 0.487826,-0.28112 0.206706,-0.181901 0.363802,-0.413412 0.157096,-0.23151 0.256315,-0.504362 l 0.310059,0.148828 q -0.355534,0.872299 -0.942579,1.248503 -0.587044,0.372071 -1.397331,0.372071 z"
           style="font-size:8.46667px;line-height:1.25;font-family:Georgia;-inkscape-font-specification:Georgia;text-align:center;letter-spacing:0px;word-spacing:0px;text-anchor:middle;stroke-width:0.264583"
           id="path2137" />
        <path
           d="m 42.988936,89.098404 h -2.443263 v -0.293522 q 0.322461,-0.02067 0.533301,-0.08268 0.214974,-0.06201 0.214974,-0.152962 0,-0.03721 -0.0083,-0.09095 -0.0083,-0.05374 -0.02481,-0.09508 l -0.487826,-1.314649 h -2.054656 q -0.115755,0.289388 -0.190169,0.504362 -0.07028,0.214974 -0.128157,0.396875 -0.05374,0.177767 -0.07442,0.289388 -0.02067,0.111621 -0.02067,0.181901 0,0.165365 0.260449,0.256316 0.260449,0.09095 0.587045,0.107487 v 0.293522 H 36.944816 V 88.80489 q 0.107487,-0.0083 0.268717,-0.04548 0.161231,-0.04134 0.264584,-0.107487 0.165364,-0.111621 0.256315,-0.23151 0.09095,-0.124024 0.177767,-0.338998 0.44235,-1.103809 0.975651,-2.480469 0.533301,-1.376661 0.950847,-2.451531 h 0.330729 l 1.955437,5.060158 q 0.06201,0.16123 0.14056,0.260449 0.07855,0.09922 0.219108,0.194304 0.09509,0.05788 0.248047,0.09922 0.152963,0.03721 0.256316,0.04134 z m -2.364715,-2.397787 -0.888835,-2.273764 -0.872298,2.273764 z"
           style="font-size:8.46667px;line-height:1.25;font-family:Georgia;-inkscape-font-specification:Georgia;text-align:center;letter-spacing:0px;word-spacing:0px;text-anchor:middle;stroke-width:0.264583"
           id="path2139" />
        <path
           d="m 47.689427,84.679034 q 0,0.458887 -0.181901,0.814421 -0.177767,0.351399 -0.496094,0.58291 -0.314193,0.23151 -0.690398,0.338997 -0.376204,0.107488 -0.797884,0.107488 h -0.657325 v 1.777669 q 0,0.144695 0.04548,0.256316 0.04961,0.107487 0.198437,0.165364 0.07441,0.02894 0.26045,0.05374 0.190169,0.02481 0.347265,0.02894 v 0.293522 h -2.517676 v -0.293522 q 0.09922,-0.0083 0.285254,-0.02894 0.190169,-0.02067 0.264583,-0.05374 0.124024,-0.05374 0.177767,-0.157096 0.05788,-0.103353 0.05788,-0.264584 v -4.233335 q 0,-0.144694 -0.04134,-0.260449 -0.04134,-0.115755 -0.194304,-0.173633 -0.157096,-0.05374 -0.314193,-0.07441 -0.152962,-0.02481 -0.264583,-0.03307 V 83.2321 h 2.678907 q 0.818555,0 1.327051,0.396875 0.512631,0.392741 0.512631,1.050066 z m -1.256771,1.000456 q 0.140559,-0.198438 0.186035,-0.409278 0.04548,-0.214974 0.04548,-0.384473 0,-0.235644 -0.05788,-0.479557 -0.05374,-0.243913 -0.190169,-0.425814 -0.144694,-0.194303 -0.380339,-0.30179 -0.235644,-0.107487 -0.587044,-0.107487 h -0.582911 v 2.59209 h 0.42168 q 0.446485,0 0.723471,-0.136425 0.28112,-0.14056 0.42168,-0.347266 z"
           style="font-size:8.46667px;line-height:1.25;font-family:Georgia;-inkscape-font-specification:Georgia;text-align:center;letter-spacing:0px;word-spacing:0px;text-anchor:middle;stroke-width:0.264583"
           id="path2141" />
        <path
           d="m 53.295289,87.370343 -0.111622,1.728061 h -4.869988 v -0.293522 q 0.124023,-0.0083 0.330729,-0.03307 0.206706,-0.02894 0.268717,-0.05788 0.132292,-0.06201 0.181901,-0.16123 0.05374,-0.09922 0.05374,-0.252182 v -4.216798 q 0,-0.136426 -0.04547,-0.239779 -0.04548,-0.107487 -0.19017,-0.173633 -0.111621,-0.05374 -0.30179,-0.09508 -0.186035,-0.04134 -0.297656,-0.04961 v -0.293522 h 4.539259 v 1.413868 H 52.54288 q -0.08268,-0.314193 -0.359668,-0.665593 -0.272851,-0.355534 -0.520898,-0.388607 -0.128158,-0.01654 -0.305925,-0.02481 -0.177767,-0.0083 -0.405143,-0.0083 h -0.921908 v 2.331642 h 0.661458 q 0.318327,0 0.463021,-0.05788 0.148829,-0.06201 0.26045,-0.202572 0.09095,-0.119889 0.152962,-0.318327 0.06615,-0.202571 0.08682,-0.380338 h 0.310059 v 2.294434 h -0.310059 q -0.01654,-0.198437 -0.09095,-0.417545 -0.07028,-0.223243 -0.148828,-0.322462 -0.128158,-0.16123 -0.293523,-0.210839 -0.16123,-0.04961 -0.429948,-0.04961 h -0.661458 v 1.761134 q 0,0.264583 0.03721,0.417545 0.03721,0.152963 0.144694,0.231511 0.107487,0.07855 0.293522,0.103353 0.186035,0.02067 0.529167,0.02067 0.136426,0 0.359668,0 0.223242,0 0.376205,-0.01654 0.157096,-0.01654 0.322461,-0.05788 0.169499,-0.04547 0.239778,-0.119889 0.19017,-0.198438 0.396876,-0.599447 0.21084,-0.405143 0.268717,-0.595313 z"
           style="font-size:8.46667px;line-height:1.25;font-family:Georgia;-inkscape-font-specification:Georgia;text-align:center;letter-spacing:0px;word-spacing:0px;text-anchor:middle;stroke-width:0.264583"
           id="path2143" />
        <path
           d="m 59.513,89.098404 h -2.745053 v -0.293522 q 0.338998,-0.0083 0.545703,-0.06201 0.21084,-0.05788 0.21084,-0.173633 0,-0.06201 -0.09508,-0.256315 -0.09508,-0.194304 -0.243913,-0.434082 -0.165365,-0.264584 -0.392741,-0.620118 -0.227377,-0.359668 -0.450619,-0.686263 -0.363802,0.479557 -0.826823,1.157552 -0.463021,0.673861 -0.463021,0.793751 0,0.136426 0.124023,0.202571 0.128158,0.06201 0.558106,0.07855 v 0.293522 H 53.54334 v -0.293522 q 0.107487,-0.0083 0.272852,-0.02894 0.169499,-0.02481 0.276986,-0.07855 0.214974,-0.115756 0.343132,-0.248047 0.132291,-0.136426 0.264583,-0.318327 0.264583,-0.363802 0.677995,-0.905372 0.413412,-0.545703 0.731739,-0.992188 -0.239779,-0.351399 -0.61185,-0.888835 -0.37207,-0.541569 -0.79375,-1.157552 -0.177767,-0.260449 -0.28112,-0.367936 -0.09922,-0.107488 -0.268717,-0.186036 -0.09922,-0.04547 -0.276986,-0.07028 -0.173633,-0.02894 -0.276986,-0.03721 V 83.23209 h 2.716114 v 0.293522 q -0.239778,0.0083 -0.500228,0.06201 -0.256315,0.04961 -0.256315,0.157096 0,0.07855 0.103353,0.276986 0.103353,0.194304 0.243913,0.417546 0.144694,0.23151 0.322461,0.51263 0.177767,0.28112 0.434082,0.649057 0.467155,-0.63252 0.806153,-1.141016 0.338997,-0.508497 0.338997,-0.661459 0,-0.132292 -0.157096,-0.194304 -0.152962,-0.06201 -0.520899,-0.07855 v -0.293522 h 2.186948 v 0.293522 q -0.103353,0.0041 -0.272852,0.03307 -0.165365,0.02481 -0.276986,0.07441 -0.214974,0.103353 -0.322461,0.223243 -0.103353,0.119889 -0.28112,0.347265 -0.330729,0.425814 -0.611849,0.802019 -0.276986,0.37207 -0.669727,0.909505 0.33073,0.47129 0.735873,1.070737 0.409278,0.599446 0.781348,1.14515 0.128158,0.186035 0.293522,0.355534 0.165365,0.165364 0.268718,0.227376 0.09922,0.05788 0.264583,0.07441 0.169499,0.0124 0.285254,0.01654 z"
           style="font-size:8.46667px;line-height:1.25;font-family:Georgia;-inkscape-font-specification:Georgia;text-align:center;letter-spacing:0px;word-spacing:0px;text-anchor:middle;stroke-width:0.264583"
           id="path2145" />
      </g>
      <g
         id="g2180"
         transform="translate(57.907989,-3.7188485)">
        <path
           d="M 34.731039,99.76734 H 30.857372 V 99.2051 q 0.111622,-0.128158 0.310059,-0.285254 0.198438,-0.16123 0.471289,-0.347266 0.165365,-0.111621 0.396876,-0.243913 0.23151,-0.132291 0.525032,-0.289388 0.326596,-0.173633 0.500228,-0.305924 0.177767,-0.132292 0.322461,-0.326595 0.09509,-0.128158 0.152963,-0.318327 0.05788,-0.194304 0.05788,-0.549838 0,-0.516764 -0.276985,-0.756543 -0.276986,-0.243913 -0.711068,-0.243913 -0.268718,0 -0.508497,0.107487 -0.239778,0.103353 -0.359668,0.289388 0.02894,0.132292 0.07028,0.314193 0.04547,0.181901 0.04547,0.355534 0,0.157096 -0.132291,0.28112 -0.128158,0.119889 -0.384473,0.119889 -0.206706,0 -0.318327,-0.14056 -0.111621,-0.144694 -0.111621,-0.384473 0,-0.223242 0.124023,-0.446484 0.124024,-0.227376 0.355534,-0.417546 0.227377,-0.186035 0.56224,-0.30179 0.334864,-0.115756 0.72347,-0.115756 0.847494,0 1.343588,0.380339 0.500228,0.376205 0.500228,1.008725 0,0.30179 -0.09095,0.549837 -0.08682,0.248047 -0.285254,0.438216 -0.219108,0.21084 -0.512631,0.363803 -0.293522,0.148828 -0.897103,0.417545 -0.359668,0.161231 -0.669727,0.338998 -0.310058,0.173633 -0.508496,0.338997 h 3.179135 z"
           style="font-size:8.46667px;line-height:1.25;font-family:Georgia;-inkscape-font-specification:Georgia;text-align:center;letter-spacing:0px;word-spacing:0px;text-anchor:middle;stroke-width:0.264583"
           id="path2147" />
        <path
           d="m 39.377786,95.906075 q 0.264583,0.318327 0.392741,0.748275 0.132292,0.425814 0.132292,0.892969 0,0.56224 -0.161231,1.008725 -0.161231,0.44235 -0.44235,0.735873 -0.289389,0.30179 -0.686264,0.454752 -0.396875,0.152963 -0.884701,0.152963 -0.533301,0 -0.950846,-0.177767 -0.417546,-0.177767 -0.677995,-0.487826 -0.272852,-0.322461 -0.409278,-0.752409 -0.132292,-0.434082 -0.132292,-0.934311 0,-0.491959 0.128158,-0.905371 0.132292,-0.413412 0.409277,-0.748275 0.264584,-0.322461 0.68213,-0.508496 0.417545,-0.186036 0.954981,-0.186036 0.566373,0 0.971517,0.19017 0.405143,0.190169 0.673861,0.516764 z m -0.388607,1.641244 q 0,-0.983919 -0.338998,-1.525488 -0.334863,-0.54157 -0.913639,-0.54157 -0.587045,0 -0.926042,0.54157 -0.338998,0.541569 -0.338998,1.525488 0,0.934311 0.322461,1.504819 0.326595,0.566374 0.93431,0.566374 0.607715,0 0.934311,-0.566374 0.326595,-0.570508 0.326595,-1.504819 z"
           style="font-size:8.46667px;line-height:1.25;font-family:Georgia;-inkscape-font-specification:Georgia;text-align:center;letter-spacing:0px;word-spacing:0px;text-anchor:middle;stroke-width:0.264583"
           id="path2149" />
        <path
           d="M 44.657052,99.76734 H 40.783385 V 99.2051 q 0.111622,-0.128158 0.310059,-0.285254 0.198438,-0.16123 0.471289,-0.347266 0.165365,-0.111621 0.396876,-0.243913 0.23151,-0.132291 0.525032,-0.289388 0.326595,-0.173633 0.500228,-0.305924 0.177767,-0.132292 0.322461,-0.326595 0.09508,-0.128158 0.152963,-0.318327 0.05788,-0.194304 0.05788,-0.549838 0,-0.516764 -0.276985,-0.756543 -0.276986,-0.243913 -0.711068,-0.243913 -0.268718,0 -0.508497,0.107487 -0.239778,0.103353 -0.359668,0.289388 0.02894,0.132292 0.07028,0.314193 0.04548,0.181901 0.04548,0.355534 0,0.157096 -0.132291,0.28112 -0.128158,0.119889 -0.384473,0.119889 -0.206706,0 -0.318327,-0.14056 -0.111621,-0.144694 -0.111621,-0.384473 0,-0.223242 0.124023,-0.446484 0.124024,-0.227376 0.355534,-0.417546 0.227377,-0.186035 0.56224,-0.30179 0.334864,-0.115756 0.72347,-0.115756 0.847494,0 1.343588,0.380339 0.500228,0.376205 0.500228,1.008725 0,0.30179 -0.09095,0.549837 -0.08682,0.248047 -0.285254,0.438216 -0.219108,0.21084 -0.512631,0.363803 -0.293522,0.148828 -0.897103,0.417545 -0.359668,0.161231 -0.669727,0.338998 -0.310058,0.173633 -0.508496,0.338997 h 3.179135 z"
           style="font-size:8.46667px;line-height:1.25;font-family:Georgia;-inkscape-font-specification:Georgia;text-align:center;letter-spacing:0px;word-spacing:0px;text-anchor:middle;stroke-width:0.264583"
           id="path2151" />
        <path
           d="m 47.071376,101.27629 q -0.388607,0 -0.711068,-0.0992 -0.322462,-0.0951 -0.553972,-0.26045 -0.231511,-0.16536 -0.359668,-0.38033 -0.124024,-0.21498 -0.124024,-0.44235 0,-0.202577 0.09922,-0.363807 0.09922,-0.165365 0.318327,-0.165365 0.248047,0 0.376205,0.124024 0.132291,0.119889 0.132291,0.276985 0,0.132293 -0.04547,0.334863 -0.04134,0.20257 -0.06615,0.28939 0.02894,0.0372 0.103353,0.0992 0.07855,0.062 0.19017,0.11162 0.132291,0.062 0.276985,0.0992 0.144694,0.0372 0.409278,0.0372 0.248047,0 0.475423,-0.0827 0.231511,-0.0827 0.405144,-0.26458 0.181901,-0.19017 0.281119,-0.44649 0.103353,-0.252177 0.103353,-0.665588 0,-0.223243 -0.04961,-0.442351 -0.04548,-0.219108 -0.173633,-0.380338 -0.128157,-0.161231 -0.3514,-0.248047 -0.219108,-0.09095 -0.558105,-0.09095 h -0.54157 v -0.475423 h 0.359668 q 0.570508,0 0.82269,-0.314193 0.252181,-0.314193 0.252181,-0.946713 0,-0.516764 -0.243913,-0.777214 -0.243913,-0.264583 -0.690398,-0.264583 -0.214974,0 -0.355534,0.05374 -0.136425,0.04961 -0.223242,0.09922 -0.103353,0.05788 -0.169499,0.128158 -0.06615,0.07028 -0.09922,0.103353 0.02894,0.132292 0.07028,0.326595 0.04134,0.190169 0.04134,0.363802 0,0.152963 -0.132292,0.276986 -0.128158,0.119889 -0.380339,0.119889 -0.219108,0 -0.322461,-0.157096 -0.09922,-0.157096 -0.09922,-0.363802 0,-0.214974 0.11989,-0.438217 0.119889,-0.223242 0.355534,-0.417545 0.235644,-0.194304 0.574642,-0.314193 0.338997,-0.11989 0.781348,-0.11989 0.508496,0 0.839225,0.152963 0.334864,0.148828 0.525033,0.363802 0.186035,0.21084 0.256315,0.44235 0.07028,0.231511 0.07028,0.396876 0,0.206705 -0.05788,0.417545 -0.05788,0.206706 -0.19017,0.384473 -0.144694,0.194304 -0.384472,0.355534 -0.235645,0.157097 -0.595313,0.256315 v 0.06615 q 0.23151,0.02067 0.49196,0.103353 0.264583,0.08268 0.475423,0.243913 0.219108,0.169499 0.359668,0.438216 0.14056,0.264584 0.14056,0.673861 0,0.793749 -0.636654,1.285709 -0.636654,0.49609 -1.591634,0.49609 z"
           style="font-size:8.46667px;line-height:1.25;font-family:Georgia;-inkscape-font-specification:Georgia;text-align:center;letter-spacing:0px;word-spacing:0px;text-anchor:middle;stroke-width:0.264583"
           id="path2153" />
      </g>
    </g>
  </g>
</svg>
