<?xml version="1.0" encoding="UTF-8" standalone="no"?>
<svg
   xmlns:dc="http://purl.org/dc/elements/1.1/"
   xmlns:cc="http://creativecommons.org/ns#"
   xmlns:rdf="http://www.w3.org/1999/02/22-rdf-syntax-ns#"
   xmlns:svg="http://www.w3.org/2000/svg"
   xmlns="http://www.w3.org/2000/svg"
   xmlns:sodipodi="http://sodipodi.sourceforge.net/DTD/sodipodi-0.dtd"
   xmlns:inkscape="http://www.inkscape.org/namespaces/inkscape"
   width="744.094488189"
   height="1052.36220472"
   id="svg4194"
   version="1.1"
   inkscape:version="0.91 r13725"
   sodipodi:docname="Back.svg">
  <metadata
     id="metadata4311">
    <rdf:RDF>
      <cc:Work
         rdf:about="">
        <dc:format>image/svg+xml</dc:format>
        <dc:type
           rdf:resource="http://purl.org/dc/dcmitype/StillImage" />
        <dc:title></dc:title>
      </cc:Work>
    </rdf:RDF>
  </metadata>
  <sodipodi:namedview
     pagecolor="#ffffff"
     bordercolor="#666666"
     borderopacity="1"
     objecttolerance="10"
     gridtolerance="10"
     guidetolerance="10"
     inkscape:pageopacity="0"
     inkscape:pageshadow="2"
     inkscape:window-width="1920"
     inkscape:window-height="1137"
     id="namedview4309"
     showgrid="false"
     inkscape:zoom="1.2685914"
     inkscape:cx="493.74836"
     inkscape:cy="133.23503"
     inkscape:window-x="-8"
     inkscape:window-y="-8"
     inkscape:window-maximized="1"
     inkscape:current-layer="g4213" />
  <desc
     id="desc4196">C:\Users\Tim\Documents\Arduino\RGB Matrix\Solidworks model recessed\DXF\Back.DXF - scale = 1.000000, origin = (0.000000, 0.000000), auto = False</desc>
  <defs
     id="defs4198">
    <marker
       refY="0.0"
       refX="0.0"
       style="overflow:visible"
       id="DistanceX"
       orient="auto">
      <path
         style="stroke:#000000; stroke-width:0.5"
         d="M 3,-3 L -3,3 M 0,-5 L  0,5"
         id="path4201" />
    </marker>
    <pattern
       height="8"
       width="8"
       patternUnits="userSpaceOnUse"
       y="0"
       x="0"
       id="Hatch">
      <path
         linecap="square"
         stroke="#000000"
         stroke-width="0.25"
         d="M8 4 l-4,4"
         id="path4204" />
      <path
         linecap="square"
         stroke="#000000"
         stroke-width="0.25"
         d="M6 2 l-4,4"
         id="path4206" />
      <path
         linecap="square"
         stroke="#000000"
         stroke-width="0.25"
         d="M4 0 l-4,4"
         id="path4208" />
    </pattern>
    <symbol
       id="*Model_Space" />
    <symbol
       id="*Paper_Space" />
    <symbol
       id="*Paper_Space0" />
  </defs>
  <g
     inkscape:label="0"
     inkscape:groupmode="layer"
     id="g4213">
    <path
       style="fill:none;stroke:#ff0000;stroke-width:0.89999998;stroke-linecap:round"
       d="m 484.95319,793.27587 a 9.7440945,9.7440945 0 1 0 -19.48819,0 9.7440945,9.7440945 0 0 0 19.48819,0 z"
       id="path4215"
       inkscape:connector-curvature="0" />
    <path
       style="fill:none;stroke:#ff0000;stroke-width:0.89999998;stroke-linecap:round"
       d="m 625.09098,805.48257 a 6.023622,6.023622 0 1 0 -12.04724,0 6.023622,6.023622 0 1 0 12.04724,0 z"
       id="path4217"
       inkscape:connector-curvature="0" />
    <path
       style="fill:none;stroke:#ff0000;stroke-width:0.89999998;stroke-linecap:round"
       d="m 625.09098,781.06918 a 6.023622,6.023622 0 1 0 -12.04724,0 6.023622,6.023622 0 1 0 12.04724,0 z"
       id="path4219"
       inkscape:connector-curvature="0" />
    <path
       style="fill:none;stroke:#ff0000;stroke-width:0.89999998;stroke-linecap:round"
       d="m 551.92169,805.48257 a 6.023622,6.023622 0 1 0 -12.04724,0 6.023622,6.023622 0 1 0 12.04724,0 z"
       id="path4221"
       inkscape:connector-curvature="0" />
    <path
       style="fill:none;stroke:#ff0000;stroke-width:0.89999998;stroke-linecap:round"
       d="m 551.92169,781.06918 a 6.023622,6.023622 0 1 0 -12.04724,0 6.023622,6.023622 0 1 0 12.04724,0 z"
       id="path4223"
       inkscape:connector-curvature="0" />
    <path
       style="fill:none;stroke:#ff0000;stroke-width:0.89999998;stroke-linecap:round"
       d="m 376.70515,678.11839 a 6.023622,6.023622 0 1 0 -12.04724,0 6.023622,6.023622 0 1 0 12.04724,0 z"
       id="path4225"
       inkscape:connector-curvature="0" />
    <path
       style="fill:none;stroke:#ff0000;stroke-width:0.89999998;stroke-linecap:round"
       d="m 670.79964,720.99241 a 6.0236225,6.0236225 0 1 0 -12.04724,0 6.0236225,6.0236225 0 0 0 12.04724,0 z"
       id="path4227"
       inkscape:connector-curvature="0" />
    <path
       style="fill:none;stroke:#ff0000;stroke-width:0.89999998;stroke-linecap:round"
       d="m 670.79964,996.6617 a 6.0236225,6.0236225 0 1 0 -12.04724,0 6.0236225,6.0236225 0 0 0 12.04724,0 z"
       id="path4229"
       inkscape:connector-curvature="0" />
    <path
       style="fill:none;stroke:#ff0000;stroke-width:0.89999998;stroke-linecap:round"
       d="m 82.610665,996.6617 a 6.023622,6.023622 0 1 0 -12.047244,0 6.023622,6.023622 0 0 0 12.047244,0 z"
       id="path4231"
       inkscape:connector-curvature="0" />
    <path
       style="fill:none;stroke:#ff0000;stroke-width:0.89999998;stroke-linecap:round"
       d="m 82.610665,720.99241 a 6.023622,6.023622 0 1 0 -12.047244,0 6.023622,6.023622 0 0 0 12.047244,0 z"
       id="path4233"
       inkscape:connector-curvature="0" />
    <path
       style="fill:none;stroke:#ff0000;stroke-width:0.89999998;stroke-linecap:round"
       d="m 376.70515,1039.5357 a 6.023622,6.023622 0 1 0 -12.04724,0 6.023622,6.023622 0 1 0 12.04724,0 z"
       id="path4235"
       inkscape:connector-curvature="0" />
    <path
       style="fill:none;stroke:#ff0000;stroke-width:0.89999998;stroke-linecap:round"
       d="m 28.752397,686.97666 0,83.26772"
       id="path4237"
       inkscape:connector-curvature="0" />
    <path
       style="fill:none;stroke:#ff0000;stroke-width:0.89999998;stroke-linecap:round"
       d="m 191.74452,686.97666 -162.992123,0"
       id="path4239"
       inkscape:connector-curvature="0" />
    <path
       style="fill:none;stroke:#ff0000;stroke-width:0.89999998;stroke-linecap:round"
       d="m 191.74452,669.26012 0,17.71654"
       id="path4241"
       inkscape:connector-curvature="0" />
    <path
       style="fill:none;stroke:#ff0000;stroke-width:0.89999998;stroke-linecap:round"
       d="m 191.74452,669.26012 357.87402,0"
       id="path4243"
       inkscape:connector-curvature="0" />
    <path
       style="fill:none;stroke:#ff0000;stroke-width:0.89999998;stroke-linecap:round"
       d="m 712.61067,686.97666 -162.99213,0"
       id="path4245"
       inkscape:connector-curvature="0" />
    <path
       style="fill:none;stroke:#ff0000;stroke-width:0.89999998;stroke-linecap:round"
       d="m 712.61067,770.24438 0,-83.26772"
       id="path4247"
       inkscape:connector-curvature="0" />
    <path
       style="fill:none;stroke:#ff0000;stroke-width:0.89999998;stroke-linecap:round"
       d="m 730.3272,770.24438 -17.71653,0"
       id="path4249"
       inkscape:connector-curvature="0" />
    <path
       style="fill:none;stroke:#ff0000;stroke-width:0.89999998;stroke-linecap:round"
       d="m 712.61067,947.40973 17.71653,0"
       id="path4251"
       inkscape:connector-curvature="0" />
    <path
       style="fill:none;stroke:#ff0000;stroke-width:0.89999998;stroke-linecap:round"
       d="m 712.61067,1030.6774 0,-83.26767"
       id="path4253"
       inkscape:connector-curvature="0" />
    <path
       style="fill:none;stroke:#ff0000;stroke-width:0.89999998;stroke-linecap:round"
       d="m 549.61854,1030.6774 162.99213,0"
       id="path4255"
       inkscape:connector-curvature="0" />
    <path
       style="fill:none;stroke:#ff0000;stroke-width:0.89999998;stroke-linecap:round"
       d="m 549.61854,1048.394 0,-17.7166"
       id="path4257"
       inkscape:connector-curvature="0" />
    <path
       style="fill:none;stroke:#ff0000;stroke-width:0.89999998;stroke-linecap:round"
       d="m 191.74452,1030.6774 0,17.7166"
       id="path4259"
       inkscape:connector-curvature="0" />
    <path
       style="fill:none;stroke:#ff0000;stroke-width:0.89999998;stroke-linecap:round"
       d="m 28.752397,947.40973 0,83.26767"
       id="path4261"
       inkscape:connector-curvature="0" />
    <path
       style="fill:none;stroke:#ff0000;stroke-width:0.89999998;stroke-linecap:round"
       d="m 11.035862,947.40973 17.716535,0"
       id="path4263"
       inkscape:connector-curvature="0" />
    <path
       style="fill:none;stroke:#ff0000;stroke-width:0.89999998;stroke-linecap:round"
       d="m 11.035862,947.40973 0,-177.16535"
       id="path4265"
       inkscape:connector-curvature="0" />
    <path
       style="fill:none;stroke:#ff0000;stroke-width:0.89999998;stroke-linecap:round"
       d="m 28.752397,770.24438 -17.716535,0"
       id="path4267"
       inkscape:connector-curvature="0" />
    <path
       style="fill:none;stroke:#ff0000;stroke-width:0.89999998;stroke-linecap:round"
       d="m 456.07523,915.17377 0,18.53356"
       id="path4269"
       inkscape:connector-curvature="0" />
    <path
       style="fill:none;stroke:#ff0000;stroke-width:0.89999998;stroke-linecap:round"
       d="m 494.34295,933.70733 0,-18.53356"
       id="path4271"
       inkscape:connector-curvature="0" />
    <path
       style="fill:none;stroke:#ff0000;stroke-width:0.89999998;stroke-linecap:round"
       d="m 555.23504,916.42012 0,18.19938"
       id="path4273"
       inkscape:connector-curvature="0" />
    <path
       style="fill:none;stroke:#ff0000;stroke-width:0.89999998;stroke-linecap:round"
       d="m 593.50275,934.8149 0,-18.64471"
       id="path4275"
       inkscape:connector-curvature="0" />
    <path
       style="fill:none;stroke:#ff0000;stroke-width:0.89999998;stroke-linecap:round"
       d="m 558.47681,810.99241 31.88976,0"
       id="path4277"
       inkscape:connector-curvature="0" />
    <path
       style="fill:none;stroke:#ff0000;stroke-width:0.89999998;stroke-linecap:round"
       d="m 590.36657,810.99241 0,-35.43307"
       id="path4279"
       inkscape:connector-curvature="0" />
    <path
       style="fill:none;stroke:#ff0000;stroke-width:0.89999998;stroke-linecap:round"
       d="m 590.36657,775.55934 -31.88976,0"
       id="path4281"
       inkscape:connector-curvature="0" />
    <path
       style="fill:none;stroke:#ff0000;stroke-width:0.89999998;stroke-linecap:round"
       d="m 558.47681,775.55934 0,35.43307"
       id="path4283"
       inkscape:connector-curvature="0" />
    <path
       style="fill:none;stroke:#ff0000;stroke-width:0.89999998;stroke-linecap:round"
       d="m 28.752397,1030.6774 162.992123,0"
       id="path4285"
       inkscape:connector-curvature="0" />
    <path
       style="fill:none;stroke:#ff0000;stroke-width:0.89999998;stroke-linecap:round"
       d="m 549.61854,686.97666 0,-17.71654"
       id="path4287"
       inkscape:connector-curvature="0" />
    <path
       style="fill:none;stroke:#ff0000;stroke-width:0.89999998;stroke-linecap:round"
       d="m 549.61854,1048.394 -357.87402,0"
       id="path4289"
       inkscape:connector-curvature="0" />
    <path
       style="fill:none;stroke:#ff0000;stroke-width:0.89999998;stroke-linecap:round"
       d="m 730.3272,770.24438 0,177.16535"
       id="path4291"
       inkscape:connector-curvature="0" />
    <path
       style="fill:none;stroke:#ff0000;stroke-width:0.89999998;stroke-linecap:round"
       d="m 456.07523,933.70733 a 21.287005,21.287005 0 0 0 38.26772,0"
       id="path4293"
       inkscape:connector-curvature="0" />
    <path
       style="fill:none;stroke:#ff0000;stroke-width:0.89999998;stroke-linecap:round"
       d="m 494.34295,915.17377 a 21.23268,21.23268 0 0 0 -38.26772,0"
       id="path4295"
       inkscape:connector-curvature="0" />
    <path
       style="fill:none;stroke:#ff0000;stroke-width:0.89999998;stroke-linecap:round"
       d="m 555.23504,934.6195 a 21.748817,21.748817 0 0 0 38.26771,0.1954"
       id="path4297"
       inkscape:connector-curvature="0" />
    <path
       style="fill:none;stroke:#ff0000;stroke-width:0.89999998;stroke-linecap:round"
       d="m 593.50275,916.17019 a 20.771594,20.771594 0 0 0 -38.26771,0.24993"
       id="path4299"
       inkscape:connector-curvature="0" />
  </g>
</svg>
