<?xml version="1.0" encoding="UTF-8" standalone="no"?>
<!-- Created with Inkscape (http://www.inkscape.org/) -->

<svg
   width="27mm"
   height="116mm"
   viewBox="0 0 27 116"
   version="1.1"
   id="svg5"
   xml:space="preserve"
   inkscape:version="1.2 (dc2aedaf03, 2022-05-15)"
   sodipodi:docname="231115 Parts.svg"
   xmlns:inkscape="http://www.inkscape.org/namespaces/inkscape"
   xmlns:sodipodi="http://sodipodi.sourceforge.net/DTD/sodipodi-0.dtd"
   xmlns="http://www.w3.org/2000/svg"
   xmlns:svg="http://www.w3.org/2000/svg"><sodipodi:namedview
     id="namedview7"
     pagecolor="#ffffff"
     bordercolor="#666666"
     borderopacity="1.0"
     inkscape:showpageshadow="2"
     inkscape:pageopacity="0.0"
     inkscape:pagecheckerboard="0"
     inkscape:deskcolor="#d1d1d1"
     inkscape:document-units="mm"
     showgrid="false"
     inkscape:zoom="2.3786088"
     inkscape:cx="146.72442"
     inkscape:cy="219.87643"
     inkscape:window-width="1920"
     inkscape:window-height="1137"
     inkscape:window-x="-8"
     inkscape:window-y="-8"
     inkscape:window-maximized="1"
     inkscape:current-layer="layer1" /><defs
     id="defs2"><marker
       id="DistanceX"
       orient="auto"
       refX="0"
       refY="0"
       style="overflow:visible"><path
         d="M 3,-3 -3,3 M 0,-5 V 5"
         style="stroke:#000000;stroke-width:0.5"
         id="path184" /></marker><pattern
       id="Hatch"
       patternUnits="userSpaceOnUse"
       width="8"
       height="8"
       x="0"
       y="0"><path
         d="M8 4 l-4,4"
         stroke="#000000"
         stroke-width="0.25"
         linecap="square"
         id="path187" /><path
         d="M6 2 l-4,4"
         stroke="#000000"
         stroke-width="0.25"
         linecap="square"
         id="path189" /><path
         d="M4 0 l-4,4"
         stroke="#000000"
         stroke-width="0.25"
         linecap="square"
         id="path191" /></pattern><symbol
       id="*MODEL_SPACE" /><symbol
       id="*PAPER_SPACE" /><symbol
       id="*PAPER_SPACE0" /><marker
       id="DistanceX-5"
       orient="auto"
       refX="0"
       refY="0"
       style="overflow:visible"><path
         d="M 3,-3 -3,3 M 0,-5 V 5"
         style="stroke:#000000;stroke-width:0.5"
         id="path358" /></marker><pattern
       id="Hatch-7"
       patternUnits="userSpaceOnUse"
       width="8"
       height="8"
       x="0"
       y="0"><path
         d="M8 4 l-4,4"
         stroke="#000000"
         stroke-width="0.25"
         linecap="square"
         id="path361" /><path
         d="M6 2 l-4,4"
         stroke="#000000"
         stroke-width="0.25"
         linecap="square"
         id="path363" /><path
         d="M4 0 l-4,4"
         stroke="#000000"
         stroke-width="0.25"
         linecap="square"
         id="path365" /></pattern><symbol
       id="*MODEL_SPACE-1" /><symbol
       id="*PAPER_SPACE-3" /><symbol
       id="*PAPER_SPACE0-7" /></defs><g
     inkscape:label="Layer 1"
     inkscape:groupmode="layer"
     id="layer1"><g
       inkscape:label="0"
       id="g217"
       transform="matrix(0.26458333,0,0,0.26458333,0.13229167,-261.86765)"
       style="stroke:#ff0000"><path
         d="m 85.03937,1046.9291 a 35.905512,35.905512 0 0 0 -71.811024,0 35.905512,35.905512 0 0 0 71.811024,0 z"
         style="fill:none;stroke:#ff0000;stroke-linecap:round"
         id="path199" /><path
         d="m 15.968504,999.68504 a 6.519685,6.519685 0 0 0 -13.03937,0 6.519685,6.519685 0 0 0 13.03937,0 z"
         style="fill:none;stroke:#ff0000;stroke-linecap:round"
         id="path201" /><path
         d="m 15.968504,1079.0551 a 6.519685,6.519685 0 0 0 -13.03937,0 6.519685,6.519685 0 0 0 13.03937,0 z"
         style="fill:none;stroke:#ff0000;stroke-linecap:round"
         id="path203" /><path
         d="m 95.338583,1079.0551 a 6.519685,6.519685 0 0 0 -13.03937,0 6.519685,6.519685 0 0 0 13.03937,0 z"
         style="fill:none;stroke:#ff0000;stroke-linecap:round"
         id="path205" /><path
         d="m 95.338583,999.68504 a 6.519685,6.519685 0 0 0 -13.03937,0 6.519685,6.519685 0 0 0 13.03937,0 z"
         style="fill:none;stroke:#ff0000;stroke-linecap:round"
         id="path207" /><path
         style="fill:none;stroke:#ff0000;stroke-linecap:round"
         d="M 0,990.236 V 1122.52"
         id="path209" /><path
         style="fill:none;stroke:#ff0000;stroke-linecap:round"
         d="M 0,1122.52 H 98.2677"
         id="path211" /><path
         style="fill:none;stroke:#ff0000;stroke-linecap:round"
         d="M 98.2677,1122.52 V 990.236"
         id="path213" /><path
         style="fill:none;stroke:#ff0000;stroke-linecap:round"
         d="M 98.2677,990.236 H 0"
         id="path215" /></g><g
       inkscape:label="0"
       id="g421"
       transform="matrix(0.26458333,0,0,0.26458333,0.13229167,-181.86744)"
       style="stroke:#ff0000"><path
         style="fill:none;stroke:#ff0000;stroke-linecap:round"
         d="M 25.4173,1113.92 H 15.5906"
         id="path373" /><path
         d="m 15.590551,1100.8819 a 6.5197,6.5197 0 0 0 0,13.0394"
         style="fill:none;stroke:#ff0000;stroke-linecap:round"
         id="path375" /><path
         style="fill:none;stroke:#ff0000;stroke-linecap:round"
         d="M 25.4173,1100.88 H 15.5906"
         id="path377" /><path
         d="m 25.417323,1113.9213 a 6.5197,6.5197 0 0 0 0,-13.0394"
         style="fill:none;stroke:#ff0000;stroke-linecap:round"
         id="path379" /><path
         d="m 78.330709,1113.9213 a 6.5197,6.5197 0 0 0 0,-13.0394"
         style="fill:none;stroke:#ff0000;stroke-linecap:round"
         id="path381" /><path
         style="fill:none;stroke:#ff0000;stroke-linecap:round"
         d="M 78.3307,1113.92 H 68.5039"
         id="path383" /><path
         d="m 68.503937,1100.8819 a 6.5197,6.5197 0 0 0 0,13.0394"
         style="fill:none;stroke:#ff0000;stroke-linecap:round"
         id="path385" /><path
         style="fill:none;stroke:#ff0000;stroke-linecap:round"
         d="M 78.3307,1100.88 H 68.5039"
         id="path387" /><path
         style="fill:none;stroke:#ff0000;stroke-linecap:round"
         d="M 10.1102,1020.47 H 30.8976"
         id="path389" /><path
         style="fill:none;stroke:#ff0000;stroke-linecap:round"
         d="M 10.1102,831.496 V 1020.47"
         id="path391" /><path
         style="fill:none;stroke:#ff0000;stroke-linecap:round"
         d="M 30.8976,831.496 H 10.1102"
         id="path393" /><path
         style="fill:none;stroke:#ff0000;stroke-linecap:round"
         d="M 30.8976,1020.47 V 831.496"
         id="path395" /><path
         style="fill:none;stroke:#ff0000;stroke-linecap:round"
         d="M 43.4646,1046.93 H 54.8032"
         id="path397" /><path
         style="fill:none;stroke:#ff0000;stroke-linecap:round"
         d="M 43.4646,857.953 V 1046.93"
         id="path399" /><path
         style="fill:none;stroke:#ff0000;stroke-linecap:round"
         d="M 54.8032,857.953 H 43.4646"
         id="path401" /><path
         style="fill:none;stroke:#ff0000;stroke-linecap:round"
         d="M 54.8032,1046.93 V 857.953"
         id="path403" /><path
         style="fill:none;stroke:#ff0000;stroke-linecap:round"
         d="M 67.3701,1073.39 H 88.1575"
         id="path405" /><path
         style="fill:none;stroke:#ff0000;stroke-linecap:round"
         d="M 67.3701,884.409 V 1073.39"
         id="path407" /><path
         style="fill:none;stroke:#ff0000;stroke-linecap:round"
         d="M 88.1575,884.409 H 67.3701"
         id="path409" /><path
         style="fill:none;stroke:#ff0000;stroke-linecap:round"
         d="M 88.1575,1073.39 V 884.409"
         id="path411" /><path
         style="fill:none;stroke:#ff0000;stroke-linecap:round"
         d="M 0,820.157 V 1122.52"
         id="path413" /><path
         style="fill:none;stroke:#ff0000;stroke-linecap:round"
         d="M 0,1122.52 H 98.2677"
         id="path415" /><path
         style="fill:none;stroke:#ff0000;stroke-linecap:round"
         d="M 98.2677,1122.52 V 820.157"
         id="path417" /><path
         style="fill:none;stroke:#ff0000;stroke-linecap:round"
         d="M 98.2677,820.157 H 0"
         id="path419" /></g></g></svg>
